<?xml version="1.0" encoding="UTF-8" standalone="no"?>
<!DOCTYPE svg PUBLIC "-//W3C//DTD SVG 1.1//EN"
 "http://www.w3.org/Graphics/SVG/1.1/DTD/svg11.dtd">
<!-- Generated by graphviz version 2.36.0 (20140111.2315)
 -->
<!-- Title: IControl.h Pages: 1 -->
<!--zoomable 476 -->
<svg id="main" version="1.1" xmlns="http://www.w3.org/2000/svg" xmlns:xlink="http://www.w3.org/1999/xlink" xml:space="preserve" onload="init(evt)">
<style type="text/css"><![CDATA[
.edge:hover path { stroke: red; }
.edge:hover polygon { stroke: red; fill: red; }
]]></style>
<script type="text/javascript"><![CDATA[
var edges = document.getElementsByTagName('g');
if (edges && edges.length) {
  for (var i=0;i<edges.length;i++) {
    if (edges[i].id.substr(0,4)=='edge') {
      edges[i].setAttribute('class','edge');
    }
  }
}
]]></script>
        <defs>
                <circle id="rim" cx="0" cy="0" r="7"/>
                <circle id="rim2" cx="0" cy="0" r="3.5"/>
                <g id="zoomPlus">
                        <use xlink:href="#rim" fill="#404040">
                                <set attributeName="fill" to="#808080" begin="zoomplus.mouseover" end="zoomplus.mouseout"/>
                        </use>
                        <path d="M-4,0h8M0,-4v8" fill="none" stroke="white" stroke-width="1.5" pointer-events="none"/>
                </g>
                <g id="zoomMin">
                        <use xlink:href="#rim" fill="#404040">
                                <set attributeName="fill" to="#808080" begin="zoomminus.mouseover" end="zoomminus.mouseout"/>
                        </use>
                        <path d="M-4,0h8" fill="none" stroke="white" stroke-width="1.5" pointer-events="none"/>
                </g>
                <g id="dirArrow">
                        <path fill="none" stroke="white" stroke-width="1.5" d="M0,-3.0v7 M-2.5,-0.5L0,-3.0L2.5,-0.5"/>
                </g>
               <g id="resetDef">
                       <use xlink:href="#rim2" fill="#404040">
                               <set attributeName="fill" to="#808080" begin="reset.mouseover" end="reset.mouseout"/>
                       </use>
               </g>
        </defs>

<script type="text/javascript">
var viewWidth = 1246;
var viewHeight = 476;
var sectionId = 'dynsection-0';
</script>
<script xlink:href="svgpan.js"/>
<svg id="graph" class="graph">
<g id="viewport">
<title>IControl.h</title>
<polygon fill="white" stroke="none" points="-4,4 -4,-472 1242,-472 1242,4 -4,4"/>
<!-- Node1 -->
<g id="node1" class="node"><title>Node1</title>
<polygon fill="#bfbfbf" stroke="black" points="906.5,-448.5 906.5,-467.5 965.5,-467.5 965.5,-448.5 906.5,-448.5"/>
<text text-anchor="middle" x="936" y="-455.5" font-family="Helvetica,sans-Serif" font-size="10.00">IControl.h</text>
</g>
<!-- Node2 -->
<g id="node2" class="node"><title>Node2</title>
<polygon fill="white" stroke="#bfbfbf" points="609,-56.5 609,-75.5 655,-75.5 655,-56.5 609,-56.5"/>
<text text-anchor="middle" x="632" y="-63.5" font-family="Helvetica,sans-Serif" font-size="10.00">cstring</text>
</g>
<!-- Node1&#45;&gt;Node2 -->
<g id="edge1" class="edge"><title>Node1&#45;&gt;Node2</title>
<path fill="none" stroke="midnightblue" d="M906.399,-453.188C803.968,-439.286 467.955,-387.484 415,-300 378.879,-240.326 467.301,-280.619 519,-244 570.884,-207.25 576.818,-187.409 608,-132 616.296,-117.258 622.72,-99.0982 626.825,-85.7241"/>
<polygon fill="midnightblue" stroke="midnightblue" points="630.281,-86.3754 629.718,-75.7955 623.56,-84.4171 630.281,-86.3754"/>
</g>
<!-- Node3 -->
<g id="node3" class="node"><title>Node3</title>
<polygon fill="white" stroke="#bfbfbf" points="66.5,-56.5 66.5,-75.5 111.5,-75.5 111.5,-56.5 66.5,-56.5"/>
<text text-anchor="middle" x="89" y="-63.5" font-family="Helvetica,sans-Serif" font-size="10.00">cstdlib</text>
</g>
<!-- Node1&#45;&gt;Node3 -->
<g id="edge2" class="edge"><title>Node1&#45;&gt;Node3</title>
<path fill="none" stroke="midnightblue" d="M906.441,-456.707C747.34,-454.748 0,-440.569 0,-347 0,-347 0,-347 0,-177 0,-134.846 39.9901,-99.7791 66.3581,-81.2392"/>
<polygon fill="midnightblue" stroke="midnightblue" points="68.3766,-84.0994 74.7006,-75.5989 64.4559,-78.3003 68.3766,-84.0994"/>
</g>
<!-- Node4 -->
<g id="node4" class="node"><title>Node4</title>
<polygon fill="white" stroke="#bfbfbf" points="766,-112.5 766,-131.5 830,-131.5 830,-112.5 766,-112.5"/>
<text text-anchor="middle" x="798" y="-119.5" font-family="Helvetica,sans-Serif" font-size="10.00">wdlstring.h</text>
</g>
<!-- Node1&#45;&gt;Node4 -->
<g id="edge3" class="edge"><title>Node1&#45;&gt;Node4</title>
<path fill="none" stroke="midnightblue" d="M933.681,-448.356C926.609,-422.392 904.19,-343.004 878,-280 856.257,-227.694 824.113,-168.916 807.991,-140.394"/>
<polygon fill="midnightblue" stroke="midnightblue" points="810.989,-138.585 802.999,-131.627 804.906,-142.049 810.989,-138.585"/>
</g>
<!-- Node5 -->
<g id="node5" class="node"><title>Node5</title>
<polygon fill="white" stroke="#bfbfbf" points="1078,-392.5 1078,-411.5 1134,-411.5 1134,-392.5 1078,-392.5"/>
<text text-anchor="middle" x="1106" y="-399.5" font-family="Helvetica,sans-Serif" font-size="10.00">dirscan.h</text>
</g>
<!-- Node1&#45;&gt;Node5 -->
<g id="edge4" class="edge"><title>Node1&#45;&gt;Node5</title>
<path fill="none" stroke="midnightblue" d="M962.937,-448.444C991.66,-439.32 1037.33,-424.813 1069.32,-414.651"/>
<polygon fill="midnightblue" stroke="midnightblue" points="1070.72,-417.88 1079.19,-411.516 1068.6,-411.208 1070.72,-417.88"/>
</g>
<!-- Node6 -->
<g id="node6" class="node"><title>Node6</title>
<polygon fill="white" stroke="#bfbfbf" points="1002.5,-112.5 1002.5,-131.5 1051.5,-131.5 1051.5,-112.5 1002.5,-112.5"/>
<text text-anchor="middle" x="1027" y="-119.5" font-family="Helvetica,sans-Serif" font-size="10.00">ptrlist.h</text>
</g>
<!-- Node1&#45;&gt;Node6 -->
<g id="edge5" class="edge"><title>Node1&#45;&gt;Node6</title>
<path fill="none" stroke="midnightblue" d="M956.645,-448.421C989.496,-433.231 1050,-398.293 1050,-347 1050,-347 1050,-347 1050,-233 1050,-200.12 1040.03,-162.86 1033.22,-141.235"/>
<polygon fill="midnightblue" stroke="midnightblue" points="1036.54,-140.125 1030.1,-131.711 1029.89,-142.303 1036.54,-140.125"/>
</g>
<!-- Node7 -->
<g id="node7" class="node"><title>Node7</title>
<g id="a_node7"><a xlink:href="_i_graphics_8h.html" target="_top" xlink:title="The lowest level base class of an IGraphics context. ">
<polygon fill="white" stroke="black" points="694.5,-392.5 694.5,-411.5 761.5,-411.5 761.5,-392.5 694.5,-392.5"/>
<text text-anchor="middle" x="728" y="-399.5" font-family="Helvetica,sans-Serif" font-size="10.00">IGraphics.h</text>
</a>
</g>
</g>
<!-- Node1&#45;&gt;Node7 -->
<g id="edge6" class="edge"><title>Node1&#45;&gt;Node7</title>
<path fill="none" stroke="midnightblue" d="M906.199,-449.263C870.679,-440.042 811.065,-424.565 770.665,-414.077"/>
<polygon fill="midnightblue" stroke="midnightblue" points="771.393,-410.65 760.834,-411.524 769.634,-417.425 771.393,-410.65"/>
</g>
<!-- Node28 -->
<g id="node28" class="node"><title>Node28</title>
<g id="a_node28"><a xlink:href="_i_plug_delegate_8h_source.html" target="_top" xlink:title="IPlugDelegate.h">
<polygon fill="white" stroke="black" points="1152,-392.5 1152,-411.5 1238,-411.5 1238,-392.5 1152,-392.5"/>
<text text-anchor="middle" x="1195" y="-399.5" font-family="Helvetica,sans-Serif" font-size="10.00">IPlugDelegate.h</text>
</a>
</g>
</g>
<!-- Node1&#45;&gt;Node28 -->
<g id="edge50" class="edge"><title>Node1&#45;&gt;Node28</title>
<path fill="none" stroke="midnightblue" d="M965.711,-450.806C1009.28,-441.722 1091.07,-424.669 1144.27,-413.577"/>
<polygon fill="midnightblue" stroke="midnightblue" points="1145.1,-416.978 1154.18,-411.511 1143.68,-410.126 1145.1,-416.978"/>
</g>
<!-- Node8 -->
<g id="node8" class="node"><title>Node8</title>
<g id="a_node8"><a xlink:href="_i_graphics_constants_8h_source.html" target="_top" xlink:title="IGraphicsConstants.h">
<polygon fill="white" stroke="black" points="424,-280.5 424,-299.5 536,-299.5 536,-280.5 424,-280.5"/>
<text text-anchor="middle" x="480" y="-287.5" font-family="Helvetica,sans-Serif" font-size="10.00">IGraphicsConstants.h</text>
</a>
</g>
</g>
<!-- Node7&#45;&gt;Node8 -->
<g id="edge7" class="edge"><title>Node7&#45;&gt;Node8</title>
<path fill="none" stroke="midnightblue" d="M694.258,-397.019C657.915,-391.677 599.225,-379.943 554,-356 530.283,-343.444 507.835,-321.854 494.012,-307.026"/>
<polygon fill="midnightblue" stroke="midnightblue" points="496.577,-304.643 487.268,-299.584 491.39,-309.344 496.577,-304.643"/>
</g>
<!-- Node22 -->
<g id="node22" class="node"><title>Node22</title>
<g id="a_node22"><a xlink:href="_i_graphics_structs_8h_source.html" target="_top" xlink:title="IGraphicsStructs.h">
<polygon fill="white" stroke="black" points="679,-336.5 679,-355.5 777,-355.5 777,-336.5 679,-336.5"/>
<text text-anchor="middle" x="728" y="-343.5" font-family="Helvetica,sans-Serif" font-size="10.00">IGraphicsStructs.h</text>
</a>
</g>
</g>
<!-- Node7&#45;&gt;Node22 -->
<g id="edge31" class="edge"><title>Node7&#45;&gt;Node22</title>
<path fill="none" stroke="midnightblue" d="M728,-392.083C728,-385.006 728,-374.861 728,-365.986"/>
<polygon fill="midnightblue" stroke="midnightblue" points="731.5,-365.751 728,-355.751 724.5,-365.751 731.5,-365.751"/>
</g>
<!-- Node26 -->
<g id="node26" class="node"><title>Node26</title>
<g id="a_node26"><a xlink:href="_i_graphics_utilites_8h_source.html" target="_top" xlink:title="IGraphicsUtilites.h">
<polygon fill="white" stroke="black" points="563,-336.5 563,-355.5 661,-355.5 661,-336.5 563,-336.5"/>
<text text-anchor="middle" x="612" y="-343.5" font-family="Helvetica,sans-Serif" font-size="10.00">IGraphicsUtilites.h</text>
</a>
</g>
</g>
<!-- Node7&#45;&gt;Node26 -->
<g id="edge42" class="edge"><title>Node7&#45;&gt;Node26</title>
<path fill="none" stroke="midnightblue" d="M709.619,-392.444C690.784,-383.675 661.269,-369.935 639.621,-359.858"/>
<polygon fill="midnightblue" stroke="midnightblue" points="640.838,-356.564 630.295,-355.516 637.883,-362.91 640.838,-356.564"/>
</g>
<!-- Node27 -->
<g id="node27" class="node"><title>Node27</title>
<g id="a_node27"><a xlink:href="_i_popup_menu_8h.html" target="_top" xlink:title="A class for setting the contents of a pop up menu. ">
<polygon fill="white" stroke="black" points="860,-168.5 860,-187.5 940,-187.5 940,-168.5 860,-168.5"/>
<text text-anchor="middle" x="900" y="-175.5" font-family="Helvetica,sans-Serif" font-size="10.00">IPopupMenu.h</text>
</a>
</g>
</g>
<!-- Node7&#45;&gt;Node27 -->
<g id="edge43" class="edge"><title>Node7&#45;&gt;Node27</title>
<path fill="none" stroke="midnightblue" d="M750.795,-392.435C784.453,-378.528 846.819,-347.693 878,-300 898.568,-268.54 901.252,-223.13 900.922,-197.832"/>
<polygon fill="midnightblue" stroke="midnightblue" points="904.417,-197.634 900.611,-187.747 897.421,-197.85 904.417,-197.634"/>
</g>
<!-- Node9 -->
<g id="node9" class="node"><title>Node9</title>
<g id="a_node9"><a xlink:href="_i_plug_platform_8h.html" target="_top" xlink:title="Include to get consistently named preprocessor macros for different platforms and logging functionali...">
<polygon fill="white" stroke="black" points="427,-224.5 427,-243.5 511,-243.5 511,-224.5 427,-224.5"/>
<text text-anchor="middle" x="469" y="-231.5" font-family="Helvetica,sans-Serif" font-size="10.00">IPlugPlatform.h</text>
</a>
</g>
</g>
<!-- Node8&#45;&gt;Node9 -->
<g id="edge8" class="edge"><title>Node8&#45;&gt;Node9</title>
<path fill="none" stroke="midnightblue" d="M478.184,-280.083C476.726,-272.927 474.629,-262.635 472.807,-253.691"/>
<polygon fill="midnightblue" stroke="midnightblue" points="476.208,-252.851 470.783,-243.751 469.349,-254.248 476.208,-252.851"/>
</g>
<!-- Node9&#45;&gt;Node2 -->
<g id="edge9" class="edge"><title>Node9&#45;&gt;Node2</title>
<path fill="none" stroke="midnightblue" d="M480.641,-224.316C502.46,-207.739 550.421,-169.853 585,-132 598.736,-116.963 612.117,-97.893 621.066,-84.3054"/>
<polygon fill="midnightblue" stroke="midnightblue" points="624.015,-86.1902 626.503,-75.8915 618.136,-82.3911 624.015,-86.1902"/>
</g>
<!-- Node9&#45;&gt;Node3 -->
<g id="edge10" class="edge"><title>Node9&#45;&gt;Node3</title>
<path fill="none" stroke="midnightblue" d="M426.841,-226.348C363.5,-214.91 241.758,-187.223 153,-132 132.511,-119.252 113.739,-98.6515 101.898,-84.0625"/>
<polygon fill="midnightblue" stroke="midnightblue" points="104.399,-81.5802 95.4685,-75.8797 98.895,-85.9052 104.399,-81.5802"/>
</g>
<!-- Node10 -->
<g id="node10" class="node"><title>Node10</title>
<g id="a_node10"><a xlink:href="_i_plug_logger_8h.html" target="_top" xlink:title="IPlug logging a.k.a tracing functionailty. ">
<polygon fill="white" stroke="black" points="409.5,-168.5 409.5,-187.5 486.5,-187.5 486.5,-168.5 409.5,-168.5"/>
<text text-anchor="middle" x="448" y="-175.5" font-family="Helvetica,sans-Serif" font-size="10.00">IPlugLogger.h</text>
</a>
</g>
</g>
<!-- Node9&#45;&gt;Node10 -->
<g id="edge11" class="edge"><title>Node9&#45;&gt;Node10</title>
<path fill="none" stroke="midnightblue" d="M465.532,-224.083C462.688,-216.77 458.571,-206.181 455.04,-197.103"/>
<polygon fill="midnightblue" stroke="midnightblue" points="458.29,-195.803 451.403,-187.751 451.766,-198.34 458.29,-195.803"/>
</g>
<!-- Node10&#45;&gt;Node2 -->
<g id="edge16" class="edge"><title>Node10&#45;&gt;Node2</title>
<path fill="none" stroke="midnightblue" d="M475.602,-168.382C498.373,-160.634 531.039,-148.017 557,-132 579.766,-117.954 602.502,-97.0388 616.872,-82.7518"/>
<polygon fill="midnightblue" stroke="midnightblue" points="619.413,-85.1602 623.942,-75.5822 614.429,-80.2453 619.413,-85.1602"/>
</g>
<!-- Node10&#45;&gt;Node4 -->
<g id="edge19" class="edge"><title>Node10&#45;&gt;Node4</title>
<path fill="none" stroke="midnightblue" d="M486.546,-172.199C544.997,-164.732 659.469,-149.375 756,-132 756.101,-131.982 756.202,-131.964 756.303,-131.945"/>
<polygon fill="midnightblue" stroke="midnightblue" points="756.777,-135.418 765.939,-130.098 755.459,-128.543 756.777,-135.418"/>
</g>
<!-- Node11 -->
<g id="node11" class="node"><title>Node11</title>
<polygon fill="white" stroke="#bfbfbf" points="534.5,-56.5 534.5,-75.5 577.5,-75.5 577.5,-56.5 534.5,-56.5"/>
<text text-anchor="middle" x="556" y="-63.5" font-family="Helvetica,sans-Serif" font-size="10.00">cstdio</text>
</g>
<!-- Node10&#45;&gt;Node11 -->
<g id="edge12" class="edge"><title>Node10&#45;&gt;Node11</title>
<path fill="none" stroke="midnightblue" d="M478.839,-168.391C498.125,-161.506 522.058,-149.975 537,-132 547.912,-118.874 552.558,-99.7291 554.536,-85.6148"/>
<polygon fill="midnightblue" stroke="midnightblue" points="558.025,-85.9029 555.618,-75.585 551.065,-85.1515 558.025,-85.9029"/>
</g>
<!-- Node12 -->
<g id="node12" class="node"><title>Node12</title>
<polygon fill="white" stroke="#bfbfbf" points="130,-56.5 130,-75.5 176,-75.5 176,-56.5 130,-56.5"/>
<text text-anchor="middle" x="153" y="-63.5" font-family="Helvetica,sans-Serif" font-size="10.00">cctype</text>
</g>
<!-- Node10&#45;&gt;Node12 -->
<g id="edge13" class="edge"><title>Node10&#45;&gt;Node12</title>
<path fill="none" stroke="midnightblue" d="M409.302,-175.89C341.079,-173.126 203.363,-163.673 169,-132 156.334,-120.326 152.971,-100.381 152.385,-85.6555"/>
<polygon fill="midnightblue" stroke="midnightblue" points="155.885,-85.6305 152.369,-75.6359 148.885,-85.6413 155.885,-85.6305"/>
</g>
<!-- Node13 -->
<g id="node13" class="node"><title>Node13</title>
<polygon fill="white" stroke="#bfbfbf" points="284.5,-112.5 284.5,-131.5 333.5,-131.5 333.5,-112.5 284.5,-112.5"/>
<text text-anchor="middle" x="309" y="-119.5" font-family="Helvetica,sans-Serif" font-size="10.00">cstdarg</text>
</g>
<!-- Node10&#45;&gt;Node13 -->
<g id="edge14" class="edge"><title>Node10&#45;&gt;Node13</title>
<path fill="none" stroke="midnightblue" d="M425.975,-168.444C402.896,-159.478 366.438,-145.314 340.359,-135.183"/>
<polygon fill="midnightblue" stroke="midnightblue" points="341.511,-131.875 330.922,-131.516 338.976,-138.4 341.511,-131.875"/>
</g>
<!-- Node14 -->
<g id="node14" class="node"><title>Node14</title>
<polygon fill="white" stroke="#bfbfbf" points="352,-112.5 352,-131.5 398,-131.5 398,-112.5 352,-112.5"/>
<text text-anchor="middle" x="375" y="-119.5" font-family="Helvetica,sans-Serif" font-size="10.00">cstdint</text>
</g>
<!-- Node10&#45;&gt;Node14 -->
<g id="edge15" class="edge"><title>Node10&#45;&gt;Node14</title>
<path fill="none" stroke="midnightblue" d="M436.271,-168.324C425.163,-160.107 408.258,-147.602 395.017,-137.807"/>
<polygon fill="midnightblue" stroke="midnightblue" points="397.063,-134.967 386.942,-131.834 392.9,-140.595 397.063,-134.967"/>
</g>
<!-- Node15 -->
<g id="node15" class="node"><title>Node15</title>
<polygon fill="white" stroke="#bfbfbf" points="416.5,-112.5 416.5,-131.5 457.5,-131.5 457.5,-112.5 416.5,-112.5"/>
<text text-anchor="middle" x="437" y="-119.5" font-family="Helvetica,sans-Serif" font-size="10.00">ctime</text>
</g>
<!-- Node10&#45;&gt;Node15 -->
<g id="edge17" class="edge"><title>Node10&#45;&gt;Node15</title>
<path fill="none" stroke="midnightblue" d="M446.184,-168.083C444.726,-160.927 442.629,-150.635 440.807,-141.691"/>
<polygon fill="midnightblue" stroke="midnightblue" points="444.208,-140.851 438.783,-131.751 437.349,-142.248 444.208,-140.851"/>
</g>
<!-- Node16 -->
<g id="node16" class="node"><title>Node16</title>
<polygon fill="white" stroke="#bfbfbf" points="698.5,-112.5 698.5,-131.5 747.5,-131.5 747.5,-112.5 698.5,-112.5"/>
<text text-anchor="middle" x="723" y="-119.5" font-family="Helvetica,sans-Serif" font-size="10.00">cassert</text>
</g>
<!-- Node10&#45;&gt;Node16 -->
<g id="edge18" class="edge"><title>Node10&#45;&gt;Node16</title>
<path fill="none" stroke="midnightblue" d="M486.527,-169.435C540.185,-158.898 636.619,-139.962 688.205,-129.832"/>
<polygon fill="midnightblue" stroke="midnightblue" points="689.062,-133.231 698.2,-127.87 687.713,-126.362 689.062,-133.231"/>
</g>
<!-- Node17 -->
<g id="node17" class="node"><title>Node17</title>
<polygon fill="white" stroke="#bfbfbf" points="476,-112.5 476,-131.5 528,-131.5 528,-112.5 476,-112.5"/>
<text text-anchor="middle" x="502" y="-119.5" font-family="Helvetica,sans-Serif" font-size="10.00">mutex.h</text>
</g>
<!-- Node10&#45;&gt;Node17 -->
<g id="edge20" class="edge"><title>Node10&#45;&gt;Node17</title>
<path fill="none" stroke="midnightblue" d="M456.917,-168.083C464.78,-160.22 476.431,-148.569 485.919,-139.081"/>
<polygon fill="midnightblue" stroke="midnightblue" points="488.653,-141.297 493.249,-131.751 483.703,-136.347 488.653,-141.297"/>
</g>
<!-- Node18 -->
<g id="node18" class="node"><title>Node18</title>
<g id="a_node18"><a xlink:href="_i_plug_constants_8h.html" target="_top" xlink:title="Constant definitions, Types, magic numbers. ">
<polygon fill="white" stroke="black" points="194,-56.5 194,-75.5 286,-75.5 286,-56.5 194,-56.5"/>
<text text-anchor="middle" x="240" y="-63.5" font-family="Helvetica,sans-Serif" font-size="10.00">IPlugConstants.h</text>
</a>
</g>
</g>
<!-- Node10&#45;&gt;Node18 -->
<g id="edge21" class="edge"><title>Node10&#45;&gt;Node18</title>
<path fill="none" stroke="midnightblue" d="M409.359,-176.468C341.74,-174.63 206.335,-166.608 177,-132 161.122,-113.268 188.099,-93.1862 211.531,-80.3817"/>
<polygon fill="midnightblue" stroke="midnightblue" points="213.306,-83.4037 220.566,-75.6874 210.078,-77.192 213.306,-83.4037"/>
</g>
<!-- Node20 -->
<g id="node20" class="node"><title>Node20</title>
<g id="a_node20"><a xlink:href="_i_plug_utilities_8h.html" target="_top" xlink:title="Utility functions and macros. ">
<polygon fill="white" stroke="black" points="186,-112.5 186,-131.5 266,-131.5 266,-112.5 186,-112.5"/>
<text text-anchor="middle" x="226" y="-119.5" font-family="Helvetica,sans-Serif" font-size="10.00">IPlugUtilities.h</text>
</a>
</g>
</g>
<!-- Node10&#45;&gt;Node20 -->
<g id="edge23" class="edge"><title>Node10&#45;&gt;Node20</title>
<path fill="none" stroke="midnightblue" d="M412.823,-168.444C374.421,-159.102 312.824,-144.119 270.945,-133.933"/>
<polygon fill="midnightblue" stroke="midnightblue" points="271.556,-130.479 261.012,-131.516 269.901,-137.281 271.556,-130.479"/>
</g>
<!-- Node19 -->
<g id="node19" class="node"><title>Node19</title>
<polygon fill="white" stroke="#bfbfbf" points="109.5,-0.5 109.5,-19.5 168.5,-19.5 168.5,-0.5 109.5,-0.5"/>
<text text-anchor="middle" x="139" y="-7.5" font-family="Helvetica,sans-Serif" font-size="10.00">functional</text>
</g>
<!-- Node18&#45;&gt;Node19 -->
<g id="edge22" class="edge"><title>Node18&#45;&gt;Node19</title>
<path fill="none" stroke="midnightblue" d="M223.773,-56.324C207.649,-47.7034 182.7,-34.3643 164.036,-24.3855"/>
<polygon fill="midnightblue" stroke="midnightblue" points="165.656,-21.283 155.187,-19.6545 162.356,-27.456 165.656,-21.283"/>
</g>
<!-- Node20&#45;&gt;Node2 -->
<g id="edge27" class="edge"><title>Node20&#45;&gt;Node2</title>
<path fill="none" stroke="midnightblue" d="M266.075,-113.415C269.091,-112.913 272.092,-112.435 275,-112 412.615,-91.4203 448.506,-97.375 586,-76 590.161,-75.3531 594.52,-74.6 598.826,-73.81"/>
<polygon fill="midnightblue" stroke="midnightblue" points="599.494,-77.2456 608.661,-71.9324 598.182,-70.3698 599.494,-77.2456"/>
</g>
<!-- Node20&#45;&gt;Node3 -->
<g id="edge26" class="edge"><title>Node20&#45;&gt;Node3</title>
<path fill="none" stroke="midnightblue" d="M204.292,-112.444C181.645,-103.517 145.928,-89.4387 120.248,-79.3168"/>
<polygon fill="midnightblue" stroke="midnightblue" points="121.193,-75.9273 110.606,-75.5164 118.626,-82.4397 121.193,-75.9273"/>
</g>
<!-- Node20&#45;&gt;Node9 -->
<g id="edge30" class="edge"><title>Node20&#45;&gt;Node9</title>
<path fill="none" stroke="midnightblue" d="M244.979,-131.591C287.481,-150.831 390.502,-197.466 440.643,-220.163"/>
<polygon fill="midnightblue" stroke="midnightblue" points="439.379,-223.433 449.932,-224.368 442.266,-217.056 439.379,-223.433"/>
</g>
<!-- Node20&#45;&gt;Node11 -->
<g id="edge25" class="edge"><title>Node20&#45;&gt;Node11</title>
<path fill="none" stroke="midnightblue" d="M266.098,-113.558C269.109,-113.023 272.102,-112.498 275,-112 365.424,-96.4574 472.528,-79.7843 524.528,-71.7998"/>
<polygon fill="midnightblue" stroke="midnightblue" points="525.114,-75.251 534.468,-70.2764 524.053,-68.3318 525.114,-75.251"/>
</g>
<!-- Node20&#45;&gt;Node12 -->
<g id="edge28" class="edge"><title>Node20&#45;&gt;Node12</title>
<path fill="none" stroke="midnightblue" d="M214.271,-112.324C203.163,-104.107 186.258,-91.6017 173.017,-81.8069"/>
<polygon fill="midnightblue" stroke="midnightblue" points="175.063,-78.9671 164.942,-75.8339 170.9,-84.5948 175.063,-78.9671"/>
</g>
<!-- Node20&#45;&gt;Node18 -->
<g id="edge29" class="edge"><title>Node20&#45;&gt;Node18</title>
<path fill="none" stroke="midnightblue" d="M228.312,-112.083C230.167,-104.927 232.835,-94.6353 235.154,-85.6911"/>
<polygon fill="midnightblue" stroke="midnightblue" points="238.609,-86.3094 237.731,-75.7511 231.834,-84.5527 238.609,-86.3094"/>
</g>
<!-- Node21 -->
<g id="node21" class="node"><title>Node21</title>
<polygon fill="white" stroke="#bfbfbf" points="912,-56.5 912,-75.5 956,-75.5 956,-56.5 912,-56.5"/>
<text text-anchor="middle" x="934" y="-63.5" font-family="Helvetica,sans-Serif" font-size="10.00">cmath</text>
</g>
<!-- Node20&#45;&gt;Node21 -->
<g id="edge24" class="edge"><title>Node20&#45;&gt;Node21</title>
<path fill="none" stroke="midnightblue" d="M266.054,-113.261C269.075,-112.794 272.082,-112.366 275,-112 514.389,-81.9404 805.403,-70.8952 901.497,-67.9137"/>
<polygon fill="midnightblue" stroke="midnightblue" points="901.835,-71.4052 911.725,-67.6043 901.624,-64.4084 901.835,-71.4052"/>
</g>
<!-- Node22&#45;&gt;Node4 -->
<g id="edge36" class="edge"><title>Node22&#45;&gt;Node4</title>
<path fill="none" stroke="midnightblue" d="M735.794,-336.36C743.137,-327.755 753.896,-313.862 760,-300 783.908,-245.709 793.218,-175.258 796.46,-141.988"/>
<polygon fill="midnightblue" stroke="midnightblue" points="799.961,-142.131 797.368,-131.859 792.989,-141.506 799.961,-142.131"/>
</g>
<!-- Node22&#45;&gt;Node6 -->
<g id="edge37" class="edge"><title>Node22&#45;&gt;Node6</title>
<path fill="none" stroke="midnightblue" d="M777.211,-342.874C844.017,-338.95 958.481,-328.206 988,-300 1032.14,-257.827 1031.78,-177.922 1029.01,-141.694"/>
<polygon fill="midnightblue" stroke="midnightblue" points="1032.48,-141.208 1028.08,-131.57 1025.51,-141.847 1032.48,-141.208"/>
</g>
<!-- Node22&#45;&gt;Node8 -->
<g id="edge41" class="edge"><title>Node22&#45;&gt;Node8</title>
<path fill="none" stroke="midnightblue" d="M688.704,-336.444C645.441,-327.023 575.827,-311.866 529.027,-301.675"/>
<polygon fill="midnightblue" stroke="midnightblue" points="529.628,-298.224 519.112,-299.516 528.139,-305.064 529.628,-298.224"/>
</g>
<!-- Node22&#45;&gt;Node9 -->
<g id="edge40" class="edge"><title>Node22&#45;&gt;Node9</title>
<path fill="none" stroke="midnightblue" d="M693.256,-336.498C663.397,-328.657 619.509,-315.849 583,-300 564.975,-292.175 519.48,-265.383 491.72,-248.737"/>
<polygon fill="midnightblue" stroke="midnightblue" points="493.424,-245.678 483.051,-243.523 489.816,-251.677 493.424,-245.678"/>
</g>
<!-- Node22&#45;&gt;Node16 -->
<g id="edge33" class="edge"><title>Node22&#45;&gt;Node16</title>
<path fill="none" stroke="midnightblue" d="M718.98,-336.34C710.928,-327.932 699.702,-314.363 695,-300 676.651,-243.949 700.831,-173.852 714.616,-141.247"/>
<polygon fill="midnightblue" stroke="midnightblue" points="717.992,-142.264 718.815,-131.702 711.585,-139.445 717.992,-142.264"/>
</g>
<!-- Node22&#45;&gt;Node19 -->
<g id="edge34" class="edge"><title>Node22&#45;&gt;Node19</title>
<path fill="none" stroke="midnightblue" d="M678.75,-337.448C675.451,-336.954 672.178,-336.468 669,-336 528.505,-315.329 38,-377.007 38,-235 38,-235 38,-235 38,-121 38,-90.9022 38.1535,-79.4667 57,-56 68.7048,-41.4258 86.4624,-30.8599 102.463,-23.6443"/>
<polygon fill="midnightblue" stroke="midnightblue" points="104.268,-26.6821 112.129,-19.5786 101.554,-20.2296 104.268,-26.6821"/>
</g>
<!-- Node22&#45;&gt;Node21 -->
<g id="edge32" class="edge"><title>Node22&#45;&gt;Node21</title>
<path fill="none" stroke="midnightblue" d="M777.191,-344.118C848.98,-339.93 974,-320.38 974,-235 974,-235 974,-235 974,-177 974,-142.617 956.526,-105.631 944.677,-84.503"/>
<polygon fill="midnightblue" stroke="midnightblue" points="947.623,-82.6071 939.562,-75.7315 941.576,-86.1332 947.623,-82.6071"/>
</g>
<!-- Node23 -->
<g id="node23" class="node"><title>Node23</title>
<polygon fill="white" stroke="#bfbfbf" points="592,-280.5 592,-299.5 648,-299.5 648,-280.5 592,-280.5"/>
<text text-anchor="middle" x="620" y="-287.5" font-family="Helvetica,sans-Serif" font-size="10.00">algorithm</text>
</g>
<!-- Node22&#45;&gt;Node23 -->
<g id="edge35" class="edge"><title>Node22&#45;&gt;Node23</title>
<path fill="none" stroke="midnightblue" d="M710.648,-336.324C693.328,-327.664 666.485,-314.242 646.498,-304.249"/>
<polygon fill="midnightblue" stroke="midnightblue" points="647.819,-300.996 637.309,-299.655 644.688,-307.257 647.819,-300.996"/>
</g>
<!-- Node24 -->
<g id="node24" class="node"><title>Node24</title>
<polygon fill="white" stroke="#bfbfbf" points="704.5,-280.5 704.5,-299.5 751.5,-299.5 751.5,-280.5 704.5,-280.5"/>
<text text-anchor="middle" x="728" y="-287.5" font-family="Helvetica,sans-Serif" font-size="10.00">swell.h</text>
</g>
<!-- Node22&#45;&gt;Node24 -->
<g id="edge38" class="edge"><title>Node22&#45;&gt;Node24</title>
<path fill="none" stroke="midnightblue" d="M728,-336.083C728,-329.006 728,-318.861 728,-309.986"/>
<polygon fill="midnightblue" stroke="midnightblue" points="731.5,-309.751 728,-299.751 724.5,-309.751 731.5,-309.751"/>
</g>
<!-- Node25 -->
<g id="node25" class="node"><title>Node25</title>
<polygon fill="white" stroke="#bfbfbf" points="808,-280.5 808,-299.5 870,-299.5 870,-280.5 808,-280.5"/>
<text text-anchor="middle" x="839" y="-287.5" font-family="Helvetica,sans-Serif" font-size="10.00">nanosvg.h</text>
</g>
<!-- Node22&#45;&gt;Node25 -->
<g id="edge39" class="edge"><title>Node22&#45;&gt;Node25</title>
<path fill="none" stroke="midnightblue" d="M745.834,-336.324C763.716,-327.625 791.475,-314.12 812.046,-304.113"/>
<polygon fill="midnightblue" stroke="midnightblue" points="813.749,-307.177 821.21,-299.655 810.687,-300.882 813.749,-307.177"/>
</g>
<!-- Node27&#45;&gt;Node2 -->
<g id="edge45" class="edge"><title>Node27&#45;&gt;Node2</title>
<path fill="none" stroke="midnightblue" d="M898.867,-168.28C896.541,-154.12 889.847,-126.276 872,-112 840.524,-86.8212 723.38,-74.2187 665.209,-69.402"/>
<polygon fill="midnightblue" stroke="midnightblue" points="665.315,-65.8993 655.068,-68.5919 664.758,-72.8771 665.315,-65.8993"/>
</g>
<!-- Node27&#45;&gt;Node4 -->
<g id="edge48" class="edge"><title>Node27&#45;&gt;Node4</title>
<path fill="none" stroke="midnightblue" d="M883.612,-168.324C867.329,-159.703 842.133,-146.364 823.284,-136.386"/>
<polygon fill="midnightblue" stroke="midnightblue" points="824.823,-133.24 814.347,-131.655 821.548,-139.427 824.823,-133.24"/>
</g>
<!-- Node27&#45;&gt;Node6 -->
<g id="edge49" class="edge"><title>Node27&#45;&gt;Node6</title>
<path fill="none" stroke="midnightblue" d="M920.124,-168.444C941.024,-159.557 973.935,-145.563 997.716,-135.451"/>
<polygon fill="midnightblue" stroke="midnightblue" points="999.138,-138.65 1006.97,-131.516 996.398,-132.208 999.138,-138.65"/>
</g>
<!-- Node27&#45;&gt;Node11 -->
<g id="edge46" class="edge"><title>Node27&#45;&gt;Node11</title>
<path fill="none" stroke="midnightblue" d="M894.529,-168.078C885.14,-153.629 864.488,-125.377 839,-112 743.884,-62.0795 705.768,-94.7697 600,-76 596.053,-75.2996 591.918,-74.5177 587.828,-73.7151"/>
<polygon fill="midnightblue" stroke="midnightblue" points="588.384,-70.2569 577.89,-71.7123 587.001,-77.1189 588.384,-70.2569"/>
</g>
<!-- Node27&#45;&gt;Node16 -->
<g id="edge47" class="edge"><title>Node27&#45;&gt;Node16</title>
<path fill="none" stroke="midnightblue" d="M871.954,-168.444C840.946,-158.984 790.973,-143.738 757.569,-133.546"/>
<polygon fill="midnightblue" stroke="midnightblue" points="758.36,-130.128 747.773,-130.558 756.317,-136.824 758.36,-130.128"/>
</g>
<!-- Node27&#45;&gt;Node21 -->
<g id="edge44" class="edge"><title>Node27&#45;&gt;Node21</title>
<path fill="none" stroke="midnightblue" d="M902.668,-168.368C908.18,-150.537 920.927,-109.295 928.352,-85.2717"/>
<polygon fill="midnightblue" stroke="midnightblue" points="931.735,-86.179 931.344,-75.5914 925.047,-84.1119 931.735,-86.179"/>
</g>
</g>
</svg>
        <g id="navigator" transform="translate(0 0)" fill="#404254">
                <rect fill="#f2f5e9" fill-opacity="0.5" stroke="#606060" stroke-width=".5" x="0" y="0" width="60" height="60"/>
                <use id="zoomplus" xlink:href="#zoomPlus" x="17" y="9" onmousedown="handleZoom(evt,'in')"/>
                <use id="zoomminus" xlink:href="#zoomMin" x="42" y="9" onmousedown="handleZoom(evt,'out')"/>
                <use id="reset" xlink:href="#resetDef" x="30" y="36" onmousedown="handleReset()"/>
                <g id="arrowUp" xlink:href="#dirArrow" transform="translate(30 24)" onmousedown="handlePan(0,-1)">
                  <use xlink:href="#rim" fill="#404040">
                        <set attributeName="fill" to="#808080" begin="arrowUp.mouseover" end="arrowUp.mouseout"/>
                  </use>
                  <path fill="none" stroke="white" stroke-width="1.5" d="M0,-3.0v7 M-2.5,-0.5L0,-3.0L2.5,-0.5"/>
                </g>
                <g id="arrowRight" xlink:href="#dirArrow" transform="rotate(90) translate(36 -43)" onmousedown="handlePan(1,0)">
                  <use xlink:href="#rim" fill="#404040">
                        <set attributeName="fill" to="#808080" begin="arrowRight.mouseover" end="arrowRight.mouseout"/>
                  </use>
                  <path fill="none" stroke="white" stroke-width="1.5" d="M0,-3.0v7 M-2.5,-0.5L0,-3.0L2.5,-0.5"/>
                </g>
                <g id="arrowDown" xlink:href="#dirArrow" transform="rotate(180) translate(-30 -48)" onmousedown="handlePan(0,1)">
                  <use xlink:href="#rim" fill="#404040">
                        <set attributeName="fill" to="#808080" begin="arrowDown.mouseover" end="arrowDown.mouseout"/>
                  </use>
                  <path fill="none" stroke="white" stroke-width="1.5" d="M0,-3.0v7 M-2.5,-0.5L0,-3.0L2.5,-0.5"/>
                </g>
                <g id="arrowLeft" xlink:href="#dirArrow" transform="rotate(270) translate(-36 17)" onmousedown="handlePan(-1,0)">
                  <use xlink:href="#rim" fill="#404040">
                        <set attributeName="fill" to="#808080" begin="arrowLeft.mouseover" end="arrowLeft.mouseout"/>
                  </use>
                  <path fill="none" stroke="white" stroke-width="1.5" d="M0,-3.0v7 M-2.5,-0.5L0,-3.0L2.5,-0.5"/>
                </g>
        </g>
        <svg viewBox="0 0 15 15" width="100%" height="30px" preserveAspectRatio="xMaxYMin meet">
         <g id="arrow_out" transform="scale(0.3 0.3)">
          <a xlink:href="_i_control_8h__incl_org.svg" target="_base">
           <rect id="button" ry="5" rx="5" y="6" x="6" height="38" width="38"
                fill="#f2f5e9" fill-opacity="0.5" stroke="#606060" stroke-width="1.0"/>
           <path id="arrow"
             d="M 11.500037,31.436501 C 11.940474,20.09759 22.043105,11.32322 32.158766,21.979434 L 37.068811,17.246167 C 37.068811,17.246167 37.088388,32 37.088388,32 L 22.160133,31.978069 C 22.160133,31.978069 26.997745,27.140456 26.997745,27.140456 C 18.528582,18.264221 13.291696,25.230495 11.500037,31.436501 z"
             style="fill:#404040;"/>
          </a>
         </g>
        </svg>
</svg>
