<?xml version="1.0" encoding="UTF-8" standalone="no"?>
<!DOCTYPE svg PUBLIC "-//W3C//DTD SVG 1.1//EN"
 "http://www.w3.org/Graphics/SVG/1.1/DTD/svg11.dtd">
<!-- Generated by graphviz version 2.36.0 (20140111.2315)
 -->
<!-- Title: IGraphics.h Pages: 1 -->
<svg width="948pt" height="420pt"
 viewBox="0.00 0.00 948.47 420.00" xmlns="http://www.w3.org/2000/svg" xmlns:xlink="http://www.w3.org/1999/xlink">
<g id="graph0" class="graph" transform="scale(1 1) rotate(0) translate(4 416)">
<title>IGraphics.h</title>
<polygon fill="white" stroke="none" points="-4,4 -4,-416 944.474,-416 944.474,4 -4,4"/>
<!-- Node1 -->
<g id="node1" class="node"><title>Node1</title>
<polygon fill="#bfbfbf" stroke="black" points="378.533,-392.5 378.533,-411.5 445.533,-411.5 445.533,-392.5 378.533,-392.5"/>
<text text-anchor="middle" x="412.033" y="-399.5" font-family="Helvetica,sans-Serif" font-size="10.00">IGraphics.h</text>
</g>
<!-- Node2 -->
<g id="node2" class="node"><title>Node2</title>
<g id="a_node2"><a xlink:href="_i_graphics_constants_8h_source.html" target="_top" xlink:title="IGraphicsConstants.h">
<polygon fill="white" stroke="black" points="737.033,-280.5 737.033,-299.5 849.033,-299.5 849.033,-280.5 737.033,-280.5"/>
<text text-anchor="middle" x="793.033" y="-287.5" font-family="Helvetica,sans-Serif" font-size="10.00">IGraphicsConstants.h</text>
</a>
</g>
</g>
<!-- Node1&#45;&gt;Node2 -->
<g id="edge1" class="edge"><title>Node1&#45;&gt;Node2</title>
<path fill="none" stroke="midnightblue" d="M417.105,-392.049C425.844,-377.558 445.217,-349.247 470.033,-336 475.667,-332.992 633.904,-311.858 726.768,-299.652"/>
<polygon fill="midnightblue" stroke="midnightblue" points="727.465,-303.09 736.924,-298.318 726.554,-296.15 727.465,-303.09"/>
</g>
<!-- Node19 -->
<g id="node19" class="node"><title>Node19</title>
<g id="a_node19"><a xlink:href="_i_graphics_structs_8h_source.html" target="_top" xlink:title="IGraphicsStructs.h">
<polygon fill="white" stroke="black" points="325.033,-336.5 325.033,-355.5 423.033,-355.5 423.033,-336.5 325.033,-336.5"/>
<text text-anchor="middle" x="374.033" y="-343.5" font-family="Helvetica,sans-Serif" font-size="10.00">IGraphicsStructs.h</text>
</a>
</g>
</g>
<!-- Node1&#45;&gt;Node19 -->
<g id="edge25" class="edge"><title>Node1&#45;&gt;Node19</title>
<path fill="none" stroke="midnightblue" d="M405.758,-392.083C400.391,-384.455 392.516,-373.264 385.955,-363.941"/>
<polygon fill="midnightblue" stroke="midnightblue" points="388.809,-361.915 380.191,-355.751 383.084,-365.943 388.809,-361.915"/>
</g>
<!-- Node24 -->
<g id="node24" class="node"><title>Node24</title>
<g id="a_node24"><a xlink:href="_i_graphics_utilites_8h_source.html" target="_top" xlink:title="IGraphicsUtilites.h">
<polygon fill="white" stroke="black" points="479.033,-336.5 479.033,-355.5 577.033,-355.5 577.033,-336.5 479.033,-336.5"/>
<text text-anchor="middle" x="528.033" y="-343.5" font-family="Helvetica,sans-Serif" font-size="10.00">IGraphicsUtilites.h</text>
</a>
</g>
</g>
<!-- Node1&#45;&gt;Node24 -->
<g id="edge36" class="edge"><title>Node1&#45;&gt;Node24</title>
<path fill="none" stroke="midnightblue" d="M430.414,-392.444C449.25,-383.675 478.765,-369.935 500.413,-359.858"/>
<polygon fill="midnightblue" stroke="midnightblue" points="502.15,-362.91 509.739,-355.516 499.196,-356.564 502.15,-362.91"/>
</g>
<!-- Node25 -->
<g id="node25" class="node"><title>Node25</title>
<g id="a_node25"><a xlink:href="_i_popup_menu_8h.html" target="_top" xlink:title="A class for setting the contents of a pop up menu. ">
<polygon fill="white" stroke="black" points="104.033,-168.5 104.033,-187.5 184.033,-187.5 184.033,-168.5 104.033,-168.5"/>
<text text-anchor="middle" x="144.033" y="-175.5" font-family="Helvetica,sans-Serif" font-size="10.00">IPopupMenu.h</text>
</a>
</g>
</g>
<!-- Node1&#45;&gt;Node25 -->
<g id="edge37" class="edge"><title>Node1&#45;&gt;Node25</title>
<path fill="none" stroke="midnightblue" d="M384.369,-392.46C343.502,-378.676 266.509,-348.106 217.033,-300 185.636,-269.471 162.532,-222.688 151.421,-197.16"/>
<polygon fill="midnightblue" stroke="midnightblue" points="154.513,-195.486 147.404,-187.63 148.063,-198.205 154.513,-195.486"/>
</g>
<!-- Node3 -->
<g id="node3" class="node"><title>Node3</title>
<g id="a_node3"><a xlink:href="_i_plug_platform_8h.html" target="_top" xlink:title="Include to get consistently named preprocessor macros for different platforms and logging functionali...">
<polygon fill="white" stroke="black" points="573.033,-224.5 573.033,-243.5 657.033,-243.5 657.033,-224.5 573.033,-224.5"/>
<text text-anchor="middle" x="615.033" y="-231.5" font-family="Helvetica,sans-Serif" font-size="10.00">IPlugPlatform.h</text>
</a>
</g>
</g>
<!-- Node2&#45;&gt;Node3 -->
<g id="edge2" class="edge"><title>Node2&#45;&gt;Node3</title>
<path fill="none" stroke="midnightblue" d="M764.829,-280.444C734.623,-271.28 686.522,-256.688 653.004,-246.519"/>
<polygon fill="midnightblue" stroke="midnightblue" points="653.691,-243.07 643.106,-243.516 651.659,-249.769 653.691,-243.07"/>
</g>
<!-- Node4 -->
<g id="node4" class="node"><title>Node4</title>
<polygon fill="white" stroke="#bfbfbf" points="353.033,-56.5 353.033,-75.5 399.033,-75.5 399.033,-56.5 353.033,-56.5"/>
<text text-anchor="middle" x="376.033" y="-63.5" font-family="Helvetica,sans-Serif" font-size="10.00">cstring</text>
</g>
<!-- Node3&#45;&gt;Node4 -->
<g id="edge3" class="edge"><title>Node3&#45;&gt;Node4</title>
<path fill="none" stroke="midnightblue" d="M589.552,-224.472C549.836,-210.225 472.315,-178.488 420.033,-132 404.955,-118.593 392.6,-98.951 384.862,-84.7713"/>
<polygon fill="midnightblue" stroke="midnightblue" points="387.796,-82.8287 380.07,-75.5788 381.589,-86.0643 387.796,-82.8287"/>
</g>
<!-- Node5 -->
<g id="node5" class="node"><title>Node5</title>
<polygon fill="white" stroke="#bfbfbf" points="884.533,-56.5 884.533,-75.5 929.533,-75.5 929.533,-56.5 884.533,-56.5"/>
<text text-anchor="middle" x="907.033" y="-63.5" font-family="Helvetica,sans-Serif" font-size="10.00">cstdlib</text>
</g>
<!-- Node3&#45;&gt;Node5 -->
<g id="edge4" class="edge"><title>Node3&#45;&gt;Node5</title>
<path fill="none" stroke="midnightblue" d="M657.518,-227.178C714.725,-217.254 816.535,-191.966 879.033,-132 892.033,-119.527 899.327,-100.019 903.186,-85.626"/>
<polygon fill="midnightblue" stroke="midnightblue" points="906.61,-86.3553 905.506,-75.8182 899.798,-84.7442 906.61,-86.3553"/>
</g>
<!-- Node6 -->
<g id="node6" class="node"><title>Node6</title>
<g id="a_node6"><a xlink:href="_i_plug_logger_8h.html" target="_top" xlink:title="IPlug logging a.k.a tracing functionailty. ">
<polygon fill="white" stroke="black" points="544.533,-168.5 544.533,-187.5 621.533,-187.5 621.533,-168.5 544.533,-168.5"/>
<text text-anchor="middle" x="583.033" y="-175.5" font-family="Helvetica,sans-Serif" font-size="10.00">IPlugLogger.h</text>
</a>
</g>
</g>
<!-- Node3&#45;&gt;Node6 -->
<g id="edge5" class="edge"><title>Node3&#45;&gt;Node6</title>
<path fill="none" stroke="midnightblue" d="M609.749,-224.083C605.322,-216.613 598.87,-205.724 593.415,-196.52"/>
<polygon fill="midnightblue" stroke="midnightblue" points="596.328,-194.57 588.219,-187.751 590.306,-198.138 596.328,-194.57"/>
</g>
<!-- Node6&#45;&gt;Node4 -->
<g id="edge10" class="edge"><title>Node6&#45;&gt;Node4</title>
<path fill="none" stroke="midnightblue" d="M545.234,-168.471C517.654,-161.257 480.012,-149.304 450.033,-132 427.041,-118.729 404.721,-97.6487 390.713,-83.1118"/>
<polygon fill="midnightblue" stroke="midnightblue" points="393.236,-80.6856 383.835,-75.8001 388.137,-85.482 393.236,-80.6856"/>
</g>
<!-- Node7 -->
<g id="node7" class="node"><title>Node7</title>
<polygon fill="white" stroke="#bfbfbf" points="424.533,-56.5 424.533,-75.5 467.533,-75.5 467.533,-56.5 424.533,-56.5"/>
<text text-anchor="middle" x="446.033" y="-63.5" font-family="Helvetica,sans-Serif" font-size="10.00">cstdio</text>
</g>
<!-- Node6&#45;&gt;Node7 -->
<g id="edge6" class="edge"><title>Node6&#45;&gt;Node7</title>
<path fill="none" stroke="midnightblue" d="M544.294,-171.364C518.479,-165.654 485.63,-154.313 465.033,-132 453.455,-119.457 448.899,-100.234 447.123,-85.943"/>
<polygon fill="midnightblue" stroke="midnightblue" points="450.59,-85.4098 446.215,-75.7605 443.617,-86.032 450.59,-85.4098"/>
</g>
<!-- Node8 -->
<g id="node8" class="node"><title>Node8</title>
<polygon fill="white" stroke="#bfbfbf" points="710.033,-56.5 710.033,-75.5 756.033,-75.5 756.033,-56.5 710.033,-56.5"/>
<text text-anchor="middle" x="733.033" y="-63.5" font-family="Helvetica,sans-Serif" font-size="10.00">cctype</text>
</g>
<!-- Node6&#45;&gt;Node8 -->
<g id="edge7" class="edge"><title>Node6&#45;&gt;Node8</title>
<path fill="none" stroke="midnightblue" d="M621.644,-176.17C655.017,-173.214 701.753,-163.263 727.033,-132 737.379,-119.206 737.92,-100.017 736.449,-85.8017"/>
<polygon fill="midnightblue" stroke="midnightblue" points="739.882,-85.0817 734.988,-75.6849 732.954,-86.0826 739.882,-85.0817"/>
</g>
<!-- Node9 -->
<g id="node9" class="node"><title>Node9</title>
<polygon fill="white" stroke="#bfbfbf" points="474.533,-112.5 474.533,-131.5 523.533,-131.5 523.533,-112.5 474.533,-112.5"/>
<text text-anchor="middle" x="499.033" y="-119.5" font-family="Helvetica,sans-Serif" font-size="10.00">cstdarg</text>
</g>
<!-- Node6&#45;&gt;Node9 -->
<g id="edge8" class="edge"><title>Node6&#45;&gt;Node9</title>
<path fill="none" stroke="midnightblue" d="M569.537,-168.324C556.434,-159.9 536.321,-146.971 520.926,-137.074"/>
<polygon fill="midnightblue" stroke="midnightblue" points="522.8,-134.118 512.496,-131.655 519.015,-140.006 522.8,-134.118"/>
</g>
<!-- Node10 -->
<g id="node10" class="node"><title>Node10</title>
<polygon fill="white" stroke="#bfbfbf" points="542.033,-112.5 542.033,-131.5 588.033,-131.5 588.033,-112.5 542.033,-112.5"/>
<text text-anchor="middle" x="565.033" y="-119.5" font-family="Helvetica,sans-Serif" font-size="10.00">cstdint</text>
</g>
<!-- Node6&#45;&gt;Node10 -->
<g id="edge9" class="edge"><title>Node6&#45;&gt;Node10</title>
<path fill="none" stroke="midnightblue" d="M580.061,-168.083C577.65,-160.849 574.17,-150.409 571.166,-141.397"/>
<polygon fill="midnightblue" stroke="midnightblue" points="574.433,-140.131 567.95,-131.751 567.792,-142.345 574.433,-140.131"/>
</g>
<!-- Node11 -->
<g id="node11" class="node"><title>Node11</title>
<polygon fill="white" stroke="#bfbfbf" points="606.533,-112.5 606.533,-131.5 647.533,-131.5 647.533,-112.5 606.533,-112.5"/>
<text text-anchor="middle" x="627.033" y="-119.5" font-family="Helvetica,sans-Serif" font-size="10.00">ctime</text>
</g>
<!-- Node6&#45;&gt;Node11 -->
<g id="edge11" class="edge"><title>Node6&#45;&gt;Node11</title>
<path fill="none" stroke="midnightblue" d="M590.299,-168.083C596.578,-160.377 605.821,-149.033 613.464,-139.653"/>
<polygon fill="midnightblue" stroke="midnightblue" points="616.299,-141.714 619.903,-131.751 610.873,-137.293 616.299,-141.714"/>
</g>
<!-- Node12 -->
<g id="node12" class="node"><title>Node12</title>
<polygon fill="white" stroke="#bfbfbf" points="210.533,-112.5 210.533,-131.5 259.533,-131.5 259.533,-112.5 210.533,-112.5"/>
<text text-anchor="middle" x="235.033" y="-119.5" font-family="Helvetica,sans-Serif" font-size="10.00">cassert</text>
</g>
<!-- Node6&#45;&gt;Node12 -->
<g id="edge12" class="edge"><title>Node6&#45;&gt;Node12</title>
<path fill="none" stroke="midnightblue" d="M544.112,-172.899C486.385,-166.495 374.526,-152.855 269.934,-131.967"/>
<polygon fill="midnightblue" stroke="midnightblue" points="270.333,-128.476 259.837,-129.923 268.944,-135.337 270.333,-128.476"/>
</g>
<!-- Node13 -->
<g id="node13" class="node"><title>Node13</title>
<polygon fill="white" stroke="#bfbfbf" points="278.033,-112.5 278.033,-131.5 342.033,-131.5 342.033,-112.5 278.033,-112.5"/>
<text text-anchor="middle" x="310.033" y="-119.5" font-family="Helvetica,sans-Serif" font-size="10.00">wdlstring.h</text>
</g>
<!-- Node6&#45;&gt;Node13 -->
<g id="edge13" class="edge"><title>Node6&#45;&gt;Node13</title>
<path fill="none" stroke="midnightblue" d="M544.498,-169.378C493.791,-159.348 404.962,-141.777 352.41,-131.382"/>
<polygon fill="midnightblue" stroke="midnightblue" points="352.894,-127.91 342.405,-129.403 351.536,-134.777 352.894,-127.91"/>
</g>
<!-- Node14 -->
<g id="node14" class="node"><title>Node14</title>
<polygon fill="white" stroke="#bfbfbf" points="666.033,-112.5 666.033,-131.5 718.033,-131.5 718.033,-112.5 666.033,-112.5"/>
<text text-anchor="middle" x="692.033" y="-119.5" font-family="Helvetica,sans-Serif" font-size="10.00">mutex.h</text>
</g>
<!-- Node6&#45;&gt;Node14 -->
<g id="edge14" class="edge"><title>Node6&#45;&gt;Node14</title>
<path fill="none" stroke="midnightblue" d="M600.546,-168.324C618.106,-159.625 645.365,-146.12 665.565,-136.113"/>
<polygon fill="midnightblue" stroke="midnightblue" points="667.157,-139.23 674.564,-131.655 664.05,-132.958 667.157,-139.23"/>
</g>
<!-- Node15 -->
<g id="node15" class="node"><title>Node15</title>
<g id="a_node15"><a xlink:href="_i_plug_constants_8h.html" target="_top" xlink:title="Constant definitions, Types, magic numbers. ">
<polygon fill="white" stroke="black" points="774.033,-56.5 774.033,-75.5 866.033,-75.5 866.033,-56.5 774.033,-56.5"/>
<text text-anchor="middle" x="820.033" y="-63.5" font-family="Helvetica,sans-Serif" font-size="10.00">IPlugConstants.h</text>
</a>
</g>
</g>
<!-- Node6&#45;&gt;Node15 -->
<g id="edge15" class="edge"><title>Node6&#45;&gt;Node15</title>
<path fill="none" stroke="midnightblue" d="M621.577,-176.703C690.945,-175.262 832.457,-167.882 863.033,-132 876.684,-115.981 857.871,-95.4313 841.005,-81.7708"/>
<polygon fill="midnightblue" stroke="midnightblue" points="843.101,-78.9674 833.033,-75.6682 838.846,-84.5258 843.101,-78.9674"/>
</g>
<!-- Node17 -->
<g id="node17" class="node"><title>Node17</title>
<g id="a_node17"><a xlink:href="_i_plug_utilities_8h.html" target="_top" xlink:title="Utility functions and macros. ">
<polygon fill="white" stroke="black" points="774.033,-112.5 774.033,-131.5 854.033,-131.5 854.033,-112.5 774.033,-112.5"/>
<text text-anchor="middle" x="814.033" y="-119.5" font-family="Helvetica,sans-Serif" font-size="10.00">IPlugUtilities.h</text>
</a>
</g>
</g>
<!-- Node6&#45;&gt;Node17 -->
<g id="edge17" class="edge"><title>Node6&#45;&gt;Node17</title>
<path fill="none" stroke="midnightblue" d="M619.636,-168.444C659.764,-159.063 724.232,-143.993 767.818,-133.804"/>
<polygon fill="midnightblue" stroke="midnightblue" points="768.661,-137.201 777.602,-131.516 767.068,-130.385 768.661,-137.201"/>
</g>
<!-- Node16 -->
<g id="node16" class="node"><title>Node16</title>
<polygon fill="white" stroke="#bfbfbf" points="859.533,-0.5 859.533,-19.5 918.533,-19.5 918.533,-0.5 859.533,-0.5"/>
<text text-anchor="middle" x="889.033" y="-7.5" font-family="Helvetica,sans-Serif" font-size="10.00">functional</text>
</g>
<!-- Node15&#45;&gt;Node16 -->
<g id="edge16" class="edge"><title>Node15&#45;&gt;Node16</title>
<path fill="none" stroke="midnightblue" d="M831.119,-56.324C841.519,-48.1849 857.294,-35.8395 869.755,-26.0874"/>
<polygon fill="midnightblue" stroke="midnightblue" points="872.028,-28.7533 877.746,-19.8339 867.713,-23.2407 872.028,-28.7533"/>
</g>
<!-- Node17&#45;&gt;Node3 -->
<g id="edge24" class="edge"><title>Node17&#45;&gt;Node3</title>
<path fill="none" stroke="midnightblue" d="M798.491,-131.591C764.047,-150.631 681.07,-196.497 639.553,-219.446"/>
<polygon fill="midnightblue" stroke="midnightblue" points="637.707,-216.468 630.649,-224.368 641.094,-222.594 637.707,-216.468"/>
</g>
<!-- Node17&#45;&gt;Node4 -->
<g id="edge21" class="edge"><title>Node17&#45;&gt;Node4</title>
<path fill="none" stroke="midnightblue" d="M773.945,-116.743C679.796,-106.707 449.861,-81.9624 415.033,-76 413.081,-75.6658 411.081,-75.2945 409.066,-74.8985"/>
<polygon fill="midnightblue" stroke="midnightblue" points="409.551,-71.4235 399.042,-72.7696 408.097,-78.2707 409.551,-71.4235"/>
</g>
<!-- Node17&#45;&gt;Node5 -->
<g id="edge20" class="edge"><title>Node17&#45;&gt;Node5</title>
<path fill="none" stroke="midnightblue" d="M828.975,-112.324C843.618,-103.822 866.167,-90.7288 883.271,-80.7975"/>
<polygon fill="midnightblue" stroke="midnightblue" points="885.238,-83.7027 892.128,-75.6545 881.723,-77.6491 885.238,-83.7027"/>
</g>
<!-- Node17&#45;&gt;Node7 -->
<g id="edge19" class="edge"><title>Node17&#45;&gt;Node7</title>
<path fill="none" stroke="midnightblue" d="M773.95,-115.118C700.215,-104.298 544.5,-81.449 477.632,-71.6368"/>
<polygon fill="midnightblue" stroke="midnightblue" points="478.091,-68.1668 467.689,-70.1777 477.075,-75.0926 478.091,-68.1668"/>
</g>
<!-- Node17&#45;&gt;Node8 -->
<g id="edge22" class="edge"><title>Node17&#45;&gt;Node8</title>
<path fill="none" stroke="midnightblue" d="M801.019,-112.324C788.502,-103.979 769.352,-91.2122 754.562,-81.3524"/>
<polygon fill="midnightblue" stroke="midnightblue" points="756.277,-78.2894 746.015,-75.6545 752.394,-84.1137 756.277,-78.2894"/>
</g>
<!-- Node17&#45;&gt;Node15 -->
<g id="edge23" class="edge"><title>Node17&#45;&gt;Node15</title>
<path fill="none" stroke="midnightblue" d="M815.024,-112.083C815.819,-104.927 816.963,-94.6353 817.957,-85.6911"/>
<polygon fill="midnightblue" stroke="midnightblue" points="821.435,-86.0765 819.061,-75.7511 814.478,-85.3034 821.435,-86.0765"/>
</g>
<!-- Node18 -->
<g id="node18" class="node"><title>Node18</title>
<polygon fill="white" stroke="#bfbfbf" points="84.0333,-56.5 84.0333,-75.5 128.033,-75.5 128.033,-56.5 84.0333,-56.5"/>
<text text-anchor="middle" x="106.033" y="-63.5" font-family="Helvetica,sans-Serif" font-size="10.00">cmath</text>
</g>
<!-- Node17&#45;&gt;Node18 -->
<g id="edge18" class="edge"><title>Node17&#45;&gt;Node18</title>
<path fill="none" stroke="midnightblue" d="M773.776,-116.575C759.076,-115.028 742.311,-113.343 727.033,-112 501.75,-92.1897 229.927,-74.7039 138.1,-68.9745"/>
<polygon fill="midnightblue" stroke="midnightblue" points="138.252,-65.4772 128.054,-68.3498 137.817,-72.4637 138.252,-65.4772"/>
</g>
<!-- Node19&#45;&gt;Node2 -->
<g id="edge35" class="edge"><title>Node19&#45;&gt;Node2</title>
<path fill="none" stroke="midnightblue" d="M423.203,-337.895C427.876,-337.244 432.544,-336.603 437.033,-336 564.007,-318.94 595.944,-316.169 723.033,-300 724.298,-299.839 725.576,-299.676 726.863,-299.512"/>
<polygon fill="midnightblue" stroke="midnightblue" points="727.395,-302.973 736.871,-298.234 726.508,-296.029 727.395,-302.973"/>
</g>
<!-- Node19&#45;&gt;Node3 -->
<g id="edge34" class="edge"><title>Node19&#45;&gt;Node3</title>
<path fill="none" stroke="midnightblue" d="M396.146,-336.497C418.502,-327.775 453.949,-313.596 484.033,-300 521.329,-283.145 563.599,-261.743 589.79,-248.204"/>
<polygon fill="midnightblue" stroke="midnightblue" points="591.409,-251.308 598.673,-243.595 588.185,-245.094 591.409,-251.308"/>
</g>
<!-- Node19&#45;&gt;Node12 -->
<g id="edge27" class="edge"><title>Node19&#45;&gt;Node12</title>
<path fill="none" stroke="midnightblue" d="M324.788,-343.631C292.463,-339.851 252.356,-329.064 231.033,-300 196.088,-252.368 215.87,-176.489 227.9,-141.626"/>
<polygon fill="midnightblue" stroke="midnightblue" points="231.332,-142.43 231.455,-131.836 224.752,-140.041 231.332,-142.43"/>
</g>
<!-- Node19&#45;&gt;Node13 -->
<g id="edge30" class="edge"><title>Node19&#45;&gt;Node13</title>
<path fill="none" stroke="midnightblue" d="M402.048,-336.397C419.207,-329.515 439.782,-317.984 450.033,-300 454.435,-292.278 453.199,-288.306 450.033,-280 426.02,-216.99 363.817,-163.2 331.005,-138.108"/>
<polygon fill="midnightblue" stroke="midnightblue" points="332.69,-134.997 322.586,-131.808 328.496,-140.602 332.69,-134.997"/>
</g>
<!-- Node19&#45;&gt;Node16 -->
<g id="edge28" class="edge"><title>Node19&#45;&gt;Node16</title>
<path fill="none" stroke="midnightblue" d="M410.346,-336.499C488.981,-317.213 679.566,-265.704 824.033,-188 886.587,-154.355 917.172,-143.895 938.033,-76 940.644,-67.5031 941.609,-64.1381 938.033,-56 932.643,-43.732 922.075,-33.3414 912.129,-25.6461"/>
<polygon fill="midnightblue" stroke="midnightblue" points="913.861,-22.5811 903.695,-19.598 909.782,-28.2697 913.861,-22.5811"/>
</g>
<!-- Node19&#45;&gt;Node18 -->
<g id="edge26" class="edge"><title>Node19&#45;&gt;Node18</title>
<path fill="none" stroke="midnightblue" d="M324.755,-340.9C223.198,-331.09 0.0333068,-301.919 0.0333068,-235 0.0333068,-235 0.0333068,-235 0.0333068,-177 0.0333068,-146.902 -0.0999205,-135.234 19.0333,-112 33.2364,-94.7532 55.7768,-83.3563 74.3554,-76.3475"/>
<polygon fill="midnightblue" stroke="midnightblue" points="75.6444,-79.6044 83.9172,-72.9854 73.3223,-73.0008 75.6444,-79.6044"/>
</g>
<!-- Node20 -->
<g id="node20" class="node"><title>Node20</title>
<polygon fill="white" stroke="#bfbfbf" points="240.033,-280.5 240.033,-299.5 296.033,-299.5 296.033,-280.5 240.033,-280.5"/>
<text text-anchor="middle" x="268.033" y="-287.5" font-family="Helvetica,sans-Serif" font-size="10.00">algorithm</text>
</g>
<!-- Node19&#45;&gt;Node20 -->
<g id="edge29" class="edge"><title>Node19&#45;&gt;Node20</title>
<path fill="none" stroke="midnightblue" d="M357.003,-336.324C340.003,-327.664 313.657,-314.242 294.041,-304.249"/>
<polygon fill="midnightblue" stroke="midnightblue" points="295.521,-301.075 285.022,-299.655 292.343,-307.312 295.521,-301.075"/>
</g>
<!-- Node21 -->
<g id="node21" class="node"><title>Node21</title>
<polygon fill="white" stroke="#bfbfbf" points="28.5333,-112.5 28.5333,-131.5 77.5333,-131.5 77.5333,-112.5 28.5333,-112.5"/>
<text text-anchor="middle" x="53.0333" y="-119.5" font-family="Helvetica,sans-Serif" font-size="10.00">ptrlist.h</text>
</g>
<!-- Node19&#45;&gt;Node21 -->
<g id="edge31" class="edge"><title>Node19&#45;&gt;Node21</title>
<path fill="none" stroke="midnightblue" d="M324.701,-336.962C292.568,-330.293 250.547,-318.787 217.033,-300 152.827,-264.008 142.502,-244.255 95.0333,-188 82.4833,-173.127 70.6895,-154.276 62.8138,-140.71"/>
<polygon fill="midnightblue" stroke="midnightblue" points="65.7942,-138.87 57.8167,-131.898 59.7051,-142.323 65.7942,-138.87"/>
</g>
<!-- Node22 -->
<g id="node22" class="node"><title>Node22</title>
<polygon fill="white" stroke="#bfbfbf" points="314.533,-280.5 314.533,-299.5 361.533,-299.5 361.533,-280.5 314.533,-280.5"/>
<text text-anchor="middle" x="338.033" y="-287.5" font-family="Helvetica,sans-Serif" font-size="10.00">swell.h</text>
</g>
<!-- Node19&#45;&gt;Node22 -->
<g id="edge32" class="edge"><title>Node19&#45;&gt;Node22</title>
<path fill="none" stroke="midnightblue" d="M368.089,-336.083C363.056,-328.534 355.697,-317.495 349.52,-308.23"/>
<polygon fill="midnightblue" stroke="midnightblue" points="352.327,-306.13 343.867,-299.751 346.502,-310.013 352.327,-306.13"/>
</g>
<!-- Node23 -->
<g id="node23" class="node"><title>Node23</title>
<polygon fill="white" stroke="#bfbfbf" points="380.033,-280.5 380.033,-299.5 442.033,-299.5 442.033,-280.5 380.033,-280.5"/>
<text text-anchor="middle" x="411.033" y="-287.5" font-family="Helvetica,sans-Serif" font-size="10.00">nanosvg.h</text>
</g>
<!-- Node19&#45;&gt;Node23 -->
<g id="edge33" class="edge"><title>Node19&#45;&gt;Node23</title>
<path fill="none" stroke="midnightblue" d="M380.143,-336.083C385.316,-328.534 392.879,-317.495 399.228,-308.23"/>
<polygon fill="midnightblue" stroke="midnightblue" points="402.272,-309.979 405.037,-299.751 396.498,-306.022 402.272,-309.979"/>
</g>
<!-- Node25&#45;&gt;Node4 -->
<g id="edge39" class="edge"><title>Node25&#45;&gt;Node4</title>
<path fill="none" stroke="midnightblue" d="M144.646,-168.369C146.125,-154.336 151.139,-126.671 168.033,-112 193.805,-89.6197 290.73,-76.1036 342.671,-70.3148"/>
<polygon fill="midnightblue" stroke="midnightblue" points="343.162,-73.7823 352.728,-69.2281 342.41,-66.8228 343.162,-73.7823"/>
</g>
<!-- Node25&#45;&gt;Node7 -->
<g id="edge40" class="edge"><title>Node25&#45;&gt;Node7</title>
<path fill="none" stroke="midnightblue" d="M149.028,-168.143C157.631,-153.787 176.69,-125.666 201.033,-112 282.461,-66.2885 316.558,-94.7691 408.033,-76 410.109,-75.5742 412.244,-75.1182 414.393,-74.6457"/>
<polygon fill="midnightblue" stroke="midnightblue" points="415.41,-78.0037 424.381,-72.3668 413.853,-71.1791 415.41,-78.0037"/>
</g>
<!-- Node25&#45;&gt;Node12 -->
<g id="edge41" class="edge"><title>Node25&#45;&gt;Node12</title>
<path fill="none" stroke="midnightblue" d="M158.654,-168.324C172.982,-159.822 195.046,-146.729 211.782,-136.797"/>
<polygon fill="midnightblue" stroke="midnightblue" points="213.635,-139.768 220.449,-131.655 210.063,-133.748 213.635,-139.768"/>
</g>
<!-- Node25&#45;&gt;Node13 -->
<g id="edge42" class="edge"><title>Node25&#45;&gt;Node13</title>
<path fill="none" stroke="midnightblue" d="M170.337,-168.444C198.384,-159.32 242.978,-144.813 274.218,-134.651"/>
<polygon fill="midnightblue" stroke="midnightblue" points="275.426,-137.938 283.853,-131.516 273.261,-131.282 275.426,-137.938"/>
</g>
<!-- Node25&#45;&gt;Node18 -->
<g id="edge38" class="edge"><title>Node25&#45;&gt;Node18</title>
<path fill="none" stroke="midnightblue" d="M141.052,-168.368C134.891,-150.537 120.644,-109.295 112.345,-85.2717"/>
<polygon fill="midnightblue" stroke="midnightblue" points="115.575,-83.9005 109.001,-75.5914 108.958,-86.1862 115.575,-83.9005"/>
</g>
<!-- Node25&#45;&gt;Node21 -->
<g id="edge43" class="edge"><title>Node25&#45;&gt;Node21</title>
<path fill="none" stroke="midnightblue" d="M129.413,-168.324C115.084,-159.822 93.0208,-146.729 76.2846,-136.797"/>
<polygon fill="midnightblue" stroke="midnightblue" points="78.0037,-133.748 67.6177,-131.655 74.4315,-139.768 78.0037,-133.748"/>
</g>
</g>
</svg>
