<?xml version="1.0" encoding="UTF-8" standalone="no"?>
<!DOCTYPE svg PUBLIC "-//W3C//DTD SVG 1.1//EN"
 "http://www.w3.org/Graphics/SVG/1.1/DTD/svg11.dtd">
<!-- Generated by graphviz version 2.36.0 (20140111.2315)
 -->
<!-- Title: IPlugVST.h Pages: 1 -->
<!--zoomable 532 -->
<svg id="main" version="1.1" xmlns="http://www.w3.org/2000/svg" xmlns:xlink="http://www.w3.org/1999/xlink" xml:space="preserve" onload="init(evt)">
<style type="text/css"><![CDATA[
.edge:hover path { stroke: red; }
.edge:hover polygon { stroke: red; fill: red; }
]]></style>
<script type="text/javascript"><![CDATA[
var edges = document.getElementsByTagName('g');
if (edges && edges.length) {
  for (var i=0;i<edges.length;i++) {
    if (edges[i].id.substr(0,4)=='edge') {
      edges[i].setAttribute('class','edge');
    }
  }
}
]]></script>
        <defs>
                <circle id="rim" cx="0" cy="0" r="7"/>
                <circle id="rim2" cx="0" cy="0" r="3.5"/>
                <g id="zoomPlus">
                        <use xlink:href="#rim" fill="#404040">
                                <set attributeName="fill" to="#808080" begin="zoomplus.mouseover" end="zoomplus.mouseout"/>
                        </use>
                        <path d="M-4,0h8M0,-4v8" fill="none" stroke="white" stroke-width="1.5" pointer-events="none"/>
                </g>
                <g id="zoomMin">
                        <use xlink:href="#rim" fill="#404040">
                                <set attributeName="fill" to="#808080" begin="zoomminus.mouseover" end="zoomminus.mouseout"/>
                        </use>
                        <path d="M-4,0h8" fill="none" stroke="white" stroke-width="1.5" pointer-events="none"/>
                </g>
                <g id="dirArrow">
                        <path fill="none" stroke="white" stroke-width="1.5" d="M0,-3.0v7 M-2.5,-0.5L0,-3.0L2.5,-0.5"/>
                </g>
               <g id="resetDef">
                       <use xlink:href="#rim2" fill="#404040">
                               <set attributeName="fill" to="#808080" begin="reset.mouseover" end="reset.mouseout"/>
                       </use>
               </g>
        </defs>

<script type="text/javascript">
var viewWidth = 1387;
var viewHeight = 532;
var sectionId = 'dynsection-0';
</script>
<script xlink:href="svgpan.js"/>
<svg id="graph" class="graph">
<g id="viewport">
<title>IPlugVST.h</title>
<polygon fill="white" stroke="none" points="-4,4 -4,-528 1382.81,-528 1382.81,4 -4,4"/>
<!-- Node1 -->
<g id="node1" class="node"><title>Node1</title>
<polygon fill="#bfbfbf" stroke="black" points="710.442,-504.5 710.442,-523.5 777.442,-523.5 777.442,-504.5 710.442,-504.5"/>
<text text-anchor="middle" x="743.942" y="-511.5" font-family="Helvetica,sans-Serif" font-size="10.00">IPlugVST.h</text>
</g>
<!-- Node2 -->
<g id="node2" class="node"><title>Node2</title>
<polygon fill="white" stroke="#bfbfbf" points="664.942,-448.5 664.942,-467.5 724.942,-467.5 724.942,-448.5 664.942,-448.5"/>
<text text-anchor="middle" x="694.942" y="-455.5" font-family="Helvetica,sans-Serif" font-size="10.00">aeffectx.h</text>
</g>
<!-- Node1&#45;&gt;Node2 -->
<g id="edge1" class="edge"><title>Node1&#45;&gt;Node2</title>
<path fill="none" stroke="midnightblue" d="M735.851,-504.083C728.787,-496.298 718.354,-484.801 709.793,-475.367"/>
<polygon fill="midnightblue" stroke="midnightblue" points="712.195,-472.805 702.883,-467.751 707.011,-477.509 712.195,-472.805"/>
</g>
<!-- Node3 -->
<g id="node3" class="node"><title>Node3</title>
<g id="a_node3"><a xlink:href="_i_plug_base__select_8h_source.html" target="_top" xlink:title="IPlugBase_select.h">
<polygon fill="white" stroke="black" points="743.442,-448.5 743.442,-467.5 844.442,-467.5 844.442,-448.5 743.442,-448.5"/>
<text text-anchor="middle" x="793.942" y="-455.5" font-family="Helvetica,sans-Serif" font-size="10.00">IPlugBase_select.h</text>
</a>
</g>
</g>
<!-- Node1&#45;&gt;Node3 -->
<g id="edge2" class="edge"><title>Node1&#45;&gt;Node3</title>
<path fill="none" stroke="midnightblue" d="M752.198,-504.083C759.407,-496.298 770.052,-484.801 778.788,-475.367"/>
<polygon fill="midnightblue" stroke="midnightblue" points="781.613,-477.467 785.839,-467.751 776.477,-472.711 781.613,-477.467"/>
</g>
<!-- Node4 -->
<g id="node4" class="node"><title>Node4</title>
<g id="a_node4"><a xlink:href="_i_plug_base_graphics_8h.html" target="_top" xlink:title="An IPlugBase class for an IPlug plug&#45;in that uses IGraphics for it&#39;s UI. ">
<polygon fill="white" stroke="black" points="841.442,-392.5 841.442,-411.5 950.442,-411.5 950.442,-392.5 841.442,-392.5"/>
<text text-anchor="middle" x="895.942" y="-399.5" font-family="Helvetica,sans-Serif" font-size="10.00">IPlugBaseGraphics.h</text>
</a>
</g>
</g>
<!-- Node3&#45;&gt;Node4 -->
<g id="edge3" class="edge"><title>Node3&#45;&gt;Node4</title>
<path fill="none" stroke="midnightblue" d="M810.33,-448.324C826.613,-439.703 851.809,-426.364 870.658,-416.386"/>
<polygon fill="midnightblue" stroke="midnightblue" points="872.394,-419.427 879.595,-411.655 869.119,-413.24 872.394,-419.427"/>
</g>
<!-- Node30 -->
<g id="node30" class="node"><title>Node30</title>
<g id="a_node30"><a xlink:href="_i_plug_processor_8h.html" target="_top" xlink:title="The base class for IPlug Audio Processing. ">
<polygon fill="white" stroke="black" points="385.942,-336.5 385.942,-355.5 477.942,-355.5 477.942,-336.5 385.942,-336.5"/>
<text text-anchor="middle" x="431.942" y="-343.5" font-family="Helvetica,sans-Serif" font-size="10.00">IPlugProcessor.h</text>
</a>
</g>
</g>
<!-- Node3&#45;&gt;Node30 -->
<g id="edge51" class="edge"><title>Node3&#45;&gt;Node30</title>
<path fill="none" stroke="midnightblue" d="M765.838,-448.46C701.423,-428.886 543.063,-380.766 470.002,-358.565"/>
<polygon fill="midnightblue" stroke="midnightblue" points="470.864,-355.169 460.278,-355.61 468.828,-361.867 470.864,-355.169"/>
</g>
<!-- Node35 -->
<g id="node35" class="node"><title>Node35</title>
<g id="a_node35"><a xlink:href="_i_plug_presets_8h.html" target="_top" xlink:title="IPlugPresets.h">
<polygon fill="white" stroke="black" points="753.442,-336.5 753.442,-355.5 834.442,-355.5 834.442,-336.5 753.442,-336.5"/>
<text text-anchor="middle" x="793.942" y="-343.5" font-family="Helvetica,sans-Serif" font-size="10.00">IPlugPresets.h</text>
</a>
</g>
</g>
<!-- Node3&#45;&gt;Node35 -->
<g id="edge68" class="edge"><title>Node3&#45;&gt;Node35</title>
<path fill="none" stroke="midnightblue" d="M793.942,-448.368C793.942,-430.617 793.942,-389.666 793.942,-365.597"/>
<polygon fill="midnightblue" stroke="midnightblue" points="797.442,-365.591 793.942,-355.591 790.442,-365.591 797.442,-365.591"/>
</g>
<!-- Node5 -->
<g id="node5" class="node"><title>Node5</title>
<g id="a_node5"><a xlink:href="_i_plug_base_8h.html" target="_top" xlink:title="The lowest level base class of an IPlug plug&#45;in. ">
<polygon fill="white" stroke="black" points="956.942,-336.5 956.942,-355.5 1026.94,-355.5 1026.94,-336.5 956.942,-336.5"/>
<text text-anchor="middle" x="991.942" y="-343.5" font-family="Helvetica,sans-Serif" font-size="10.00">IPlugBase.h</text>
</a>
</g>
</g>
<!-- Node4&#45;&gt;Node5 -->
<g id="edge4" class="edge"><title>Node4&#45;&gt;Node5</title>
<path fill="none" stroke="midnightblue" d="M911.366,-392.324C926.481,-383.822 949.757,-370.729 967.413,-360.797"/>
<polygon fill="midnightblue" stroke="midnightblue" points="969.556,-363.608 976.556,-355.655 966.124,-357.507 969.556,-363.608"/>
</g>
<!-- Node29 -->
<g id="node29" class="node"><title>Node29</title>
<g id="a_node29"><a xlink:href="_i_plug_delegate_8h_source.html" target="_top" xlink:title="IPlugDelegate.h">
<polygon fill="white" stroke="black" points="852.942,-336.5 852.942,-355.5 938.942,-355.5 938.942,-336.5 852.942,-336.5"/>
<text text-anchor="middle" x="895.942" y="-343.5" font-family="Helvetica,sans-Serif" font-size="10.00">IPlugDelegate.h</text>
</a>
</g>
</g>
<!-- Node4&#45;&gt;Node29 -->
<g id="edge50" class="edge"><title>Node4&#45;&gt;Node29</title>
<path fill="none" stroke="midnightblue" d="M895.942,-392.083C895.942,-385.006 895.942,-374.861 895.942,-365.986"/>
<polygon fill="midnightblue" stroke="midnightblue" points="899.442,-365.751 895.942,-355.751 892.442,-365.751 899.442,-365.751"/>
</g>
<!-- Node6 -->
<g id="node6" class="node"><title>Node6</title>
<polygon fill="white" stroke="#bfbfbf" points="1074.94,-56.5 1074.94,-75.5 1120.94,-75.5 1120.94,-56.5 1074.94,-56.5"/>
<text text-anchor="middle" x="1097.94" y="-63.5" font-family="Helvetica,sans-Serif" font-size="10.00">cstring</text>
</g>
<!-- Node5&#45;&gt;Node6 -->
<g id="edge5" class="edge"><title>Node5&#45;&gt;Node6</title>
<path fill="none" stroke="midnightblue" d="M1027.1,-344.092C1104.16,-341.52 1285.09,-332.137 1335.94,-300 1365.02,-281.625 1377.94,-269.395 1377.94,-235 1377.94,-235 1377.94,-235 1377.94,-177 1377.94,-146.902 1381.4,-132.039 1358.94,-112 1350.47,-104.444 1199.82,-81.7767 1131.34,-71.8011"/>
<polygon fill="midnightblue" stroke="midnightblue" points="1131.49,-68.286 1121.09,-70.3133 1130.48,-75.2134 1131.49,-68.286"/>
</g>
<!-- Node7 -->
<g id="node7" class="node"><title>Node7</title>
<polygon fill="white" stroke="#bfbfbf" points="433.942,-112.5 433.942,-131.5 479.942,-131.5 479.942,-112.5 433.942,-112.5"/>
<text text-anchor="middle" x="456.942" y="-119.5" font-family="Helvetica,sans-Serif" font-size="10.00">cstdint</text>
</g>
<!-- Node5&#45;&gt;Node7 -->
<g id="edge6" class="edge"><title>Node5&#45;&gt;Node7</title>
<path fill="none" stroke="midnightblue" d="M956.936,-337.497C953.901,-336.951 950.872,-336.442 947.942,-336 866.692,-323.75 650.816,-341.574 579.942,-300 516.487,-262.778 477.954,-178.341 463.487,-141.157"/>
<polygon fill="midnightblue" stroke="midnightblue" points="466.698,-139.75 459.906,-131.618 460.144,-142.21 466.698,-139.75"/>
</g>
<!-- Node8 -->
<g id="node8" class="node"><title>Node8</title>
<polygon fill="white" stroke="#bfbfbf" points="800.442,-280.5 800.442,-299.5 849.442,-299.5 849.442,-280.5 800.442,-280.5"/>
<text text-anchor="middle" x="824.942" y="-287.5" font-family="Helvetica,sans-Serif" font-size="10.00">ptrlist.h</text>
</g>
<!-- Node5&#45;&gt;Node8 -->
<g id="edge7" class="edge"><title>Node5&#45;&gt;Node8</title>
<path fill="none" stroke="midnightblue" d="M965.48,-336.444C936.766,-327.159 890.813,-312.3 859.322,-302.117"/>
<polygon fill="midnightblue" stroke="midnightblue" points="860.238,-298.735 849.647,-298.988 858.085,-305.395 860.238,-298.735"/>
</g>
<!-- Node9 -->
<g id="node9" class="node"><title>Node9</title>
<polygon fill="white" stroke="#bfbfbf" points="1297.94,-112.5 1297.94,-131.5 1349.94,-131.5 1349.94,-112.5 1297.94,-112.5"/>
<text text-anchor="middle" x="1323.94" y="-119.5" font-family="Helvetica,sans-Serif" font-size="10.00">mutex.h</text>
</g>
<!-- Node5&#45;&gt;Node9 -->
<g id="edge8" class="edge"><title>Node5&#45;&gt;Node9</title>
<path fill="none" stroke="midnightblue" d="M1027.03,-345.512C1102.77,-345.801 1277.84,-341.819 1315.94,-300 1356.12,-255.905 1340.02,-177.038 1329.84,-141.39"/>
<polygon fill="midnightblue" stroke="midnightblue" points="1333.19,-140.361 1326.95,-131.8 1326.49,-142.385 1333.19,-140.361"/>
</g>
<!-- Node10 -->
<g id="node10" class="node"><title>Node10</title>
<g id="a_node10"><a xlink:href="_i_plug_platform_8h.html" target="_top" xlink:title="Include to get consistently named preprocessor macros for different platforms and logging functionali...">
<polygon fill="white" stroke="black" points="817.942,-224.5 817.942,-243.5 901.942,-243.5 901.942,-224.5 817.942,-224.5"/>
<text text-anchor="middle" x="859.942" y="-231.5" font-family="Helvetica,sans-Serif" font-size="10.00">IPlugPlatform.h</text>
</a>
</g>
</g>
<!-- Node5&#45;&gt;Node10 -->
<g id="edge9" class="edge"><title>Node5&#45;&gt;Node10</title>
<path fill="none" stroke="midnightblue" d="M990.952,-336.257C988.961,-322.562 983.268,-295.969 967.942,-280 952.531,-263.942 930.527,-253.387 910.398,-246.565"/>
<polygon fill="midnightblue" stroke="midnightblue" points="911.293,-243.177 900.703,-243.508 909.188,-249.853 911.293,-243.177"/>
</g>
<!-- Node19 -->
<g id="node19" class="node"><title>Node19</title>
<g id="a_node19"><a xlink:href="_i_plug_constants_8h.html" target="_top" xlink:title="Constant definitions, Types, magic numbers. ">
<polygon fill="white" stroke="black" points="499.942,-56.5 499.942,-75.5 591.942,-75.5 591.942,-56.5 499.942,-56.5"/>
<text text-anchor="middle" x="545.942" y="-63.5" font-family="Helvetica,sans-Serif" font-size="10.00">IPlugConstants.h</text>
</a>
</g>
</g>
<!-- Node5&#45;&gt;Node19 -->
<g id="edge32" class="edge"><title>Node5&#45;&gt;Node19</title>
<path fill="none" stroke="midnightblue" d="M974.494,-336.469C907.722,-303.667 668.865,-184.867 602.942,-132 585.461,-117.981 568.983,-98.2063 558.284,-84.1572"/>
<polygon fill="midnightblue" stroke="midnightblue" points="560.904,-81.8152 552.135,-75.8698 555.283,-85.9863 560.904,-81.8152"/>
</g>
<!-- Node21 -->
<g id="node21" class="node"><title>Node21</title>
<g id="a_node21"><a xlink:href="_i_plug_utilities_8h.html" target="_top" xlink:title="Utility functions and macros. ">
<polygon fill="white" stroke="black" points="611.942,-112.5 611.942,-131.5 691.942,-131.5 691.942,-112.5 611.942,-112.5"/>
<text text-anchor="middle" x="651.942" y="-119.5" font-family="Helvetica,sans-Serif" font-size="10.00">IPlugUtilities.h</text>
</a>
</g>
</g>
<!-- Node5&#45;&gt;Node21 -->
<g id="edge43" class="edge"><title>Node5&#45;&gt;Node21</title>
<path fill="none" stroke="midnightblue" d="M993.627,-336.361C995.717,-323.265 997.894,-298.011 987.942,-280 967.303,-242.647 948.193,-242.923 909.942,-224 860.796,-199.688 842.533,-209.142 791.942,-188 774.694,-180.792 771.744,-176.194 754.942,-168 730.867,-156.26 702.998,-144.172 682.324,-135.485"/>
<polygon fill="midnightblue" stroke="midnightblue" points="683.664,-132.251 673.087,-131.628 680.967,-138.711 683.664,-132.251"/>
</g>
<!-- Node23 -->
<g id="node23" class="node"><title>Node23</title>
<g id="a_node23"><a xlink:href="_i_plug_structs_8h_source.html" target="_top" xlink:title="IPlugStructs.h">
<polygon fill="white" stroke="black" points="588.442,-280.5 588.442,-299.5 667.442,-299.5 667.442,-280.5 588.442,-280.5"/>
<text text-anchor="middle" x="627.942" y="-287.5" font-family="Helvetica,sans-Serif" font-size="10.00">IPlugStructs.h</text>
</a>
</g>
</g>
<!-- Node5&#45;&gt;Node23 -->
<g id="edge33" class="edge"><title>Node5&#45;&gt;Node23</title>
<path fill="none" stroke="midnightblue" d="M956.915,-337.631C953.884,-337.056 950.862,-336.503 947.942,-336 852.627,-319.566 740.561,-304.858 677.535,-297.005"/>
<polygon fill="midnightblue" stroke="midnightblue" points="677.83,-293.515 667.476,-295.758 676.969,-300.461 677.83,-293.515"/>
</g>
<!-- Node26 -->
<g id="node26" class="node"><title>Node26</title>
<g id="a_node26"><a xlink:href="_i_plug_parameter_8h_source.html" target="_top" xlink:title="IPlugParameter.h">
<polygon fill="white" stroke="black" points="1125.94,-168.5 1125.94,-187.5 1217.94,-187.5 1217.94,-168.5 1125.94,-168.5"/>
<text text-anchor="middle" x="1171.94" y="-175.5" font-family="Helvetica,sans-Serif" font-size="10.00">IPlugParameter.h</text>
</a>
</g>
</g>
<!-- Node5&#45;&gt;Node26 -->
<g id="edge44" class="edge"><title>Node5&#45;&gt;Node26</title>
<path fill="none" stroke="midnightblue" d="M1002.42,-336.168C1013,-327.189 1029.78,-312.814 1043.94,-300 1084.9,-262.955 1131.76,-217.963 1155.82,-194.671"/>
<polygon fill="midnightblue" stroke="midnightblue" points="1158.33,-197.12 1163.07,-187.646 1153.45,-192.095 1158.33,-197.12"/>
</g>
<!-- Node10&#45;&gt;Node6 -->
<g id="edge10" class="edge"><title>Node10&#45;&gt;Node6</title>
<path fill="none" stroke="midnightblue" d="M893.258,-224.433C917.924,-217.139 951.664,-205.102 977.942,-188 1023.41,-158.406 1065.32,-109.123 1085.43,-83.5426"/>
<polygon fill="midnightblue" stroke="midnightblue" points="1088.26,-85.6065 1091.6,-75.5544 1082.72,-81.325 1088.26,-85.6065"/>
</g>
<!-- Node11 -->
<g id="node11" class="node"><title>Node11</title>
<polygon fill="white" stroke="#bfbfbf" points="952.442,-56.5 952.442,-75.5 997.442,-75.5 997.442,-56.5 952.442,-56.5"/>
<text text-anchor="middle" x="974.942" y="-63.5" font-family="Helvetica,sans-Serif" font-size="10.00">cstdlib</text>
</g>
<!-- Node10&#45;&gt;Node11 -->
<g id="edge11" class="edge"><title>Node10&#45;&gt;Node11</title>
<path fill="none" stroke="midnightblue" d="M883.615,-224.425C917.304,-210.777 977.779,-180.58 1002.94,-132 1011.29,-115.89 1000.69,-96.74 990.226,-83.4161"/>
<polygon fill="midnightblue" stroke="midnightblue" points="992.716,-80.9405 983.57,-75.5923 987.384,-85.4766 992.716,-80.9405"/>
</g>
<!-- Node12 -->
<g id="node12" class="node"><title>Node12</title>
<g id="a_node12"><a xlink:href="_i_plug_logger_8h.html" target="_top" xlink:title="IPlug logging a.k.a tracing functionailty. ">
<polygon fill="white" stroke="black" points="800.442,-168.5 800.442,-187.5 877.442,-187.5 877.442,-168.5 800.442,-168.5"/>
<text text-anchor="middle" x="838.942" y="-175.5" font-family="Helvetica,sans-Serif" font-size="10.00">IPlugLogger.h</text>
</a>
</g>
</g>
<!-- Node10&#45;&gt;Node12 -->
<g id="edge12" class="edge"><title>Node10&#45;&gt;Node12</title>
<path fill="none" stroke="midnightblue" d="M856.474,-224.083C853.63,-216.77 849.512,-206.181 845.982,-197.103"/>
<polygon fill="midnightblue" stroke="midnightblue" points="849.232,-195.803 842.345,-187.751 842.708,-198.34 849.232,-195.803"/>
</g>
<!-- Node12&#45;&gt;Node6 -->
<g id="edge17" class="edge"><title>Node12&#45;&gt;Node6</title>
<path fill="none" stroke="midnightblue" d="M847.189,-168.44C861.094,-154.51 890.659,-126.989 920.942,-112 967.884,-88.7653 1027.95,-76.7789 1064.65,-71.1989"/>
<polygon fill="midnightblue" stroke="midnightblue" points="1065.4,-74.626 1074.8,-69.729 1064.4,-67.6982 1065.4,-74.626"/>
</g>
<!-- Node12&#45;&gt;Node7 -->
<g id="edge16" class="edge"><title>Node12&#45;&gt;Node7</title>
<path fill="none" stroke="midnightblue" d="M800.212,-171.525C725.158,-160.915 561.089,-137.722 490.419,-127.732"/>
<polygon fill="midnightblue" stroke="midnightblue" points="490.69,-124.236 480.298,-126.302 489.71,-131.167 490.69,-124.236"/>
</g>
<!-- Node12&#45;&gt;Node9 -->
<g id="edge21" class="edge"><title>Node12&#45;&gt;Node9</title>
<path fill="none" stroke="midnightblue" d="M877.49,-172.935C950.301,-165.222 1113.03,-147.82 1249.94,-132 1262.27,-130.575 1275.75,-128.955 1287.78,-127.485"/>
<polygon fill="midnightblue" stroke="midnightblue" points="1288.42,-130.933 1297.92,-126.242 1287.57,-123.985 1288.42,-130.933"/>
</g>
<!-- Node13 -->
<g id="node13" class="node"><title>Node13</title>
<polygon fill="white" stroke="#bfbfbf" points="630.442,-56.5 630.442,-75.5 673.442,-75.5 673.442,-56.5 630.442,-56.5"/>
<text text-anchor="middle" x="651.942" y="-63.5" font-family="Helvetica,sans-Serif" font-size="10.00">cstdio</text>
</g>
<!-- Node12&#45;&gt;Node13 -->
<g id="edge13" class="edge"><title>Node12&#45;&gt;Node13</title>
<path fill="none" stroke="midnightblue" d="M825.488,-168.357C805.644,-155.681 767.275,-131.446 733.942,-112 715.064,-100.987 693.372,-89.1163 677.042,-80.3335"/>
<polygon fill="midnightblue" stroke="midnightblue" points="678.576,-77.1849 668.108,-75.5489 675.271,-83.3556 678.576,-77.1849"/>
</g>
<!-- Node14 -->
<g id="node14" class="node"><title>Node14</title>
<polygon fill="white" stroke="#bfbfbf" points="766.942,-56.5 766.942,-75.5 812.942,-75.5 812.942,-56.5 766.942,-56.5"/>
<text text-anchor="middle" x="789.942" y="-63.5" font-family="Helvetica,sans-Serif" font-size="10.00">cctype</text>
</g>
<!-- Node12&#45;&gt;Node14 -->
<g id="edge14" class="edge"><title>Node12&#45;&gt;Node14</title>
<path fill="none" stroke="midnightblue" d="M842.287,-168.093C846.601,-155.089 852.583,-130.449 843.942,-112 837.897,-99.0941 826.13,-88.5985 815.119,-80.9999"/>
<polygon fill="midnightblue" stroke="midnightblue" points="816.885,-77.9748 806.575,-75.5364 813.114,-83.8723 816.885,-77.9748"/>
</g>
<!-- Node15 -->
<g id="node15" class="node"><title>Node15</title>
<polygon fill="white" stroke="#bfbfbf" points="786.442,-112.5 786.442,-131.5 835.442,-131.5 835.442,-112.5 786.442,-112.5"/>
<text text-anchor="middle" x="810.942" y="-119.5" font-family="Helvetica,sans-Serif" font-size="10.00">cstdarg</text>
</g>
<!-- Node12&#45;&gt;Node15 -->
<g id="edge15" class="edge"><title>Node12&#45;&gt;Node15</title>
<path fill="none" stroke="midnightblue" d="M834.318,-168.083C830.486,-160.691 824.918,-149.953 820.177,-140.811"/>
<polygon fill="midnightblue" stroke="midnightblue" points="823.19,-139.018 815.48,-131.751 816.976,-142.24 823.19,-139.018"/>
</g>
<!-- Node16 -->
<g id="node16" class="node"><title>Node16</title>
<polygon fill="white" stroke="#bfbfbf" points="374.442,-112.5 374.442,-131.5 415.442,-131.5 415.442,-112.5 374.442,-112.5"/>
<text text-anchor="middle" x="394.942" y="-119.5" font-family="Helvetica,sans-Serif" font-size="10.00">ctime</text>
</g>
<!-- Node12&#45;&gt;Node16 -->
<g id="edge18" class="edge"><title>Node12&#45;&gt;Node16</title>
<path fill="none" stroke="midnightblue" d="M800.339,-175.168C728.355,-171.242 568.728,-160.145 425.33,-131.689"/>
<polygon fill="midnightblue" stroke="midnightblue" points="425.967,-128.247 415.473,-129.7 424.583,-135.109 425.967,-128.247"/>
</g>
<!-- Node17 -->
<g id="node17" class="node"><title>Node17</title>
<polygon fill="white" stroke="#bfbfbf" points="307.442,-112.5 307.442,-131.5 356.442,-131.5 356.442,-112.5 307.442,-112.5"/>
<text text-anchor="middle" x="331.942" y="-119.5" font-family="Helvetica,sans-Serif" font-size="10.00">cassert</text>
</g>
<!-- Node12&#45;&gt;Node17 -->
<g id="edge19" class="edge"><title>Node12&#45;&gt;Node17</title>
<path fill="none" stroke="midnightblue" d="M800.333,-175.472C720.869,-171.866 533.227,-160.983 366.648,-131.825"/>
<polygon fill="midnightblue" stroke="midnightblue" points="367.177,-128.365 356.719,-130.061 365.953,-135.257 367.177,-128.365"/>
</g>
<!-- Node18 -->
<g id="node18" class="node"><title>Node18</title>
<polygon fill="white" stroke="#bfbfbf" points="929.942,-112.5 929.942,-131.5 993.942,-131.5 993.942,-112.5 929.942,-112.5"/>
<text text-anchor="middle" x="961.942" y="-119.5" font-family="Helvetica,sans-Serif" font-size="10.00">wdlstring.h</text>
</g>
<!-- Node12&#45;&gt;Node18 -->
<g id="edge20" class="edge"><title>Node12&#45;&gt;Node18</title>
<path fill="none" stroke="midnightblue" d="M858.432,-168.444C878.584,-159.596 910.265,-145.687 933.273,-135.586"/>
<polygon fill="midnightblue" stroke="midnightblue" points="934.794,-138.741 942.543,-131.516 931.98,-132.332 934.794,-138.741"/>
</g>
<!-- Node12&#45;&gt;Node19 -->
<g id="edge22" class="edge"><title>Node12&#45;&gt;Node19</title>
<path fill="none" stroke="midnightblue" d="M816.403,-168.403C794.852,-159.937 761.634,-146.237 733.942,-132 718.69,-124.158 716.645,-118.894 700.942,-112 667.057,-97.1228 626.881,-85.619 595.923,-77.9676"/>
<polygon fill="midnightblue" stroke="midnightblue" points="596.343,-74.4683 585.8,-75.5211 594.698,-81.2724 596.343,-74.4683"/>
</g>
<!-- Node12&#45;&gt;Node21 -->
<g id="edge24" class="edge"><title>Node12&#45;&gt;Node21</title>
<path fill="none" stroke="midnightblue" d="M809.311,-168.444C777.442,-159.241 726.609,-144.562 691.378,-134.388"/>
<polygon fill="midnightblue" stroke="midnightblue" points="692.013,-130.928 681.434,-131.516 690.07,-137.653 692.013,-130.928"/>
</g>
<!-- Node20 -->
<g id="node20" class="node"><title>Node20</title>
<polygon fill="white" stroke="#bfbfbf" points="516.442,-0.5 516.442,-19.5 575.442,-19.5 575.442,-0.5 516.442,-0.5"/>
<text text-anchor="middle" x="545.942" y="-7.5" font-family="Helvetica,sans-Serif" font-size="10.00">functional</text>
</g>
<!-- Node19&#45;&gt;Node20 -->
<g id="edge23" class="edge"><title>Node19&#45;&gt;Node20</title>
<path fill="none" stroke="midnightblue" d="M545.942,-56.083C545.942,-49.0059 545.942,-38.8611 545.942,-29.9865"/>
<polygon fill="midnightblue" stroke="midnightblue" points="549.442,-29.751 545.942,-19.7511 542.442,-29.7511 549.442,-29.751"/>
</g>
<!-- Node21&#45;&gt;Node6 -->
<g id="edge28" class="edge"><title>Node21&#45;&gt;Node6</title>
<path fill="none" stroke="midnightblue" d="M692.308,-116.113C779.627,-105.54 984.642,-80.7179 1064.9,-71.0007"/>
<polygon fill="midnightblue" stroke="midnightblue" points="1065.43,-74.4625 1074.93,-69.7858 1064.58,-67.5133 1065.43,-74.4625"/>
</g>
<!-- Node21&#45;&gt;Node10 -->
<g id="edge31" class="edge"><title>Node21&#45;&gt;Node10</title>
<path fill="none" stroke="midnightblue" d="M664.67,-131.582C684.248,-144.602 723.144,-169.76 757.942,-188 781.072,-200.123 808.153,-211.967 828.597,-220.459"/>
<polygon fill="midnightblue" stroke="midnightblue" points="827.473,-223.781 838.053,-224.345 830.134,-217.307 827.473,-223.781"/>
</g>
<!-- Node21&#45;&gt;Node11 -->
<g id="edge27" class="edge"><title>Node21&#45;&gt;Node11</title>
<path fill="none" stroke="midnightblue" d="M692.197,-114.27C756.968,-103.441 883.054,-82.362 942.477,-72.4276"/>
<polygon fill="midnightblue" stroke="midnightblue" points="943.146,-75.8644 952.432,-70.7633 941.991,-68.9603 943.146,-75.8644"/>
</g>
<!-- Node21&#45;&gt;Node13 -->
<g id="edge26" class="edge"><title>Node21&#45;&gt;Node13</title>
<path fill="none" stroke="midnightblue" d="M651.942,-112.083C651.942,-105.006 651.942,-94.8611 651.942,-85.9865"/>
<polygon fill="midnightblue" stroke="midnightblue" points="655.442,-85.751 651.942,-75.7511 648.442,-85.7511 655.442,-85.751"/>
</g>
<!-- Node21&#45;&gt;Node14 -->
<g id="edge29" class="edge"><title>Node21&#45;&gt;Node14</title>
<path fill="none" stroke="midnightblue" d="M673.808,-112.444C696.721,-103.478 732.917,-89.314 758.808,-79.1827"/>
<polygon fill="midnightblue" stroke="midnightblue" points="760.141,-82.4198 768.178,-75.5164 757.59,-75.9011 760.141,-82.4198"/>
</g>
<!-- Node21&#45;&gt;Node19 -->
<g id="edge30" class="edge"><title>Node21&#45;&gt;Node19</title>
<path fill="none" stroke="midnightblue" d="M634.911,-112.324C617.912,-103.664 591.566,-90.2424 571.949,-80.249"/>
<polygon fill="midnightblue" stroke="midnightblue" points="573.43,-77.0752 562.93,-75.6545 570.252,-83.3125 573.43,-77.0752"/>
</g>
<!-- Node22 -->
<g id="node22" class="node"><title>Node22</title>
<polygon fill="white" stroke="#bfbfbf" points="199.942,-56.5 199.942,-75.5 243.942,-75.5 243.942,-56.5 199.942,-56.5"/>
<text text-anchor="middle" x="221.942" y="-63.5" font-family="Helvetica,sans-Serif" font-size="10.00">cmath</text>
</g>
<!-- Node21&#45;&gt;Node22 -->
<g id="edge25" class="edge"><title>Node21&#45;&gt;Node22</title>
<path fill="none" stroke="midnightblue" d="M611.875,-115.968C527.246,-105.341 331.724,-80.7866 254.329,-71.0673"/>
<polygon fill="midnightblue" stroke="midnightblue" points="254.575,-67.5707 244.217,-69.7973 253.702,-74.5161 254.575,-67.5707"/>
</g>
<!-- Node23&#45;&gt;Node10 -->
<g id="edge37" class="edge"><title>Node23&#45;&gt;Node10</title>
<path fill="none" stroke="midnightblue" d="M664.703,-280.444C705.005,-271.063 769.751,-255.993 813.526,-245.804"/>
<polygon fill="midnightblue" stroke="midnightblue" points="814.407,-249.192 823.353,-243.516 812.82,-242.375 814.407,-249.192"/>
</g>
<!-- Node23&#45;&gt;Node18 -->
<g id="edge35" class="edge"><title>Node23&#45;&gt;Node18</title>
<path fill="none" stroke="midnightblue" d="M652.811,-280.461C709.08,-260.949 844.487,-212.868 885.942,-188 909.056,-174.134 932.086,-153.18 946.634,-138.835"/>
<polygon fill="midnightblue" stroke="midnightblue" points="949.224,-141.194 953.789,-131.633 944.258,-136.26 949.224,-141.194"/>
</g>
<!-- Node23&#45;&gt;Node19 -->
<g id="edge36" class="edge"><title>Node23&#45;&gt;Node19</title>
<path fill="none" stroke="midnightblue" d="M622.433,-280.296C616.976,-271.417 608.633,-257.118 602.942,-244 578.691,-188.1 559.215,-118.413 550.656,-85.6553"/>
<polygon fill="midnightblue" stroke="midnightblue" points="553.974,-84.5051 548.093,-75.692 547.194,-86.2486 553.974,-84.5051"/>
</g>
<!-- Node24 -->
<g id="node24" class="node"><title>Node24</title>
<polygon fill="white" stroke="#bfbfbf" points="611.942,-224.5 611.942,-243.5 667.942,-243.5 667.942,-224.5 611.942,-224.5"/>
<text text-anchor="middle" x="639.942" y="-231.5" font-family="Helvetica,sans-Serif" font-size="10.00">algorithm</text>
</g>
<!-- Node23&#45;&gt;Node24 -->
<g id="edge34" class="edge"><title>Node23&#45;&gt;Node24</title>
<path fill="none" stroke="midnightblue" d="M629.923,-280.083C631.514,-272.927 633.801,-262.635 635.788,-253.691"/>
<polygon fill="midnightblue" stroke="midnightblue" points="639.245,-254.272 637.997,-243.751 632.411,-252.754 639.245,-254.272"/>
</g>
<!-- Node25 -->
<g id="node25" class="node"><title>Node25</title>
<g id="a_node25"><a xlink:href="_i_plug_midi_8h_source.html" target="_top" xlink:title="IPlugMidi.h">
<polygon fill="white" stroke="black" points="269.442,-168.5 269.442,-187.5 334.442,-187.5 334.442,-168.5 269.442,-168.5"/>
<text text-anchor="middle" x="301.942" y="-175.5" font-family="Helvetica,sans-Serif" font-size="10.00">IPlugMidi.h</text>
</a>
</g>
</g>
<!-- Node23&#45;&gt;Node25 -->
<g id="edge38" class="edge"><title>Node23&#45;&gt;Node25</title>
<path fill="none" stroke="midnightblue" d="M602.633,-280.46C544.861,-260.966 403.177,-213.159 337.028,-190.839"/>
<polygon fill="midnightblue" stroke="midnightblue" points="338.054,-187.491 327.46,-187.61 335.816,-194.124 338.054,-187.491"/>
</g>
<!-- Node25&#45;&gt;Node7 -->
<g id="edge40" class="edge"><title>Node25&#45;&gt;Node7</title>
<path fill="none" stroke="midnightblue" d="M326.502,-168.444C352.77,-159.292 394.58,-144.726 423.762,-134.559"/>
<polygon fill="midnightblue" stroke="midnightblue" points="425.219,-137.758 433.511,-131.163 422.916,-131.148 425.219,-137.758"/>
</g>
<!-- Node25&#45;&gt;Node17 -->
<g id="edge39" class="edge"><title>Node25&#45;&gt;Node17</title>
<path fill="none" stroke="midnightblue" d="M306.896,-168.083C311.046,-160.613 317.095,-149.724 322.209,-140.52"/>
<polygon fill="midnightblue" stroke="midnightblue" points="325.283,-142.192 327.08,-131.751 319.164,-138.793 325.283,-142.192"/>
</g>
<!-- Node25&#45;&gt;Node19 -->
<g id="edge41" class="edge"><title>Node25&#45;&gt;Node19</title>
<path fill="none" stroke="midnightblue" d="M298.204,-168.255C293.002,-154.557 285.626,-127.961 298.942,-112 322.763,-83.4468 424.551,-72.965 489.796,-69.1494"/>
<polygon fill="midnightblue" stroke="midnightblue" points="490.143,-72.6357 499.936,-68.5925 489.759,-65.6463 490.143,-72.6357"/>
</g>
<!-- Node25&#45;&gt;Node21 -->
<g id="edge42" class="edge"><title>Node25&#45;&gt;Node21</title>
<path fill="none" stroke="midnightblue" d="M334.555,-171.968C395.857,-162.51 528.647,-142.023 601.535,-130.777"/>
<polygon fill="midnightblue" stroke="midnightblue" points="602.489,-134.171 611.838,-129.187 601.422,-127.253 602.489,-134.171"/>
</g>
<!-- Node26&#45;&gt;Node6 -->
<g id="edge45" class="edge"><title>Node26&#45;&gt;Node6</title>
<path fill="none" stroke="midnightblue" d="M1166.14,-168.368C1153.92,-150.215 1125.39,-107.802 1109.37,-83.9902"/>
<polygon fill="midnightblue" stroke="midnightblue" points="1112.21,-81.935 1103.72,-75.5914 1106.4,-85.8423 1112.21,-81.935"/>
</g>
<!-- Node26&#45;&gt;Node18 -->
<g id="edge46" class="edge"><title>Node26&#45;&gt;Node18</title>
<path fill="none" stroke="midnightblue" d="M1138.67,-168.444C1102.17,-159.06 1043.54,-143.983 1003.92,-133.794"/>
<polygon fill="midnightblue" stroke="midnightblue" points="1004.58,-130.352 994.028,-131.251 1002.84,-137.131 1004.58,-130.352"/>
</g>
<!-- Node26&#45;&gt;Node21 -->
<g id="edge47" class="edge"><title>Node26&#45;&gt;Node21</title>
<path fill="none" stroke="midnightblue" d="M1125.8,-172.208C1028.57,-162.111 803.329,-138.721 702.423,-128.242"/>
<polygon fill="midnightblue" stroke="midnightblue" points="702.496,-124.731 692.188,-127.179 701.773,-131.694 702.496,-124.731"/>
</g>
<!-- Node27 -->
<g id="node27" class="node"><title>Node27</title>
<g id="a_node27"><a xlink:href="_i_plug_easing_8h.html" target="_top" xlink:title="Easing functions, based on Warren Moore&#39;s AHEasing library https://github.com/warrenm/AHEasing See he...">
<polygon fill="white" stroke="black" points="1164.44,-112.5 1164.44,-131.5 1241.44,-131.5 1241.44,-112.5 1164.44,-112.5"/>
<text text-anchor="middle" x="1202.94" y="-119.5" font-family="Helvetica,sans-Serif" font-size="10.00">IPlugEasing.h</text>
</a>
</g>
</g>
<!-- Node26&#45;&gt;Node27 -->
<g id="edge48" class="edge"><title>Node26&#45;&gt;Node27</title>
<path fill="none" stroke="midnightblue" d="M1177.06,-168.083C1181.35,-160.613 1187.6,-149.724 1192.88,-140.52"/>
<polygon fill="midnightblue" stroke="midnightblue" points="1195.97,-142.166 1197.92,-131.751 1189.9,-138.681 1195.97,-142.166"/>
</g>
<!-- Node28 -->
<g id="node28" class="node"><title>Node28</title>
<polygon fill="white" stroke="#bfbfbf" points="1179.44,-56.5 1179.44,-75.5 1226.44,-75.5 1226.44,-56.5 1179.44,-56.5"/>
<text text-anchor="middle" x="1202.94" y="-63.5" font-family="Helvetica,sans-Serif" font-size="10.00">math.h</text>
</g>
<!-- Node27&#45;&gt;Node28 -->
<g id="edge49" class="edge"><title>Node27&#45;&gt;Node28</title>
<path fill="none" stroke="midnightblue" d="M1202.94,-112.083C1202.94,-105.006 1202.94,-94.8611 1202.94,-85.9865"/>
<polygon fill="midnightblue" stroke="midnightblue" points="1206.44,-85.751 1202.94,-75.7511 1199.44,-85.7511 1206.44,-85.751"/>
</g>
<!-- Node30&#45;&gt;Node6 -->
<g id="edge52" class="edge"><title>Node30&#45;&gt;Node6</title>
<path fill="none" stroke="midnightblue" d="M478.183,-339.68C535.37,-332.664 635.506,-318.953 719.942,-300 730.679,-297.59 899.848,-248.383 909.942,-244 988.564,-209.863 1015.71,-200.719 1066.94,-132 1077.67,-117.605 1086.12,-98.9056 1091.47,-85.261"/>
<polygon fill="midnightblue" stroke="midnightblue" points="1094.86,-86.1734 1095.08,-75.5807 1088.3,-83.7278 1094.86,-86.1734"/>
</g>
<!-- Node30&#45;&gt;Node7 -->
<g id="edge53" class="edge"><title>Node30&#45;&gt;Node7</title>
<path fill="none" stroke="midnightblue" d="M416.159,-336.467C403.739,-328.769 387.337,-316.179 379.942,-300 365.9,-269.279 377.843,-257.713 379.942,-224 381.501,-198.966 373.578,-189.226 386.942,-168 395.76,-153.994 410.705,-143.511 424.526,-136.204"/>
<polygon fill="midnightblue" stroke="midnightblue" points="426.386,-139.19 433.826,-131.648 423.306,-132.904 426.386,-139.19"/>
</g>
<!-- Node30&#45;&gt;Node8 -->
<g id="edge54" class="edge"><title>Node30&#45;&gt;Node8</title>
<path fill="none" stroke="midnightblue" d="M477.99,-340.637C545.748,-333.881 676.162,-319.594 785.942,-300 787.396,-299.741 788.877,-299.462 790.37,-299.17"/>
<polygon fill="midnightblue" stroke="midnightblue" points="791.196,-302.573 800.261,-297.089 789.755,-295.723 791.196,-302.573"/>
</g>
<!-- Node30&#45;&gt;Node10 -->
<g id="edge55" class="edge"><title>Node30&#45;&gt;Node10</title>
<path fill="none" stroke="midnightblue" d="M478.293,-338.671C527.735,-331.406 608.106,-318.117 675.942,-300 731.142,-285.258 793.466,-261.731 829.572,-247.391"/>
<polygon fill="midnightblue" stroke="midnightblue" points="831.049,-250.57 839.032,-243.605 828.448,-244.071 831.049,-250.57"/>
</g>
<!-- Node30&#45;&gt;Node19 -->
<g id="edge56" class="edge"><title>Node30&#45;&gt;Node19</title>
<path fill="none" stroke="midnightblue" d="M410.68,-336.428C360.412,-314.654 239.908,-252.863 259.942,-168 266.335,-140.918 265.621,-128.616 287.942,-112 319.1,-88.8057 423.593,-76.5269 489.651,-70.925"/>
<polygon fill="midnightblue" stroke="midnightblue" points="490.226,-74.3896 499.906,-70.0826 489.653,-67.4131 490.226,-74.3896"/>
</g>
<!-- Node30&#45;&gt;Node21 -->
<g id="edge58" class="edge"><title>Node30&#45;&gt;Node21</title>
<path fill="none" stroke="midnightblue" d="M440.566,-336.297C473.623,-302.94 592.558,-182.923 635.952,-139.135"/>
<polygon fill="midnightblue" stroke="midnightblue" points="638.585,-141.45 643.138,-131.884 633.613,-136.523 638.585,-141.45"/>
</g>
<!-- Node30&#45;&gt;Node23 -->
<g id="edge57" class="edge"><title>Node30&#45;&gt;Node23</title>
<path fill="none" stroke="midnightblue" d="M462.999,-336.444C496.545,-327.201 550.139,-312.436 587.082,-302.257"/>
<polygon fill="midnightblue" stroke="midnightblue" points="588.319,-305.547 597.03,-299.516 586.46,-298.798 588.319,-305.547"/>
</g>
<!-- Node31 -->
<g id="node31" class="node"><title>Node31</title>
<g id="a_node31"><a xlink:href="_n_chan_delay_8h_source.html" target="_top" xlink:title="NChanDelay.h">
<polygon fill="white" stroke="black" points="182.442,-280.5 182.442,-299.5 263.442,-299.5 263.442,-280.5 182.442,-280.5"/>
<text text-anchor="middle" x="222.942" y="-287.5" font-family="Helvetica,sans-Serif" font-size="10.00">NChanDelay.h</text>
</a>
</g>
</g>
<!-- Node30&#45;&gt;Node31 -->
<g id="edge59" class="edge"><title>Node30&#45;&gt;Node31</title>
<path fill="none" stroke="midnightblue" d="M398.825,-336.444C362.824,-327.142 305.172,-312.246 265.756,-302.062"/>
<polygon fill="midnightblue" stroke="midnightblue" points="266.461,-298.629 255.904,-299.516 264.71,-305.407 266.461,-298.629"/>
</g>
<!-- Node32 -->
<g id="node32" class="node"><title>Node32</title>
<g id="a_node32"><a xlink:href="_i_plug_processor_8cpp_source.html" target="_top" xlink:title="IPlugProcessor.cpp">
<polygon fill="white" stroke="black" points="93.9419,-168.5 93.9419,-187.5 195.942,-187.5 195.942,-168.5 93.9419,-168.5"/>
<text text-anchor="middle" x="144.942" y="-175.5" font-family="Helvetica,sans-Serif" font-size="10.00">IPlugProcessor.cpp</text>
</a>
</g>
</g>
<!-- Node30&#45;&gt;Node32 -->
<g id="edge60" class="edge"><title>Node30&#45;&gt;Node32</title>
<path fill="none" stroke="midnightblue" d="M385.805,-343.289C317.527,-339.708 194.774,-329.17 163.942,-300 135.71,-273.289 133.353,-224.206 137.572,-197.497"/>
<polygon fill="midnightblue" stroke="midnightblue" points="141.03,-198.065 139.726,-187.551 134.188,-196.583 141.03,-198.065"/>
</g>
<!-- Node32&#45;&gt;Node13 -->
<g id="edge62" class="edge"><title>Node32&#45;&gt;Node13</title>
<path fill="none" stroke="midnightblue" d="M107.164,-168.458C67.9076,-157.937 15.3756,-138.193 39.9419,-112 82.6713,-66.4407 538.925,-83.4388 600.942,-76 607.118,-75.2592 613.681,-74.2614 619.971,-73.1997"/>
<polygon fill="midnightblue" stroke="midnightblue" points="620.947,-76.5812 630.181,-71.3866 619.723,-69.689 620.947,-76.5812"/>
</g>
<!-- Node32&#45;&gt;Node16 -->
<g id="edge63" class="edge"><title>Node32&#45;&gt;Node16</title>
<path fill="none" stroke="midnightblue" d="M192.857,-168.482C235.427,-160.626 299.517,-148.098 364.363,-131.956"/>
<polygon fill="midnightblue" stroke="midnightblue" points="365.509,-135.277 374.353,-129.442 363.801,-128.488 365.509,-135.277"/>
</g>
<!-- Node32&#45;&gt;Node17 -->
<g id="edge64" class="edge"><title>Node32&#45;&gt;Node17</title>
<path fill="none" stroke="midnightblue" d="M174.573,-168.444C207.942,-158.808 262.101,-143.168 297.372,-132.983"/>
<polygon fill="midnightblue" stroke="midnightblue" points="298.591,-136.274 307.227,-130.137 296.649,-129.549 298.591,-136.274"/>
</g>
<!-- Node32&#45;&gt;Node22 -->
<g id="edge61" class="edge"><title>Node32&#45;&gt;Node22</title>
<path fill="none" stroke="midnightblue" d="M93.6734,-170.911C43.8941,-162.905 -20.4433,-145.71 6.94194,-112 29.5972,-84.112 135.391,-72.8979 189.655,-68.9212"/>
<polygon fill="midnightblue" stroke="midnightblue" points="190.047,-72.4026 199.781,-68.2196 189.563,-65.4193 190.047,-72.4026"/>
</g>
<!-- Node32&#45;&gt;Node30 -->
<g id="edge67" class="edge"><title>Node32&#45;&gt;Node30</title>
<path fill="none" stroke="midnightblue" d="M148.347,-187.551C151.208,-209.725 149.676,-269.473 181.942,-300 209.517,-326.089 310.617,-337.273 375.576,-341.908"/>
<polygon fill="midnightblue" stroke="midnightblue" points="375.459,-345.408 385.674,-342.596 375.936,-338.424 375.459,-345.408"/>
</g>
<!-- Node33 -->
<g id="node33" class="node"><title>Node33</title>
<polygon fill="white" stroke="#bfbfbf" points="48.9419,-112.5 48.9419,-131.5 116.942,-131.5 116.942,-112.5 48.9419,-112.5"/>
<text text-anchor="middle" x="82.9419" y="-119.5" font-family="Helvetica,sans-Serif" font-size="10.00">wdlendian.h</text>
</g>
<!-- Node32&#45;&gt;Node33 -->
<g id="edge65" class="edge"><title>Node32&#45;&gt;Node33</title>
<path fill="none" stroke="midnightblue" d="M134.981,-168.324C125.815,-160.341 112.005,-148.313 100.914,-138.653"/>
<polygon fill="midnightblue" stroke="midnightblue" points="102.924,-135.762 93.0846,-131.834 98.3267,-141.041 102.924,-135.762"/>
</g>
<!-- Node34 -->
<g id="node34" class="node"><title>Node34</title>
<polygon fill="white" stroke="#bfbfbf" points="135.442,-112.5 135.442,-131.5 212.442,-131.5 212.442,-112.5 135.442,-112.5"/>
<text text-anchor="middle" x="173.942" y="-119.5" font-family="Helvetica,sans-Serif" font-size="10.00">wdl_base64.h</text>
</g>
<!-- Node32&#45;&gt;Node34 -->
<g id="edge66" class="edge"><title>Node32&#45;&gt;Node34</title>
<path fill="none" stroke="midnightblue" d="M149.731,-168.083C153.7,-160.691 159.467,-149.953 164.377,-140.811"/>
<polygon fill="midnightblue" stroke="midnightblue" points="167.594,-142.217 169.242,-131.751 161.427,-138.905 167.594,-142.217"/>
</g>
<!-- Node35&#45;&gt;Node6 -->
<g id="edge69" class="edge"><title>Node35&#45;&gt;Node6</title>
<path fill="none" stroke="midnightblue" d="M828.266,-336.45C919.906,-313.036 1167.4,-245.77 1226.94,-188 1252.27,-163.425 1271.06,-140.275 1249.94,-112 1235.7,-92.9327 1171.33,-79.0903 1131.06,-72.1154"/>
<polygon fill="midnightblue" stroke="midnightblue" points="1131.58,-68.6541 1121.14,-70.4511 1130.42,-75.5576 1131.58,-68.6541"/>
</g>
<!-- Node35&#45;&gt;Node7 -->
<g id="edge70" class="edge"><title>Node35&#45;&gt;Node7</title>
<path fill="none" stroke="midnightblue" d="M753.412,-342.918C681.791,-338.592 536.397,-326.721 493.942,-300 442.274,-267.481 455.264,-229.045 455.942,-168 456.038,-159.396 456.236,-149.869 456.431,-141.804"/>
<polygon fill="midnightblue" stroke="midnightblue" points="459.934,-141.713 456.693,-131.626 452.937,-141.532 459.934,-141.713"/>
</g>
<!-- Node35&#45;&gt;Node8 -->
<g id="edge71" class="edge"><title>Node35&#45;&gt;Node8</title>
<path fill="none" stroke="midnightblue" d="M799.061,-336.083C803.349,-328.613 809.6,-317.724 814.884,-308.52"/>
<polygon fill="midnightblue" stroke="midnightblue" points="817.975,-310.166 819.918,-299.751 811.904,-306.681 817.975,-310.166"/>
</g>
<!-- Node35&#45;&gt;Node9 -->
<g id="edge72" class="edge"><title>Node35&#45;&gt;Node9</title>
<path fill="none" stroke="midnightblue" d="M834.55,-337.356C837.723,-336.861 840.881,-336.401 843.942,-336 891.919,-329.707 1240.92,-331.159 1277.94,-300 1325.07,-260.335 1327.18,-179.137 1325.45,-142.135"/>
<polygon fill="midnightblue" stroke="midnightblue" points="1328.92,-141.545 1324.8,-131.783 1321.93,-141.982 1328.92,-141.545"/>
</g>
<!-- Node35&#45;&gt;Node10 -->
<g id="edge73" class="edge"><title>Node35&#45;&gt;Node10</title>
<path fill="none" stroke="midnightblue" d="M814.956,-336.431C829.836,-329.135 848.726,-317.098 857.942,-300 865.559,-285.869 865.331,-267.383 863.624,-253.74"/>
<polygon fill="midnightblue" stroke="midnightblue" points="867.038,-252.93 861.981,-243.62 860.129,-254.051 867.038,-252.93"/>
</g>
<!-- Node35&#45;&gt;Node19 -->
<g id="edge74" class="edge"><title>Node35&#45;&gt;Node19</title>
<path fill="none" stroke="midnightblue" d="M753.207,-342.756C708.532,-338.895 635.769,-328.415 579.942,-300 541.521,-280.445 507.942,-278.111 507.942,-235 507.942,-235 507.942,-235 507.942,-177 507.942,-142.813 524.542,-105.764 535.799,-84.5707"/>
<polygon fill="midnightblue" stroke="midnightblue" points="538.889,-86.2151 540.658,-75.769 532.761,-82.832 538.889,-86.2151"/>
</g>
<!-- Node35&#45;&gt;Node21 -->
<g id="edge76" class="edge"><title>Node35&#45;&gt;Node21</title>
<path fill="none" stroke="midnightblue" d="M788.375,-336.297C767.26,-303.286 691.858,-185.404 663.15,-140.522"/>
<polygon fill="midnightblue" stroke="midnightblue" points="665.961,-138.422 657.624,-131.884 660.064,-142.194 665.961,-138.422"/>
</g>
<!-- Node35&#45;&gt;Node23 -->
<g id="edge75" class="edge"><title>Node35&#45;&gt;Node23</title>
<path fill="none" stroke="midnightblue" d="M767.639,-336.444C739.591,-327.32 694.998,-312.813 663.758,-302.651"/>
<polygon fill="midnightblue" stroke="midnightblue" points="664.714,-299.282 654.122,-299.516 662.549,-305.938 664.714,-299.282"/>
</g>
<!-- Node35&#45;&gt;Node26 -->
<g id="edge77" class="edge"><title>Node35&#45;&gt;Node26</title>
<path fill="none" stroke="midnightblue" d="M813.469,-336.425C875.683,-309.103 1069.47,-224.001 1143.13,-191.652"/>
<polygon fill="midnightblue" stroke="midnightblue" points="1144.56,-194.849 1152.3,-187.624 1141.74,-188.44 1144.56,-194.849"/>
</g>
</g>
</svg>
        <g id="navigator" transform="translate(0 0)" fill="#404254">
                <rect fill="#f2f5e9" fill-opacity="0.5" stroke="#606060" stroke-width=".5" x="0" y="0" width="60" height="60"/>
                <use id="zoomplus" xlink:href="#zoomPlus" x="17" y="9" onmousedown="handleZoom(evt,'in')"/>
                <use id="zoomminus" xlink:href="#zoomMin" x="42" y="9" onmousedown="handleZoom(evt,'out')"/>
                <use id="reset" xlink:href="#resetDef" x="30" y="36" onmousedown="handleReset()"/>
                <g id="arrowUp" xlink:href="#dirArrow" transform="translate(30 24)" onmousedown="handlePan(0,-1)">
                  <use xlink:href="#rim" fill="#404040">
                        <set attributeName="fill" to="#808080" begin="arrowUp.mouseover" end="arrowUp.mouseout"/>
                  </use>
                  <path fill="none" stroke="white" stroke-width="1.5" d="M0,-3.0v7 M-2.5,-0.5L0,-3.0L2.5,-0.5"/>
                </g>
                <g id="arrowRight" xlink:href="#dirArrow" transform="rotate(90) translate(36 -43)" onmousedown="handlePan(1,0)">
                  <use xlink:href="#rim" fill="#404040">
                        <set attributeName="fill" to="#808080" begin="arrowRight.mouseover" end="arrowRight.mouseout"/>
                  </use>
                  <path fill="none" stroke="white" stroke-width="1.5" d="M0,-3.0v7 M-2.5,-0.5L0,-3.0L2.5,-0.5"/>
                </g>
                <g id="arrowDown" xlink:href="#dirArrow" transform="rotate(180) translate(-30 -48)" onmousedown="handlePan(0,1)">
                  <use xlink:href="#rim" fill="#404040">
                        <set attributeName="fill" to="#808080" begin="arrowDown.mouseover" end="arrowDown.mouseout"/>
                  </use>
                  <path fill="none" stroke="white" stroke-width="1.5" d="M0,-3.0v7 M-2.5,-0.5L0,-3.0L2.5,-0.5"/>
                </g>
                <g id="arrowLeft" xlink:href="#dirArrow" transform="rotate(270) translate(-36 17)" onmousedown="handlePan(-1,0)">
                  <use xlink:href="#rim" fill="#404040">
                        <set attributeName="fill" to="#808080" begin="arrowLeft.mouseover" end="arrowLeft.mouseout"/>
                  </use>
                  <path fill="none" stroke="white" stroke-width="1.5" d="M0,-3.0v7 M-2.5,-0.5L0,-3.0L2.5,-0.5"/>
                </g>
        </g>
        <svg viewBox="0 0 15 15" width="100%" height="30px" preserveAspectRatio="xMaxYMin meet">
         <g id="arrow_out" transform="scale(0.3 0.3)">
          <a xlink:href="_i_plug_v_s_t_8h__incl_org.svg" target="_base">
           <rect id="button" ry="5" rx="5" y="6" x="6" height="38" width="38"
                fill="#f2f5e9" fill-opacity="0.5" stroke="#606060" stroke-width="1.0"/>
           <path id="arrow"
             d="M 11.500037,31.436501 C 11.940474,20.09759 22.043105,11.32322 32.158766,21.979434 L 37.068811,17.246167 C 37.068811,17.246167 37.088388,32 37.088388,32 L 22.160133,31.978069 C 22.160133,31.978069 26.997745,27.140456 26.997745,27.140456 C 18.528582,18.264221 13.291696,25.230495 11.500037,31.436501 z"
             style="fill:#404040;"/>
          </a>
         </g>
        </svg>
</svg>
