<?xml version="1.0" encoding="UTF-8" standalone="no"?>
<!DOCTYPE svg PUBLIC "-//W3C//DTD SVG 1.1//EN"
 "http://www.w3.org/Graphics/SVG/1.1/DTD/svg11.dtd">
<!-- Generated by graphviz version 2.36.0 (20140111.2315)
 -->
<!-- Title: IPlugBase.h Pages: 1 -->
<svg width="1071pt" height="364pt"
 viewBox="0.00 0.00 1070.92 364.00" xmlns="http://www.w3.org/2000/svg" xmlns:xlink="http://www.w3.org/1999/xlink">
<g id="graph0" class="graph" transform="scale(1 1) rotate(0) translate(4 360)">
<title>IPlugBase.h</title>
<polygon fill="white" stroke="none" points="-4,4 -4,-360 1066.92,-360 1066.92,4 -4,4"/>
<!-- Node1 -->
<g id="node1" class="node"><title>Node1</title>
<polygon fill="#bfbfbf" stroke="black" points="478.925,-336.5 478.925,-355.5 548.925,-355.5 548.925,-336.5 478.925,-336.5"/>
<text text-anchor="middle" x="513.925" y="-343.5" font-family="Helvetica,sans-Serif" font-size="10.00">IPlugBase.h</text>
</g>
<!-- Node2 -->
<g id="node2" class="node"><title>Node2</title>
<polygon fill="white" stroke="#bfbfbf" points="301.925,-56.5 301.925,-75.5 347.925,-75.5 347.925,-56.5 301.925,-56.5"/>
<text text-anchor="middle" x="324.925" y="-63.5" font-family="Helvetica,sans-Serif" font-size="10.00">cstring</text>
</g>
<!-- Node1&#45;&gt;Node2 -->
<g id="edge1" class="edge"><title>Node1&#45;&gt;Node2</title>
<path fill="none" stroke="midnightblue" d="M478.664,-344.974C362.763,-343.952 0.92451,-332.918 0.92451,-235 0.92451,-235 0.92451,-235 0.92451,-177 0.92451,-146.902 -2.77353,-131.766 19.9245,-112 59.9505,-77.1452 221.003,-69.2872 291.546,-67.5157"/>
<polygon fill="midnightblue" stroke="midnightblue" points="291.747,-71.0121 301.666,-67.2881 291.59,-64.0139 291.747,-71.0121"/>
</g>
<!-- Node3 -->
<g id="node3" class="node"><title>Node3</title>
<polygon fill="white" stroke="#bfbfbf" points="873.925,-112.5 873.925,-131.5 919.925,-131.5 919.925,-112.5 873.925,-112.5"/>
<text text-anchor="middle" x="896.925" y="-119.5" font-family="Helvetica,sans-Serif" font-size="10.00">cstdint</text>
</g>
<!-- Node1&#45;&gt;Node3 -->
<g id="edge2" class="edge"><title>Node1&#45;&gt;Node3</title>
<path fill="none" stroke="midnightblue" d="M539.472,-336.388C596.292,-316.438 735.839,-262.968 833.925,-188 852.743,-173.617 871.24,-153.639 883.271,-139.64"/>
<polygon fill="midnightblue" stroke="midnightblue" points="886.109,-141.704 889.872,-131.8 880.754,-137.196 886.109,-141.704"/>
</g>
<!-- Node4 -->
<g id="node4" class="node"><title>Node4</title>
<polygon fill="white" stroke="#bfbfbf" points="1014.42,-280.5 1014.42,-299.5 1063.42,-299.5 1063.42,-280.5 1014.42,-280.5"/>
<text text-anchor="middle" x="1038.92" y="-287.5" font-family="Helvetica,sans-Serif" font-size="10.00">ptrlist.h</text>
</g>
<!-- Node1&#45;&gt;Node4 -->
<g id="edge3" class="edge"><title>Node1&#45;&gt;Node4</title>
<path fill="none" stroke="midnightblue" d="M549.197,-343.363C629.585,-339.277 832.396,-326.961 999.925,-300 1001.38,-299.765 1002.87,-299.508 1004.36,-299.232"/>
<polygon fill="midnightblue" stroke="midnightblue" points="1005.16,-302.641 1014.27,-297.218 1003.77,-295.782 1005.16,-302.641"/>
</g>
<!-- Node5 -->
<g id="node5" class="node"><title>Node5</title>
<polygon fill="white" stroke="#bfbfbf" points="124.925,-112.5 124.925,-131.5 176.925,-131.5 176.925,-112.5 124.925,-112.5"/>
<text text-anchor="middle" x="150.925" y="-119.5" font-family="Helvetica,sans-Serif" font-size="10.00">mutex.h</text>
</g>
<!-- Node1&#45;&gt;Node5 -->
<g id="edge4" class="edge"><title>Node1&#45;&gt;Node5</title>
<path fill="none" stroke="midnightblue" d="M478.869,-341.779C439.704,-337.037 375.32,-325.765 325.925,-300 250.307,-260.557 187.271,-176.729 162.361,-140.396"/>
<polygon fill="midnightblue" stroke="midnightblue" points="165.102,-138.201 156.614,-131.86 159.295,-142.11 165.102,-138.201"/>
</g>
<!-- Node6 -->
<g id="node6" class="node"><title>Node6</title>
<g id="a_node6"><a xlink:href="_i_plug_platform_8h.html" target="_top" xlink:title="Include to get consistently named preprocessor macros for different platforms and logging functionali...">
<polygon fill="white" stroke="black" points="471.925,-224.5 471.925,-243.5 555.925,-243.5 555.925,-224.5 471.925,-224.5"/>
<text text-anchor="middle" x="513.925" y="-231.5" font-family="Helvetica,sans-Serif" font-size="10.00">IPlugPlatform.h</text>
</a>
</g>
</g>
<!-- Node1&#45;&gt;Node6 -->
<g id="edge5" class="edge"><title>Node1&#45;&gt;Node6</title>
<path fill="none" stroke="midnightblue" d="M513.925,-336.368C513.925,-318.617 513.925,-277.666 513.925,-253.597"/>
<polygon fill="midnightblue" stroke="midnightblue" points="517.425,-253.591 513.925,-243.591 510.425,-253.591 517.425,-253.591"/>
</g>
<!-- Node15 -->
<g id="node15" class="node"><title>Node15</title>
<g id="a_node15"><a xlink:href="_i_plug_constants_8h.html" target="_top" xlink:title="Constant definitions, Types, magic numbers. ">
<polygon fill="white" stroke="black" points="799.925,-56.5 799.925,-75.5 891.925,-75.5 891.925,-56.5 799.925,-56.5"/>
<text text-anchor="middle" x="845.925" y="-63.5" font-family="Helvetica,sans-Serif" font-size="10.00">IPlugConstants.h</text>
</a>
</g>
</g>
<!-- Node1&#45;&gt;Node15 -->
<g id="edge28" class="edge"><title>Node1&#45;&gt;Node15</title>
<path fill="none" stroke="midnightblue" d="M549.016,-344.327C658.403,-341.293 985.925,-324.715 985.925,-235 985.925,-235 985.925,-235 985.925,-177 985.925,-125.347 926.273,-94.2582 884.845,-78.8952"/>
<polygon fill="midnightblue" stroke="midnightblue" points="885.868,-75.5443 875.273,-75.501 883.528,-82.1418 885.868,-75.5443"/>
</g>
<!-- Node17 -->
<g id="node17" class="node"><title>Node17</title>
<g id="a_node17"><a xlink:href="_i_plug_utilities_8h.html" target="_top" xlink:title="Utility functions and macros. ">
<polygon fill="white" stroke="black" points="428.925,-112.5 428.925,-131.5 508.925,-131.5 508.925,-112.5 428.925,-112.5"/>
<text text-anchor="middle" x="468.925" y="-119.5" font-family="Helvetica,sans-Serif" font-size="10.00">IPlugUtilities.h</text>
</a>
</g>
</g>
<!-- Node1&#45;&gt;Node17 -->
<g id="edge39" class="edge"><title>Node1&#45;&gt;Node17</title>
<path fill="none" stroke="midnightblue" d="M507.775,-336.361C496.235,-319.558 471.708,-280.88 462.925,-244 454.469,-208.497 460.233,-165.532 464.824,-141.532"/>
<polygon fill="midnightblue" stroke="midnightblue" points="468.268,-142.161 466.856,-131.661 461.412,-140.749 468.268,-142.161"/>
</g>
<!-- Node19 -->
<g id="node19" class="node"><title>Node19</title>
<g id="a_node19"><a xlink:href="_i_plug_structs_8h_source.html" target="_top" xlink:title="IPlugStructs.h">
<polygon fill="white" stroke="black" points="543.425,-280.5 543.425,-299.5 622.425,-299.5 622.425,-280.5 543.425,-280.5"/>
<text text-anchor="middle" x="582.925" y="-287.5" font-family="Helvetica,sans-Serif" font-size="10.00">IPlugStructs.h</text>
</a>
</g>
</g>
<!-- Node1&#45;&gt;Node19 -->
<g id="edge29" class="edge"><title>Node1&#45;&gt;Node19</title>
<path fill="none" stroke="midnightblue" d="M525.011,-336.324C535.411,-328.185 551.185,-315.839 563.646,-306.087"/>
<polygon fill="midnightblue" stroke="midnightblue" points="565.919,-308.753 571.637,-299.834 561.605,-303.241 565.919,-308.753"/>
</g>
<!-- Node22 -->
<g id="node22" class="node"><title>Node22</title>
<g id="a_node22"><a xlink:href="_i_plug_parameter_8h_source.html" target="_top" xlink:title="IPlugParameter.h">
<polygon fill="white" stroke="black" points="208.925,-168.5 208.925,-187.5 300.925,-187.5 300.925,-168.5 208.925,-168.5"/>
<text text-anchor="middle" x="254.925" y="-175.5" font-family="Helvetica,sans-Serif" font-size="10.00">IPlugParameter.h</text>
</a>
</g>
</g>
<!-- Node1&#45;&gt;Node22 -->
<g id="edge40" class="edge"><title>Node1&#45;&gt;Node22</title>
<path fill="none" stroke="midnightblue" d="M478.708,-341.428C444.258,-336.561 391.491,-325.339 352.925,-300 311.656,-272.886 279.386,-222.861 264.284,-196.425"/>
<polygon fill="midnightblue" stroke="midnightblue" points="267.268,-194.589 259.353,-187.545 261.148,-197.987 267.268,-194.589"/>
</g>
<!-- Node6&#45;&gt;Node2 -->
<g id="edge6" class="edge"><title>Node6&#45;&gt;Node2</title>
<path fill="none" stroke="midnightblue" d="M498.919,-224.266C472.021,-208.178 414.61,-171.84 373.925,-132 358.993,-117.379 344.962,-97.9611 335.773,-84.1665"/>
<polygon fill="midnightblue" stroke="midnightblue" points="338.618,-82.1205 330.234,-75.6429 332.748,-85.935 338.618,-82.1205"/>
</g>
<!-- Node7 -->
<g id="node7" class="node"><title>Node7</title>
<polygon fill="white" stroke="#bfbfbf" points="652.425,-56.5 652.425,-75.5 697.425,-75.5 697.425,-56.5 652.425,-56.5"/>
<text text-anchor="middle" x="674.925" y="-63.5" font-family="Helvetica,sans-Serif" font-size="10.00">cstdlib</text>
</g>
<!-- Node6&#45;&gt;Node7 -->
<g id="edge7" class="edge"><title>Node6&#45;&gt;Node7</title>
<path fill="none" stroke="midnightblue" d="M536.025,-224.49C568.963,-210.561 630.227,-179.589 659.925,-132 668.642,-118.03 672.304,-99.5264 673.836,-85.835"/>
<polygon fill="midnightblue" stroke="midnightblue" points="677.34,-85.9284 674.686,-75.6713 670.364,-85.3445 677.34,-85.9284"/>
</g>
<!-- Node8 -->
<g id="node8" class="node"><title>Node8</title>
<g id="a_node8"><a xlink:href="_i_plug_logger_8h.html" target="_top" xlink:title="IPlug logging a.k.a tracing functionailty. ">
<polygon fill="white" stroke="black" points="505.425,-168.5 505.425,-187.5 582.425,-187.5 582.425,-168.5 505.425,-168.5"/>
<text text-anchor="middle" x="543.925" y="-175.5" font-family="Helvetica,sans-Serif" font-size="10.00">IPlugLogger.h</text>
</a>
</g>
</g>
<!-- Node6&#45;&gt;Node8 -->
<g id="edge8" class="edge"><title>Node6&#45;&gt;Node8</title>
<path fill="none" stroke="midnightblue" d="M518.878,-224.083C523.029,-216.613 529.078,-205.724 534.191,-196.52"/>
<polygon fill="midnightblue" stroke="midnightblue" points="537.266,-198.192 539.063,-187.751 531.147,-194.793 537.266,-198.192"/>
</g>
<!-- Node8&#45;&gt;Node2 -->
<g id="edge13" class="edge"><title>Node8&#45;&gt;Node2</title>
<path fill="none" stroke="midnightblue" d="M505.526,-168.456C476.968,-161.174 437.622,-149.141 405.925,-132 381.302,-118.685 356.754,-97.614 341.246,-83.0914"/>
<polygon fill="midnightblue" stroke="midnightblue" points="343.261,-80.1751 333.617,-75.7877 338.42,-85.2314 343.261,-80.1751"/>
</g>
<!-- Node8&#45;&gt;Node3 -->
<g id="edge12" class="edge"><title>Node8&#45;&gt;Node3</title>
<path fill="none" stroke="midnightblue" d="M582.711,-171.067C652.44,-160.4 797.807,-138.162 863.463,-128.119"/>
<polygon fill="midnightblue" stroke="midnightblue" points="864.305,-131.531 873.66,-126.559 863.246,-124.611 864.305,-131.531"/>
</g>
<!-- Node8&#45;&gt;Node5 -->
<g id="edge17" class="edge"><title>Node8&#45;&gt;Node5</title>
<path fill="none" stroke="midnightblue" d="M505.167,-171.674C429.123,-161.226 261.346,-138.172 187.281,-127.996"/>
<polygon fill="midnightblue" stroke="midnightblue" points="187.439,-124.484 177.055,-126.59 186.486,-131.419 187.439,-124.484"/>
</g>
<!-- Node9 -->
<g id="node9" class="node"><title>Node9</title>
<polygon fill="white" stroke="#bfbfbf" points="537.425,-56.5 537.425,-75.5 580.425,-75.5 580.425,-56.5 537.425,-56.5"/>
<text text-anchor="middle" x="558.925" y="-63.5" font-family="Helvetica,sans-Serif" font-size="10.00">cstdio</text>
</g>
<!-- Node8&#45;&gt;Node9 -->
<g id="edge9" class="edge"><title>Node8&#45;&gt;Node9</title>
<path fill="none" stroke="midnightblue" d="M582.481,-170.271C604.515,-164.236 630.383,-152.943 643.925,-132 660.535,-106.31 620.603,-86.7743 589.999,-76.1057"/>
<polygon fill="midnightblue" stroke="midnightblue" points="591.067,-72.7726 580.474,-72.9569 588.87,-79.4188 591.067,-72.7726"/>
</g>
<!-- Node10 -->
<g id="node10" class="node"><title>Node10</title>
<polygon fill="white" stroke="#bfbfbf" points="380.925,-56.5 380.925,-75.5 426.925,-75.5 426.925,-56.5 380.925,-56.5"/>
<text text-anchor="middle" x="403.925" y="-63.5" font-family="Helvetica,sans-Serif" font-size="10.00">cctype</text>
</g>
<!-- Node8&#45;&gt;Node10 -->
<g id="edge10" class="edge"><title>Node8&#45;&gt;Node10</title>
<path fill="none" stroke="midnightblue" d="M505.277,-172.622C477.687,-167.468 441.737,-156.275 419.925,-132 408.647,-119.449 405.015,-100.228 403.984,-85.9385"/>
<polygon fill="midnightblue" stroke="midnightblue" points="407.475,-85.6259 403.618,-75.7581 400.479,-85.8774 407.475,-85.6259"/>
</g>
<!-- Node11 -->
<g id="node11" class="node"><title>Node11</title>
<polygon fill="white" stroke="#bfbfbf" points="527.425,-112.5 527.425,-131.5 576.425,-131.5 576.425,-112.5 527.425,-112.5"/>
<text text-anchor="middle" x="551.925" y="-119.5" font-family="Helvetica,sans-Serif" font-size="10.00">cstdarg</text>
</g>
<!-- Node8&#45;&gt;Node11 -->
<g id="edge11" class="edge"><title>Node8&#45;&gt;Node11</title>
<path fill="none" stroke="midnightblue" d="M545.246,-168.083C546.306,-160.927 547.83,-150.635 549.155,-141.691"/>
<polygon fill="midnightblue" stroke="midnightblue" points="552.625,-142.156 550.628,-131.751 545.7,-141.13 552.625,-142.156"/>
</g>
<!-- Node12 -->
<g id="node12" class="node"><title>Node12</title>
<polygon fill="white" stroke="#bfbfbf" points="594.425,-112.5 594.425,-131.5 635.425,-131.5 635.425,-112.5 594.425,-112.5"/>
<text text-anchor="middle" x="614.925" y="-119.5" font-family="Helvetica,sans-Serif" font-size="10.00">ctime</text>
</g>
<!-- Node8&#45;&gt;Node12 -->
<g id="edge14" class="edge"><title>Node8&#45;&gt;Node12</title>
<path fill="none" stroke="midnightblue" d="M555.332,-168.324C566.033,-160.185 582.265,-147.839 595.087,-138.087"/>
<polygon fill="midnightblue" stroke="midnightblue" points="597.469,-140.673 603.31,-131.834 593.231,-135.102 597.469,-140.673"/>
</g>
<!-- Node13 -->
<g id="node13" class="node"><title>Node13</title>
<polygon fill="white" stroke="#bfbfbf" points="768.425,-112.5 768.425,-131.5 817.425,-131.5 817.425,-112.5 768.425,-112.5"/>
<text text-anchor="middle" x="792.925" y="-119.5" font-family="Helvetica,sans-Serif" font-size="10.00">cassert</text>
</g>
<!-- Node8&#45;&gt;Node13 -->
<g id="edge15" class="edge"><title>Node8&#45;&gt;Node13</title>
<path fill="none" stroke="midnightblue" d="M582.669,-168.888C624.839,-160.014 694.235,-145.282 753.925,-132 755.366,-131.679 756.837,-131.35 758.322,-131.015"/>
<polygon fill="midnightblue" stroke="midnightblue" points="759.206,-134.404 768.18,-128.772 757.653,-127.578 759.206,-134.404"/>
</g>
<!-- Node14 -->
<g id="node14" class="node"><title>Node14</title>
<polygon fill="white" stroke="#bfbfbf" points="232.925,-112.5 232.925,-131.5 296.925,-131.5 296.925,-112.5 232.925,-112.5"/>
<text text-anchor="middle" x="264.925" y="-119.5" font-family="Helvetica,sans-Serif" font-size="10.00">wdlstring.h</text>
</g>
<!-- Node8&#45;&gt;Node14 -->
<g id="edge16" class="edge"><title>Node8&#45;&gt;Node14</title>
<path fill="none" stroke="midnightblue" d="M505.424,-169.548C453.322,-159.464 360.708,-141.539 306.881,-131.121"/>
<polygon fill="midnightblue" stroke="midnightblue" points="307.462,-127.668 296.979,-129.204 306.131,-134.541 307.462,-127.668"/>
</g>
<!-- Node8&#45;&gt;Node15 -->
<g id="edge18" class="edge"><title>Node8&#45;&gt;Node15</title>
<path fill="none" stroke="midnightblue" d="M567.622,-168.368C621.099,-148.89 751.264,-101.479 812.735,-79.089"/>
<polygon fill="midnightblue" stroke="midnightblue" points="814.139,-82.3026 822.337,-75.5914 811.743,-75.7253 814.139,-82.3026"/>
</g>
<!-- Node8&#45;&gt;Node17 -->
<g id="edge20" class="edge"><title>Node8&#45;&gt;Node17</title>
<path fill="none" stroke="midnightblue" d="M531.874,-168.324C520.461,-160.107 503.094,-147.602 489.49,-137.807"/>
<polygon fill="midnightblue" stroke="midnightblue" points="491.354,-134.837 481.194,-131.834 487.264,-140.517 491.354,-134.837"/>
</g>
<!-- Node16 -->
<g id="node16" class="node"><title>Node16</title>
<polygon fill="white" stroke="#bfbfbf" points="816.425,-0.5 816.425,-19.5 875.425,-19.5 875.425,-0.5 816.425,-0.5"/>
<text text-anchor="middle" x="845.925" y="-7.5" font-family="Helvetica,sans-Serif" font-size="10.00">functional</text>
</g>
<!-- Node15&#45;&gt;Node16 -->
<g id="edge19" class="edge"><title>Node15&#45;&gt;Node16</title>
<path fill="none" stroke="midnightblue" d="M845.925,-56.083C845.925,-49.0059 845.925,-38.8611 845.925,-29.9865"/>
<polygon fill="midnightblue" stroke="midnightblue" points="849.425,-29.751 845.925,-19.7511 842.425,-29.7511 849.425,-29.751"/>
</g>
<!-- Node17&#45;&gt;Node2 -->
<g id="edge24" class="edge"><title>Node17&#45;&gt;Node2</title>
<path fill="none" stroke="midnightblue" d="M446.107,-112.444C422.093,-103.438 384.096,-89.1891 357.055,-79.049"/>
<polygon fill="midnightblue" stroke="midnightblue" points="358.227,-75.7506 347.635,-75.5164 355.769,-82.3049 358.227,-75.7506"/>
</g>
<!-- Node17&#45;&gt;Node6 -->
<g id="edge27" class="edge"><title>Node17&#45;&gt;Node6</title>
<path fill="none" stroke="midnightblue" d="M472.439,-131.591C479.752,-149.468 496.741,-190.997 506.56,-214.998"/>
<polygon fill="midnightblue" stroke="midnightblue" points="503.368,-216.438 510.393,-224.368 509.846,-213.788 503.368,-216.438"/>
</g>
<!-- Node17&#45;&gt;Node7 -->
<g id="edge23" class="edge"><title>Node17&#45;&gt;Node7</title>
<path fill="none" stroke="midnightblue" d="M501.566,-112.444C540.039,-102.358 603.599,-85.6971 642.135,-75.5952"/>
<polygon fill="midnightblue" stroke="midnightblue" points="643.514,-78.8522 652.3,-72.9308 641.739,-72.0809 643.514,-78.8522"/>
</g>
<!-- Node17&#45;&gt;Node9 -->
<g id="edge22" class="edge"><title>Node17&#45;&gt;Node9</title>
<path fill="none" stroke="midnightblue" d="M483.385,-112.324C497.424,-103.9 518.973,-90.9709 535.468,-81.0741"/>
<polygon fill="midnightblue" stroke="midnightblue" points="537.726,-83.8007 544.5,-75.6545 534.125,-77.7983 537.726,-83.8007"/>
</g>
<!-- Node17&#45;&gt;Node10 -->
<g id="edge25" class="edge"><title>Node17&#45;&gt;Node10</title>
<path fill="none" stroke="midnightblue" d="M458.481,-112.324C448.778,-104.263 434.109,-92.0765 422.425,-82.3695"/>
<polygon fill="midnightblue" stroke="midnightblue" points="424.486,-79.532 414.558,-75.8339 420.013,-84.9163 424.486,-79.532"/>
</g>
<!-- Node17&#45;&gt;Node15 -->
<g id="edge26" class="edge"><title>Node17&#45;&gt;Node15</title>
<path fill="none" stroke="midnightblue" d="M509.01,-113.485C512.024,-112.966 515.021,-112.466 517.925,-112 613.007,-96.7536 724.118,-82.1897 789.555,-73.945"/>
<polygon fill="midnightblue" stroke="midnightblue" points="790.169,-77.3954 799.655,-72.6769 789.297,-70.4499 790.169,-77.3954"/>
</g>
<!-- Node18 -->
<g id="node18" class="node"><title>Node18</title>
<polygon fill="white" stroke="#bfbfbf" points="446.925,-56.5 446.925,-75.5 490.925,-75.5 490.925,-56.5 446.925,-56.5"/>
<text text-anchor="middle" x="468.925" y="-63.5" font-family="Helvetica,sans-Serif" font-size="10.00">cmath</text>
</g>
<!-- Node17&#45;&gt;Node18 -->
<g id="edge21" class="edge"><title>Node17&#45;&gt;Node18</title>
<path fill="none" stroke="midnightblue" d="M468.925,-112.083C468.925,-105.006 468.925,-94.8611 468.925,-85.9865"/>
<polygon fill="midnightblue" stroke="midnightblue" points="472.425,-85.751 468.925,-75.7511 465.425,-85.7511 472.425,-85.751"/>
</g>
<!-- Node19&#45;&gt;Node6 -->
<g id="edge33" class="edge"><title>Node19&#45;&gt;Node6</title>
<path fill="none" stroke="midnightblue" d="M571.838,-280.324C561.438,-272.185 545.664,-259.839 533.203,-250.087"/>
<polygon fill="midnightblue" stroke="midnightblue" points="535.244,-247.241 525.212,-243.834 530.93,-252.753 535.244,-247.241"/>
</g>
<!-- Node19&#45;&gt;Node14 -->
<g id="edge31" class="edge"><title>Node19&#45;&gt;Node14</title>
<path fill="none" stroke="midnightblue" d="M555.623,-280.413C530.893,-272.251 493.724,-259.017 462.925,-244 395.447,-211.099 321.292,-161.983 285.935,-137.691"/>
<polygon fill="midnightblue" stroke="midnightblue" points="287.634,-134.611 277.418,-131.803 283.654,-140.369 287.634,-134.611"/>
</g>
<!-- Node19&#45;&gt;Node15 -->
<g id="edge32" class="edge"><title>Node19&#45;&gt;Node15</title>
<path fill="none" stroke="midnightblue" d="M622.511,-285.422C699.046,-276.067 865.359,-243.257 928.925,-132 942.448,-108.331 912.141,-90.2014 884.427,-79.1773"/>
<polygon fill="midnightblue" stroke="midnightblue" points="885.401,-75.8047 874.809,-75.5768 882.947,-82.3605 885.401,-75.8047"/>
</g>
<!-- Node20 -->
<g id="node20" class="node"><title>Node20</title>
<polygon fill="white" stroke="#bfbfbf" points="611.925,-224.5 611.925,-243.5 667.925,-243.5 667.925,-224.5 611.925,-224.5"/>
<text text-anchor="middle" x="639.925" y="-231.5" font-family="Helvetica,sans-Serif" font-size="10.00">algorithm</text>
</g>
<!-- Node19&#45;&gt;Node20 -->
<g id="edge30" class="edge"><title>Node19&#45;&gt;Node20</title>
<path fill="none" stroke="midnightblue" d="M592.083,-280.324C600.426,-272.42 612.957,-260.548 623.101,-250.938"/>
<polygon fill="midnightblue" stroke="midnightblue" points="625.747,-253.252 630.6,-243.834 620.933,-248.171 625.747,-253.252"/>
</g>
<!-- Node21 -->
<g id="node21" class="node"><title>Node21</title>
<g id="a_node21"><a xlink:href="_i_plug_midi_8h_source.html" target="_top" xlink:title="IPlugMidi.h">
<polygon fill="white" stroke="black" points="760.425,-168.5 760.425,-187.5 825.425,-187.5 825.425,-168.5 760.425,-168.5"/>
<text text-anchor="middle" x="792.925" y="-175.5" font-family="Helvetica,sans-Serif" font-size="10.00">IPlugMidi.h</text>
</a>
</g>
</g>
<!-- Node19&#45;&gt;Node21 -->
<g id="edge34" class="edge"><title>Node19&#45;&gt;Node21</title>
<path fill="none" stroke="midnightblue" d="M582.997,-280.444C583.599,-266.521 586.892,-239.008 602.925,-224 623.949,-204.318 700.766,-190.939 750.051,-184.167"/>
<polygon fill="midnightblue" stroke="midnightblue" points="750.672,-187.615 760.12,-182.822 749.745,-180.677 750.672,-187.615"/>
</g>
<!-- Node21&#45;&gt;Node3 -->
<g id="edge36" class="edge"><title>Node21&#45;&gt;Node3</title>
<path fill="none" stroke="midnightblue" d="M809.634,-168.324C826.236,-159.703 851.927,-146.364 871.145,-136.386"/>
<polygon fill="midnightblue" stroke="midnightblue" points="872.994,-139.369 880.257,-131.655 869.769,-133.156 872.994,-139.369"/>
</g>
<!-- Node21&#45;&gt;Node13 -->
<g id="edge35" class="edge"><title>Node21&#45;&gt;Node13</title>
<path fill="none" stroke="midnightblue" d="M792.925,-168.083C792.925,-161.006 792.925,-150.861 792.925,-141.986"/>
<polygon fill="midnightblue" stroke="midnightblue" points="796.425,-141.751 792.925,-131.751 789.425,-141.751 796.425,-141.751"/>
</g>
<!-- Node21&#45;&gt;Node15 -->
<g id="edge37" class="edge"><title>Node21&#45;&gt;Node15</title>
<path fill="none" stroke="midnightblue" d="M800.708,-168.278C808.092,-159.613 819.052,-145.678 825.925,-132 833.379,-117.164 838.679,-99.0139 841.942,-85.6671"/>
<polygon fill="midnightblue" stroke="midnightblue" points="845.389,-86.2924 844.206,-75.7638 838.565,-84.7321 845.389,-86.2924"/>
</g>
<!-- Node21&#45;&gt;Node17 -->
<g id="edge38" class="edge"><title>Node21&#45;&gt;Node17</title>
<path fill="none" stroke="midnightblue" d="M760.294,-171.871C710.521,-164.002 612.395,-148.308 518.928,-132.148"/>
<polygon fill="midnightblue" stroke="midnightblue" points="519.475,-128.691 509.025,-130.431 518.28,-135.588 519.475,-128.691"/>
</g>
<!-- Node22&#45;&gt;Node2 -->
<g id="edge41" class="edge"><title>Node22&#45;&gt;Node2</title>
<path fill="none" stroke="midnightblue" d="M245.11,-168.206C231.974,-155.342 211.67,-130.875 223.925,-112 238.858,-88.9985 268.577,-77.6551 291.929,-72.1213"/>
<polygon fill="midnightblue" stroke="midnightblue" points="292.752,-75.5246 301.809,-70.0273 291.301,-68.6767 292.752,-75.5246"/>
</g>
<!-- Node22&#45;&gt;Node14 -->
<g id="edge42" class="edge"><title>Node22&#45;&gt;Node14</title>
<path fill="none" stroke="midnightblue" d="M256.576,-168.083C257.901,-160.927 259.807,-150.635 261.463,-141.691"/>
<polygon fill="midnightblue" stroke="midnightblue" points="264.924,-142.221 263.304,-131.751 258.041,-140.947 264.924,-142.221"/>
</g>
<!-- Node22&#45;&gt;Node17 -->
<g id="edge43" class="edge"><title>Node22&#45;&gt;Node17</title>
<path fill="none" stroke="midnightblue" d="M288.833,-168.444C325.774,-159.122 384.978,-144.183 425.343,-133.997"/>
<polygon fill="midnightblue" stroke="midnightblue" points="426.335,-137.357 435.174,-131.516 424.622,-130.57 426.335,-137.357"/>
</g>
<!-- Node23 -->
<g id="node23" class="node"><title>Node23</title>
<g id="a_node23"><a xlink:href="_i_plug_easing_8h.html" target="_top" xlink:title="Easing functions, based on Warren Moore&#39;s AHEasing library https://github.com/warrenm/AHEasing See he...">
<polygon fill="white" stroke="black" points="29.4245,-112.5 29.4245,-131.5 106.425,-131.5 106.425,-112.5 29.4245,-112.5"/>
<text text-anchor="middle" x="67.9245" y="-119.5" font-family="Helvetica,sans-Serif" font-size="10.00">IPlugEasing.h</text>
</a>
</g>
</g>
<!-- Node22&#45;&gt;Node23 -->
<g id="edge44" class="edge"><title>Node22&#45;&gt;Node23</title>
<path fill="none" stroke="midnightblue" d="M225.294,-168.444C193.424,-159.241 142.592,-144.562 107.361,-134.388"/>
<polygon fill="midnightblue" stroke="midnightblue" points="107.995,-130.928 97.4166,-131.516 106.053,-137.653 107.995,-130.928"/>
</g>
<!-- Node24 -->
<g id="node24" class="node"><title>Node24</title>
<polygon fill="white" stroke="#bfbfbf" points="44.4245,-56.5 44.4245,-75.5 91.4245,-75.5 91.4245,-56.5 44.4245,-56.5"/>
<text text-anchor="middle" x="67.9245" y="-63.5" font-family="Helvetica,sans-Serif" font-size="10.00">math.h</text>
</g>
<!-- Node23&#45;&gt;Node24 -->
<g id="edge45" class="edge"><title>Node23&#45;&gt;Node24</title>
<path fill="none" stroke="midnightblue" d="M67.9245,-112.083C67.9245,-105.006 67.9245,-94.8611 67.9245,-85.9865"/>
<polygon fill="midnightblue" stroke="midnightblue" points="71.4246,-85.751 67.9245,-75.7511 64.4246,-85.7511 71.4246,-85.751"/>
</g>
</g>
</svg>
