<?xml version="1.0" encoding="UTF-8" standalone="no"?>
<!DOCTYPE svg PUBLIC "-//W3C//DTD SVG 1.1//EN"
 "http://www.w3.org/Graphics/SVG/1.1/DTD/svg11.dtd">
<!-- Generated by graphviz version 2.36.0 (20140111.2315)
 -->
<!-- Title: IPlugAU.h Pages: 1 -->
<svg width="1442pt" height="532pt"
 viewBox="0.00 0.00 1441.86 532.00" xmlns="http://www.w3.org/2000/svg" xmlns:xlink="http://www.w3.org/1999/xlink">
<g id="graph0" class="graph" transform="scale(1 1) rotate(0) translate(4 528)">
<title>IPlugAU.h</title>
<polygon fill="white" stroke="none" points="-4,4 -4,-528 1437.86,-528 1437.86,4 -4,4"/>
<!-- Node1 -->
<g id="node1" class="node"><title>Node1</title>
<polygon fill="#bfbfbf" stroke="black" points="455,-504.5 455,-523.5 517,-523.5 517,-504.5 455,-504.5"/>
<text text-anchor="middle" x="486" y="-511.5" font-family="Helvetica,sans-Serif" font-size="10.00">IPlugAU.h</text>
</g>
<!-- Node2 -->
<g id="node2" class="node"><title>Node2</title>
<polygon fill="white" stroke="#bfbfbf" points="0,-448.5 0,-467.5 146,-467.5 146,-448.5 0,-448.5"/>
<text text-anchor="middle" x="73" y="-455.5" font-family="Helvetica,sans-Serif" font-size="10.00">CoreServices/CoreServices.h</text>
</g>
<!-- Node1&#45;&gt;Node2 -->
<g id="edge1" class="edge"><title>Node1&#45;&gt;Node2</title>
<path fill="none" stroke="midnightblue" d="M454.958,-508.941C390.316,-500.489 239.678,-480.793 148.075,-468.816"/>
<polygon fill="midnightblue" stroke="midnightblue" points="148.399,-465.329 138.03,-467.503 147.492,-472.27 148.399,-465.329"/>
</g>
<!-- Node3 -->
<g id="node3" class="node"><title>Node3</title>
<polygon fill="white" stroke="#bfbfbf" points="164.5,-448.5 164.5,-467.5 299.5,-467.5 299.5,-448.5 164.5,-448.5"/>
<text text-anchor="middle" x="232" y="-455.5" font-family="Helvetica,sans-Serif" font-size="10.00">AudioUnit/AUComponent.h</text>
</g>
<!-- Node1&#45;&gt;Node3 -->
<g id="edge2" class="edge"><title>Node1&#45;&gt;Node3</title>
<path fill="none" stroke="midnightblue" d="M454.855,-506.379C411.76,-497.217 333.461,-480.57 282.091,-469.649"/>
<polygon fill="midnightblue" stroke="midnightblue" points="282.704,-466.201 272.194,-467.545 281.248,-473.048 282.704,-466.201"/>
</g>
<!-- Node4 -->
<g id="node4" class="node"><title>Node4</title>
<polygon fill="white" stroke="#bfbfbf" points="318,-448.5 318,-467.5 476,-467.5 476,-448.5 318,-448.5"/>
<text text-anchor="middle" x="397" y="-455.5" font-family="Helvetica,sans-Serif" font-size="10.00">AudioUnit/AudioUnitProperties.h</text>
</g>
<!-- Node1&#45;&gt;Node4 -->
<g id="edge3" class="edge"><title>Node1&#45;&gt;Node4</title>
<path fill="none" stroke="midnightblue" d="M471.701,-504.324C457.817,-495.9 436.508,-482.971 420.196,-473.074"/>
<polygon fill="midnightblue" stroke="midnightblue" points="421.629,-469.85 411.264,-467.655 417.998,-475.834 421.629,-469.85"/>
</g>
<!-- Node5 -->
<g id="node5" class="node"><title>Node5</title>
<polygon fill="white" stroke="#bfbfbf" points="494.5,-448.5 494.5,-467.5 657.5,-467.5 657.5,-448.5 494.5,-448.5"/>
<text text-anchor="middle" x="576" y="-455.5" font-family="Helvetica,sans-Serif" font-size="10.00">AudioToolbox/AudioUnitUtilities.h</text>
</g>
<!-- Node1&#45;&gt;Node5 -->
<g id="edge4" class="edge"><title>Node1&#45;&gt;Node5</title>
<path fill="none" stroke="midnightblue" d="M500.46,-504.324C514.5,-495.9 536.048,-482.971 552.543,-473.074"/>
<polygon fill="midnightblue" stroke="midnightblue" points="554.802,-475.801 561.576,-467.655 551.2,-469.798 554.802,-475.801"/>
</g>
<!-- Node6 -->
<g id="node6" class="node"><title>Node6</title>
<polygon fill="white" stroke="#bfbfbf" points="676,-448.5 676,-467.5 780,-467.5 780,-448.5 676,-448.5"/>
<text text-anchor="middle" x="728" y="-455.5" font-family="Helvetica,sans-Serif" font-size="10.00">AvailabilityMacros.h</text>
</g>
<!-- Node1&#45;&gt;Node6 -->
<g id="edge5" class="edge"><title>Node1&#45;&gt;Node6</title>
<path fill="none" stroke="midnightblue" d="M517.142,-506.051C558.378,-496.85 631.512,-480.53 679.881,-469.737"/>
<polygon fill="midnightblue" stroke="midnightblue" points="680.809,-473.116 689.807,-467.522 679.284,-466.284 680.809,-473.116"/>
</g>
<!-- Node7 -->
<g id="node7" class="node"><title>Node7</title>
<g id="a_node7"><a xlink:href="_i_plug_base__select_8h_source.html" target="_top" xlink:title="IPlugBase_select.h">
<polygon fill="white" stroke="black" points="798.5,-448.5 798.5,-467.5 899.5,-467.5 899.5,-448.5 798.5,-448.5"/>
<text text-anchor="middle" x="849" y="-455.5" font-family="Helvetica,sans-Serif" font-size="10.00">IPlugBase_select.h</text>
</a>
</g>
</g>
<!-- Node1&#45;&gt;Node7 -->
<g id="edge6" class="edge"><title>Node1&#45;&gt;Node7</title>
<path fill="none" stroke="midnightblue" d="M517.408,-508.351C570.715,-500.457 682.574,-483.877 788.074,-468.136"/>
<polygon fill="midnightblue" stroke="midnightblue" points="788.888,-471.554 798.262,-466.616 787.855,-464.63 788.888,-471.554"/>
</g>
<!-- Node8 -->
<g id="node8" class="node"><title>Node8</title>
<g id="a_node8"><a xlink:href="_i_plug_base_graphics_8h.html" target="_top" xlink:title="An IPlugBase class for an IPlug plug&#45;in that uses IGraphics for it&#39;s UI. ">
<polygon fill="white" stroke="black" points="896.5,-392.5 896.5,-411.5 1005.5,-411.5 1005.5,-392.5 896.5,-392.5"/>
<text text-anchor="middle" x="951" y="-399.5" font-family="Helvetica,sans-Serif" font-size="10.00">IPlugBaseGraphics.h</text>
</a>
</g>
</g>
<!-- Node7&#45;&gt;Node8 -->
<g id="edge7" class="edge"><title>Node7&#45;&gt;Node8</title>
<path fill="none" stroke="midnightblue" d="M865.388,-448.324C881.671,-439.703 906.867,-426.364 925.716,-416.386"/>
<polygon fill="midnightblue" stroke="midnightblue" points="927.452,-419.427 934.653,-411.655 924.177,-413.24 927.452,-419.427"/>
</g>
<!-- Node34 -->
<g id="node34" class="node"><title>Node34</title>
<g id="a_node34"><a xlink:href="_i_plug_processor_8h.html" target="_top" xlink:title="The base class for IPlug Audio Processing. ">
<polygon fill="white" stroke="black" points="441,-336.5 441,-355.5 533,-355.5 533,-336.5 441,-336.5"/>
<text text-anchor="middle" x="487" y="-343.5" font-family="Helvetica,sans-Serif" font-size="10.00">IPlugProcessor.h</text>
</a>
</g>
</g>
<!-- Node7&#45;&gt;Node34 -->
<g id="edge55" class="edge"><title>Node7&#45;&gt;Node34</title>
<path fill="none" stroke="midnightblue" d="M820.896,-448.46C756.481,-428.886 598.121,-380.766 525.06,-358.565"/>
<polygon fill="midnightblue" stroke="midnightblue" points="525.922,-355.169 515.336,-355.61 523.886,-361.867 525.922,-355.169"/>
</g>
<!-- Node39 -->
<g id="node39" class="node"><title>Node39</title>
<g id="a_node39"><a xlink:href="_i_plug_presets_8h.html" target="_top" xlink:title="IPlugPresets.h">
<polygon fill="white" stroke="black" points="808.5,-336.5 808.5,-355.5 889.5,-355.5 889.5,-336.5 808.5,-336.5"/>
<text text-anchor="middle" x="849" y="-343.5" font-family="Helvetica,sans-Serif" font-size="10.00">IPlugPresets.h</text>
</a>
</g>
</g>
<!-- Node7&#45;&gt;Node39 -->
<g id="edge72" class="edge"><title>Node7&#45;&gt;Node39</title>
<path fill="none" stroke="midnightblue" d="M849,-448.368C849,-430.617 849,-389.666 849,-365.597"/>
<polygon fill="midnightblue" stroke="midnightblue" points="852.5,-365.591 849,-355.591 845.5,-365.591 852.5,-365.591"/>
</g>
<!-- Node9 -->
<g id="node9" class="node"><title>Node9</title>
<g id="a_node9"><a xlink:href="_i_plug_base_8h.html" target="_top" xlink:title="The lowest level base class of an IPlug plug&#45;in. ">
<polygon fill="white" stroke="black" points="1012,-336.5 1012,-355.5 1082,-355.5 1082,-336.5 1012,-336.5"/>
<text text-anchor="middle" x="1047" y="-343.5" font-family="Helvetica,sans-Serif" font-size="10.00">IPlugBase.h</text>
</a>
</g>
</g>
<!-- Node8&#45;&gt;Node9 -->
<g id="edge8" class="edge"><title>Node8&#45;&gt;Node9</title>
<path fill="none" stroke="midnightblue" d="M966.424,-392.324C981.54,-383.822 1004.82,-370.729 1022.47,-360.797"/>
<polygon fill="midnightblue" stroke="midnightblue" points="1024.61,-363.608 1031.61,-355.655 1021.18,-357.507 1024.61,-363.608"/>
</g>
<!-- Node33 -->
<g id="node33" class="node"><title>Node33</title>
<g id="a_node33"><a xlink:href="_i_plug_delegate_8h_source.html" target="_top" xlink:title="IPlugDelegate.h">
<polygon fill="white" stroke="black" points="908,-336.5 908,-355.5 994,-355.5 994,-336.5 908,-336.5"/>
<text text-anchor="middle" x="951" y="-343.5" font-family="Helvetica,sans-Serif" font-size="10.00">IPlugDelegate.h</text>
</a>
</g>
</g>
<!-- Node8&#45;&gt;Node33 -->
<g id="edge54" class="edge"><title>Node8&#45;&gt;Node33</title>
<path fill="none" stroke="midnightblue" d="M951,-392.083C951,-385.006 951,-374.861 951,-365.986"/>
<polygon fill="midnightblue" stroke="midnightblue" points="954.5,-365.751 951,-355.751 947.5,-365.751 954.5,-365.751"/>
</g>
<!-- Node10 -->
<g id="node10" class="node"><title>Node10</title>
<polygon fill="white" stroke="#bfbfbf" points="1130,-56.5 1130,-75.5 1176,-75.5 1176,-56.5 1130,-56.5"/>
<text text-anchor="middle" x="1153" y="-63.5" font-family="Helvetica,sans-Serif" font-size="10.00">cstring</text>
</g>
<!-- Node9&#45;&gt;Node10 -->
<g id="edge9" class="edge"><title>Node9&#45;&gt;Node10</title>
<path fill="none" stroke="midnightblue" d="M1082.16,-344.092C1159.22,-341.52 1340.15,-332.137 1391,-300 1420.08,-281.625 1433,-269.395 1433,-235 1433,-235 1433,-235 1433,-177 1433,-146.902 1436.46,-132.039 1414,-112 1405.53,-104.444 1254.88,-81.7767 1186.4,-71.8011"/>
<polygon fill="midnightblue" stroke="midnightblue" points="1186.54,-68.286 1176.15,-70.3133 1185.54,-75.2134 1186.54,-68.286"/>
</g>
<!-- Node11 -->
<g id="node11" class="node"><title>Node11</title>
<polygon fill="white" stroke="#bfbfbf" points="489,-112.5 489,-131.5 535,-131.5 535,-112.5 489,-112.5"/>
<text text-anchor="middle" x="512" y="-119.5" font-family="Helvetica,sans-Serif" font-size="10.00">cstdint</text>
</g>
<!-- Node9&#45;&gt;Node11 -->
<g id="edge10" class="edge"><title>Node9&#45;&gt;Node11</title>
<path fill="none" stroke="midnightblue" d="M1011.99,-337.497C1008.96,-336.951 1005.93,-336.442 1003,-336 921.75,-323.75 705.874,-341.574 635,-300 571.545,-262.778 533.012,-178.341 518.545,-141.157"/>
<polygon fill="midnightblue" stroke="midnightblue" points="521.756,-139.75 514.964,-131.618 515.202,-142.21 521.756,-139.75"/>
</g>
<!-- Node12 -->
<g id="node12" class="node"><title>Node12</title>
<polygon fill="white" stroke="#bfbfbf" points="855.5,-280.5 855.5,-299.5 904.5,-299.5 904.5,-280.5 855.5,-280.5"/>
<text text-anchor="middle" x="880" y="-287.5" font-family="Helvetica,sans-Serif" font-size="10.00">ptrlist.h</text>
</g>
<!-- Node9&#45;&gt;Node12 -->
<g id="edge11" class="edge"><title>Node9&#45;&gt;Node12</title>
<path fill="none" stroke="midnightblue" d="M1020.54,-336.444C991.824,-327.159 945.871,-312.3 914.38,-302.117"/>
<polygon fill="midnightblue" stroke="midnightblue" points="915.296,-298.735 904.705,-298.988 913.143,-305.395 915.296,-298.735"/>
</g>
<!-- Node13 -->
<g id="node13" class="node"><title>Node13</title>
<polygon fill="white" stroke="#bfbfbf" points="1353,-112.5 1353,-131.5 1405,-131.5 1405,-112.5 1353,-112.5"/>
<text text-anchor="middle" x="1379" y="-119.5" font-family="Helvetica,sans-Serif" font-size="10.00">mutex.h</text>
</g>
<!-- Node9&#45;&gt;Node13 -->
<g id="edge12" class="edge"><title>Node9&#45;&gt;Node13</title>
<path fill="none" stroke="midnightblue" d="M1082.09,-345.512C1157.83,-345.801 1332.89,-341.819 1371,-300 1411.18,-255.905 1395.07,-177.038 1384.9,-141.39"/>
<polygon fill="midnightblue" stroke="midnightblue" points="1388.25,-140.361 1382,-131.8 1381.55,-142.385 1388.25,-140.361"/>
</g>
<!-- Node14 -->
<g id="node14" class="node"><title>Node14</title>
<g id="a_node14"><a xlink:href="_i_plug_platform_8h.html" target="_top" xlink:title="Include to get consistently named preprocessor macros for different platforms and logging functionali...">
<polygon fill="white" stroke="black" points="873,-224.5 873,-243.5 957,-243.5 957,-224.5 873,-224.5"/>
<text text-anchor="middle" x="915" y="-231.5" font-family="Helvetica,sans-Serif" font-size="10.00">IPlugPlatform.h</text>
</a>
</g>
</g>
<!-- Node9&#45;&gt;Node14 -->
<g id="edge13" class="edge"><title>Node9&#45;&gt;Node14</title>
<path fill="none" stroke="midnightblue" d="M1046.01,-336.257C1044.02,-322.562 1038.33,-295.969 1023,-280 1007.59,-263.942 985.585,-253.387 965.456,-246.565"/>
<polygon fill="midnightblue" stroke="midnightblue" points="966.351,-243.177 955.761,-243.508 964.246,-249.853 966.351,-243.177"/>
</g>
<!-- Node23 -->
<g id="node23" class="node"><title>Node23</title>
<g id="a_node23"><a xlink:href="_i_plug_constants_8h.html" target="_top" xlink:title="Constant definitions, Types, magic numbers. ">
<polygon fill="white" stroke="black" points="555,-56.5 555,-75.5 647,-75.5 647,-56.5 555,-56.5"/>
<text text-anchor="middle" x="601" y="-63.5" font-family="Helvetica,sans-Serif" font-size="10.00">IPlugConstants.h</text>
</a>
</g>
</g>
<!-- Node9&#45;&gt;Node23 -->
<g id="edge36" class="edge"><title>Node9&#45;&gt;Node23</title>
<path fill="none" stroke="midnightblue" d="M1029.55,-336.469C962.781,-303.667 723.924,-184.867 658,-132 640.519,-117.981 624.041,-98.2063 613.342,-84.1572"/>
<polygon fill="midnightblue" stroke="midnightblue" points="615.962,-81.8152 607.193,-75.8698 610.341,-85.9863 615.962,-81.8152"/>
</g>
<!-- Node25 -->
<g id="node25" class="node"><title>Node25</title>
<g id="a_node25"><a xlink:href="_i_plug_utilities_8h.html" target="_top" xlink:title="Utility functions and macros. ">
<polygon fill="white" stroke="black" points="667,-112.5 667,-131.5 747,-131.5 747,-112.5 667,-112.5"/>
<text text-anchor="middle" x="707" y="-119.5" font-family="Helvetica,sans-Serif" font-size="10.00">IPlugUtilities.h</text>
</a>
</g>
</g>
<!-- Node9&#45;&gt;Node25 -->
<g id="edge47" class="edge"><title>Node9&#45;&gt;Node25</title>
<path fill="none" stroke="midnightblue" d="M1048.69,-336.361C1050.77,-323.265 1052.95,-298.011 1043,-280 1022.36,-242.647 1003.25,-242.923 965,-224 915.854,-199.688 897.591,-209.142 847,-188 829.752,-180.792 826.802,-176.194 810,-168 785.925,-156.26 758.056,-144.172 737.382,-135.485"/>
<polygon fill="midnightblue" stroke="midnightblue" points="738.722,-132.251 728.145,-131.628 736.025,-138.711 738.722,-132.251"/>
</g>
<!-- Node27 -->
<g id="node27" class="node"><title>Node27</title>
<g id="a_node27"><a xlink:href="_i_plug_structs_8h_source.html" target="_top" xlink:title="IPlugStructs.h">
<polygon fill="white" stroke="black" points="643.5,-280.5 643.5,-299.5 722.5,-299.5 722.5,-280.5 643.5,-280.5"/>
<text text-anchor="middle" x="683" y="-287.5" font-family="Helvetica,sans-Serif" font-size="10.00">IPlugStructs.h</text>
</a>
</g>
</g>
<!-- Node9&#45;&gt;Node27 -->
<g id="edge37" class="edge"><title>Node9&#45;&gt;Node27</title>
<path fill="none" stroke="midnightblue" d="M1011.97,-337.631C1008.94,-337.056 1005.92,-336.503 1003,-336 907.685,-319.566 795.619,-304.858 732.593,-297.005"/>
<polygon fill="midnightblue" stroke="midnightblue" points="732.889,-293.515 722.534,-295.758 732.027,-300.461 732.889,-293.515"/>
</g>
<!-- Node30 -->
<g id="node30" class="node"><title>Node30</title>
<g id="a_node30"><a xlink:href="_i_plug_parameter_8h_source.html" target="_top" xlink:title="IPlugParameter.h">
<polygon fill="white" stroke="black" points="1181,-168.5 1181,-187.5 1273,-187.5 1273,-168.5 1181,-168.5"/>
<text text-anchor="middle" x="1227" y="-175.5" font-family="Helvetica,sans-Serif" font-size="10.00">IPlugParameter.h</text>
</a>
</g>
</g>
<!-- Node9&#45;&gt;Node30 -->
<g id="edge48" class="edge"><title>Node9&#45;&gt;Node30</title>
<path fill="none" stroke="midnightblue" d="M1057.48,-336.168C1068.06,-327.189 1084.83,-312.814 1099,-300 1139.95,-262.955 1186.82,-217.963 1210.88,-194.671"/>
<polygon fill="midnightblue" stroke="midnightblue" points="1213.38,-197.12 1218.13,-187.646 1208.51,-192.095 1213.38,-197.12"/>
</g>
<!-- Node14&#45;&gt;Node10 -->
<g id="edge14" class="edge"><title>Node14&#45;&gt;Node10</title>
<path fill="none" stroke="midnightblue" d="M948.316,-224.433C972.982,-217.139 1006.72,-205.102 1033,-188 1078.47,-158.406 1120.37,-109.123 1140.49,-83.5426"/>
<polygon fill="midnightblue" stroke="midnightblue" points="1143.31,-85.6065 1146.66,-75.5544 1137.78,-81.325 1143.31,-85.6065"/>
</g>
<!-- Node15 -->
<g id="node15" class="node"><title>Node15</title>
<polygon fill="white" stroke="#bfbfbf" points="1007.5,-56.5 1007.5,-75.5 1052.5,-75.5 1052.5,-56.5 1007.5,-56.5"/>
<text text-anchor="middle" x="1030" y="-63.5" font-family="Helvetica,sans-Serif" font-size="10.00">cstdlib</text>
</g>
<!-- Node14&#45;&gt;Node15 -->
<g id="edge15" class="edge"><title>Node14&#45;&gt;Node15</title>
<path fill="none" stroke="midnightblue" d="M938.673,-224.425C972.362,-210.777 1032.84,-180.58 1058,-132 1066.34,-115.89 1055.75,-96.74 1045.28,-83.4161"/>
<polygon fill="midnightblue" stroke="midnightblue" points="1047.77,-80.9405 1038.63,-75.5923 1042.44,-85.4766 1047.77,-80.9405"/>
</g>
<!-- Node16 -->
<g id="node16" class="node"><title>Node16</title>
<g id="a_node16"><a xlink:href="_i_plug_logger_8h.html" target="_top" xlink:title="IPlug logging a.k.a tracing functionailty. ">
<polygon fill="white" stroke="black" points="855.5,-168.5 855.5,-187.5 932.5,-187.5 932.5,-168.5 855.5,-168.5"/>
<text text-anchor="middle" x="894" y="-175.5" font-family="Helvetica,sans-Serif" font-size="10.00">IPlugLogger.h</text>
</a>
</g>
</g>
<!-- Node14&#45;&gt;Node16 -->
<g id="edge16" class="edge"><title>Node14&#45;&gt;Node16</title>
<path fill="none" stroke="midnightblue" d="M911.532,-224.083C908.688,-216.77 904.571,-206.181 901.04,-197.103"/>
<polygon fill="midnightblue" stroke="midnightblue" points="904.29,-195.803 897.403,-187.751 897.766,-198.34 904.29,-195.803"/>
</g>
<!-- Node16&#45;&gt;Node10 -->
<g id="edge21" class="edge"><title>Node16&#45;&gt;Node10</title>
<path fill="none" stroke="midnightblue" d="M902.248,-168.44C916.152,-154.51 945.717,-126.989 976,-112 1022.94,-88.7653 1083,-76.7789 1119.71,-71.1989"/>
<polygon fill="midnightblue" stroke="midnightblue" points="1120.46,-74.626 1129.86,-69.729 1119.46,-67.6982 1120.46,-74.626"/>
</g>
<!-- Node16&#45;&gt;Node11 -->
<g id="edge20" class="edge"><title>Node16&#45;&gt;Node11</title>
<path fill="none" stroke="midnightblue" d="M855.27,-171.525C780.216,-160.915 616.148,-137.722 545.477,-127.732"/>
<polygon fill="midnightblue" stroke="midnightblue" points="545.748,-124.236 535.357,-126.302 544.768,-131.167 545.748,-124.236"/>
</g>
<!-- Node16&#45;&gt;Node13 -->
<g id="edge25" class="edge"><title>Node16&#45;&gt;Node13</title>
<path fill="none" stroke="midnightblue" d="M932.549,-172.935C1005.36,-165.222 1168.09,-147.82 1305,-132 1317.33,-130.575 1330.81,-128.955 1342.84,-127.485"/>
<polygon fill="midnightblue" stroke="midnightblue" points="1343.48,-130.933 1352.98,-126.242 1342.63,-123.985 1343.48,-130.933"/>
</g>
<!-- Node17 -->
<g id="node17" class="node"><title>Node17</title>
<polygon fill="white" stroke="#bfbfbf" points="685.5,-56.5 685.5,-75.5 728.5,-75.5 728.5,-56.5 685.5,-56.5"/>
<text text-anchor="middle" x="707" y="-63.5" font-family="Helvetica,sans-Serif" font-size="10.00">cstdio</text>
</g>
<!-- Node16&#45;&gt;Node17 -->
<g id="edge17" class="edge"><title>Node16&#45;&gt;Node17</title>
<path fill="none" stroke="midnightblue" d="M880.546,-168.357C860.702,-155.681 822.333,-131.446 789,-112 770.122,-100.987 748.43,-89.1163 732.1,-80.3335"/>
<polygon fill="midnightblue" stroke="midnightblue" points="733.634,-77.1849 723.166,-75.5489 730.329,-83.3556 733.634,-77.1849"/>
</g>
<!-- Node18 -->
<g id="node18" class="node"><title>Node18</title>
<polygon fill="white" stroke="#bfbfbf" points="822,-56.5 822,-75.5 868,-75.5 868,-56.5 822,-56.5"/>
<text text-anchor="middle" x="845" y="-63.5" font-family="Helvetica,sans-Serif" font-size="10.00">cctype</text>
</g>
<!-- Node16&#45;&gt;Node18 -->
<g id="edge18" class="edge"><title>Node16&#45;&gt;Node18</title>
<path fill="none" stroke="midnightblue" d="M897.345,-168.093C901.659,-155.089 907.641,-130.449 899,-112 892.955,-99.0941 881.188,-88.5985 870.177,-80.9999"/>
<polygon fill="midnightblue" stroke="midnightblue" points="871.943,-77.9748 861.633,-75.5364 868.172,-83.8723 871.943,-77.9748"/>
</g>
<!-- Node19 -->
<g id="node19" class="node"><title>Node19</title>
<polygon fill="white" stroke="#bfbfbf" points="841.5,-112.5 841.5,-131.5 890.5,-131.5 890.5,-112.5 841.5,-112.5"/>
<text text-anchor="middle" x="866" y="-119.5" font-family="Helvetica,sans-Serif" font-size="10.00">cstdarg</text>
</g>
<!-- Node16&#45;&gt;Node19 -->
<g id="edge19" class="edge"><title>Node16&#45;&gt;Node19</title>
<path fill="none" stroke="midnightblue" d="M889.376,-168.083C885.544,-160.691 879.976,-149.953 875.235,-140.811"/>
<polygon fill="midnightblue" stroke="midnightblue" points="878.248,-139.018 870.538,-131.751 872.034,-142.24 878.248,-139.018"/>
</g>
<!-- Node20 -->
<g id="node20" class="node"><title>Node20</title>
<polygon fill="white" stroke="#bfbfbf" points="429.5,-112.5 429.5,-131.5 470.5,-131.5 470.5,-112.5 429.5,-112.5"/>
<text text-anchor="middle" x="450" y="-119.5" font-family="Helvetica,sans-Serif" font-size="10.00">ctime</text>
</g>
<!-- Node16&#45;&gt;Node20 -->
<g id="edge22" class="edge"><title>Node16&#45;&gt;Node20</title>
<path fill="none" stroke="midnightblue" d="M855.397,-175.168C783.413,-171.242 623.786,-160.145 480.388,-131.689"/>
<polygon fill="midnightblue" stroke="midnightblue" points="481.026,-128.247 470.531,-129.7 479.641,-135.109 481.026,-128.247"/>
</g>
<!-- Node21 -->
<g id="node21" class="node"><title>Node21</title>
<polygon fill="white" stroke="#bfbfbf" points="362.5,-112.5 362.5,-131.5 411.5,-131.5 411.5,-112.5 362.5,-112.5"/>
<text text-anchor="middle" x="387" y="-119.5" font-family="Helvetica,sans-Serif" font-size="10.00">cassert</text>
</g>
<!-- Node16&#45;&gt;Node21 -->
<g id="edge23" class="edge"><title>Node16&#45;&gt;Node21</title>
<path fill="none" stroke="midnightblue" d="M855.391,-175.472C775.927,-171.866 588.285,-160.983 421.706,-131.825"/>
<polygon fill="midnightblue" stroke="midnightblue" points="422.236,-128.365 411.777,-130.061 421.011,-135.257 422.236,-128.365"/>
</g>
<!-- Node22 -->
<g id="node22" class="node"><title>Node22</title>
<polygon fill="white" stroke="#bfbfbf" points="985,-112.5 985,-131.5 1049,-131.5 1049,-112.5 985,-112.5"/>
<text text-anchor="middle" x="1017" y="-119.5" font-family="Helvetica,sans-Serif" font-size="10.00">wdlstring.h</text>
</g>
<!-- Node16&#45;&gt;Node22 -->
<g id="edge24" class="edge"><title>Node16&#45;&gt;Node22</title>
<path fill="none" stroke="midnightblue" d="M913.49,-168.444C933.642,-159.596 965.323,-145.687 988.331,-135.586"/>
<polygon fill="midnightblue" stroke="midnightblue" points="989.852,-138.741 997.601,-131.516 987.038,-132.332 989.852,-138.741"/>
</g>
<!-- Node16&#45;&gt;Node23 -->
<g id="edge26" class="edge"><title>Node16&#45;&gt;Node23</title>
<path fill="none" stroke="midnightblue" d="M871.461,-168.403C849.91,-159.937 816.692,-146.237 789,-132 773.748,-124.158 771.703,-118.894 756,-112 722.115,-97.1228 681.939,-85.619 650.981,-77.9676"/>
<polygon fill="midnightblue" stroke="midnightblue" points="651.401,-74.4683 640.859,-75.5211 649.756,-81.2724 651.401,-74.4683"/>
</g>
<!-- Node16&#45;&gt;Node25 -->
<g id="edge28" class="edge"><title>Node16&#45;&gt;Node25</title>
<path fill="none" stroke="midnightblue" d="M864.369,-168.444C832.5,-159.241 781.667,-144.562 746.436,-134.388"/>
<polygon fill="midnightblue" stroke="midnightblue" points="747.071,-130.928 736.492,-131.516 745.128,-137.653 747.071,-130.928"/>
</g>
<!-- Node24 -->
<g id="node24" class="node"><title>Node24</title>
<polygon fill="white" stroke="#bfbfbf" points="571.5,-0.5 571.5,-19.5 630.5,-19.5 630.5,-0.5 571.5,-0.5"/>
<text text-anchor="middle" x="601" y="-7.5" font-family="Helvetica,sans-Serif" font-size="10.00">functional</text>
</g>
<!-- Node23&#45;&gt;Node24 -->
<g id="edge27" class="edge"><title>Node23&#45;&gt;Node24</title>
<path fill="none" stroke="midnightblue" d="M601,-56.083C601,-49.0059 601,-38.8611 601,-29.9865"/>
<polygon fill="midnightblue" stroke="midnightblue" points="604.5,-29.751 601,-19.7511 597.5,-29.7511 604.5,-29.751"/>
</g>
<!-- Node25&#45;&gt;Node10 -->
<g id="edge32" class="edge"><title>Node25&#45;&gt;Node10</title>
<path fill="none" stroke="midnightblue" d="M747.366,-116.113C834.685,-105.54 1039.7,-80.7179 1119.96,-71.0007"/>
<polygon fill="midnightblue" stroke="midnightblue" points="1120.48,-74.4625 1129.99,-69.7858 1119.64,-67.5133 1120.48,-74.4625"/>
</g>
<!-- Node25&#45;&gt;Node14 -->
<g id="edge35" class="edge"><title>Node25&#45;&gt;Node14</title>
<path fill="none" stroke="midnightblue" d="M719.728,-131.582C739.306,-144.602 778.202,-169.76 813,-188 836.13,-200.123 863.211,-211.967 883.655,-220.459"/>
<polygon fill="midnightblue" stroke="midnightblue" points="882.531,-223.781 893.111,-224.345 885.192,-217.307 882.531,-223.781"/>
</g>
<!-- Node25&#45;&gt;Node15 -->
<g id="edge31" class="edge"><title>Node25&#45;&gt;Node15</title>
<path fill="none" stroke="midnightblue" d="M747.255,-114.27C812.026,-103.441 938.113,-82.362 997.535,-72.4276"/>
<polygon fill="midnightblue" stroke="midnightblue" points="998.204,-75.8644 1007.49,-70.7633 997.049,-68.9603 998.204,-75.8644"/>
</g>
<!-- Node25&#45;&gt;Node17 -->
<g id="edge30" class="edge"><title>Node25&#45;&gt;Node17</title>
<path fill="none" stroke="midnightblue" d="M707,-112.083C707,-105.006 707,-94.8611 707,-85.9865"/>
<polygon fill="midnightblue" stroke="midnightblue" points="710.5,-85.751 707,-75.7511 703.5,-85.7511 710.5,-85.751"/>
</g>
<!-- Node25&#45;&gt;Node18 -->
<g id="edge33" class="edge"><title>Node25&#45;&gt;Node18</title>
<path fill="none" stroke="midnightblue" d="M728.867,-112.444C751.779,-103.478 787.975,-89.314 813.866,-79.1827"/>
<polygon fill="midnightblue" stroke="midnightblue" points="815.199,-82.4198 823.236,-75.5164 812.648,-75.9011 815.199,-82.4198"/>
</g>
<!-- Node25&#45;&gt;Node23 -->
<g id="edge34" class="edge"><title>Node25&#45;&gt;Node23</title>
<path fill="none" stroke="midnightblue" d="M689.969,-112.324C672.97,-103.664 646.624,-90.2424 627.007,-80.249"/>
<polygon fill="midnightblue" stroke="midnightblue" points="628.488,-77.0752 617.988,-75.6545 625.31,-83.3125 628.488,-77.0752"/>
</g>
<!-- Node26 -->
<g id="node26" class="node"><title>Node26</title>
<polygon fill="white" stroke="#bfbfbf" points="255,-56.5 255,-75.5 299,-75.5 299,-56.5 255,-56.5"/>
<text text-anchor="middle" x="277" y="-63.5" font-family="Helvetica,sans-Serif" font-size="10.00">cmath</text>
</g>
<!-- Node25&#45;&gt;Node26 -->
<g id="edge29" class="edge"><title>Node25&#45;&gt;Node26</title>
<path fill="none" stroke="midnightblue" d="M666.933,-115.968C582.304,-105.341 386.782,-80.7866 309.388,-71.0673"/>
<polygon fill="midnightblue" stroke="midnightblue" points="309.633,-67.5707 299.275,-69.7973 308.761,-74.5161 309.633,-67.5707"/>
</g>
<!-- Node27&#45;&gt;Node14 -->
<g id="edge41" class="edge"><title>Node27&#45;&gt;Node14</title>
<path fill="none" stroke="midnightblue" d="M719.761,-280.444C760.063,-271.063 824.809,-255.993 868.585,-245.804"/>
<polygon fill="midnightblue" stroke="midnightblue" points="869.465,-249.192 878.411,-243.516 867.878,-242.375 869.465,-249.192"/>
</g>
<!-- Node27&#45;&gt;Node22 -->
<g id="edge39" class="edge"><title>Node27&#45;&gt;Node22</title>
<path fill="none" stroke="midnightblue" d="M707.869,-280.461C764.138,-260.949 899.545,-212.868 941,-188 964.114,-174.134 987.145,-153.18 1001.69,-138.835"/>
<polygon fill="midnightblue" stroke="midnightblue" points="1004.28,-141.194 1008.85,-131.633 999.316,-136.26 1004.28,-141.194"/>
</g>
<!-- Node27&#45;&gt;Node23 -->
<g id="edge40" class="edge"><title>Node27&#45;&gt;Node23</title>
<path fill="none" stroke="midnightblue" d="M677.491,-280.296C672.034,-271.417 663.691,-257.118 658,-244 633.749,-188.1 614.273,-118.413 605.714,-85.6553"/>
<polygon fill="midnightblue" stroke="midnightblue" points="609.032,-84.5051 603.152,-75.692 602.253,-86.2486 609.032,-84.5051"/>
</g>
<!-- Node28 -->
<g id="node28" class="node"><title>Node28</title>
<polygon fill="white" stroke="#bfbfbf" points="667,-224.5 667,-243.5 723,-243.5 723,-224.5 667,-224.5"/>
<text text-anchor="middle" x="695" y="-231.5" font-family="Helvetica,sans-Serif" font-size="10.00">algorithm</text>
</g>
<!-- Node27&#45;&gt;Node28 -->
<g id="edge38" class="edge"><title>Node27&#45;&gt;Node28</title>
<path fill="none" stroke="midnightblue" d="M684.982,-280.083C686.572,-272.927 688.859,-262.635 690.846,-253.691"/>
<polygon fill="midnightblue" stroke="midnightblue" points="694.303,-254.272 693.055,-243.751 687.469,-252.754 694.303,-254.272"/>
</g>
<!-- Node29 -->
<g id="node29" class="node"><title>Node29</title>
<g id="a_node29"><a xlink:href="_i_plug_midi_8h_source.html" target="_top" xlink:title="IPlugMidi.h">
<polygon fill="white" stroke="black" points="324.5,-168.5 324.5,-187.5 389.5,-187.5 389.5,-168.5 324.5,-168.5"/>
<text text-anchor="middle" x="357" y="-175.5" font-family="Helvetica,sans-Serif" font-size="10.00">IPlugMidi.h</text>
</a>
</g>
</g>
<!-- Node27&#45;&gt;Node29 -->
<g id="edge42" class="edge"><title>Node27&#45;&gt;Node29</title>
<path fill="none" stroke="midnightblue" d="M657.691,-280.46C599.919,-260.966 458.235,-213.159 392.086,-190.839"/>
<polygon fill="midnightblue" stroke="midnightblue" points="393.112,-187.491 382.518,-187.61 390.874,-194.124 393.112,-187.491"/>
</g>
<!-- Node29&#45;&gt;Node11 -->
<g id="edge44" class="edge"><title>Node29&#45;&gt;Node11</title>
<path fill="none" stroke="midnightblue" d="M381.56,-168.444C407.828,-159.292 449.638,-144.726 478.82,-134.559"/>
<polygon fill="midnightblue" stroke="midnightblue" points="480.277,-137.758 488.569,-131.163 477.974,-131.148 480.277,-137.758"/>
</g>
<!-- Node29&#45;&gt;Node21 -->
<g id="edge43" class="edge"><title>Node29&#45;&gt;Node21</title>
<path fill="none" stroke="midnightblue" d="M361.954,-168.083C366.104,-160.613 372.153,-149.724 377.267,-140.52"/>
<polygon fill="midnightblue" stroke="midnightblue" points="380.341,-142.192 382.138,-131.751 374.222,-138.793 380.341,-142.192"/>
</g>
<!-- Node29&#45;&gt;Node23 -->
<g id="edge45" class="edge"><title>Node29&#45;&gt;Node23</title>
<path fill="none" stroke="midnightblue" d="M353.262,-168.255C348.06,-154.557 340.684,-127.961 354,-112 377.821,-83.4468 479.61,-72.965 544.854,-69.1494"/>
<polygon fill="midnightblue" stroke="midnightblue" points="545.201,-72.6357 554.994,-68.5925 544.817,-65.6463 545.201,-72.6357"/>
</g>
<!-- Node29&#45;&gt;Node25 -->
<g id="edge46" class="edge"><title>Node29&#45;&gt;Node25</title>
<path fill="none" stroke="midnightblue" d="M389.613,-171.968C450.915,-162.51 583.705,-142.023 656.593,-130.777"/>
<polygon fill="midnightblue" stroke="midnightblue" points="657.547,-134.171 666.897,-129.187 656.48,-127.253 657.547,-134.171"/>
</g>
<!-- Node30&#45;&gt;Node10 -->
<g id="edge49" class="edge"><title>Node30&#45;&gt;Node10</title>
<path fill="none" stroke="midnightblue" d="M1221.19,-168.368C1208.98,-150.215 1180.45,-107.802 1164.43,-83.9902"/>
<polygon fill="midnightblue" stroke="midnightblue" points="1167.27,-81.935 1158.78,-75.5914 1161.46,-85.8423 1167.27,-81.935"/>
</g>
<!-- Node30&#45;&gt;Node22 -->
<g id="edge50" class="edge"><title>Node30&#45;&gt;Node22</title>
<path fill="none" stroke="midnightblue" d="M1193.72,-168.444C1157.23,-159.06 1098.6,-143.983 1058.97,-133.794"/>
<polygon fill="midnightblue" stroke="midnightblue" points="1059.64,-130.352 1049.09,-131.251 1057.9,-137.131 1059.64,-130.352"/>
</g>
<!-- Node30&#45;&gt;Node25 -->
<g id="edge51" class="edge"><title>Node30&#45;&gt;Node25</title>
<path fill="none" stroke="midnightblue" d="M1180.85,-172.208C1083.63,-162.111 858.387,-138.721 757.481,-128.242"/>
<polygon fill="midnightblue" stroke="midnightblue" points="757.554,-124.731 747.246,-127.179 756.831,-131.694 757.554,-124.731"/>
</g>
<!-- Node31 -->
<g id="node31" class="node"><title>Node31</title>
<g id="a_node31"><a xlink:href="_i_plug_easing_8h.html" target="_top" xlink:title="Easing functions, based on Warren Moore&#39;s AHEasing library https://github.com/warrenm/AHEasing See he...">
<polygon fill="white" stroke="black" points="1219.5,-112.5 1219.5,-131.5 1296.5,-131.5 1296.5,-112.5 1219.5,-112.5"/>
<text text-anchor="middle" x="1258" y="-119.5" font-family="Helvetica,sans-Serif" font-size="10.00">IPlugEasing.h</text>
</a>
</g>
</g>
<!-- Node30&#45;&gt;Node31 -->
<g id="edge52" class="edge"><title>Node30&#45;&gt;Node31</title>
<path fill="none" stroke="midnightblue" d="M1232.12,-168.083C1236.41,-160.613 1242.66,-149.724 1247.94,-140.52"/>
<polygon fill="midnightblue" stroke="midnightblue" points="1251.03,-142.166 1252.98,-131.751 1244.96,-138.681 1251.03,-142.166"/>
</g>
<!-- Node32 -->
<g id="node32" class="node"><title>Node32</title>
<polygon fill="white" stroke="#bfbfbf" points="1234.5,-56.5 1234.5,-75.5 1281.5,-75.5 1281.5,-56.5 1234.5,-56.5"/>
<text text-anchor="middle" x="1258" y="-63.5" font-family="Helvetica,sans-Serif" font-size="10.00">math.h</text>
</g>
<!-- Node31&#45;&gt;Node32 -->
<g id="edge53" class="edge"><title>Node31&#45;&gt;Node32</title>
<path fill="none" stroke="midnightblue" d="M1258,-112.083C1258,-105.006 1258,-94.8611 1258,-85.9865"/>
<polygon fill="midnightblue" stroke="midnightblue" points="1261.5,-85.751 1258,-75.7511 1254.5,-85.7511 1261.5,-85.751"/>
</g>
<!-- Node34&#45;&gt;Node10 -->
<g id="edge56" class="edge"><title>Node34&#45;&gt;Node10</title>
<path fill="none" stroke="midnightblue" d="M533.241,-339.68C590.429,-332.664 690.564,-318.953 775,-300 785.737,-297.59 954.906,-248.383 965,-244 1043.62,-209.863 1070.77,-200.719 1122,-132 1132.73,-117.605 1141.18,-98.9056 1146.53,-85.261"/>
<polygon fill="midnightblue" stroke="midnightblue" points="1149.92,-86.1734 1150.14,-75.5807 1143.36,-83.7278 1149.92,-86.1734"/>
</g>
<!-- Node34&#45;&gt;Node11 -->
<g id="edge57" class="edge"><title>Node34&#45;&gt;Node11</title>
<path fill="none" stroke="midnightblue" d="M471.217,-336.467C458.797,-328.769 442.395,-316.179 435,-300 420.958,-269.279 432.901,-257.713 435,-224 436.559,-198.966 428.636,-189.226 442,-168 450.819,-153.994 465.763,-143.511 479.584,-136.204"/>
<polygon fill="midnightblue" stroke="midnightblue" points="481.444,-139.19 488.884,-131.648 478.364,-132.904 481.444,-139.19"/>
</g>
<!-- Node34&#45;&gt;Node12 -->
<g id="edge58" class="edge"><title>Node34&#45;&gt;Node12</title>
<path fill="none" stroke="midnightblue" d="M533.048,-340.637C600.806,-333.881 731.22,-319.594 841,-300 842.454,-299.741 843.935,-299.462 845.429,-299.17"/>
<polygon fill="midnightblue" stroke="midnightblue" points="846.254,-302.573 855.319,-297.089 844.813,-295.723 846.254,-302.573"/>
</g>
<!-- Node34&#45;&gt;Node14 -->
<g id="edge59" class="edge"><title>Node34&#45;&gt;Node14</title>
<path fill="none" stroke="midnightblue" d="M533.351,-338.671C582.793,-331.406 663.164,-318.117 731,-300 786.201,-285.258 848.524,-261.731 884.63,-247.391"/>
<polygon fill="midnightblue" stroke="midnightblue" points="886.107,-250.57 894.09,-243.605 883.506,-244.071 886.107,-250.57"/>
</g>
<!-- Node34&#45;&gt;Node23 -->
<g id="edge60" class="edge"><title>Node34&#45;&gt;Node23</title>
<path fill="none" stroke="midnightblue" d="M466.009,-336.433C416.365,-314.671 297.251,-252.905 316,-168 321.917,-141.205 320.223,-128.696 342,-112 372.985,-88.245 478.245,-76.1422 544.656,-70.7273"/>
<polygon fill="midnightblue" stroke="midnightblue" points="545.269,-74.1899 554.963,-69.9149 544.719,-67.2115 545.269,-74.1899"/>
</g>
<!-- Node34&#45;&gt;Node25 -->
<g id="edge62" class="edge"><title>Node34&#45;&gt;Node25</title>
<path fill="none" stroke="midnightblue" d="M495.624,-336.297C528.681,-302.94 647.616,-182.923 691.011,-139.135"/>
<polygon fill="midnightblue" stroke="midnightblue" points="693.643,-141.45 698.196,-131.884 688.671,-136.523 693.643,-141.45"/>
</g>
<!-- Node34&#45;&gt;Node27 -->
<g id="edge61" class="edge"><title>Node34&#45;&gt;Node27</title>
<path fill="none" stroke="midnightblue" d="M518.057,-336.444C551.603,-327.201 605.197,-312.436 642.141,-302.257"/>
<polygon fill="midnightblue" stroke="midnightblue" points="643.377,-305.547 652.089,-299.516 641.518,-298.798 643.377,-305.547"/>
</g>
<!-- Node35 -->
<g id="node35" class="node"><title>Node35</title>
<g id="a_node35"><a xlink:href="_n_chan_delay_8h_source.html" target="_top" xlink:title="NChanDelay.h">
<polygon fill="white" stroke="black" points="220.5,-280.5 220.5,-299.5 301.5,-299.5 301.5,-280.5 220.5,-280.5"/>
<text text-anchor="middle" x="261" y="-287.5" font-family="Helvetica,sans-Serif" font-size="10.00">NChanDelay.h</text>
</a>
</g>
</g>
<!-- Node34&#45;&gt;Node35 -->
<g id="edge63" class="edge"><title>Node34&#45;&gt;Node35</title>
<path fill="none" stroke="midnightblue" d="M451.19,-336.444C412.012,-327.083 349.123,-312.056 306.485,-301.868"/>
<polygon fill="midnightblue" stroke="midnightblue" points="307.182,-298.436 296.643,-299.516 305.556,-305.245 307.182,-298.436"/>
</g>
<!-- Node36 -->
<g id="node36" class="node"><title>Node36</title>
<g id="a_node36"><a xlink:href="_i_plug_processor_8cpp_source.html" target="_top" xlink:title="IPlugProcessor.cpp">
<polygon fill="white" stroke="black" points="132,-168.5 132,-187.5 234,-187.5 234,-168.5 132,-168.5"/>
<text text-anchor="middle" x="183" y="-175.5" font-family="Helvetica,sans-Serif" font-size="10.00">IPlugProcessor.cpp</text>
</a>
</g>
</g>
<!-- Node34&#45;&gt;Node36 -->
<g id="edge64" class="edge"><title>Node34&#45;&gt;Node36</title>
<path fill="none" stroke="midnightblue" d="M440.999,-343.727C369.358,-340.742 236.353,-331.002 203,-300 174.48,-273.491 171.745,-224.325 175.765,-197.55"/>
<polygon fill="midnightblue" stroke="midnightblue" points="179.23,-198.081 177.846,-187.577 172.377,-196.651 179.23,-198.081"/>
</g>
<!-- Node36&#45;&gt;Node17 -->
<g id="edge66" class="edge"><title>Node36&#45;&gt;Node17</title>
<path fill="none" stroke="midnightblue" d="M154.159,-168.491C120.612,-157.225 72.5216,-135.967 95,-112 137.729,-66.4407 593.983,-83.4388 656,-76 662.176,-75.2592 668.739,-74.2614 675.029,-73.1997"/>
<polygon fill="midnightblue" stroke="midnightblue" points="676.005,-76.5812 685.239,-71.3866 674.781,-69.689 676.005,-76.5812"/>
</g>
<!-- Node36&#45;&gt;Node20 -->
<g id="edge67" class="edge"><title>Node36&#45;&gt;Node20</title>
<path fill="none" stroke="midnightblue" d="M234.184,-168.861C280.242,-161.182 349.924,-148.687 419.592,-131.881"/>
<polygon fill="midnightblue" stroke="midnightblue" points="420.536,-135.253 429.42,-129.481 418.875,-128.453 420.536,-135.253"/>
</g>
<!-- Node36&#45;&gt;Node21 -->
<g id="edge68" class="edge"><title>Node36&#45;&gt;Node21</title>
<path fill="none" stroke="midnightblue" d="M215.324,-168.444C252.761,-158.534 314.186,-142.274 352.517,-132.128"/>
<polygon fill="midnightblue" stroke="midnightblue" points="353.435,-135.506 362.206,-129.563 351.644,-128.739 353.435,-135.506"/>
</g>
<!-- Node36&#45;&gt;Node26 -->
<g id="edge65" class="edge"><title>Node36&#45;&gt;Node26</title>
<path fill="none" stroke="midnightblue" d="M132.527,-168.483C89.5767,-159.036 38.3188,-141.151 62,-112 84.6553,-84.112 190.449,-72.8979 244.713,-68.9212"/>
<polygon fill="midnightblue" stroke="midnightblue" points="245.105,-72.4026 254.839,-68.2196 244.621,-65.4193 245.105,-72.4026"/>
</g>
<!-- Node36&#45;&gt;Node34 -->
<g id="edge71" class="edge"><title>Node36&#45;&gt;Node34</title>
<path fill="none" stroke="midnightblue" d="M186.467,-187.577C189.49,-209.815 188.406,-269.704 221,-300 250.997,-327.882 361.601,-338.567 430.467,-342.606"/>
<polygon fill="midnightblue" stroke="midnightblue" points="430.547,-346.116 440.726,-343.177 430.936,-339.127 430.547,-346.116"/>
</g>
<!-- Node37 -->
<g id="node37" class="node"><title>Node37</title>
<polygon fill="white" stroke="#bfbfbf" points="104,-112.5 104,-131.5 172,-131.5 172,-112.5 104,-112.5"/>
<text text-anchor="middle" x="138" y="-119.5" font-family="Helvetica,sans-Serif" font-size="10.00">wdlendian.h</text>
</g>
<!-- Node36&#45;&gt;Node37 -->
<g id="edge69" class="edge"><title>Node36&#45;&gt;Node37</title>
<path fill="none" stroke="midnightblue" d="M175.569,-168.083C169.147,-160.377 159.694,-149.033 151.878,-139.653"/>
<polygon fill="midnightblue" stroke="midnightblue" points="154.383,-137.193 145.293,-131.751 149.006,-141.674 154.383,-137.193"/>
</g>
<!-- Node38 -->
<g id="node38" class="node"><title>Node38</title>
<polygon fill="white" stroke="#bfbfbf" points="190.5,-112.5 190.5,-131.5 267.5,-131.5 267.5,-112.5 190.5,-112.5"/>
<text text-anchor="middle" x="229" y="-119.5" font-family="Helvetica,sans-Serif" font-size="10.00">wdl_base64.h</text>
</g>
<!-- Node36&#45;&gt;Node38 -->
<g id="edge70" class="edge"><title>Node36&#45;&gt;Node38</title>
<path fill="none" stroke="midnightblue" d="M190.596,-168.083C197.227,-160.298 207.021,-148.801 215.058,-139.367"/>
<polygon fill="midnightblue" stroke="midnightblue" points="217.725,-141.633 221.545,-131.751 212.396,-137.094 217.725,-141.633"/>
</g>
<!-- Node39&#45;&gt;Node10 -->
<g id="edge73" class="edge"><title>Node39&#45;&gt;Node10</title>
<path fill="none" stroke="midnightblue" d="M883.324,-336.45C974.964,-313.036 1222.46,-245.77 1282,-188 1307.33,-163.425 1326.12,-140.275 1305,-112 1290.76,-92.9327 1226.39,-79.0903 1186.12,-72.1154"/>
<polygon fill="midnightblue" stroke="midnightblue" points="1186.64,-68.6541 1176.2,-70.4511 1185.48,-75.5576 1186.64,-68.6541"/>
</g>
<!-- Node39&#45;&gt;Node11 -->
<g id="edge74" class="edge"><title>Node39&#45;&gt;Node11</title>
<path fill="none" stroke="midnightblue" d="M808.47,-342.918C736.849,-338.592 591.455,-326.721 549,-300 497.332,-267.481 510.322,-229.045 511,-168 511.096,-159.396 511.294,-149.869 511.489,-141.804"/>
<polygon fill="midnightblue" stroke="midnightblue" points="514.992,-141.713 511.751,-131.626 507.995,-141.532 514.992,-141.713"/>
</g>
<!-- Node39&#45;&gt;Node12 -->
<g id="edge75" class="edge"><title>Node39&#45;&gt;Node12</title>
<path fill="none" stroke="midnightblue" d="M854.119,-336.083C858.408,-328.613 864.658,-317.724 869.942,-308.52"/>
<polygon fill="midnightblue" stroke="midnightblue" points="873.033,-310.166 874.976,-299.751 866.962,-306.681 873.033,-310.166"/>
</g>
<!-- Node39&#45;&gt;Node13 -->
<g id="edge76" class="edge"><title>Node39&#45;&gt;Node13</title>
<path fill="none" stroke="midnightblue" d="M889.609,-337.356C892.781,-336.861 895.939,-336.401 899,-336 946.977,-329.707 1295.98,-331.159 1333,-300 1380.13,-260.335 1382.24,-179.137 1380.5,-142.135"/>
<polygon fill="midnightblue" stroke="midnightblue" points="1383.97,-141.545 1379.86,-131.783 1376.99,-141.982 1383.97,-141.545"/>
</g>
<!-- Node39&#45;&gt;Node14 -->
<g id="edge77" class="edge"><title>Node39&#45;&gt;Node14</title>
<path fill="none" stroke="midnightblue" d="M870.014,-336.431C884.894,-329.135 903.784,-317.098 913,-300 920.617,-285.869 920.39,-267.383 918.682,-253.74"/>
<polygon fill="midnightblue" stroke="midnightblue" points="922.096,-252.93 917.039,-243.62 915.187,-254.051 922.096,-252.93"/>
</g>
<!-- Node39&#45;&gt;Node23 -->
<g id="edge78" class="edge"><title>Node39&#45;&gt;Node23</title>
<path fill="none" stroke="midnightblue" d="M808.265,-342.756C763.59,-338.895 690.827,-328.415 635,-300 596.579,-280.445 563,-278.111 563,-235 563,-235 563,-235 563,-177 563,-142.813 579.6,-105.764 590.857,-84.5707"/>
<polygon fill="midnightblue" stroke="midnightblue" points="593.947,-86.2151 595.716,-75.769 587.819,-82.832 593.947,-86.2151"/>
</g>
<!-- Node39&#45;&gt;Node25 -->
<g id="edge80" class="edge"><title>Node39&#45;&gt;Node25</title>
<path fill="none" stroke="midnightblue" d="M843.433,-336.297C822.318,-303.286 746.916,-185.404 718.208,-140.522"/>
<polygon fill="midnightblue" stroke="midnightblue" points="721.019,-138.422 712.682,-131.884 715.122,-142.194 721.019,-138.422"/>
</g>
<!-- Node39&#45;&gt;Node27 -->
<g id="edge79" class="edge"><title>Node39&#45;&gt;Node27</title>
<path fill="none" stroke="midnightblue" d="M822.697,-336.444C794.649,-327.32 750.056,-312.813 718.816,-302.651"/>
<polygon fill="midnightblue" stroke="midnightblue" points="719.772,-299.282 709.18,-299.516 717.607,-305.938 719.772,-299.282"/>
</g>
<!-- Node39&#45;&gt;Node30 -->
<g id="edge81" class="edge"><title>Node39&#45;&gt;Node30</title>
<path fill="none" stroke="midnightblue" d="M868.527,-336.425C930.741,-309.103 1124.53,-224.001 1198.19,-191.652"/>
<polygon fill="midnightblue" stroke="midnightblue" points="1199.61,-194.849 1207.36,-187.624 1196.8,-188.44 1199.61,-194.849"/>
</g>
</g>
</svg>
