<?xml version="1.0" encoding="UTF-8" standalone="no"?>
<!DOCTYPE svg PUBLIC "-//W3C//DTD SVG 1.1//EN"
 "http://www.w3.org/Graphics/SVG/1.1/DTD/svg11.dtd">
<!-- Generated by graphviz version 2.36.0 (20140111.2315)
 -->
<!-- Title: IPlug_include_in_plug_hdr.h Pages: 1 -->
<svg width="745pt" height="320pt"
 viewBox="0.00 0.00 745.00 320.00" xmlns="http://www.w3.org/2000/svg" xmlns:xlink="http://www.w3.org/1999/xlink">
<g id="graph0" class="graph" transform="scale(1 1) rotate(0) translate(4 316)">
<title>IPlug_include_in_plug_hdr.h</title>
<polygon fill="white" stroke="none" points="-4,4 -4,-316 741,-316 741,4 -4,4"/>
<!-- Node1 -->
<g id="node1" class="node"><title>Node1</title>
<polygon fill="#bfbfbf" stroke="black" points="520.5,-281 520.5,-311 631.5,-311 631.5,-281 520.5,-281"/>
<text text-anchor="start" x="528.5" y="-299" font-family="Helvetica,sans-Serif" font-size="10.00">IPlug_include_in_plug</text>
<text text-anchor="middle" x="576" y="-288" font-family="Helvetica,sans-Serif" font-size="10.00">_hdr.h</text>
</g>
<!-- Node2 -->
<g id="node2" class="node"><title>Node2</title>
<polygon fill="white" stroke="#bfbfbf" points="-0.5,-56.5 -0.5,-75.5 42.5,-75.5 42.5,-56.5 -0.5,-56.5"/>
<text text-anchor="middle" x="21" y="-63.5" font-family="Helvetica,sans-Serif" font-size="10.00">cstdio</text>
</g>
<!-- Node1&#45;&gt;Node2 -->
<g id="edge1" class="edge"><title>Node1&#45;&gt;Node2</title>
<path fill="none" stroke="midnightblue" d="M520.044,-286.755C392.433,-266.719 86.1131,-211.228 24,-132 13.8807,-119.092 14.2746,-99.9185 16.5116,-85.7378"/>
<polygon fill="midnightblue" stroke="midnightblue" points="19.9998,-86.1439 18.5351,-75.6508 13.1365,-84.767 19.9998,-86.1439"/>
</g>
<!-- Node3 -->
<g id="node3" class="node"><title>Node3</title>
<g id="a_node3"><a xlink:href="_i_plug_platform_8h.html" target="_top" xlink:title="Include to get consistently named preprocessor macros for different platforms and logging functionali...">
<polygon fill="white" stroke="black" points="534,-224.5 534,-243.5 618,-243.5 618,-224.5 534,-224.5"/>
<text text-anchor="middle" x="576" y="-231.5" font-family="Helvetica,sans-Serif" font-size="10.00">IPlugPlatform.h</text>
</a>
</g>
</g>
<!-- Node1&#45;&gt;Node3 -->
<g id="edge2" class="edge"><title>Node1&#45;&gt;Node3</title>
<path fill="none" stroke="midnightblue" d="M576,-280.781C576,-272.781 576,-262.689 576,-254.017"/>
<polygon fill="midnightblue" stroke="midnightblue" points="579.5,-253.73 576,-243.731 572.5,-253.731 579.5,-253.73"/>
</g>
<!-- Node18 -->
<g id="node18" class="node"><title>Node18</title>
<polygon fill="white" stroke="#bfbfbf" points="635.5,-224.5 635.5,-243.5 686.5,-243.5 686.5,-224.5 635.5,-224.5"/>
<text text-anchor="middle" x="661" y="-231.5" font-family="Helvetica,sans-Serif" font-size="10.00">config.h</text>
</g>
<!-- Node1&#45;&gt;Node18 -->
<g id="edge25" class="edge"><title>Node1&#45;&gt;Node18</title>
<path fill="none" stroke="midnightblue" d="M596.144,-280.781C609.595,-271.286 627.222,-258.843 640.704,-249.327"/>
<polygon fill="midnightblue" stroke="midnightblue" points="642.728,-252.182 648.879,-243.556 638.691,-246.463 642.728,-252.182"/>
</g>
<!-- Node4 -->
<g id="node4" class="node"><title>Node4</title>
<polygon fill="white" stroke="#bfbfbf" points="621,-56.5 621,-75.5 667,-75.5 667,-56.5 621,-56.5"/>
<text text-anchor="middle" x="644" y="-63.5" font-family="Helvetica,sans-Serif" font-size="10.00">cstring</text>
</g>
<!-- Node3&#45;&gt;Node4 -->
<g id="edge3" class="edge"><title>Node3&#45;&gt;Node4</title>
<path fill="none" stroke="midnightblue" d="M584.895,-224.295C600.859,-207.972 633.84,-170.892 646,-132 650.69,-116.998 649.688,-99.0898 647.797,-85.8727"/>
<polygon fill="midnightblue" stroke="midnightblue" points="651.183,-84.9124 646.028,-75.6564 644.286,-86.107 651.183,-84.9124"/>
</g>
<!-- Node5 -->
<g id="node5" class="node"><title>Node5</title>
<polygon fill="white" stroke="#bfbfbf" points="691.5,-56.5 691.5,-75.5 736.5,-75.5 736.5,-56.5 691.5,-56.5"/>
<text text-anchor="middle" x="714" y="-63.5" font-family="Helvetica,sans-Serif" font-size="10.00">cstdlib</text>
</g>
<!-- Node3&#45;&gt;Node5 -->
<g id="edge4" class="edge"><title>Node3&#45;&gt;Node5</title>
<path fill="none" stroke="midnightblue" d="M590.493,-224.477C603.655,-216.263 623.081,-202.912 637,-188 667.314,-155.524 692.775,-109.542 705.423,-84.655"/>
<polygon fill="midnightblue" stroke="midnightblue" points="708.577,-86.172 709.9,-75.6601 702.311,-83.0526 708.577,-86.172"/>
</g>
<!-- Node6 -->
<g id="node6" class="node"><title>Node6</title>
<g id="a_node6"><a xlink:href="_i_plug_logger_8h.html" target="_top" xlink:title="IPlug logging a.k.a tracing functionailty. ">
<polygon fill="white" stroke="black" points="318.5,-168.5 318.5,-187.5 395.5,-187.5 395.5,-168.5 318.5,-168.5"/>
<text text-anchor="middle" x="357" y="-175.5" font-family="Helvetica,sans-Serif" font-size="10.00">IPlugLogger.h</text>
</a>
</g>
</g>
<!-- Node3&#45;&gt;Node6 -->
<g id="edge5" class="edge"><title>Node3&#45;&gt;Node6</title>
<path fill="none" stroke="midnightblue" d="M541.299,-224.444C503.415,-215.102 442.651,-200.119 401.338,-189.933"/>
<polygon fill="midnightblue" stroke="midnightblue" points="402.086,-186.512 391.539,-187.516 400.41,-193.309 402.086,-186.512"/>
</g>
<!-- Node6&#45;&gt;Node2 -->
<g id="edge6" class="edge"><title>Node6&#45;&gt;Node2</title>
<path fill="none" stroke="midnightblue" d="M318.271,-176.59C243.036,-174.999 80.9168,-167.434 40,-132 26.827,-120.592 22.5387,-100.605 21.2628,-85.7971"/>
<polygon fill="midnightblue" stroke="midnightblue" points="24.7541,-85.5309 20.777,-75.7109 17.7622,-85.8678 24.7541,-85.5309"/>
</g>
<!-- Node6&#45;&gt;Node4 -->
<g id="edge10" class="edge"><title>Node6&#45;&gt;Node4</title>
<path fill="none" stroke="midnightblue" d="M395.613,-175.451C461.478,-172.027 591.67,-161.612 625,-132 638.027,-120.426 642.339,-100.465 643.66,-85.7089"/>
<polygon fill="midnightblue" stroke="midnightblue" points="647.158,-85.8325 644.182,-75.6642 640.167,-85.469 647.158,-85.8325"/>
</g>
<!-- Node7 -->
<g id="node7" class="node"><title>Node7</title>
<polygon fill="white" stroke="#bfbfbf" points="446,-56.5 446,-75.5 492,-75.5 492,-56.5 446,-56.5"/>
<text text-anchor="middle" x="469" y="-63.5" font-family="Helvetica,sans-Serif" font-size="10.00">cctype</text>
</g>
<!-- Node6&#45;&gt;Node7 -->
<g id="edge7" class="edge"><title>Node6&#45;&gt;Node7</title>
<path fill="none" stroke="midnightblue" d="M360.51,-168.1C366.153,-154.662 378.324,-128.967 395,-112 407.882,-98.8925 425.332,-88.0433 440.051,-80.2839"/>
<polygon fill="midnightblue" stroke="midnightblue" points="441.904,-83.2692 449.254,-75.6383 438.75,-77.0202 441.904,-83.2692"/>
</g>
<!-- Node8 -->
<g id="node8" class="node"><title>Node8</title>
<polygon fill="white" stroke="#bfbfbf" points="404.5,-112.5 404.5,-131.5 453.5,-131.5 453.5,-112.5 404.5,-112.5"/>
<text text-anchor="middle" x="429" y="-119.5" font-family="Helvetica,sans-Serif" font-size="10.00">cstdarg</text>
</g>
<!-- Node6&#45;&gt;Node8 -->
<g id="edge8" class="edge"><title>Node6&#45;&gt;Node8</title>
<path fill="none" stroke="midnightblue" d="M368.568,-168.324C379.42,-160.185 395.881,-147.839 408.883,-138.087"/>
<polygon fill="midnightblue" stroke="midnightblue" points="411.321,-140.634 417.221,-131.834 407.121,-135.034 411.321,-140.634"/>
</g>
<!-- Node9 -->
<g id="node9" class="node"><title>Node9</title>
<polygon fill="white" stroke="#bfbfbf" points="472,-112.5 472,-131.5 518,-131.5 518,-112.5 472,-112.5"/>
<text text-anchor="middle" x="495" y="-119.5" font-family="Helvetica,sans-Serif" font-size="10.00">cstdint</text>
</g>
<!-- Node6&#45;&gt;Node9 -->
<g id="edge9" class="edge"><title>Node6&#45;&gt;Node9</title>
<path fill="none" stroke="midnightblue" d="M378.867,-168.444C401.779,-159.478 437.975,-145.314 463.866,-135.183"/>
<polygon fill="midnightblue" stroke="midnightblue" points="465.199,-138.42 473.236,-131.516 462.648,-131.901 465.199,-138.42"/>
</g>
<!-- Node10 -->
<g id="node10" class="node"><title>Node10</title>
<polygon fill="white" stroke="#bfbfbf" points="49.5,-112.5 49.5,-131.5 90.5,-131.5 90.5,-112.5 49.5,-112.5"/>
<text text-anchor="middle" x="70" y="-119.5" font-family="Helvetica,sans-Serif" font-size="10.00">ctime</text>
</g>
<!-- Node6&#45;&gt;Node10 -->
<g id="edge11" class="edge"><title>Node6&#45;&gt;Node10</title>
<path fill="none" stroke="midnightblue" d="M318.217,-171.819C269.391,-164.951 182.821,-151.625 100.287,-132.072"/>
<polygon fill="midnightblue" stroke="midnightblue" points="101.046,-128.655 90.5045,-129.72 99.4093,-135.461 101.046,-128.655"/>
</g>
<!-- Node11 -->
<g id="node11" class="node"><title>Node11</title>
<polygon fill="white" stroke="#bfbfbf" points="108.5,-112.5 108.5,-131.5 157.5,-131.5 157.5,-112.5 108.5,-112.5"/>
<text text-anchor="middle" x="133" y="-119.5" font-family="Helvetica,sans-Serif" font-size="10.00">cassert</text>
</g>
<!-- Node6&#45;&gt;Node11 -->
<g id="edge12" class="edge"><title>Node6&#45;&gt;Node11</title>
<path fill="none" stroke="midnightblue" d="M319.795,-168.492C283.462,-160.116 226.36,-146.774 167.675,-132.121"/>
<polygon fill="midnightblue" stroke="midnightblue" points="168.414,-128.698 157.863,-129.662 166.712,-135.488 168.414,-128.698"/>
</g>
<!-- Node12 -->
<g id="node12" class="node"><title>Node12</title>
<polygon fill="white" stroke="#bfbfbf" points="176,-112.5 176,-131.5 240,-131.5 240,-112.5 176,-112.5"/>
<text text-anchor="middle" x="208" y="-119.5" font-family="Helvetica,sans-Serif" font-size="10.00">wdlstring.h</text>
</g>
<!-- Node6&#45;&gt;Node12 -->
<g id="edge13" class="edge"><title>Node6&#45;&gt;Node12</title>
<path fill="none" stroke="midnightblue" d="M333.391,-168.444C308.542,-159.438 269.226,-145.189 241.246,-135.049"/>
<polygon fill="midnightblue" stroke="midnightblue" points="242.093,-131.633 231.499,-131.516 239.708,-138.214 242.093,-131.633"/>
</g>
<!-- Node13 -->
<g id="node13" class="node"><title>Node13</title>
<polygon fill="white" stroke="#bfbfbf" points="258,-112.5 258,-131.5 310,-131.5 310,-112.5 258,-112.5"/>
<text text-anchor="middle" x="284" y="-119.5" font-family="Helvetica,sans-Serif" font-size="10.00">mutex.h</text>
</g>
<!-- Node6&#45;&gt;Node13 -->
<g id="edge14" class="edge"><title>Node6&#45;&gt;Node13</title>
<path fill="none" stroke="midnightblue" d="M345.271,-168.324C334.163,-160.107 317.258,-147.602 304.017,-137.807"/>
<polygon fill="midnightblue" stroke="midnightblue" points="306.063,-134.967 295.942,-131.834 301.9,-140.595 306.063,-134.967"/>
</g>
<!-- Node14 -->
<g id="node14" class="node"><title>Node14</title>
<g id="a_node14"><a xlink:href="_i_plug_constants_8h.html" target="_top" xlink:title="Constant definitions, Types, magic numbers. ">
<polygon fill="white" stroke="black" points="314,-56.5 314,-75.5 406,-75.5 406,-56.5 314,-56.5"/>
<text text-anchor="middle" x="360" y="-63.5" font-family="Helvetica,sans-Serif" font-size="10.00">IPlugConstants.h</text>
</a>
</g>
</g>
<!-- Node6&#45;&gt;Node14 -->
<g id="edge15" class="edge"><title>Node6&#45;&gt;Node14</title>
<path fill="none" stroke="midnightblue" d="M357.235,-168.368C357.72,-150.617 358.836,-109.666 359.493,-85.5974"/>
<polygon fill="midnightblue" stroke="midnightblue" points="362.992,-85.6832 359.766,-75.5914 355.994,-85.4922 362.992,-85.6832"/>
</g>
<!-- Node16 -->
<g id="node16" class="node"><title>Node16</title>
<g id="a_node16"><a xlink:href="_i_plug_utilities_8h.html" target="_top" xlink:title="Utility functions and macros. ">
<polygon fill="white" stroke="black" points="536,-112.5 536,-131.5 616,-131.5 616,-112.5 536,-112.5"/>
<text text-anchor="middle" x="576" y="-119.5" font-family="Helvetica,sans-Serif" font-size="10.00">IPlugUtilities.h</text>
</a>
</g>
</g>
<!-- Node6&#45;&gt;Node16 -->
<g id="edge17" class="edge"><title>Node6&#45;&gt;Node16</title>
<path fill="none" stroke="midnightblue" d="M391.701,-168.444C429.585,-159.102 490.349,-144.119 531.662,-133.933"/>
<polygon fill="midnightblue" stroke="midnightblue" points="532.59,-137.309 541.461,-131.516 530.914,-130.512 532.59,-137.309"/>
</g>
<!-- Node15 -->
<g id="node15" class="node"><title>Node15</title>
<polygon fill="white" stroke="#bfbfbf" points="330.5,-0.5 330.5,-19.5 389.5,-19.5 389.5,-0.5 330.5,-0.5"/>
<text text-anchor="middle" x="360" y="-7.5" font-family="Helvetica,sans-Serif" font-size="10.00">functional</text>
</g>
<!-- Node14&#45;&gt;Node15 -->
<g id="edge16" class="edge"><title>Node14&#45;&gt;Node15</title>
<path fill="none" stroke="midnightblue" d="M360,-56.083C360,-49.0059 360,-38.8611 360,-29.9865"/>
<polygon fill="midnightblue" stroke="midnightblue" points="363.5,-29.751 360,-19.7511 356.5,-29.7511 363.5,-29.751"/>
</g>
<!-- Node16&#45;&gt;Node2 -->
<g id="edge19" class="edge"><title>Node16&#45;&gt;Node2</title>
<path fill="none" stroke="midnightblue" d="M535.937,-113.328C532.918,-112.846 529.914,-112.396 527,-112 348.805,-87.7648 133.453,-73.5873 53.1913,-68.821"/>
<polygon fill="midnightblue" stroke="midnightblue" points="52.9683,-65.302 42.7806,-68.2109 52.5587,-72.29 52.9683,-65.302"/>
</g>
<!-- Node16&#45;&gt;Node3 -->
<g id="edge24" class="edge"><title>Node16&#45;&gt;Node3</title>
<path fill="none" stroke="midnightblue" d="M576,-131.591C576,-149.308 576,-190.254 576,-214.348"/>
<polygon fill="midnightblue" stroke="midnightblue" points="572.5,-214.368 576,-224.368 579.5,-214.369 572.5,-214.368"/>
</g>
<!-- Node16&#45;&gt;Node4 -->
<g id="edge21" class="edge"><title>Node16&#45;&gt;Node4</title>
<path fill="none" stroke="midnightblue" d="M586.925,-112.324C597.175,-104.185 612.721,-91.8395 625.001,-82.0874"/>
<polygon fill="midnightblue" stroke="midnightblue" points="627.221,-84.7937 632.876,-75.8339 622.868,-79.3119 627.221,-84.7937"/>
</g>
<!-- Node16&#45;&gt;Node5 -->
<g id="edge20" class="edge"><title>Node16&#45;&gt;Node5</title>
<path fill="none" stroke="midnightblue" d="M597.867,-112.444C620.779,-103.478 656.975,-89.314 682.866,-79.1827"/>
<polygon fill="midnightblue" stroke="midnightblue" points="684.199,-82.4198 692.236,-75.5164 681.648,-75.9011 684.199,-82.4198"/>
</g>
<!-- Node16&#45;&gt;Node7 -->
<g id="edge22" class="edge"><title>Node16&#45;&gt;Node7</title>
<path fill="none" stroke="midnightblue" d="M558.809,-112.324C541.649,-103.664 515.054,-90.2424 495.253,-80.249"/>
<polygon fill="midnightblue" stroke="midnightblue" points="496.653,-77.0354 486.149,-75.6545 493.499,-83.2847 496.653,-77.0354"/>
</g>
<!-- Node16&#45;&gt;Node14 -->
<g id="edge23" class="edge"><title>Node16&#45;&gt;Node14</title>
<path fill="none" stroke="midnightblue" d="M541.774,-112.444C504.488,-103.122 444.731,-88.1828 403.989,-77.9972"/>
<polygon fill="midnightblue" stroke="midnightblue" points="404.616,-74.5464 394.066,-75.5164 402.918,-81.3374 404.616,-74.5464"/>
</g>
<!-- Node17 -->
<g id="node17" class="node"><title>Node17</title>
<polygon fill="white" stroke="#bfbfbf" points="554,-56.5 554,-75.5 598,-75.5 598,-56.5 554,-56.5"/>
<text text-anchor="middle" x="576" y="-63.5" font-family="Helvetica,sans-Serif" font-size="10.00">cmath</text>
</g>
<!-- Node16&#45;&gt;Node17 -->
<g id="edge18" class="edge"><title>Node16&#45;&gt;Node17</title>
<path fill="none" stroke="midnightblue" d="M576,-112.083C576,-105.006 576,-94.8611 576,-85.9865"/>
<polygon fill="midnightblue" stroke="midnightblue" points="579.5,-85.751 576,-75.7511 572.5,-85.7511 579.5,-85.751"/>
</g>
</g>
</svg>
