<?xml version="1.0" encoding="UTF-8" standalone="no"?>
<!DOCTYPE svg PUBLIC "-//W3C//DTD SVG 1.1//EN"
 "http://www.w3.org/Graphics/SVG/1.1/DTD/svg11.dtd">
<!-- Generated by graphviz version 2.36.0 (20140111.2315)
 -->
<!-- Title: IPlugProcessor.h Pages: 1 -->
<svg width="1141pt" height="364pt"
 viewBox="0.00 0.00 1141.28 364.00" xmlns="http://www.w3.org/2000/svg" xmlns:xlink="http://www.w3.org/1999/xlink">
<g id="graph0" class="graph" transform="scale(1 1) rotate(0) translate(4 360)">
<title>IPlugProcessor.h</title>
<polygon fill="white" stroke="none" points="-4,4 -4,-360 1137.28,-360 1137.28,4 -4,4"/>
<!-- Node1 -->
<g id="node1" class="node"><title>Node1</title>
<polygon fill="#bfbfbf" stroke="black" points="620,-336.5 620,-355.5 712,-355.5 712,-336.5 620,-336.5"/>
<text text-anchor="middle" x="666" y="-343.5" font-family="Helvetica,sans-Serif" font-size="10.00">IPlugProcessor.h</text>
</g>
<!-- Node2 -->
<g id="node2" class="node"><title>Node2</title>
<polygon fill="white" stroke="#bfbfbf" points="74,-56.5 74,-75.5 120,-75.5 120,-56.5 74,-56.5"/>
<text text-anchor="middle" x="97" y="-63.5" font-family="Helvetica,sans-Serif" font-size="10.00">cstring</text>
</g>
<!-- Node1&#45;&gt;Node2 -->
<g id="edge1" class="edge"><title>Node1&#45;&gt;Node2</title>
<path fill="none" stroke="midnightblue" d="M619.96,-342.27C469.209,-332.723 0,-297.954 0,-235 0,-235 0,-235 0,-177 0,-133.347 43.5054,-98.8276 72.2443,-80.7868"/>
<polygon fill="midnightblue" stroke="midnightblue" points="74.2262,-83.6789 80.9824,-75.5177 70.6115,-77.6844 74.2262,-83.6789"/>
</g>
<!-- Node3 -->
<g id="node3" class="node"><title>Node3</title>
<polygon fill="white" stroke="#bfbfbf" points="612,-112.5 612,-131.5 658,-131.5 658,-112.5 612,-112.5"/>
<text text-anchor="middle" x="635" y="-119.5" font-family="Helvetica,sans-Serif" font-size="10.00">cstdint</text>
</g>
<!-- Node1&#45;&gt;Node3 -->
<g id="edge2" class="edge"><title>Node1&#45;&gt;Node3</title>
<path fill="none" stroke="midnightblue" d="M663.042,-336.485C660.045,-327.518 655.505,-312.934 653,-300 641.964,-243.014 637.431,-174.313 635.8,-141.804"/>
<polygon fill="midnightblue" stroke="midnightblue" points="639.285,-141.38 635.324,-131.554 632.292,-141.705 639.285,-141.38"/>
</g>
<!-- Node4 -->
<g id="node4" class="node"><title>Node4</title>
<polygon fill="white" stroke="#bfbfbf" points="514.5,-280.5 514.5,-299.5 563.5,-299.5 563.5,-280.5 514.5,-280.5"/>
<text text-anchor="middle" x="539" y="-287.5" font-family="Helvetica,sans-Serif" font-size="10.00">ptrlist.h</text>
</g>
<!-- Node1&#45;&gt;Node4 -->
<g id="edge3" class="edge"><title>Node1&#45;&gt;Node4</title>
<path fill="none" stroke="midnightblue" d="M645.876,-336.444C624.976,-327.557 592.065,-313.563 568.284,-303.451"/>
<polygon fill="midnightblue" stroke="midnightblue" points="569.602,-300.208 559.029,-299.516 566.862,-306.65 569.602,-300.208"/>
</g>
<!-- Node5 -->
<g id="node5" class="node"><title>Node5</title>
<g id="a_node5"><a xlink:href="_i_plug_platform_8h.html" target="_top" xlink:title="Include to get consistently named preprocessor macros for different platforms and logging functionali...">
<polygon fill="white" stroke="black" points="317,-224.5 317,-243.5 401,-243.5 401,-224.5 317,-224.5"/>
<text text-anchor="middle" x="359" y="-231.5" font-family="Helvetica,sans-Serif" font-size="10.00">IPlugPlatform.h</text>
</a>
</g>
</g>
<!-- Node1&#45;&gt;Node5 -->
<g id="edge4" class="edge"><title>Node1&#45;&gt;Node5</title>
<path fill="none" stroke="midnightblue" d="M656.362,-336.352C640.159,-322.295 605.896,-294.595 572,-280 519.827,-257.535 455.5,-245.937 411.272,-240.19"/>
<polygon fill="midnightblue" stroke="midnightblue" points="411.674,-236.713 401.318,-238.951 410.809,-243.66 411.674,-236.713"/>
</g>
<!-- Node15 -->
<g id="node15" class="node"><title>Node15</title>
<g id="a_node15"><a xlink:href="_i_plug_constants_8h.html" target="_top" xlink:title="Constant definitions, Types, magic numbers. ">
<polygon fill="white" stroke="black" points="640,-56.5 640,-75.5 732,-75.5 732,-56.5 640,-56.5"/>
<text text-anchor="middle" x="686" y="-63.5" font-family="Helvetica,sans-Serif" font-size="10.00">IPlugConstants.h</text>
</a>
</g>
</g>
<!-- Node1&#45;&gt;Node15 -->
<g id="edge27" class="edge"><title>Node1&#45;&gt;Node15</title>
<path fill="none" stroke="midnightblue" d="M712.128,-339.77C767.144,-330.787 856.827,-306.83 898,-244 925.171,-202.537 946.187,-196.192 849,-112 819.541,-86.4796 776.796,-75.3264 742.471,-70.5024"/>
<polygon fill="midnightblue" stroke="midnightblue" points="742.471,-66.9749 732.112,-69.1996 741.597,-73.9202 742.471,-66.9749"/>
</g>
<!-- Node17 -->
<g id="node17" class="node"><title>Node17</title>
<g id="a_node17"><a xlink:href="_i_plug_utilities_8h.html" target="_top" xlink:title="Utility functions and macros. ">
<polygon fill="white" stroke="black" points="180,-112.5 180,-131.5 260,-131.5 260,-112.5 180,-112.5"/>
<text text-anchor="middle" x="220" y="-119.5" font-family="Helvetica,sans-Serif" font-size="10.00">IPlugUtilities.h</text>
</a>
</g>
</g>
<!-- Node1&#45;&gt;Node17 -->
<g id="edge38" class="edge"><title>Node1&#45;&gt;Node17</title>
<path fill="none" stroke="midnightblue" d="M619.799,-341.638C547.361,-334.377 405.298,-311.928 308,-244 269.267,-216.959 241.156,-167.274 228.122,-140.764"/>
<polygon fill="midnightblue" stroke="midnightblue" points="231.191,-139.069 223.739,-131.539 224.869,-142.073 231.191,-139.069"/>
</g>
<!-- Node19 -->
<g id="node19" class="node"><title>Node19</title>
<g id="a_node19"><a xlink:href="_i_plug_structs_8h_source.html" target="_top" xlink:title="IPlugStructs.h">
<polygon fill="white" stroke="black" points="662.5,-280.5 662.5,-299.5 741.5,-299.5 741.5,-280.5 662.5,-280.5"/>
<text text-anchor="middle" x="702" y="-287.5" font-family="Helvetica,sans-Serif" font-size="10.00">IPlugStructs.h</text>
</a>
</g>
</g>
<!-- Node1&#45;&gt;Node19 -->
<g id="edge28" class="edge"><title>Node1&#45;&gt;Node19</title>
<path fill="none" stroke="midnightblue" d="M671.945,-336.083C676.977,-328.534 684.337,-317.495 690.513,-308.23"/>
<polygon fill="midnightblue" stroke="midnightblue" points="693.531,-310.013 696.166,-299.751 687.707,-306.13 693.531,-310.013"/>
</g>
<!-- Node22 -->
<g id="node22" class="node"><title>Node22</title>
<g id="a_node22"><a xlink:href="_n_chan_delay_8h_source.html" target="_top" xlink:title="NChanDelay.h">
<polygon fill="white" stroke="black" points="878.5,-280.5 878.5,-299.5 959.5,-299.5 959.5,-280.5 878.5,-280.5"/>
<text text-anchor="middle" x="919" y="-287.5" font-family="Helvetica,sans-Serif" font-size="10.00">NChanDelay.h</text>
</a>
</g>
</g>
<!-- Node1&#45;&gt;Node22 -->
<g id="edge39" class="edge"><title>Node1&#45;&gt;Node22</title>
<path fill="none" stroke="midnightblue" d="M706.089,-336.444C750.316,-327.004 821.539,-311.802 869.285,-301.611"/>
<polygon fill="midnightblue" stroke="midnightblue" points="870.05,-305.027 879.099,-299.516 868.589,-298.181 870.05,-305.027"/>
</g>
<!-- Node23 -->
<g id="node23" class="node"><title>Node23</title>
<g id="a_node23"><a xlink:href="_i_plug_processor_8cpp_source.html" target="_top" xlink:title="IPlugProcessor.cpp">
<polygon fill="white" stroke="black" points="946,-168.5 946,-187.5 1048,-187.5 1048,-168.5 946,-168.5"/>
<text text-anchor="middle" x="997" y="-175.5" font-family="Helvetica,sans-Serif" font-size="10.00">IPlugProcessor.cpp</text>
</a>
</g>
</g>
<!-- Node1&#45;&gt;Node23 -->
<g id="edge40" class="edge"><title>Node1&#45;&gt;Node23</title>
<path fill="none" stroke="midnightblue" d="M712.131,-344.073C785.42,-341.609 923.385,-332.633 959,-300 987.708,-273.695 990.366,-224.446 992.568,-197.604"/>
<polygon fill="midnightblue" stroke="midnightblue" points="996.055,-197.9 993.558,-187.604 989.089,-197.21 996.055,-197.9"/>
</g>
<!-- Node5&#45;&gt;Node2 -->
<g id="edge5" class="edge"><title>Node5&#45;&gt;Node2</title>
<path fill="none" stroke="midnightblue" d="M316.767,-228.079C282.769,-222.554 234.902,-211.128 199,-188 156.809,-160.821 122.896,-110.824 106.929,-84.4089"/>
<polygon fill="midnightblue" stroke="midnightblue" points="109.796,-82.3801 101.708,-75.5366 103.763,-85.9302 109.796,-82.3801"/>
</g>
<!-- Node6 -->
<g id="node6" class="node"><title>Node6</title>
<polygon fill="white" stroke="#bfbfbf" points="159.5,-56.5 159.5,-75.5 204.5,-75.5 204.5,-56.5 159.5,-56.5"/>
<text text-anchor="middle" x="182" y="-63.5" font-family="Helvetica,sans-Serif" font-size="10.00">cstdlib</text>
</g>
<!-- Node5&#45;&gt;Node6 -->
<g id="edge6" class="edge"><title>Node5&#45;&gt;Node6</title>
<path fill="none" stroke="midnightblue" d="M319.306,-224.475C274.258,-212.44 202.905,-185.662 171,-132 162.517,-117.732 167.176,-98.7686 172.809,-85.0091"/>
<polygon fill="midnightblue" stroke="midnightblue" points="176.108,-86.2133 177.106,-75.6655 169.748,-83.2891 176.108,-86.2133"/>
</g>
<!-- Node7 -->
<g id="node7" class="node"><title>Node7</title>
<g id="a_node7"><a xlink:href="_i_plug_logger_8h.html" target="_top" xlink:title="IPlug logging a.k.a tracing functionailty. ">
<polygon fill="white" stroke="black" points="398.5,-168.5 398.5,-187.5 475.5,-187.5 475.5,-168.5 398.5,-168.5"/>
<text text-anchor="middle" x="437" y="-175.5" font-family="Helvetica,sans-Serif" font-size="10.00">IPlugLogger.h</text>
</a>
</g>
</g>
<!-- Node5&#45;&gt;Node7 -->
<g id="edge7" class="edge"><title>Node5&#45;&gt;Node7</title>
<path fill="none" stroke="midnightblue" d="M371.532,-224.324C383.586,-215.979 402.027,-203.212 416.269,-193.352"/>
<polygon fill="midnightblue" stroke="midnightblue" points="418.269,-196.224 424.499,-187.655 414.285,-190.469 418.269,-196.224"/>
</g>
<!-- Node7&#45;&gt;Node2 -->
<g id="edge12" class="edge"><title>Node7&#45;&gt;Node2</title>
<path fill="none" stroke="midnightblue" d="M398.48,-176.978C344.917,-175.542 246.069,-167.723 171,-132 146.768,-120.469 124.436,-98.6476 110.781,-83.4865"/>
<polygon fill="midnightblue" stroke="midnightblue" points="113.34,-81.0953 104.131,-75.8565 108.063,-85.6947 113.34,-81.0953"/>
</g>
<!-- Node7&#45;&gt;Node3 -->
<g id="edge11" class="edge"><title>Node7&#45;&gt;Node3</title>
<path fill="none" stroke="midnightblue" d="M468.848,-168.462C500.324,-160.003 550.105,-146.568 602.187,-132.206"/>
<polygon fill="midnightblue" stroke="midnightblue" points="603.227,-135.55 611.935,-129.515 601.364,-128.803 603.227,-135.55"/>
</g>
<!-- Node8 -->
<g id="node8" class="node"><title>Node8</title>
<polygon fill="white" stroke="#bfbfbf" points="442.5,-56.5 442.5,-75.5 485.5,-75.5 485.5,-56.5 442.5,-56.5"/>
<text text-anchor="middle" x="464" y="-63.5" font-family="Helvetica,sans-Serif" font-size="10.00">cstdio</text>
</g>
<!-- Node7&#45;&gt;Node8 -->
<g id="edge8" class="edge"><title>Node7&#45;&gt;Node8</title>
<path fill="none" stroke="midnightblue" d="M439.119,-168.368C443.476,-150.617 453.527,-109.666 459.435,-85.5974"/>
<polygon fill="midnightblue" stroke="midnightblue" points="462.906,-86.1375 461.891,-75.5914 456.108,-84.4688 462.906,-86.1375"/>
</g>
<!-- Node9 -->
<g id="node9" class="node"><title>Node9</title>
<polygon fill="white" stroke="#bfbfbf" points="231,-56.5 231,-75.5 277,-75.5 277,-56.5 231,-56.5"/>
<text text-anchor="middle" x="254" y="-63.5" font-family="Helvetica,sans-Serif" font-size="10.00">cctype</text>
</g>
<!-- Node7&#45;&gt;Node9 -->
<g id="edge9" class="edge"><title>Node7&#45;&gt;Node9</title>
<path fill="none" stroke="midnightblue" d="M398.287,-169.524C370.976,-162.9 334.504,-151.223 307,-132 288.986,-119.41 273.79,-99.0703 264.351,-84.496"/>
<polygon fill="midnightblue" stroke="midnightblue" points="267.256,-82.5399 259.008,-75.8905 261.309,-86.2324 267.256,-82.5399"/>
</g>
<!-- Node10 -->
<g id="node10" class="node"><title>Node10</title>
<polygon fill="white" stroke="#bfbfbf" points="316.5,-112.5 316.5,-131.5 365.5,-131.5 365.5,-112.5 316.5,-112.5"/>
<text text-anchor="middle" x="341" y="-119.5" font-family="Helvetica,sans-Serif" font-size="10.00">cstdarg</text>
</g>
<!-- Node7&#45;&gt;Node10 -->
<g id="edge10" class="edge"><title>Node7&#45;&gt;Node10</title>
<path fill="none" stroke="midnightblue" d="M421.576,-168.324C406.46,-159.822 383.185,-146.729 365.529,-136.797"/>
<polygon fill="midnightblue" stroke="midnightblue" points="366.817,-133.507 356.386,-131.655 363.386,-139.608 366.817,-133.507"/>
</g>
<!-- Node11 -->
<g id="node11" class="node"><title>Node11</title>
<polygon fill="white" stroke="#bfbfbf" points="714.5,-112.5 714.5,-131.5 755.5,-131.5 755.5,-112.5 714.5,-112.5"/>
<text text-anchor="middle" x="735" y="-119.5" font-family="Helvetica,sans-Serif" font-size="10.00">ctime</text>
</g>
<!-- Node7&#45;&gt;Node11 -->
<g id="edge13" class="edge"><title>Node7&#45;&gt;Node11</title>
<path fill="none" stroke="midnightblue" d="M475.653,-169.996C535.595,-159.134 649.744,-138.449 704.377,-128.549"/>
<polygon fill="midnightblue" stroke="midnightblue" points="705.26,-131.946 714.476,-126.719 704.012,-125.058 705.26,-131.946"/>
</g>
<!-- Node12 -->
<g id="node12" class="node"><title>Node12</title>
<polygon fill="white" stroke="#bfbfbf" points="773.5,-112.5 773.5,-131.5 822.5,-131.5 822.5,-112.5 773.5,-112.5"/>
<text text-anchor="middle" x="798" y="-119.5" font-family="Helvetica,sans-Serif" font-size="10.00">cassert</text>
</g>
<!-- Node7&#45;&gt;Node12 -->
<g id="edge14" class="edge"><title>Node7&#45;&gt;Node12</title>
<path fill="none" stroke="midnightblue" d="M475.515,-173.24C535.117,-167.086 653.418,-153.541 763.277,-131.919"/>
<polygon fill="midnightblue" stroke="midnightblue" points="764.078,-135.328 773.199,-129.939 762.708,-128.463 764.078,-135.328"/>
</g>
<!-- Node13 -->
<g id="node13" class="node"><title>Node13</title>
<polygon fill="white" stroke="#bfbfbf" points="530,-112.5 530,-131.5 594,-131.5 594,-112.5 530,-112.5"/>
<text text-anchor="middle" x="562" y="-119.5" font-family="Helvetica,sans-Serif" font-size="10.00">wdlstring.h</text>
</g>
<!-- Node7&#45;&gt;Node13 -->
<g id="edge15" class="edge"><title>Node7&#45;&gt;Node13</title>
<path fill="none" stroke="midnightblue" d="M456.807,-168.444C477.287,-159.596 509.483,-145.687 532.865,-135.586"/>
<polygon fill="midnightblue" stroke="midnightblue" points="534.494,-138.695 542.286,-131.516 531.718,-132.269 534.494,-138.695"/>
</g>
<!-- Node14 -->
<g id="node14" class="node"><title>Node14</title>
<polygon fill="white" stroke="#bfbfbf" points="384,-112.5 384,-131.5 436,-131.5 436,-112.5 384,-112.5"/>
<text text-anchor="middle" x="410" y="-119.5" font-family="Helvetica,sans-Serif" font-size="10.00">mutex.h</text>
</g>
<!-- Node7&#45;&gt;Node14 -->
<g id="edge16" class="edge"><title>Node7&#45;&gt;Node14</title>
<path fill="none" stroke="midnightblue" d="M432.541,-168.083C428.846,-160.691 423.477,-149.953 418.906,-140.811"/>
<polygon fill="midnightblue" stroke="midnightblue" points="421.978,-139.13 414.376,-131.751 415.717,-142.261 421.978,-139.13"/>
</g>
<!-- Node7&#45;&gt;Node15 -->
<g id="edge17" class="edge"><title>Node7&#45;&gt;Node15</title>
<path fill="none" stroke="midnightblue" d="M445.99,-168.059C460.525,-154.093 490.634,-127.136 521,-112 555.318,-94.8943 597,-83.5953 629.884,-76.5976"/>
<polygon fill="midnightblue" stroke="midnightblue" points="630.698,-80.0035 639.789,-74.5623 629.289,-73.1468 630.698,-80.0035"/>
</g>
<!-- Node7&#45;&gt;Node17 -->
<g id="edge19" class="edge"><title>Node7&#45;&gt;Node17</title>
<path fill="none" stroke="midnightblue" d="M402.616,-168.444C365.078,-159.102 304.869,-144.119 263.933,-133.933"/>
<polygon fill="midnightblue" stroke="midnightblue" points="264.773,-130.535 254.223,-131.516 263.082,-137.328 264.773,-130.535"/>
</g>
<!-- Node16 -->
<g id="node16" class="node"><title>Node16</title>
<polygon fill="white" stroke="#bfbfbf" points="656.5,-0.5 656.5,-19.5 715.5,-19.5 715.5,-0.5 656.5,-0.5"/>
<text text-anchor="middle" x="686" y="-7.5" font-family="Helvetica,sans-Serif" font-size="10.00">functional</text>
</g>
<!-- Node15&#45;&gt;Node16 -->
<g id="edge18" class="edge"><title>Node15&#45;&gt;Node16</title>
<path fill="none" stroke="midnightblue" d="M686,-56.083C686,-49.0059 686,-38.8611 686,-29.9865"/>
<polygon fill="midnightblue" stroke="midnightblue" points="689.5,-29.751 686,-19.7511 682.5,-29.7511 689.5,-29.751"/>
</g>
<!-- Node17&#45;&gt;Node2 -->
<g id="edge23" class="edge"><title>Node17&#45;&gt;Node2</title>
<path fill="none" stroke="midnightblue" d="M200.51,-112.444C180.358,-103.596 148.677,-89.6875 125.669,-79.5865"/>
<polygon fill="midnightblue" stroke="midnightblue" points="126.962,-76.3316 116.399,-75.5164 124.148,-82.7411 126.962,-76.3316"/>
</g>
<!-- Node17&#45;&gt;Node5 -->
<g id="edge26" class="edge"><title>Node17&#45;&gt;Node5</title>
<path fill="none" stroke="midnightblue" d="M230.856,-131.591C254.459,-150.27 310.69,-194.769 340.194,-218.118"/>
<polygon fill="midnightblue" stroke="midnightblue" points="338.079,-220.907 348.093,-224.368 342.423,-215.418 338.079,-220.907"/>
</g>
<!-- Node17&#45;&gt;Node6 -->
<g id="edge22" class="edge"><title>Node17&#45;&gt;Node6</title>
<path fill="none" stroke="midnightblue" d="M213.725,-112.083C208.358,-104.455 200.482,-93.2645 193.921,-83.9408"/>
<polygon fill="midnightblue" stroke="midnightblue" points="196.775,-81.9149 188.158,-75.7511 191.051,-85.9434 196.775,-81.9149"/>
</g>
<!-- Node17&#45;&gt;Node8 -->
<g id="edge21" class="edge"><title>Node17&#45;&gt;Node8</title>
<path fill="none" stroke="midnightblue" d="M258.663,-112.444C306.683,-101.816 387.699,-83.8863 432.259,-74.0246"/>
<polygon fill="midnightblue" stroke="midnightblue" points="433.23,-77.3945 442.238,-71.8162 431.718,-70.5598 433.23,-77.3945"/>
</g>
<!-- Node17&#45;&gt;Node9 -->
<g id="edge24" class="edge"><title>Node17&#45;&gt;Node9</title>
<path fill="none" stroke="midnightblue" d="M225.614,-112.083C230.367,-104.534 237.318,-93.4948 243.152,-84.2298"/>
<polygon fill="midnightblue" stroke="midnightblue" points="246.124,-86.0783 248.49,-75.7511 240.2,-82.3486 246.124,-86.0783"/>
</g>
<!-- Node17&#45;&gt;Node15 -->
<g id="edge25" class="edge"><title>Node17&#45;&gt;Node15</title>
<path fill="none" stroke="midnightblue" d="M260.134,-116.349C343.208,-106.723 534.199,-84.5907 629.611,-73.5344"/>
<polygon fill="midnightblue" stroke="midnightblue" points="630.119,-76.999 639.65,-72.3711 629.313,-70.0455 630.119,-76.999"/>
</g>
<!-- Node18 -->
<g id="node18" class="node"><title>Node18</title>
<polygon fill="white" stroke="#bfbfbf" points="937,-56.5 937,-75.5 981,-75.5 981,-56.5 937,-56.5"/>
<text text-anchor="middle" x="959" y="-63.5" font-family="Helvetica,sans-Serif" font-size="10.00">cmath</text>
</g>
<!-- Node17&#45;&gt;Node18 -->
<g id="edge20" class="edge"><title>Node17&#45;&gt;Node18</title>
<path fill="none" stroke="midnightblue" d="M260.255,-116.546C274.955,-114.996 291.72,-113.317 307,-112 544.564,-91.5201 831.464,-74.3396 926.611,-68.8425"/>
<polygon fill="midnightblue" stroke="midnightblue" points="926.961,-72.3282 936.743,-68.2595 926.559,-65.3398 926.961,-72.3282"/>
</g>
<!-- Node19&#45;&gt;Node5 -->
<g id="edge32" class="edge"><title>Node19&#45;&gt;Node5</title>
<path fill="none" stroke="midnightblue" d="M662.318,-282.753C600.341,-272.995 480.527,-254.133 411.483,-243.263"/>
<polygon fill="midnightblue" stroke="midnightblue" points="411.689,-239.752 401.266,-241.654 410.6,-246.667 411.689,-239.752"/>
</g>
<!-- Node19&#45;&gt;Node13 -->
<g id="edge30" class="edge"><title>Node19&#45;&gt;Node13</title>
<path fill="none" stroke="midnightblue" d="M694.473,-280.075C671.959,-253.38 604.898,-173.865 575.765,-139.322"/>
<polygon fill="midnightblue" stroke="midnightblue" points="578.349,-136.956 569.226,-131.568 572.998,-141.469 578.349,-136.956"/>
</g>
<!-- Node19&#45;&gt;Node15 -->
<g id="edge31" class="edge"><title>Node19&#45;&gt;Node15</title>
<path fill="none" stroke="midnightblue" d="M717.276,-280.321C760.656,-254.58 878.475,-176.442 831,-112 810.686,-84.4259 773.638,-73.2501 742.076,-68.9299"/>
<polygon fill="midnightblue" stroke="midnightblue" points="742.389,-65.4427 732.05,-67.756 741.575,-72.3952 742.389,-65.4427"/>
</g>
<!-- Node20 -->
<g id="node20" class="node"><title>Node20</title>
<polygon fill="white" stroke="#bfbfbf" points="834,-224.5 834,-243.5 890,-243.5 890,-224.5 834,-224.5"/>
<text text-anchor="middle" x="862" y="-231.5" font-family="Helvetica,sans-Serif" font-size="10.00">algorithm</text>
</g>
<!-- Node19&#45;&gt;Node20 -->
<g id="edge29" class="edge"><title>Node19&#45;&gt;Node20</title>
<path fill="none" stroke="midnightblue" d="M727.352,-280.444C754.269,-271.359 796.996,-256.939 827.087,-246.783"/>
<polygon fill="midnightblue" stroke="midnightblue" points="828.41,-250.031 836.766,-243.516 826.172,-243.398 828.41,-250.031"/>
</g>
<!-- Node21 -->
<g id="node21" class="node"><title>Node21</title>
<g id="a_node21"><a xlink:href="_i_plug_midi_8h_source.html" target="_top" xlink:title="IPlugMidi.h">
<polygon fill="white" stroke="black" points="658.5,-168.5 658.5,-187.5 723.5,-187.5 723.5,-168.5 658.5,-168.5"/>
<text text-anchor="middle" x="691" y="-175.5" font-family="Helvetica,sans-Serif" font-size="10.00">IPlugMidi.h</text>
</a>
</g>
</g>
<!-- Node19&#45;&gt;Node21 -->
<g id="edge33" class="edge"><title>Node19&#45;&gt;Node21</title>
<path fill="none" stroke="midnightblue" d="M701.137,-280.368C699.362,-262.617 695.267,-221.666 692.86,-197.597"/>
<polygon fill="midnightblue" stroke="midnightblue" points="696.337,-197.193 691.859,-187.591 689.372,-197.89 696.337,-197.193"/>
</g>
<!-- Node21&#45;&gt;Node3 -->
<g id="edge35" class="edge"><title>Node21&#45;&gt;Node3</title>
<path fill="none" stroke="midnightblue" d="M682.003,-168.324C673.806,-160.42 661.494,-148.548 651.528,-138.938"/>
<polygon fill="midnightblue" stroke="midnightblue" points="653.789,-136.256 644.161,-131.834 648.93,-141.295 653.789,-136.256"/>
</g>
<!-- Node21&#45;&gt;Node12 -->
<g id="edge34" class="edge"><title>Node21&#45;&gt;Node12</title>
<path fill="none" stroke="midnightblue" d="M708.191,-168.324C725.351,-159.664 751.946,-146.242 771.747,-136.249"/>
<polygon fill="midnightblue" stroke="midnightblue" points="773.501,-139.285 780.851,-131.655 770.347,-133.035 773.501,-139.285"/>
</g>
<!-- Node21&#45;&gt;Node15 -->
<g id="edge36" class="edge"><title>Node21&#45;&gt;Node15</title>
<path fill="none" stroke="midnightblue" d="M690.608,-168.368C689.801,-150.617 687.939,-109.666 686.845,-85.5974"/>
<polygon fill="midnightblue" stroke="midnightblue" points="690.341,-85.4221 686.391,-75.5914 683.348,-85.7401 690.341,-85.4221"/>
</g>
<!-- Node21&#45;&gt;Node17 -->
<g id="edge37" class="edge"><title>Node21&#45;&gt;Node17</title>
<path fill="none" stroke="midnightblue" d="M658.254,-173.246C577.238,-163.957 366.988,-139.852 270.161,-128.751"/>
<polygon fill="midnightblue" stroke="midnightblue" points="270.374,-125.252 260.04,-127.591 269.576,-132.207 270.374,-125.252"/>
</g>
<!-- Node23&#45;&gt;Node1 -->
<g id="edge47" class="edge"><title>Node23&#45;&gt;Node1</title>
<path fill="none" stroke="midnightblue" d="M1002.18,-187.604C1008.59,-209.907 1009.81,-269.937 977,-300 941.232,-332.773 802.233,-341.686 722.612,-344.104"/>
<polygon fill="midnightblue" stroke="midnightblue" points="722.16,-340.615 712.261,-344.392 722.355,-347.613 722.16,-340.615"/>
</g>
<!-- Node23&#45;&gt;Node8 -->
<g id="edge42" class="edge"><title>Node23&#45;&gt;Node8</title>
<path fill="none" stroke="midnightblue" d="M979.552,-168.471C949.823,-154.33 887.111,-126.185 831,-112 709.808,-81.3628 560.633,-71.2973 496.174,-68.2342"/>
<polygon fill="midnightblue" stroke="midnightblue" points="496.007,-64.7232 485.859,-67.7703 495.692,-71.7162 496.007,-64.7232"/>
</g>
<!-- Node23&#45;&gt;Node11 -->
<g id="edge43" class="edge"><title>Node23&#45;&gt;Node11</title>
<path fill="none" stroke="midnightblue" d="M945.738,-168.771C900.513,-161.136 832.666,-148.77 765.429,-132.156"/>
<polygon fill="midnightblue" stroke="midnightblue" points="766.067,-128.707 755.516,-129.673 764.366,-135.498 766.067,-128.707"/>
</g>
<!-- Node23&#45;&gt;Node12 -->
<g id="edge44" class="edge"><title>Node23&#45;&gt;Node12</title>
<path fill="none" stroke="midnightblue" d="M965.468,-168.444C929.304,-158.63 870.195,-142.591 832.737,-132.426"/>
<polygon fill="midnightblue" stroke="midnightblue" points="833.351,-128.966 822.783,-129.725 831.517,-135.722 833.351,-128.966"/>
</g>
<!-- Node23&#45;&gt;Node18 -->
<g id="edge41" class="edge"><title>Node23&#45;&gt;Node18</title>
<path fill="none" stroke="midnightblue" d="M1048.07,-170.026C1094.3,-161.521 1151.66,-144.129 1127,-112 1110.58,-90.5996 1035.24,-77.151 991.227,-70.9791"/>
<polygon fill="midnightblue" stroke="midnightblue" points="991.672,-67.5074 981.293,-69.6347 990.733,-74.4442 991.672,-67.5074"/>
</g>
<!-- Node24 -->
<g id="node24" class="node"><title>Node24</title>
<polygon fill="white" stroke="#bfbfbf" points="955,-112.5 955,-131.5 1023,-131.5 1023,-112.5 955,-112.5"/>
<text text-anchor="middle" x="989" y="-119.5" font-family="Helvetica,sans-Serif" font-size="10.00">wdlendian.h</text>
</g>
<!-- Node23&#45;&gt;Node24 -->
<g id="edge45" class="edge"><title>Node23&#45;&gt;Node24</title>
<path fill="none" stroke="midnightblue" d="M995.679,-168.083C994.619,-160.927 993.094,-150.635 991.769,-141.691"/>
<polygon fill="midnightblue" stroke="midnightblue" points="995.224,-141.13 990.296,-131.751 988.3,-142.156 995.224,-141.13"/>
</g>
<!-- Node25 -->
<g id="node25" class="node"><title>Node25</title>
<polygon fill="white" stroke="#bfbfbf" points="1041.5,-112.5 1041.5,-131.5 1118.5,-131.5 1118.5,-112.5 1041.5,-112.5"/>
<text text-anchor="middle" x="1080" y="-119.5" font-family="Helvetica,sans-Serif" font-size="10.00">wdl_base64.h</text>
</g>
<!-- Node23&#45;&gt;Node25 -->
<g id="edge46" class="edge"><title>Node23&#45;&gt;Node25</title>
<path fill="none" stroke="midnightblue" d="M1010.34,-168.324C1023.16,-159.979 1042.78,-147.212 1057.94,-137.352"/>
<polygon fill="midnightblue" stroke="midnightblue" points="1060.22,-140.042 1066.7,-131.655 1056.41,-134.174 1060.22,-140.042"/>
</g>
</g>
</svg>
