<?xml version="1.0" encoding="UTF-8" standalone="no"?>
<!DOCTYPE svg PUBLIC "-//W3C//DTD SVG 1.1//EN"
 "http://www.w3.org/Graphics/SVG/1.1/DTD/svg11.dtd">
<!-- Generated by graphviz version 2.36.0 (20140111.2315)
 -->
<!-- Title: IPlugAAX.h Pages: 1 -->
<!--zoomable 532 -->
<svg id="main" version="1.1" xmlns="http://www.w3.org/2000/svg" xmlns:xlink="http://www.w3.org/1999/xlink" xml:space="preserve" onload="init(evt)">
<style type="text/css"><![CDATA[
.edge:hover path { stroke: red; }
.edge:hover polygon { stroke: red; fill: red; }
]]></style>
<script type="text/javascript"><![CDATA[
var edges = document.getElementsByTagName('g');
if (edges && edges.length) {
  for (var i=0;i<edges.length;i++) {
    if (edges[i].id.substr(0,4)=='edge') {
      edges[i].setAttribute('class','edge');
    }
  }
}
]]></script>
        <defs>
                <circle id="rim" cx="0" cy="0" r="7"/>
                <circle id="rim2" cx="0" cy="0" r="3.5"/>
                <g id="zoomPlus">
                        <use xlink:href="#rim" fill="#404040">
                                <set attributeName="fill" to="#808080" begin="zoomplus.mouseover" end="zoomplus.mouseout"/>
                        </use>
                        <path d="M-4,0h8M0,-4v8" fill="none" stroke="white" stroke-width="1.5" pointer-events="none"/>
                </g>
                <g id="zoomMin">
                        <use xlink:href="#rim" fill="#404040">
                                <set attributeName="fill" to="#808080" begin="zoomminus.mouseover" end="zoomminus.mouseout"/>
                        </use>
                        <path d="M-4,0h8" fill="none" stroke="white" stroke-width="1.5" pointer-events="none"/>
                </g>
                <g id="dirArrow">
                        <path fill="none" stroke="white" stroke-width="1.5" d="M0,-3.0v7 M-2.5,-0.5L0,-3.0L2.5,-0.5"/>
                </g>
               <g id="resetDef">
                       <use xlink:href="#rim2" fill="#404040">
                               <set attributeName="fill" to="#808080" begin="reset.mouseover" end="reset.mouseout"/>
                       </use>
               </g>
        </defs>

<script type="text/javascript">
var viewWidth = 1933;
var viewHeight = 532;
var sectionId = 'dynsection-0';
</script>
<script xlink:href="svgpan.js"/>
<svg id="graph" class="graph">
<g id="viewport">
<title>IPlugAAX.h</title>
<polygon fill="white" stroke="none" points="-4,4 -4,-528 1929,-528 1929,4 -4,4"/>
<!-- Node1 -->
<g id="node1" class="node"><title>Node1</title>
<polygon fill="#bfbfbf" stroke="black" points="1433,-504.5 1433,-523.5 1501,-523.5 1501,-504.5 1433,-504.5"/>
<text text-anchor="middle" x="1467" y="-511.5" font-family="Helvetica,sans-Serif" font-size="10.00">IPlugAAX.h</text>
</g>
<!-- Node2 -->
<g id="node2" class="node"><title>Node2</title>
<g id="a_node2"><a xlink:href="_i_plug_platform_8h.html" target="_top" xlink:title="Include to get consistently named preprocessor macros for different platforms and logging functionali...">
<polygon fill="white" stroke="black" points="701,-224.5 701,-243.5 785,-243.5 785,-224.5 701,-224.5"/>
<text text-anchor="middle" x="743" y="-231.5" font-family="Helvetica,sans-Serif" font-size="10.00">IPlugPlatform.h</text>
</a>
</g>
</g>
<!-- Node1&#45;&gt;Node2 -->
<g id="edge1" class="edge"><title>Node1&#45;&gt;Node2</title>
<path fill="none" stroke="midnightblue" d="M1432.74,-510.263C1402.32,-506.04 1358.67,-495.302 1332,-468 1310.88,-446.38 1312,-433.225 1312,-403 1312,-403 1312,-403 1312,-345 1312,-240.34 936.213,-233.14 795.421,-234.116"/>
<polygon fill="midnightblue" stroke="midnightblue" points="795.272,-230.617 785.303,-234.203 795.332,-237.617 795.272,-230.617"/>
</g>
<!-- Node18 -->
<g id="node18" class="node"><title>Node18</title>
<g id="a_node18"><a xlink:href="_i_plug_base__select_8h_source.html" target="_top" xlink:title="IPlugBase_select.h">
<polygon fill="white" stroke="black" points="709.5,-448.5 709.5,-467.5 810.5,-467.5 810.5,-448.5 709.5,-448.5"/>
<text text-anchor="middle" x="760" y="-455.5" font-family="Helvetica,sans-Serif" font-size="10.00">IPlugBase_select.h</text>
</a>
</g>
</g>
<!-- Node1&#45;&gt;Node18 -->
<g id="edge24" class="edge"><title>Node1&#45;&gt;Node18</title>
<path fill="none" stroke="midnightblue" d="M1432.9,-510.395C1321.11,-501.857 964.69,-474.634 820.954,-463.656"/>
<polygon fill="midnightblue" stroke="midnightblue" points="821.216,-460.166 810.979,-462.894 820.683,-467.145 821.216,-460.166"/>
</g>
<!-- Node35 -->
<g id="node35" class="node"><title>Node35</title>
<polygon fill="white" stroke="#bfbfbf" points="1340.5,-448.5 1340.5,-467.5 1463.5,-467.5 1463.5,-448.5 1340.5,-448.5"/>
<text text-anchor="middle" x="1402" y="-455.5" font-family="Helvetica,sans-Serif" font-size="10.00">IPlugAAX_Parameters.h</text>
</g>
<!-- Node1&#45;&gt;Node35 -->
<g id="edge78" class="edge"><title>Node1&#45;&gt;Node35</title>
<path fill="none" stroke="midnightblue" d="M1456.56,-504.324C1446.85,-496.263 1432.18,-484.077 1420.5,-474.369"/>
<polygon fill="midnightblue" stroke="midnightblue" points="1422.56,-471.532 1412.63,-467.834 1418.09,-476.916 1422.56,-471.532"/>
</g>
<!-- Node36 -->
<g id="node36" class="node"><title>Node36</title>
<polygon fill="white" stroke="#bfbfbf" points="1482,-448.5 1482,-467.5 1584,-467.5 1584,-448.5 1482,-448.5"/>
<text text-anchor="middle" x="1533" y="-455.5" font-family="Helvetica,sans-Serif" font-size="10.00">AAX_CEffectGUI.h</text>
</g>
<!-- Node1&#45;&gt;Node36 -->
<g id="edge79" class="edge"><title>Node1&#45;&gt;Node36</title>
<path fill="none" stroke="midnightblue" d="M1477.6,-504.324C1487.46,-496.263 1502.35,-484.077 1514.22,-474.369"/>
<polygon fill="midnightblue" stroke="midnightblue" points="1516.68,-476.875 1522.2,-467.834 1512.25,-471.457 1516.68,-476.875"/>
</g>
<!-- Node37 -->
<g id="node37" class="node"><title>Node37</title>
<polygon fill="white" stroke="#bfbfbf" points="1602,-448.5 1602,-467.5 1770,-467.5 1770,-448.5 1602,-448.5"/>
<text text-anchor="middle" x="1686" y="-455.5" font-family="Helvetica,sans-Serif" font-size="10.00">AAX_Push8ByteStructAlignment.h</text>
</g>
<!-- Node1&#45;&gt;Node37 -->
<g id="edge80" class="edge"><title>Node1&#45;&gt;Node37</title>
<path fill="none" stroke="midnightblue" d="M1501.22,-504.562C1539.01,-495.245 1599.97,-480.212 1641.46,-469.983"/>
<polygon fill="midnightblue" stroke="midnightblue" points="1642.43,-473.349 1651.3,-467.556 1640.75,-466.552 1642.43,-473.349"/>
</g>
<!-- Node38 -->
<g id="node38" class="node"><title>Node38</title>
<polygon fill="white" stroke="#bfbfbf" points="1788.5,-448.5 1788.5,-467.5 1925.5,-467.5 1925.5,-448.5 1788.5,-448.5"/>
<text text-anchor="middle" x="1857" y="-455.5" font-family="Helvetica,sans-Serif" font-size="10.00">AAX_PopStructAlignment.h</text>
</g>
<!-- Node1&#45;&gt;Node38 -->
<g id="edge81" class="edge"><title>Node1&#45;&gt;Node38</title>
<path fill="none" stroke="midnightblue" d="M1501.27,-508.255C1564.59,-499.488 1701.12,-480.583 1785.42,-468.912"/>
<polygon fill="midnightblue" stroke="midnightblue" points="1786,-472.364 1795.43,-467.525 1785.04,-465.43 1786,-472.364"/>
</g>
<!-- Node3 -->
<g id="node3" class="node"><title>Node3</title>
<polygon fill="white" stroke="#bfbfbf" points="434,-56.5 434,-75.5 480,-75.5 480,-56.5 434,-56.5"/>
<text text-anchor="middle" x="457" y="-63.5" font-family="Helvetica,sans-Serif" font-size="10.00">cstring</text>
</g>
<!-- Node2&#45;&gt;Node3 -->
<g id="edge2" class="edge"><title>Node2&#45;&gt;Node3</title>
<path fill="none" stroke="midnightblue" d="M710.639,-224.429C663.602,-210.786 575.285,-180.595 514,-132 496.442,-118.078 479.977,-98.2867 469.302,-84.2075"/>
<polygon fill="midnightblue" stroke="midnightblue" points="471.924,-81.8665 463.169,-75.8993 466.292,-86.0235 471.924,-81.8665"/>
</g>
<!-- Node4 -->
<g id="node4" class="node"><title>Node4</title>
<polygon fill="white" stroke="#bfbfbf" points="1035.5,-56.5 1035.5,-75.5 1080.5,-75.5 1080.5,-56.5 1035.5,-56.5"/>
<text text-anchor="middle" x="1058" y="-63.5" font-family="Helvetica,sans-Serif" font-size="10.00">cstdlib</text>
</g>
<!-- Node2&#45;&gt;Node4 -->
<g id="edge3" class="edge"><title>Node2&#45;&gt;Node4</title>
<path fill="none" stroke="midnightblue" d="M785.202,-225.86C863.726,-211.619 1027.29,-177.132 1060,-132 1069.62,-118.728 1067.68,-99.6028 1064.21,-85.5328"/>
<polygon fill="midnightblue" stroke="midnightblue" points="1067.45,-84.1531 1061.28,-75.5411 1060.73,-86.1218 1067.45,-84.1531"/>
</g>
<!-- Node5 -->
<g id="node5" class="node"><title>Node5</title>
<g id="a_node5"><a xlink:href="_i_plug_logger_8h.html" target="_top" xlink:title="IPlug logging a.k.a tracing functionailty. ">
<polygon fill="white" stroke="black" points="661.5,-168.5 661.5,-187.5 738.5,-187.5 738.5,-168.5 661.5,-168.5"/>
<text text-anchor="middle" x="700" y="-175.5" font-family="Helvetica,sans-Serif" font-size="10.00">IPlugLogger.h</text>
</a>
</g>
</g>
<!-- Node2&#45;&gt;Node5 -->
<g id="edge4" class="edge"><title>Node2&#45;&gt;Node5</title>
<path fill="none" stroke="midnightblue" d="M735.899,-224.083C729.763,-216.377 720.73,-205.033 713.261,-195.653"/>
<polygon fill="midnightblue" stroke="midnightblue" points="715.936,-193.394 706.968,-187.751 710.46,-197.754 715.936,-193.394"/>
</g>
<!-- Node5&#45;&gt;Node3 -->
<g id="edge9" class="edge"><title>Node5&#45;&gt;Node3</title>
<path fill="none" stroke="midnightblue" d="M683.92,-168.36C652.028,-151.233 583.362,-114.413 578,-112 548.719,-98.8255 514.316,-86.3037 489.695,-77.8299"/>
<polygon fill="midnightblue" stroke="midnightblue" points="490.708,-74.4777 480.114,-74.5668 488.451,-81.1039 490.708,-74.4777"/>
</g>
<!-- Node6 -->
<g id="node6" class="node"><title>Node6</title>
<polygon fill="white" stroke="#bfbfbf" points="863.5,-56.5 863.5,-75.5 906.5,-75.5 906.5,-56.5 863.5,-56.5"/>
<text text-anchor="middle" x="885" y="-63.5" font-family="Helvetica,sans-Serif" font-size="10.00">cstdio</text>
</g>
<!-- Node5&#45;&gt;Node6 -->
<g id="edge5" class="edge"><title>Node5&#45;&gt;Node6</title>
<path fill="none" stroke="midnightblue" d="M714.517,-168.368C746.398,-149.412 822.772,-104.001 861.551,-80.9424"/>
<polygon fill="midnightblue" stroke="midnightblue" points="863.744,-83.7106 870.551,-75.5914 860.167,-77.6938 863.744,-83.7106"/>
</g>
<!-- Node7 -->
<g id="node7" class="node"><title>Node7</title>
<polygon fill="white" stroke="#bfbfbf" points="783,-56.5 783,-75.5 829,-75.5 829,-56.5 783,-56.5"/>
<text text-anchor="middle" x="806" y="-63.5" font-family="Helvetica,sans-Serif" font-size="10.00">cctype</text>
</g>
<!-- Node5&#45;&gt;Node7 -->
<g id="edge6" class="edge"><title>Node5&#45;&gt;Node7</title>
<path fill="none" stroke="midnightblue" d="M708.318,-168.368C726.043,-149.974 767.771,-106.671 790.532,-83.0519"/>
<polygon fill="midnightblue" stroke="midnightblue" points="793.302,-85.2209 797.721,-75.5914 788.262,-80.3636 793.302,-85.2209"/>
</g>
<!-- Node8 -->
<g id="node8" class="node"><title>Node8</title>
<polygon fill="white" stroke="#bfbfbf" points="625.5,-112.5 625.5,-131.5 674.5,-131.5 674.5,-112.5 625.5,-112.5"/>
<text text-anchor="middle" x="650" y="-119.5" font-family="Helvetica,sans-Serif" font-size="10.00">cstdarg</text>
</g>
<!-- Node5&#45;&gt;Node8 -->
<g id="edge7" class="edge"><title>Node5&#45;&gt;Node8</title>
<path fill="none" stroke="midnightblue" d="M691.744,-168.083C684.535,-160.298 673.89,-148.801 665.154,-139.367"/>
<polygon fill="midnightblue" stroke="midnightblue" points="667.465,-136.711 658.103,-131.751 662.329,-141.467 667.465,-136.711"/>
</g>
<!-- Node9 -->
<g id="node9" class="node"><title>Node9</title>
<polygon fill="white" stroke="#bfbfbf" points="523,-112.5 523,-131.5 569,-131.5 569,-112.5 523,-112.5"/>
<text text-anchor="middle" x="546" y="-119.5" font-family="Helvetica,sans-Serif" font-size="10.00">cstdint</text>
</g>
<!-- Node5&#45;&gt;Node9 -->
<g id="edge8" class="edge"><title>Node5&#45;&gt;Node9</title>
<path fill="none" stroke="midnightblue" d="M675.598,-168.444C649.5,-159.292 607.959,-144.726 578.966,-134.559"/>
<polygon fill="midnightblue" stroke="midnightblue" points="579.874,-131.169 569.28,-131.163 577.558,-137.775 579.874,-131.169"/>
</g>
<!-- Node10 -->
<g id="node10" class="node"><title>Node10</title>
<polygon fill="white" stroke="#bfbfbf" points="1010.5,-112.5 1010.5,-131.5 1051.5,-131.5 1051.5,-112.5 1010.5,-112.5"/>
<text text-anchor="middle" x="1031" y="-119.5" font-family="Helvetica,sans-Serif" font-size="10.00">ctime</text>
</g>
<!-- Node5&#45;&gt;Node10 -->
<g id="edge10" class="edge"><title>Node5&#45;&gt;Node10</title>
<path fill="none" stroke="midnightblue" d="M738.813,-172.996C794.605,-166.848 900.797,-153.691 1000.51,-131.804"/>
<polygon fill="midnightblue" stroke="midnightblue" points="1001.45,-135.181 1010.45,-129.589 999.924,-128.349 1001.45,-135.181"/>
</g>
<!-- Node11 -->
<g id="node11" class="node"><title>Node11</title>
<polygon fill="white" stroke="#bfbfbf" points="943.5,-112.5 943.5,-131.5 992.5,-131.5 992.5,-112.5 943.5,-112.5"/>
<text text-anchor="middle" x="968" y="-119.5" font-family="Helvetica,sans-Serif" font-size="10.00">cassert</text>
</g>
<!-- Node5&#45;&gt;Node11 -->
<g id="edge11" class="edge"><title>Node5&#45;&gt;Node11</title>
<path fill="none" stroke="midnightblue" d="M738.678,-170.403C783.219,-162.62 858.788,-148.851 933.159,-132.064"/>
<polygon fill="midnightblue" stroke="midnightblue" points="934.193,-135.418 943.166,-129.785 932.639,-128.593 934.193,-135.418"/>
</g>
<!-- Node12 -->
<g id="node12" class="node"><title>Node12</title>
<polygon fill="white" stroke="#bfbfbf" points="365,-112.5 365,-131.5 429,-131.5 429,-112.5 365,-112.5"/>
<text text-anchor="middle" x="397" y="-119.5" font-family="Helvetica,sans-Serif" font-size="10.00">wdlstring.h</text>
</g>
<!-- Node5&#45;&gt;Node12 -->
<g id="edge12" class="edge"><title>Node5&#45;&gt;Node12</title>
<path fill="none" stroke="midnightblue" d="M661.317,-170.106C604.276,-159.94 498.01,-141.002 439.082,-130.5"/>
<polygon fill="midnightblue" stroke="midnightblue" points="439.459,-127.012 429,-128.703 438.231,-133.903 439.459,-127.012"/>
</g>
<!-- Node13 -->
<g id="node13" class="node"><title>Node13</title>
<polygon fill="white" stroke="#bfbfbf" points="257,-112.5 257,-131.5 309,-131.5 309,-112.5 257,-112.5"/>
<text text-anchor="middle" x="283" y="-119.5" font-family="Helvetica,sans-Serif" font-size="10.00">mutex.h</text>
</g>
<!-- Node5&#45;&gt;Node13 -->
<g id="edge13" class="edge"><title>Node5&#45;&gt;Node13</title>
<path fill="none" stroke="midnightblue" d="M661.144,-171.968C580.812,-161.566 397.446,-137.82 319.329,-127.704"/>
<polygon fill="midnightblue" stroke="midnightblue" points="319.393,-124.184 309.026,-126.37 318.494,-131.126 319.393,-124.184"/>
</g>
<!-- Node14 -->
<g id="node14" class="node"><title>Node14</title>
<g id="a_node14"><a xlink:href="_i_plug_constants_8h.html" target="_top" xlink:title="Constant definitions, Types, magic numbers. ">
<polygon fill="white" stroke="black" points="657,-56.5 657,-75.5 749,-75.5 749,-56.5 657,-56.5"/>
<text text-anchor="middle" x="703" y="-63.5" font-family="Helvetica,sans-Serif" font-size="10.00">IPlugConstants.h</text>
</a>
</g>
</g>
<!-- Node5&#45;&gt;Node14 -->
<g id="edge14" class="edge"><title>Node5&#45;&gt;Node14</title>
<path fill="none" stroke="midnightblue" d="M700.235,-168.368C700.72,-150.617 701.836,-109.666 702.493,-85.5974"/>
<polygon fill="midnightblue" stroke="midnightblue" points="705.992,-85.6832 702.766,-75.5914 698.994,-85.4922 705.992,-85.6832"/>
</g>
<!-- Node16 -->
<g id="node16" class="node"><title>Node16</title>
<g id="a_node16"><a xlink:href="_i_plug_utilities_8h.html" target="_top" xlink:title="Utility functions and macros. ">
<polygon fill="white" stroke="black" points="845,-112.5 845,-131.5 925,-131.5 925,-112.5 845,-112.5"/>
<text text-anchor="middle" x="885" y="-119.5" font-family="Helvetica,sans-Serif" font-size="10.00">IPlugUtilities.h</text>
</a>
</g>
</g>
<!-- Node5&#45;&gt;Node16 -->
<g id="edge16" class="edge"><title>Node5&#45;&gt;Node16</title>
<path fill="none" stroke="midnightblue" d="M729.314,-168.444C760.842,-159.241 811.131,-144.562 845.986,-134.388"/>
<polygon fill="midnightblue" stroke="midnightblue" points="847.205,-137.678 855.823,-131.516 845.243,-130.959 847.205,-137.678"/>
</g>
<!-- Node15 -->
<g id="node15" class="node"><title>Node15</title>
<polygon fill="white" stroke="#bfbfbf" points="673.5,-0.5 673.5,-19.5 732.5,-19.5 732.5,-0.5 673.5,-0.5"/>
<text text-anchor="middle" x="703" y="-7.5" font-family="Helvetica,sans-Serif" font-size="10.00">functional</text>
</g>
<!-- Node14&#45;&gt;Node15 -->
<g id="edge15" class="edge"><title>Node14&#45;&gt;Node15</title>
<path fill="none" stroke="midnightblue" d="M703,-56.083C703,-49.0059 703,-38.8611 703,-29.9865"/>
<polygon fill="midnightblue" stroke="midnightblue" points="706.5,-29.751 703,-19.7511 699.5,-29.7511 706.5,-29.751"/>
</g>
<!-- Node16&#45;&gt;Node2 -->
<g id="edge23" class="edge"><title>Node16&#45;&gt;Node2</title>
<path fill="none" stroke="midnightblue" d="M885.316,-131.767C885.328,-145.494 883.333,-172.131 869,-188 850.101,-208.925 820.796,-220.124 795.202,-226.115"/>
<polygon fill="midnightblue" stroke="midnightblue" points="794.29,-222.731 785.238,-228.236 795.748,-229.577 794.29,-222.731"/>
</g>
<!-- Node16&#45;&gt;Node3 -->
<g id="edge20" class="edge"><title>Node16&#45;&gt;Node3</title>
<path fill="none" stroke="midnightblue" d="M844.735,-115.92C760.665,-105.313 567.858,-80.9868 490.257,-71.196"/>
<polygon fill="midnightblue" stroke="midnightblue" points="490.455,-67.6933 480.095,-69.9139 489.578,-74.6382 490.455,-67.6933"/>
</g>
<!-- Node16&#45;&gt;Node4 -->
<g id="edge19" class="edge"><title>Node16&#45;&gt;Node4</title>
<path fill="none" stroke="midnightblue" d="M912.412,-112.444C943.104,-102.863 992.807,-87.3492 1025.45,-77.1604"/>
<polygon fill="midnightblue" stroke="midnightblue" points="1026.9,-80.3744 1035.4,-74.0537 1024.81,-73.6924 1026.9,-80.3744"/>
</g>
<!-- Node16&#45;&gt;Node6 -->
<g id="edge18" class="edge"><title>Node16&#45;&gt;Node6</title>
<path fill="none" stroke="midnightblue" d="M885,-112.083C885,-105.006 885,-94.8611 885,-85.9865"/>
<polygon fill="midnightblue" stroke="midnightblue" points="888.5,-85.751 885,-75.7511 881.5,-85.7511 888.5,-85.751"/>
</g>
<!-- Node16&#45;&gt;Node7 -->
<g id="edge21" class="edge"><title>Node16&#45;&gt;Node7</title>
<path fill="none" stroke="midnightblue" d="M872.307,-112.324C860.099,-103.979 841.422,-91.2122 826.997,-81.3524"/>
<polygon fill="midnightblue" stroke="midnightblue" points="828.892,-78.4082 818.661,-75.6545 824.942,-84.1871 828.892,-78.4082"/>
</g>
<!-- Node16&#45;&gt;Node14 -->
<g id="edge22" class="edge"><title>Node16&#45;&gt;Node14</title>
<path fill="none" stroke="midnightblue" d="M856.162,-112.444C825.144,-103.241 775.671,-88.5617 741.382,-78.3879"/>
<polygon fill="midnightblue" stroke="midnightblue" points="742.286,-75.0055 731.704,-75.5164 740.295,-81.7164 742.286,-75.0055"/>
</g>
<!-- Node17 -->
<g id="node17" class="node"><title>Node17</title>
<polygon fill="white" stroke="#bfbfbf" points="1154,-56.5 1154,-75.5 1198,-75.5 1198,-56.5 1154,-56.5"/>
<text text-anchor="middle" x="1176" y="-63.5" font-family="Helvetica,sans-Serif" font-size="10.00">cmath</text>
</g>
<!-- Node16&#45;&gt;Node17 -->
<g id="edge17" class="edge"><title>Node16&#45;&gt;Node17</title>
<path fill="none" stroke="midnightblue" d="M925.157,-113.548C983.479,-102.726 1090.47,-82.871 1143.89,-72.9586"/>
<polygon fill="midnightblue" stroke="midnightblue" points="1144.63,-76.3802 1153.83,-71.1143 1143.36,-69.4976 1144.63,-76.3802"/>
</g>
<!-- Node19 -->
<g id="node19" class="node"><title>Node19</title>
<g id="a_node19"><a xlink:href="_i_plug_base_graphics_8h.html" target="_top" xlink:title="An IPlugBase class for an IPlug plug&#45;in that uses IGraphics for it&#39;s UI. ">
<polygon fill="white" stroke="black" points="380.5,-392.5 380.5,-411.5 489.5,-411.5 489.5,-392.5 380.5,-392.5"/>
<text text-anchor="middle" x="435" y="-399.5" font-family="Helvetica,sans-Serif" font-size="10.00">IPlugBaseGraphics.h</text>
</a>
</g>
</g>
<!-- Node18&#45;&gt;Node19 -->
<g id="edge25" class="edge"><title>Node18&#45;&gt;Node19</title>
<path fill="none" stroke="midnightblue" d="M709.219,-448.562C651.636,-438.995 557.777,-423.4 496.2,-413.169"/>
<polygon fill="midnightblue" stroke="midnightblue" points="496.667,-409.698 486.228,-411.512 495.519,-416.604 496.667,-409.698"/>
</g>
<!-- Node29 -->
<g id="node29" class="node"><title>Node29</title>
<g id="a_node29"><a xlink:href="_i_plug_processor_8h.html" target="_top" xlink:title="The base class for IPlug Audio Processing. ">
<polygon fill="white" stroke="black" points="919,-336.5 919,-355.5 1011,-355.5 1011,-336.5 919,-336.5"/>
<text text-anchor="middle" x="965" y="-343.5" font-family="Helvetica,sans-Serif" font-size="10.00">IPlugProcessor.h</text>
</a>
</g>
</g>
<!-- Node18&#45;&gt;Node29 -->
<g id="edge51" class="edge"><title>Node18&#45;&gt;Node29</title>
<path fill="none" stroke="midnightblue" d="M776.086,-448.368C811.713,-429.251 897.482,-383.229 940.1,-360.361"/>
<polygon fill="midnightblue" stroke="midnightblue" points="941.832,-363.404 948.989,-355.591 938.522,-357.236 941.832,-363.404"/>
</g>
<!-- Node34 -->
<g id="node34" class="node"><title>Node34</title>
<g id="a_node34"><a xlink:href="_i_plug_presets_8h.html" target="_top" xlink:title="IPlugPresets.h">
<polygon fill="white" stroke="black" points="513.5,-336.5 513.5,-355.5 594.5,-355.5 594.5,-336.5 513.5,-336.5"/>
<text text-anchor="middle" x="554" y="-343.5" font-family="Helvetica,sans-Serif" font-size="10.00">IPlugPresets.h</text>
</a>
</g>
</g>
<!-- Node18&#45;&gt;Node34 -->
<g id="edge68" class="edge"><title>Node18&#45;&gt;Node34</title>
<path fill="none" stroke="midnightblue" d="M743.836,-448.368C708.035,-429.251 621.847,-383.229 579.021,-360.361"/>
<polygon fill="midnightblue" stroke="midnightblue" points="580.559,-357.214 570.089,-355.591 577.262,-363.389 580.559,-357.214"/>
</g>
<!-- Node20 -->
<g id="node20" class="node"><title>Node20</title>
<g id="a_node20"><a xlink:href="_i_plug_base_8h.html" target="_top" xlink:title="The lowest level base class of an IPlug plug&#45;in. ">
<polygon fill="white" stroke="black" points="269,-336.5 269,-355.5 339,-355.5 339,-336.5 269,-336.5"/>
<text text-anchor="middle" x="304" y="-343.5" font-family="Helvetica,sans-Serif" font-size="10.00">IPlugBase.h</text>
</a>
</g>
</g>
<!-- Node19&#45;&gt;Node20 -->
<g id="edge26" class="edge"><title>Node19&#45;&gt;Node20</title>
<path fill="none" stroke="midnightblue" d="M414.243,-392.444C392.684,-383.557 358.737,-369.563 334.206,-359.451"/>
<polygon fill="midnightblue" stroke="midnightblue" points="335.239,-356.092 324.66,-355.516 332.572,-362.563 335.239,-356.092"/>
</g>
<!-- Node28 -->
<g id="node28" class="node"><title>Node28</title>
<g id="a_node28"><a xlink:href="_i_plug_delegate_8h_source.html" target="_top" xlink:title="IPlugDelegate.h">
<polygon fill="white" stroke="black" points="392,-336.5 392,-355.5 478,-355.5 478,-336.5 392,-336.5"/>
<text text-anchor="middle" x="435" y="-343.5" font-family="Helvetica,sans-Serif" font-size="10.00">IPlugDelegate.h</text>
</a>
</g>
</g>
<!-- Node19&#45;&gt;Node28 -->
<g id="edge50" class="edge"><title>Node19&#45;&gt;Node28</title>
<path fill="none" stroke="midnightblue" d="M435,-392.083C435,-385.006 435,-374.861 435,-365.986"/>
<polygon fill="midnightblue" stroke="midnightblue" points="438.5,-365.751 435,-355.751 431.5,-365.751 438.5,-365.751"/>
</g>
<!-- Node20&#45;&gt;Node2 -->
<g id="edge31" class="edge"><title>Node20&#45;&gt;Node2</title>
<path fill="none" stroke="midnightblue" d="M339.122,-340.625C414.235,-331.156 585.723,-308.903 611,-300 627.536,-294.176 629.458,-288.113 645,-280 667.575,-268.216 693.827,-256.25 713.475,-247.623"/>
<polygon fill="midnightblue" stroke="midnightblue" points="715.048,-250.755 722.819,-243.553 712.253,-244.338 715.048,-250.755"/>
</g>
<!-- Node20&#45;&gt;Node3 -->
<g id="edge27" class="edge"><title>Node20&#45;&gt;Node3</title>
<path fill="none" stroke="midnightblue" d="M268.652,-345.165C229.76,-343.458 167.652,-334.897 129,-300 106.143,-279.363 105,-265.795 105,-235 105,-235 105,-235 105,-177 105,-146.205 104.991,-131.285 129,-112 173.847,-75.9771 349.074,-68.7752 423.388,-67.3473"/>
<polygon fill="midnightblue" stroke="midnightblue" points="423.653,-70.8434 433.593,-67.1758 423.535,-63.8444 423.653,-70.8434"/>
</g>
<!-- Node20&#45;&gt;Node9 -->
<g id="edge28" class="edge"><title>Node20&#45;&gt;Node9</title>
<path fill="none" stroke="midnightblue" d="M310.362,-336.138C319.844,-323.189 338.552,-298.617 357,-280 413.743,-222.737 489.707,-164.459 525.591,-137.872"/>
<polygon fill="midnightblue" stroke="midnightblue" points="527.838,-140.563 533.814,-131.815 523.687,-134.927 527.838,-140.563"/>
</g>
<!-- Node20&#45;&gt;Node13 -->
<g id="edge30" class="edge"><title>Node20&#45;&gt;Node13</title>
<path fill="none" stroke="midnightblue" d="M297.262,-336.47C290.615,-327.726 280.528,-313.531 274,-300 251.281,-252.908 246.098,-239.655 238,-188 236.623,-179.218 234.598,-176.212 238,-168 242.92,-156.121 252.667,-145.743 261.834,-137.956"/>
<polygon fill="midnightblue" stroke="midnightblue" points="264.253,-140.506 269.936,-131.564 259.917,-135.01 264.253,-140.506"/>
</g>
<!-- Node20&#45;&gt;Node14 -->
<g id="edge32" class="edge"><title>Node20&#45;&gt;Node14</title>
<path fill="none" stroke="midnightblue" d="M268.668,-337.474C221.275,-325.066 143,-295.427 143,-235 143,-235 143,-235 143,-177 143,-122.115 196.014,-129.6 248,-112 320.491,-87.4579 541.928,-74.3563 646.799,-69.3848"/>
<polygon fill="midnightblue" stroke="midnightblue" points="647.051,-72.8769 656.877,-68.9151 646.725,-65.8845 647.051,-72.8769"/>
</g>
<!-- Node20&#45;&gt;Node16 -->
<g id="edge43" class="edge"><title>Node20&#45;&gt;Node16</title>
<path fill="none" stroke="midnightblue" d="M317.325,-336.415C352.508,-314.157 451.423,-254.227 542,-224 629.748,-194.717 659.303,-217.436 747,-188 765.467,-181.801 768.462,-176.477 786,-168 809.412,-156.684 836.288,-144.519 856.124,-135.694"/>
<polygon fill="midnightblue" stroke="midnightblue" points="857.801,-138.779 865.525,-131.527 854.964,-132.379 857.801,-138.779"/>
</g>
<!-- Node21 -->
<g id="node21" class="node"><title>Node21</title>
<polygon fill="white" stroke="#bfbfbf" points="697.5,-280.5 697.5,-299.5 746.5,-299.5 746.5,-280.5 697.5,-280.5"/>
<text text-anchor="middle" x="722" y="-287.5" font-family="Helvetica,sans-Serif" font-size="10.00">ptrlist.h</text>
</g>
<!-- Node20&#45;&gt;Node21 -->
<g id="edge29" class="edge"><title>Node20&#45;&gt;Node21</title>
<path fill="none" stroke="midnightblue" d="M339.278,-340.443C418.231,-330.243 608.391,-305.677 687.042,-295.516"/>
<polygon fill="midnightblue" stroke="midnightblue" points="687.908,-298.933 697.377,-294.181 687.011,-291.991 687.908,-298.933"/>
</g>
<!-- Node22 -->
<g id="node22" class="node"><title>Node22</title>
<g id="a_node22"><a xlink:href="_i_plug_structs_8h_source.html" target="_top" xlink:title="IPlugStructs.h">
<polygon fill="white" stroke="black" points="523.5,-280.5 523.5,-299.5 602.5,-299.5 602.5,-280.5 523.5,-280.5"/>
<text text-anchor="middle" x="563" y="-287.5" font-family="Helvetica,sans-Serif" font-size="10.00">IPlugStructs.h</text>
</a>
</g>
</g>
<!-- Node20&#45;&gt;Node22 -->
<g id="edge33" class="edge"><title>Node20&#45;&gt;Node22</title>
<path fill="none" stroke="midnightblue" d="M339.199,-337.661C384.194,-328.28 462.36,-311.983 513.381,-301.345"/>
<polygon fill="midnightblue" stroke="midnightblue" points="514.13,-304.764 523.206,-299.297 512.702,-297.912 514.13,-304.764"/>
</g>
<!-- Node25 -->
<g id="node25" class="node"><title>Node25</title>
<g id="a_node25"><a xlink:href="_i_plug_parameter_8h_source.html" target="_top" xlink:title="IPlugParameter.h">
<polygon fill="white" stroke="black" points="247,-168.5 247,-187.5 339,-187.5 339,-168.5 247,-168.5"/>
<text text-anchor="middle" x="293" y="-175.5" font-family="Helvetica,sans-Serif" font-size="10.00">IPlugParameter.h</text>
</a>
</g>
</g>
<!-- Node20&#45;&gt;Node25 -->
<g id="edge44" class="edge"><title>Node20&#45;&gt;Node25</title>
<path fill="none" stroke="midnightblue" d="M297.895,-336.191C292.245,-327.46 284.245,-313.478 281,-300 273.094,-267.16 276.611,-257.491 281,-224 282.156,-215.181 284.534,-205.633 286.87,-197.61"/>
<polygon fill="midnightblue" stroke="midnightblue" points="290.285,-198.415 289.912,-187.827 283.601,-196.337 290.285,-198.415"/>
</g>
<!-- Node22&#45;&gt;Node2 -->
<g id="edge37" class="edge"><title>Node22&#45;&gt;Node2</title>
<path fill="none" stroke="midnightblue" d="M591.522,-280.444C622.066,-271.28 670.708,-256.688 704.603,-246.519"/>
<polygon fill="midnightblue" stroke="midnightblue" points="706.039,-249.742 714.612,-243.516 704.028,-243.038 706.039,-249.742"/>
</g>
<!-- Node22&#45;&gt;Node12 -->
<g id="edge35" class="edge"><title>Node22&#45;&gt;Node12</title>
<path fill="none" stroke="midnightblue" d="M554.075,-280.075C527.267,-253.267 447.19,-173.19 412.885,-138.885"/>
<polygon fill="midnightblue" stroke="midnightblue" points="415.114,-136.164 405.568,-131.568 410.164,-141.114 415.114,-136.164"/>
</g>
<!-- Node22&#45;&gt;Node14 -->
<g id="edge36" class="edge"><title>Node22&#45;&gt;Node14</title>
<path fill="none" stroke="midnightblue" d="M578.715,-280.345C597.487,-268.763 625.161,-247.001 615,-224 587.914,-162.688 472.454,-164.6 514,-112 530.332,-91.323 597.125,-79.1234 646.703,-72.7551"/>
<polygon fill="midnightblue" stroke="midnightblue" points="647.188,-76.2219 656.683,-71.5211 646.329,-69.2748 647.188,-76.2219"/>
</g>
<!-- Node23 -->
<g id="node23" class="node"><title>Node23</title>
<polygon fill="white" stroke="#bfbfbf" points="551,-224.5 551,-243.5 607,-243.5 607,-224.5 551,-224.5"/>
<text text-anchor="middle" x="579" y="-231.5" font-family="Helvetica,sans-Serif" font-size="10.00">algorithm</text>
</g>
<!-- Node22&#45;&gt;Node23 -->
<g id="edge34" class="edge"><title>Node22&#45;&gt;Node23</title>
<path fill="none" stroke="midnightblue" d="M565.642,-280.083C567.786,-272.849 570.879,-262.409 573.549,-253.397"/>
<polygon fill="midnightblue" stroke="midnightblue" points="576.922,-254.333 576.407,-243.751 570.21,-252.345 576.922,-254.333"/>
</g>
<!-- Node24 -->
<g id="node24" class="node"><title>Node24</title>
<g id="a_node24"><a xlink:href="_i_plug_midi_8h_source.html" target="_top" xlink:title="IPlugMidi.h">
<polygon fill="white" stroke="black" points="795.5,-168.5 795.5,-187.5 860.5,-187.5 860.5,-168.5 795.5,-168.5"/>
<text text-anchor="middle" x="828" y="-175.5" font-family="Helvetica,sans-Serif" font-size="10.00">IPlugMidi.h</text>
</a>
</g>
</g>
<!-- Node22&#45;&gt;Node24 -->
<g id="edge38" class="edge"><title>Node22&#45;&gt;Node24</title>
<path fill="none" stroke="midnightblue" d="M579.447,-280.331C608.957,-264.842 669.877,-233.175 692,-224 723.815,-210.805 761.01,-198.717 788.452,-190.399"/>
<polygon fill="midnightblue" stroke="midnightblue" points="789.519,-193.734 798.093,-187.511 787.509,-187.028 789.519,-193.734"/>
</g>
<!-- Node24&#45;&gt;Node9 -->
<g id="edge40" class="edge"><title>Node24&#45;&gt;Node9</title>
<path fill="none" stroke="midnightblue" d="M795.376,-170.753C741.279,-160.394 633.588,-139.772 579.148,-129.347"/>
<polygon fill="midnightblue" stroke="midnightblue" points="579.481,-125.848 569.002,-127.405 578.165,-132.723 579.481,-125.848"/>
</g>
<!-- Node24&#45;&gt;Node11 -->
<g id="edge39" class="edge"><title>Node24&#45;&gt;Node11</title>
<path fill="none" stroke="midnightblue" d="M850.183,-168.444C873.428,-159.478 910.149,-145.314 936.415,-135.183"/>
<polygon fill="midnightblue" stroke="midnightblue" points="937.85,-138.381 945.92,-131.516 935.331,-131.85 937.85,-138.381"/>
</g>
<!-- Node24&#45;&gt;Node14 -->
<g id="edge41" class="edge"><title>Node24&#45;&gt;Node14</title>
<path fill="none" stroke="midnightblue" d="M818.191,-168.368C797.107,-149.814 747.219,-105.913 720.543,-82.4376"/>
<polygon fill="midnightblue" stroke="midnightblue" points="722.582,-79.5702 712.763,-75.5914 717.958,-84.8252 722.582,-79.5702"/>
</g>
<!-- Node24&#45;&gt;Node16 -->
<g id="edge42" class="edge"><title>Node24&#45;&gt;Node16</title>
<path fill="none" stroke="midnightblue" d="M837.158,-168.324C845.501,-160.42 858.032,-148.548 868.177,-138.938"/>
<polygon fill="midnightblue" stroke="midnightblue" points="870.823,-141.252 875.675,-131.834 866.009,-136.171 870.823,-141.252"/>
</g>
<!-- Node25&#45;&gt;Node3 -->
<g id="edge45" class="edge"><title>Node25&#45;&gt;Node3</title>
<path fill="none" stroke="midnightblue" d="M279.353,-168.297C261.031,-155.547 232.478,-131.22 248,-112 269.708,-85.1207 370.378,-73.5373 423.68,-69.2181"/>
<polygon fill="midnightblue" stroke="midnightblue" points="424.279,-72.6825 433.981,-68.4262 423.742,-65.7031 424.279,-72.6825"/>
</g>
<!-- Node25&#45;&gt;Node12 -->
<g id="edge46" class="edge"><title>Node25&#45;&gt;Node12</title>
<path fill="none" stroke="midnightblue" d="M309.709,-168.324C326.312,-159.703 352.002,-146.364 371.22,-136.386"/>
<polygon fill="midnightblue" stroke="midnightblue" points="373.07,-139.369 380.332,-131.655 369.844,-133.156 373.07,-139.369"/>
</g>
<!-- Node25&#45;&gt;Node16 -->
<g id="edge47" class="edge"><title>Node25&#45;&gt;Node16</title>
<path fill="none" stroke="midnightblue" d="M339.453,-172.763C448.751,-162.793 721.464,-137.917 834.591,-127.598"/>
<polygon fill="midnightblue" stroke="midnightblue" points="835.069,-131.069 844.71,-126.675 834.433,-124.098 835.069,-131.069"/>
</g>
<!-- Node26 -->
<g id="node26" class="node"><title>Node26</title>
<g id="a_node26"><a xlink:href="_i_plug_easing_8h.html" target="_top" xlink:title="Easing functions, based on Warren Moore&#39;s AHEasing library https://github.com/warrenm/AHEasing See he...">
<polygon fill="white" stroke="black" points="-0.5,-112.5 -0.5,-131.5 76.5,-131.5 76.5,-112.5 -0.5,-112.5"/>
<text text-anchor="middle" x="38" y="-119.5" font-family="Helvetica,sans-Serif" font-size="10.00">IPlugEasing.h</text>
</a>
</g>
</g>
<!-- Node25&#45;&gt;Node26 -->
<g id="edge48" class="edge"><title>Node25&#45;&gt;Node26</title>
<path fill="none" stroke="midnightblue" d="M252.594,-168.444C207.493,-158.893 134.539,-143.444 86.4195,-133.254"/>
<polygon fill="midnightblue" stroke="midnightblue" points="87.0554,-129.811 76.5473,-131.163 85.6052,-136.659 87.0554,-129.811"/>
</g>
<!-- Node27 -->
<g id="node27" class="node"><title>Node27</title>
<polygon fill="white" stroke="#bfbfbf" points="14.5,-56.5 14.5,-75.5 61.5,-75.5 61.5,-56.5 14.5,-56.5"/>
<text text-anchor="middle" x="38" y="-63.5" font-family="Helvetica,sans-Serif" font-size="10.00">math.h</text>
</g>
<!-- Node26&#45;&gt;Node27 -->
<g id="edge49" class="edge"><title>Node26&#45;&gt;Node27</title>
<path fill="none" stroke="midnightblue" d="M38,-112.083C38,-105.006 38,-94.8611 38,-85.9865"/>
<polygon fill="midnightblue" stroke="midnightblue" points="41.5001,-85.751 38,-75.7511 34.5001,-85.7511 41.5001,-85.751"/>
</g>
<!-- Node29&#45;&gt;Node2 -->
<g id="edge55" class="edge"><title>Node29&#45;&gt;Node2</title>
<path fill="none" stroke="midnightblue" d="M918.736,-339.915C883.689,-334.371 835.507,-322.999 799,-300 779.771,-287.886 763.571,-267.122 753.619,-252.323"/>
<polygon fill="midnightblue" stroke="midnightblue" points="756.368,-250.126 748.013,-243.61 750.481,-253.913 756.368,-250.126"/>
</g>
<!-- Node29&#45;&gt;Node3 -->
<g id="edge52" class="edge"><title>Node29&#45;&gt;Node3</title>
<path fill="none" stroke="midnightblue" d="M985.826,-336.473C1018.97,-321.358 1080,-286.527 1080,-235 1080,-235 1080,-235 1080,-177 1080,-146.775 1083.63,-130.85 1060,-112 1037.57,-94.1064 613.57,-73.9515 490.328,-68.4514"/>
<polygon fill="midnightblue" stroke="midnightblue" points="490.156,-64.9404 480.01,-67.9939 489.845,-71.9336 490.156,-64.9404"/>
</g>
<!-- Node29&#45;&gt;Node9 -->
<g id="edge53" class="edge"><title>Node29&#45;&gt;Node9</title>
<path fill="none" stroke="midnightblue" d="M955.335,-336.234C930.383,-314.064 860.984,-255.304 793,-224 734.252,-196.949 711.571,-213.188 652,-188 619.958,-174.452 586.252,-152.203 565.675,-137.577"/>
<polygon fill="midnightblue" stroke="midnightblue" points="567.606,-134.654 557.45,-131.637 563.508,-140.329 567.606,-134.654"/>
</g>
<!-- Node29&#45;&gt;Node14 -->
<g id="edge56" class="edge"><title>Node29&#45;&gt;Node14</title>
<path fill="none" stroke="midnightblue" d="M1011.07,-338.93C1038.32,-333.131 1071.75,-321.855 1094,-300 1115.97,-278.422 1118,-265.795 1118,-235 1118,-235 1118,-235 1118,-177 1118,-146.205 1118.24,-130.992 1094,-112 1037.67,-67.8682 845.053,-84.4997 774,-76 769.239,-75.4304 764.299,-74.828 759.344,-74.2157"/>
<polygon fill="midnightblue" stroke="midnightblue" points="759.557,-70.7153 749.201,-72.952 758.692,-77.6616 759.557,-70.7153"/>
</g>
<!-- Node29&#45;&gt;Node16 -->
<g id="edge58" class="edge"><title>Node29&#45;&gt;Node16</title>
<path fill="none" stroke="midnightblue" d="M965.983,-336.184C968.576,-309.06 973.342,-225.237 941,-168 933.786,-155.233 921.387,-144.702 910.087,-137.045"/>
<polygon fill="midnightblue" stroke="midnightblue" points="911.701,-133.925 901.38,-131.533 907.957,-139.839 911.701,-133.925"/>
</g>
<!-- Node29&#45;&gt;Node21 -->
<g id="edge54" class="edge"><title>Node29&#45;&gt;Node21</title>
<path fill="none" stroke="midnightblue" d="M925.867,-336.486C884.781,-327.519 818.313,-312.934 761,-300 759.56,-299.675 758.09,-299.342 756.605,-299.004"/>
<polygon fill="midnightblue" stroke="midnightblue" points="757.278,-295.568 746.749,-296.749 755.717,-302.392 757.278,-295.568"/>
</g>
<!-- Node29&#45;&gt;Node22 -->
<g id="edge57" class="edge"><title>Node29&#45;&gt;Node22</title>
<path fill="none" stroke="midnightblue" d="M918.885,-338.806C842.699,-328.572 691.185,-308.219 612.704,-297.677"/>
<polygon fill="midnightblue" stroke="midnightblue" points="612.965,-294.18 602.588,-296.318 612.033,-301.118 612.965,-294.18"/>
</g>
<!-- Node30 -->
<g id="node30" class="node"><title>Node30</title>
<g id="a_node30"><a xlink:href="_n_chan_delay_8h_source.html" target="_top" xlink:title="NChanDelay.h">
<polygon fill="white" stroke="black" points="1146.5,-280.5 1146.5,-299.5 1227.5,-299.5 1227.5,-280.5 1146.5,-280.5"/>
<text text-anchor="middle" x="1187" y="-287.5" font-family="Helvetica,sans-Serif" font-size="10.00">NChanDelay.h</text>
</a>
</g>
</g>
<!-- Node29&#45;&gt;Node30 -->
<g id="edge59" class="edge"><title>Node29&#45;&gt;Node30</title>
<path fill="none" stroke="midnightblue" d="M1000.18,-336.444C1038.58,-327.102 1100.18,-312.119 1142.06,-301.933"/>
<polygon fill="midnightblue" stroke="midnightblue" points="1143.1,-305.281 1151.99,-299.516 1141.44,-298.479 1143.1,-305.281"/>
</g>
<!-- Node31 -->
<g id="node31" class="node"><title>Node31</title>
<g id="a_node31"><a xlink:href="_i_plug_processor_8cpp_source.html" target="_top" xlink:title="IPlugProcessor.cpp">
<polygon fill="white" stroke="black" points="1214,-168.5 1214,-187.5 1316,-187.5 1316,-168.5 1214,-168.5"/>
<text text-anchor="middle" x="1265" y="-175.5" font-family="Helvetica,sans-Serif" font-size="10.00">IPlugProcessor.cpp</text>
</a>
</g>
</g>
<!-- Node29&#45;&gt;Node31 -->
<g id="edge60" class="edge"><title>Node29&#45;&gt;Node31</title>
<path fill="none" stroke="midnightblue" d="M1011.08,-343.04C1077.72,-339.329 1196.03,-328.854 1227,-300 1255.49,-273.457 1258.24,-224.305 1260.51,-197.541"/>
<polygon fill="midnightblue" stroke="midnightblue" points="1263.99,-197.877 1261.53,-187.573 1257.03,-197.165 1263.99,-197.877"/>
</g>
<!-- Node31&#45;&gt;Node6 -->
<g id="edge62" class="edge"><title>Node31&#45;&gt;Node6</title>
<path fill="none" stroke="midnightblue" d="M1250.79,-168.424C1227.05,-154.472 1177.41,-126.919 1132,-112 1056.93,-87.3383 964.313,-75.0384 916.65,-69.9596"/>
<polygon fill="midnightblue" stroke="midnightblue" points="916.94,-66.471 906.634,-68.929 916.224,-73.4343 916.94,-66.471"/>
</g>
<!-- Node31&#45;&gt;Node10 -->
<g id="edge63" class="edge"><title>Node31&#45;&gt;Node10</title>
<path fill="none" stroke="midnightblue" d="M1227.92,-168.444C1181.85,-157.811 1104.1,-139.869 1061.38,-130.011"/>
<polygon fill="midnightblue" stroke="midnightblue" points="1062.09,-126.584 1051.56,-127.745 1060.52,-133.404 1062.09,-126.584"/>
</g>
<!-- Node31&#45;&gt;Node11 -->
<g id="edge64" class="edge"><title>Node31&#45;&gt;Node11</title>
<path fill="none" stroke="midnightblue" d="M1213.61,-169.756C1162.39,-162.197 1081.31,-149.318 1002.85,-132.255"/>
<polygon fill="midnightblue" stroke="midnightblue" points="1003.32,-128.774 992.802,-130.042 1001.82,-135.61 1003.32,-128.774"/>
</g>
<!-- Node31&#45;&gt;Node17 -->
<g id="edge61" class="edge"><title>Node31&#45;&gt;Node17</title>
<path fill="none" stroke="midnightblue" d="M1258.02,-168.368C1243.26,-150.135 1208.71,-107.426 1189.49,-83.6752"/>
<polygon fill="midnightblue" stroke="midnightblue" points="1191.96,-81.164 1182.95,-75.5914 1186.52,-85.567 1191.96,-81.164"/>
</g>
<!-- Node31&#45;&gt;Node29 -->
<g id="edge67" class="edge"><title>Node31&#45;&gt;Node29</title>
<path fill="none" stroke="midnightblue" d="M1270.15,-187.573C1276.5,-209.8 1277.56,-269.665 1245,-300 1213.82,-329.051 1094.11,-339.471 1021.6,-343.115"/>
<polygon fill="midnightblue" stroke="midnightblue" points="1021.09,-339.636 1011.26,-343.605 1021.42,-346.628 1021.09,-339.636"/>
</g>
<!-- Node32 -->
<g id="node32" class="node"><title>Node32</title>
<polygon fill="white" stroke="#bfbfbf" points="1260,-112.5 1260,-131.5 1328,-131.5 1328,-112.5 1260,-112.5"/>
<text text-anchor="middle" x="1294" y="-119.5" font-family="Helvetica,sans-Serif" font-size="10.00">wdlendian.h</text>
</g>
<!-- Node31&#45;&gt;Node32 -->
<g id="edge65" class="edge"><title>Node31&#45;&gt;Node32</title>
<path fill="none" stroke="midnightblue" d="M1269.79,-168.083C1273.76,-160.691 1279.53,-149.953 1284.43,-140.811"/>
<polygon fill="midnightblue" stroke="midnightblue" points="1287.65,-142.217 1289.3,-131.751 1281.49,-138.905 1287.65,-142.217"/>
</g>
<!-- Node33 -->
<g id="node33" class="node"><title>Node33</title>
<polygon fill="white" stroke="#bfbfbf" points="1346.5,-112.5 1346.5,-131.5 1423.5,-131.5 1423.5,-112.5 1346.5,-112.5"/>
<text text-anchor="middle" x="1385" y="-119.5" font-family="Helvetica,sans-Serif" font-size="10.00">wdl_base64.h</text>
</g>
<!-- Node31&#45;&gt;Node33 -->
<g id="edge66" class="edge"><title>Node31&#45;&gt;Node33</title>
<path fill="none" stroke="midnightblue" d="M1284.01,-168.444C1303.59,-159.636 1334.31,-145.812 1356.73,-135.722"/>
<polygon fill="midnightblue" stroke="midnightblue" points="1358.39,-138.812 1366.07,-131.516 1355.52,-132.428 1358.39,-138.812"/>
</g>
<!-- Node34&#45;&gt;Node2 -->
<g id="edge73" class="edge"><title>Node34&#45;&gt;Node2</title>
<path fill="none" stroke="midnightblue" d="M573.187,-336.374C591.86,-327.78 620.868,-313.896 645,-300 672.798,-283.994 703.389,-263.151 722.874,-249.437"/>
<polygon fill="midnightblue" stroke="midnightblue" points="725.106,-252.145 731.24,-243.506 721.058,-246.434 725.106,-252.145"/>
</g>
<!-- Node34&#45;&gt;Node3 -->
<g id="edge69" class="edge"><title>Node34&#45;&gt;Node3</title>
<path fill="none" stroke="midnightblue" d="M513.411,-337.576C466.417,-328.575 392.234,-312.995 367,-300 299.498,-265.238 269.508,-257.081 238,-188 231.186,-173.06 223.893,-131.084 240,-112 263.265,-84.4353 368.858,-73.1087 423.701,-69.0208"/>
<polygon fill="midnightblue" stroke="midnightblue" points="424.225,-72.4926 433.954,-68.297 423.732,-65.51 424.225,-72.4926"/>
</g>
<!-- Node34&#45;&gt;Node9 -->
<g id="edge70" class="edge"><title>Node34&#45;&gt;Node9</title>
<path fill="none" stroke="midnightblue" d="M542.734,-336.427C533.034,-328.275 519.721,-315.046 514,-300 504.879,-276.009 517.287,-265.306 533,-188 536.156,-172.474 539.677,-154.849 542.258,-141.872"/>
<polygon fill="midnightblue" stroke="midnightblue" points="545.736,-142.325 544.251,-131.835 538.87,-140.962 545.736,-142.325"/>
</g>
<!-- Node34&#45;&gt;Node13 -->
<g id="edge72" class="edge"><title>Node34&#45;&gt;Node13</title>
<path fill="none" stroke="midnightblue" d="M513.284,-336.562C488.194,-329.829 456.451,-318.401 433,-300 409.337,-281.432 411.358,-269.241 395,-244 373.401,-210.672 375.348,-196.799 348,-168 336.364,-155.746 320.886,-144.871 307.953,-136.882"/>
<polygon fill="midnightblue" stroke="midnightblue" points="309.46,-133.706 299.077,-131.597 305.879,-139.72 309.46,-133.706"/>
</g>
<!-- Node34&#45;&gt;Node14 -->
<g id="edge74" class="edge"><title>Node34&#45;&gt;Node14</title>
<path fill="none" stroke="midnightblue" d="M544.435,-336.238C534.793,-327.314 519.578,-312.981 507,-300 437.138,-227.901 391.937,-225.742 356,-132 352.818,-123.7 350.133,-118.677 356,-112 374.866,-90.53 553.522,-76.3076 646.837,-70.2798"/>
<polygon fill="midnightblue" stroke="midnightblue" points="647.201,-73.7638 656.959,-69.6365 646.757,-66.7779 647.201,-73.7638"/>
</g>
<!-- Node34&#45;&gt;Node16 -->
<g id="edge76" class="edge"><title>Node34&#45;&gt;Node16</title>
<path fill="none" stroke="midnightblue" d="M594.774,-341.575C636.767,-336.77 703.206,-325.547 755,-300 824.612,-265.665 856.129,-258.315 889,-188 895.733,-173.597 893.862,-155.404 890.808,-141.931"/>
<polygon fill="midnightblue" stroke="midnightblue" points="894.093,-140.666 888.127,-131.91 887.33,-142.475 894.093,-140.666"/>
</g>
<!-- Node34&#45;&gt;Node21 -->
<g id="edge71" class="edge"><title>Node34&#45;&gt;Node21</title>
<path fill="none" stroke="midnightblue" d="M580.62,-336.444C609.59,-327.132 656.002,-312.214 687.688,-302.029"/>
<polygon fill="midnightblue" stroke="midnightblue" points="688.968,-305.294 697.417,-298.902 686.826,-298.63 688.968,-305.294"/>
</g>
<!-- Node34&#45;&gt;Node22 -->
<g id="edge75" class="edge"><title>Node34&#45;&gt;Node22</title>
<path fill="none" stroke="midnightblue" d="M555.486,-336.083C556.679,-328.927 558.394,-318.635 559.885,-309.691"/>
<polygon fill="midnightblue" stroke="midnightblue" points="563.35,-310.19 561.541,-299.751 556.445,-309.04 563.35,-310.19"/>
</g>
<!-- Node34&#45;&gt;Node25 -->
<g id="edge77" class="edge"><title>Node34&#45;&gt;Node25</title>
<path fill="none" stroke="midnightblue" d="M513.391,-340.245C479.531,-334.773 431.157,-323.334 395,-300 352.832,-272.787 318.909,-222.804 302.934,-196.4"/>
<polygon fill="midnightblue" stroke="midnightblue" points="305.802,-194.372 297.711,-187.532 299.77,-197.925 305.802,-194.372"/>
</g>
</g>
</svg>
        <g id="navigator" transform="translate(0 0)" fill="#404254">
                <rect fill="#f2f5e9" fill-opacity="0.5" stroke="#606060" stroke-width=".5" x="0" y="0" width="60" height="60"/>
                <use id="zoomplus" xlink:href="#zoomPlus" x="17" y="9" onmousedown="handleZoom(evt,'in')"/>
                <use id="zoomminus" xlink:href="#zoomMin" x="42" y="9" onmousedown="handleZoom(evt,'out')"/>
                <use id="reset" xlink:href="#resetDef" x="30" y="36" onmousedown="handleReset()"/>
                <g id="arrowUp" xlink:href="#dirArrow" transform="translate(30 24)" onmousedown="handlePan(0,-1)">
                  <use xlink:href="#rim" fill="#404040">
                        <set attributeName="fill" to="#808080" begin="arrowUp.mouseover" end="arrowUp.mouseout"/>
                  </use>
                  <path fill="none" stroke="white" stroke-width="1.5" d="M0,-3.0v7 M-2.5,-0.5L0,-3.0L2.5,-0.5"/>
                </g>
                <g id="arrowRight" xlink:href="#dirArrow" transform="rotate(90) translate(36 -43)" onmousedown="handlePan(1,0)">
                  <use xlink:href="#rim" fill="#404040">
                        <set attributeName="fill" to="#808080" begin="arrowRight.mouseover" end="arrowRight.mouseout"/>
                  </use>
                  <path fill="none" stroke="white" stroke-width="1.5" d="M0,-3.0v7 M-2.5,-0.5L0,-3.0L2.5,-0.5"/>
                </g>
                <g id="arrowDown" xlink:href="#dirArrow" transform="rotate(180) translate(-30 -48)" onmousedown="handlePan(0,1)">
                  <use xlink:href="#rim" fill="#404040">
                        <set attributeName="fill" to="#808080" begin="arrowDown.mouseover" end="arrowDown.mouseout"/>
                  </use>
                  <path fill="none" stroke="white" stroke-width="1.5" d="M0,-3.0v7 M-2.5,-0.5L0,-3.0L2.5,-0.5"/>
                </g>
                <g id="arrowLeft" xlink:href="#dirArrow" transform="rotate(270) translate(-36 17)" onmousedown="handlePan(-1,0)">
                  <use xlink:href="#rim" fill="#404040">
                        <set attributeName="fill" to="#808080" begin="arrowLeft.mouseover" end="arrowLeft.mouseout"/>
                  </use>
                  <path fill="none" stroke="white" stroke-width="1.5" d="M0,-3.0v7 M-2.5,-0.5L0,-3.0L2.5,-0.5"/>
                </g>
        </g>
        <svg viewBox="0 0 15 15" width="100%" height="30px" preserveAspectRatio="xMaxYMin meet">
         <g id="arrow_out" transform="scale(0.3 0.3)">
          <a xlink:href="_i_plug_a_a_x_8h__incl_org.svg" target="_base">
           <rect id="button" ry="5" rx="5" y="6" x="6" height="38" width="38"
                fill="#f2f5e9" fill-opacity="0.5" stroke="#606060" stroke-width="1.0"/>
           <path id="arrow"
             d="M 11.500037,31.436501 C 11.940474,20.09759 22.043105,11.32322 32.158766,21.979434 L 37.068811,17.246167 C 37.068811,17.246167 37.088388,32 37.088388,32 L 22.160133,31.978069 C 22.160133,31.978069 26.997745,27.140456 26.997745,27.140456 C 18.528582,18.264221 13.291696,25.230495 11.500037,31.436501 z"
             style="fill:#404040;"/>
          </a>
         </g>
        </svg>
</svg>
