<?xml version="1.0" encoding="UTF-8" standalone="no"?>
<!DOCTYPE svg PUBLIC "-//W3C//DTD SVG 1.1//EN"
 "http://www.w3.org/Graphics/SVG/1.1/DTD/svg11.dtd">
<!-- Generated by graphviz version 2.36.0 (20140111.2315)
 -->
<!-- Title: IPlugUtilities.h Pages: 1 -->
<svg width="700pt" height="252pt"
 viewBox="0.00 0.00 700.00 252.00" xmlns="http://www.w3.org/2000/svg" xmlns:xlink="http://www.w3.org/1999/xlink">
<g id="graph0" class="graph" transform="scale(1 1) rotate(0) translate(4 248)">
<title>IPlugUtilities.h</title>
<polygon fill="white" stroke="none" points="-4,4 -4,-248 696,-248 696,4 -4,4"/>
<!-- Node1 -->
<g id="node1" class="node"><title>Node1</title>
<polygon fill="#bfbfbf" stroke="black" points="209,-224.5 209,-243.5 289,-243.5 289,-224.5 209,-224.5"/>
<text text-anchor="middle" x="249" y="-231.5" font-family="Helvetica,sans-Serif" font-size="10.00">IPlugUtilities.h</text>
</g>
<!-- Node2 -->
<g id="node2" class="node"><title>Node2</title>
<polygon fill="white" stroke="#bfbfbf" points="63,-168.5 63,-187.5 107,-187.5 107,-168.5 63,-168.5"/>
<text text-anchor="middle" x="85" y="-175.5" font-family="Helvetica,sans-Serif" font-size="10.00">cmath</text>
</g>
<!-- Node1&#45;&gt;Node2 -->
<g id="edge1" class="edge"><title>Node1&#45;&gt;Node2</title>
<path fill="none" stroke="midnightblue" d="M223.014,-224.444C194.288,-214.985 147.995,-199.742 117.044,-189.551"/>
<polygon fill="midnightblue" stroke="midnightblue" points="117.776,-186.107 107.183,-186.304 115.587,-192.756 117.776,-186.107"/>
</g>
<!-- Node3 -->
<g id="node3" class="node"><title>Node3</title>
<polygon fill="white" stroke="#bfbfbf" points="-0.5,-56.5 -0.5,-75.5 42.5,-75.5 42.5,-56.5 -0.5,-56.5"/>
<text text-anchor="middle" x="21" y="-63.5" font-family="Helvetica,sans-Serif" font-size="10.00">cstdio</text>
</g>
<!-- Node1&#45;&gt;Node3 -->
<g id="edge2" class="edge"><title>Node1&#45;&gt;Node3</title>
<path fill="none" stroke="midnightblue" d="M237.063,-224.309C200.126,-197.416 87.4109,-115.352 41.1443,-81.6665"/>
<polygon fill="midnightblue" stroke="midnightblue" points="42.9635,-78.6616 32.8191,-75.6051 38.8433,-84.3206 42.9635,-78.6616"/>
</g>
<!-- Node4 -->
<g id="node4" class="node"><title>Node4</title>
<polygon fill="white" stroke="#bfbfbf" points="334.5,-112.5 334.5,-131.5 379.5,-131.5 379.5,-112.5 334.5,-112.5"/>
<text text-anchor="middle" x="357" y="-119.5" font-family="Helvetica,sans-Serif" font-size="10.00">cstdlib</text>
</g>
<!-- Node1&#45;&gt;Node4 -->
<g id="edge3" class="edge"><title>Node1&#45;&gt;Node4</title>
<path fill="none" stroke="midnightblue" d="M276.533,-224.404C295.08,-217.328 318.836,-205.571 334,-188 345.355,-174.843 351.228,-155.702 354.185,-141.598"/>
<polygon fill="midnightblue" stroke="midnightblue" points="357.662,-142.036 355.98,-131.576 350.772,-140.802 357.662,-142.036"/>
</g>
<!-- Node5 -->
<g id="node5" class="node"><title>Node5</title>
<polygon fill="white" stroke="#bfbfbf" points="61,-56.5 61,-75.5 107,-75.5 107,-56.5 61,-56.5"/>
<text text-anchor="middle" x="84" y="-63.5" font-family="Helvetica,sans-Serif" font-size="10.00">cstring</text>
</g>
<!-- Node1&#45;&gt;Node5 -->
<g id="edge4" class="edge"><title>Node1&#45;&gt;Node5</title>
<path fill="none" stroke="midnightblue" d="M243.156,-224.4C228.752,-203.579 189.748,-149.419 149,-112 136.31,-100.346 120.436,-89.3014 107.552,-81.0702"/>
<polygon fill="midnightblue" stroke="midnightblue" points="109.124,-77.9263 98.7869,-75.6055 105.421,-83.8663 109.124,-77.9263"/>
</g>
<!-- Node6 -->
<g id="node6" class="node"><title>Node6</title>
<polygon fill="white" stroke="#bfbfbf" points="536,-56.5 536,-75.5 582,-75.5 582,-56.5 536,-56.5"/>
<text text-anchor="middle" x="559" y="-63.5" font-family="Helvetica,sans-Serif" font-size="10.00">cctype</text>
</g>
<!-- Node1&#45;&gt;Node6 -->
<g id="edge5" class="edge"><title>Node1&#45;&gt;Node6</title>
<path fill="none" stroke="midnightblue" d="M270.868,-224.451C292.163,-215.914 325.283,-202.07 353,-188 422.214,-152.866 500.318,-104.438 537.328,-80.9279"/>
<polygon fill="midnightblue" stroke="midnightblue" points="539.272,-83.8391 545.821,-75.5108 535.508,-77.9373 539.272,-83.8391"/>
</g>
<!-- Node7 -->
<g id="node7" class="node"><title>Node7</title>
<g id="a_node7"><a xlink:href="_i_plug_constants_8h.html" target="_top" xlink:title="Constant definitions, Types, magic numbers. ">
<polygon fill="white" stroke="black" points="600,-56.5 600,-75.5 692,-75.5 692,-56.5 600,-56.5"/>
<text text-anchor="middle" x="646" y="-63.5" font-family="Helvetica,sans-Serif" font-size="10.00">IPlugConstants.h</text>
</a>
</g>
</g>
<!-- Node1&#45;&gt;Node7 -->
<g id="edge6" class="edge"><title>Node1&#45;&gt;Node7</title>
<path fill="none" stroke="midnightblue" d="M277.997,-224.462C305.768,-216.038 348.694,-202.368 385,-188 473.014,-153.17 573.756,-103.595 620.144,-80.1953"/>
<polygon fill="midnightblue" stroke="midnightblue" points="621.852,-83.2534 629.194,-75.6142 618.691,-77.0081 621.852,-83.2534"/>
</g>
<!-- Node9 -->
<g id="node9" class="node"><title>Node9</title>
<g id="a_node9"><a xlink:href="_i_plug_platform_8h.html" target="_top" xlink:title="Include to get consistently named preprocessor macros for different platforms and logging functionali...">
<polygon fill="white" stroke="black" points="242,-168.5 242,-187.5 326,-187.5 326,-168.5 242,-168.5"/>
<text text-anchor="middle" x="284" y="-175.5" font-family="Helvetica,sans-Serif" font-size="10.00">IPlugPlatform.h</text>
</a>
</g>
</g>
<!-- Node1&#45;&gt;Node9 -->
<g id="edge8" class="edge"><title>Node1&#45;&gt;Node9</title>
<path fill="none" stroke="midnightblue" d="M254.78,-224.083C259.672,-216.534 266.827,-205.495 272.833,-196.23"/>
<polygon fill="midnightblue" stroke="midnightblue" points="275.826,-198.046 278.328,-187.751 269.952,-194.239 275.826,-198.046"/>
</g>
<!-- Node8 -->
<g id="node8" class="node"><title>Node8</title>
<polygon fill="white" stroke="#bfbfbf" points="616.5,-0.5 616.5,-19.5 675.5,-19.5 675.5,-0.5 616.5,-0.5"/>
<text text-anchor="middle" x="646" y="-7.5" font-family="Helvetica,sans-Serif" font-size="10.00">functional</text>
</g>
<!-- Node7&#45;&gt;Node8 -->
<g id="edge7" class="edge"><title>Node7&#45;&gt;Node8</title>
<path fill="none" stroke="midnightblue" d="M646,-56.083C646,-49.0059 646,-38.8611 646,-29.9865"/>
<polygon fill="midnightblue" stroke="midnightblue" points="649.5,-29.751 646,-19.7511 642.5,-29.7511 649.5,-29.751"/>
</g>
<!-- Node9&#45;&gt;Node4 -->
<g id="edge10" class="edge"><title>Node9&#45;&gt;Node4</title>
<path fill="none" stroke="midnightblue" d="M295.729,-168.324C306.837,-160.107 323.742,-147.602 336.983,-137.807"/>
<polygon fill="midnightblue" stroke="midnightblue" points="339.1,-140.595 345.058,-131.834 334.937,-134.967 339.1,-140.595"/>
</g>
<!-- Node9&#45;&gt;Node5 -->
<g id="edge9" class="edge"><title>Node9&#45;&gt;Node5</title>
<path fill="none" stroke="midnightblue" d="M272.482,-168.289C254.734,-155.1 219.358,-129.725 187,-112 163.952,-99.3744 136.649,-87.5792 115.946,-79.2347"/>
<polygon fill="midnightblue" stroke="midnightblue" points="117.235,-75.9808 106.649,-75.5401 114.65,-82.4859 117.235,-75.9808"/>
</g>
<!-- Node10 -->
<g id="node10" class="node"><title>Node10</title>
<g id="a_node10"><a xlink:href="_i_plug_logger_8h.html" target="_top" xlink:title="IPlug logging a.k.a tracing functionailty. ">
<polygon fill="white" stroke="black" points="239.5,-112.5 239.5,-131.5 316.5,-131.5 316.5,-112.5 239.5,-112.5"/>
<text text-anchor="middle" x="278" y="-119.5" font-family="Helvetica,sans-Serif" font-size="10.00">IPlugLogger.h</text>
</a>
</g>
</g>
<!-- Node9&#45;&gt;Node10 -->
<g id="edge11" class="edge"><title>Node9&#45;&gt;Node10</title>
<path fill="none" stroke="midnightblue" d="M283.009,-168.083C282.214,-160.927 281.071,-150.635 280.077,-141.691"/>
<polygon fill="midnightblue" stroke="midnightblue" points="283.555,-141.303 278.972,-131.751 276.598,-142.076 283.555,-141.303"/>
</g>
<!-- Node10&#45;&gt;Node1 -->
<g id="edge22" class="edge"><title>Node10&#45;&gt;Node1</title>
<path fill="none" stroke="midnightblue" d="M264.936,-131.564C254.086,-139.529 239.427,-152.485 233,-168 226.621,-183.401 232.413,-201.949 238.74,-215.283"/>
<polygon fill="midnightblue" stroke="midnightblue" points="235.741,-217.1 243.49,-224.325 241.938,-213.845 235.741,-217.1"/>
</g>
<!-- Node10&#45;&gt;Node3 -->
<g id="edge12" class="edge"><title>Node10&#45;&gt;Node3</title>
<path fill="none" stroke="midnightblue" d="M239.39,-114.357C196.247,-106.703 124.139,-93.2273 52.6906,-75.99"/>
<polygon fill="midnightblue" stroke="midnightblue" points="53.161,-72.5022 42.6164,-73.533 51.5023,-79.3029 53.161,-72.5022"/>
</g>
<!-- Node10&#45;&gt;Node5 -->
<g id="edge16" class="edge"><title>Node10&#45;&gt;Node5</title>
<path fill="none" stroke="midnightblue" d="M247.26,-112.444C211.614,-102.522 153.101,-86.2343 116.658,-76.0904"/>
<polygon fill="midnightblue" stroke="midnightblue" points="117.574,-72.7124 107.002,-73.4026 115.697,-79.4561 117.574,-72.7124"/>
</g>
<!-- Node10&#45;&gt;Node6 -->
<g id="edge13" class="edge"><title>Node10&#45;&gt;Node6</title>
<path fill="none" stroke="midnightblue" d="M316.507,-113.751C319.718,-113.156 322.914,-112.566 326,-112 412.129,-96.2126 436.828,-96.2834 525.988,-76.0517"/>
<polygon fill="midnightblue" stroke="midnightblue" points="527.031,-79.4033 535.997,-73.7575 525.467,-72.5802 527.031,-79.4033"/>
</g>
<!-- Node10&#45;&gt;Node7 -->
<g id="edge21" class="edge"><title>Node10&#45;&gt;Node7</title>
<path fill="none" stroke="midnightblue" d="M316.743,-113.563C319.872,-113.015 322.987,-112.487 326,-112 440.129,-93.5602 471.739,-93.583 589.648,-76.1645"/>
<polygon fill="midnightblue" stroke="midnightblue" points="590.425,-79.5875 599.801,-74.6533 589.394,-72.6638 590.425,-79.5875"/>
</g>
<!-- Node11 -->
<g id="node11" class="node"><title>Node11</title>
<polygon fill="white" stroke="#bfbfbf" points="125.5,-56.5 125.5,-75.5 174.5,-75.5 174.5,-56.5 125.5,-56.5"/>
<text text-anchor="middle" x="150" y="-63.5" font-family="Helvetica,sans-Serif" font-size="10.00">cstdarg</text>
</g>
<!-- Node10&#45;&gt;Node11 -->
<g id="edge14" class="edge"><title>Node10&#45;&gt;Node11</title>
<path fill="none" stroke="midnightblue" d="M257.718,-112.444C236.653,-103.557 203.483,-89.5632 179.514,-79.4514"/>
<polygon fill="midnightblue" stroke="midnightblue" points="180.761,-76.1787 170.187,-75.5164 178.04,-82.6283 180.761,-76.1787"/>
</g>
<!-- Node12 -->
<g id="node12" class="node"><title>Node12</title>
<polygon fill="white" stroke="#bfbfbf" points="193,-56.5 193,-75.5 239,-75.5 239,-56.5 193,-56.5"/>
<text text-anchor="middle" x="216" y="-63.5" font-family="Helvetica,sans-Serif" font-size="10.00">cstdint</text>
</g>
<!-- Node10&#45;&gt;Node12 -->
<g id="edge15" class="edge"><title>Node10&#45;&gt;Node12</title>
<path fill="none" stroke="midnightblue" d="M268.039,-112.324C258.873,-104.341 245.063,-92.3128 233.972,-82.6529"/>
<polygon fill="midnightblue" stroke="midnightblue" points="235.982,-79.7624 226.143,-75.8339 231.385,-85.041 235.982,-79.7624"/>
</g>
<!-- Node13 -->
<g id="node13" class="node"><title>Node13</title>
<polygon fill="white" stroke="#bfbfbf" points="257.5,-56.5 257.5,-75.5 298.5,-75.5 298.5,-56.5 257.5,-56.5"/>
<text text-anchor="middle" x="278" y="-63.5" font-family="Helvetica,sans-Serif" font-size="10.00">ctime</text>
</g>
<!-- Node10&#45;&gt;Node13 -->
<g id="edge17" class="edge"><title>Node10&#45;&gt;Node13</title>
<path fill="none" stroke="midnightblue" d="M278,-112.083C278,-105.006 278,-94.8611 278,-85.9865"/>
<polygon fill="midnightblue" stroke="midnightblue" points="281.5,-85.751 278,-75.7511 274.5,-85.7511 281.5,-85.751"/>
</g>
<!-- Node14 -->
<g id="node14" class="node"><title>Node14</title>
<polygon fill="white" stroke="#bfbfbf" points="316.5,-56.5 316.5,-75.5 365.5,-75.5 365.5,-56.5 316.5,-56.5"/>
<text text-anchor="middle" x="341" y="-63.5" font-family="Helvetica,sans-Serif" font-size="10.00">cassert</text>
</g>
<!-- Node10&#45;&gt;Node14 -->
<g id="edge18" class="edge"><title>Node10&#45;&gt;Node14</title>
<path fill="none" stroke="midnightblue" d="M288.122,-112.324C297.526,-104.263 311.744,-92.0765 323.069,-82.3695"/>
<polygon fill="midnightblue" stroke="midnightblue" points="325.379,-84.9993 330.694,-75.8339 320.823,-79.6844 325.379,-84.9993"/>
</g>
<!-- Node15 -->
<g id="node15" class="node"><title>Node15</title>
<polygon fill="white" stroke="#bfbfbf" points="384,-56.5 384,-75.5 448,-75.5 448,-56.5 384,-56.5"/>
<text text-anchor="middle" x="416" y="-63.5" font-family="Helvetica,sans-Serif" font-size="10.00">wdlstring.h</text>
</g>
<!-- Node10&#45;&gt;Node15 -->
<g id="edge19" class="edge"><title>Node10&#45;&gt;Node15</title>
<path fill="none" stroke="midnightblue" d="M299.867,-112.444C322.779,-103.478 358.975,-89.314 384.866,-79.1827"/>
<polygon fill="midnightblue" stroke="midnightblue" points="386.199,-82.4198 394.236,-75.5164 383.648,-75.9011 386.199,-82.4198"/>
</g>
<!-- Node16 -->
<g id="node16" class="node"><title>Node16</title>
<polygon fill="white" stroke="#bfbfbf" points="466,-56.5 466,-75.5 518,-75.5 518,-56.5 466,-56.5"/>
<text text-anchor="middle" x="492" y="-63.5" font-family="Helvetica,sans-Serif" font-size="10.00">mutex.h</text>
</g>
<!-- Node10&#45;&gt;Node16 -->
<g id="edge20" class="edge"><title>Node10&#45;&gt;Node16</title>
<path fill="none" stroke="midnightblue" d="M312.329,-112.428C346.332,-103.925 400.156,-90.4305 455.625,-76.3404"/>
<polygon fill="midnightblue" stroke="midnightblue" points="456.801,-79.6529 465.631,-73.7969 455.077,-72.8687 456.801,-79.6529"/>
</g>
</g>
</svg>
