<?xml version="1.0" encoding="UTF-8" standalone="no"?>
<!DOCTYPE svg PUBLIC "-//W3C//DTD SVG 1.1//EN"
 "http://www.w3.org/Graphics/SVG/1.1/DTD/svg11.dtd">
<!-- Generated by graphviz version 2.36.0 (20140111.2315)
 -->
<!-- Title: IPlugPlatform.h Pages: 1 -->
<svg width="715pt" height="252pt"
 viewBox="0.00 0.00 715.00 252.00" xmlns="http://www.w3.org/2000/svg" xmlns:xlink="http://www.w3.org/1999/xlink">
<g id="graph0" class="graph" transform="scale(1 1) rotate(0) translate(4 248)">
<title>IPlugPlatform.h</title>
<polygon fill="white" stroke="none" points="-4,4 -4,-248 711,-248 711,4 -4,4"/>
<!-- Node1 -->
<g id="node1" class="node"><title>Node1</title>
<polygon fill="#bfbfbf" stroke="black" points="393,-224.5 393,-243.5 477,-243.5 477,-224.5 393,-224.5"/>
<text text-anchor="middle" x="435" y="-231.5" font-family="Helvetica,sans-Serif" font-size="10.00">IPlugPlatform.h</text>
</g>
<!-- Node2 -->
<g id="node2" class="node"><title>Node2</title>
<polygon fill="white" stroke="#bfbfbf" points="0,-56.5 0,-75.5 46,-75.5 46,-56.5 0,-56.5"/>
<text text-anchor="middle" x="23" y="-63.5" font-family="Helvetica,sans-Serif" font-size="10.00">cstring</text>
</g>
<!-- Node1&#45;&gt;Node2 -->
<g id="edge1" class="edge"><title>Node1&#45;&gt;Node2</title>
<path fill="none" stroke="midnightblue" d="M392.935,-228.884C298.178,-218.675 72.642,-188.812 26,-132 15.5927,-119.323 16.0252,-100.119 18.3497,-85.8677"/>
<polygon fill="midnightblue" stroke="midnightblue" points="21.8504,-86.2219 20.4485,-75.7203 14.9955,-84.8041 21.8504,-86.2219"/>
</g>
<!-- Node3 -->
<g id="node3" class="node"><title>Node3</title>
<polygon fill="white" stroke="#bfbfbf" points="661.5,-56.5 661.5,-75.5 706.5,-75.5 706.5,-56.5 661.5,-56.5"/>
<text text-anchor="middle" x="684" y="-63.5" font-family="Helvetica,sans-Serif" font-size="10.00">cstdlib</text>
</g>
<!-- Node1&#45;&gt;Node3 -->
<g id="edge2" class="edge"><title>Node1&#45;&gt;Node3</title>
<path fill="none" stroke="midnightblue" d="M465.675,-224.441C509.686,-210.899 591.341,-180.93 645,-132 659.398,-118.871 670.187,-99.1855 676.726,-84.9196"/>
<polygon fill="midnightblue" stroke="midnightblue" points="679.973,-86.2289 680.726,-75.6608 673.547,-83.4523 679.973,-86.2289"/>
</g>
<!-- Node4 -->
<g id="node4" class="node"><title>Node4</title>
<g id="a_node4"><a xlink:href="_i_plug_logger_8h.html" target="_top" xlink:title="IPlug logging a.k.a tracing functionailty. ">
<polygon fill="white" stroke="black" points="318.5,-168.5 318.5,-187.5 395.5,-187.5 395.5,-168.5 318.5,-168.5"/>
<text text-anchor="middle" x="357" y="-175.5" font-family="Helvetica,sans-Serif" font-size="10.00">IPlugLogger.h</text>
</a>
</g>
</g>
<!-- Node1&#45;&gt;Node4 -->
<g id="edge3" class="edge"><title>Node1&#45;&gt;Node4</title>
<path fill="none" stroke="midnightblue" d="M422.468,-224.324C410.414,-215.979 391.973,-203.212 377.731,-193.352"/>
<polygon fill="midnightblue" stroke="midnightblue" points="379.715,-190.469 369.501,-187.655 375.731,-196.224 379.715,-190.469"/>
</g>
<!-- Node4&#45;&gt;Node2 -->
<g id="edge8" class="edge"><title>Node4&#45;&gt;Node2</title>
<path fill="none" stroke="midnightblue" d="M318.225,-176.549C243.337,-174.883 82.5961,-167.188 42,-132 28.8321,-120.586 24.543,-100.6 23.2654,-85.794"/>
<polygon fill="midnightblue" stroke="midnightblue" points="26.7568,-85.5288 22.7784,-75.7093 19.765,-85.8665 26.7568,-85.5288"/>
</g>
<!-- Node5 -->
<g id="node5" class="node"><title>Node5</title>
<polygon fill="white" stroke="#bfbfbf" points="417.5,-56.5 417.5,-75.5 460.5,-75.5 460.5,-56.5 417.5,-56.5"/>
<text text-anchor="middle" x="439" y="-63.5" font-family="Helvetica,sans-Serif" font-size="10.00">cstdio</text>
</g>
<!-- Node4&#45;&gt;Node5 -->
<g id="edge4" class="edge"><title>Node4&#45;&gt;Node5</title>
<path fill="none" stroke="midnightblue" d="M362.607,-168.428C370.912,-155.841 387.111,-131.715 402,-112 409.238,-102.416 417.723,-92.0402 424.74,-83.67"/>
<polygon fill="midnightblue" stroke="midnightblue" points="427.62,-85.685 431.407,-75.7903 422.276,-81.1633 427.62,-85.685"/>
</g>
<!-- Node6 -->
<g id="node6" class="node"><title>Node6</title>
<polygon fill="white" stroke="#bfbfbf" points="597,-56.5 597,-75.5 643,-75.5 643,-56.5 597,-56.5"/>
<text text-anchor="middle" x="620" y="-63.5" font-family="Helvetica,sans-Serif" font-size="10.00">cctype</text>
</g>
<!-- Node4&#45;&gt;Node6 -->
<g id="edge5" class="edge"><title>Node4&#45;&gt;Node6</title>
<path fill="none" stroke="midnightblue" d="M395.5,-176.445C462.872,-174.571 597.781,-166.492 627,-132 637.862,-119.177 633.818,-99.444 628.477,-85.0831"/>
<polygon fill="midnightblue" stroke="midnightblue" points="631.656,-83.6128 624.553,-75.7512 625.203,-86.3261 631.656,-83.6128"/>
</g>
<!-- Node7 -->
<g id="node7" class="node"><title>Node7</title>
<polygon fill="white" stroke="#bfbfbf" points="241.5,-112.5 241.5,-131.5 290.5,-131.5 290.5,-112.5 241.5,-112.5"/>
<text text-anchor="middle" x="266" y="-119.5" font-family="Helvetica,sans-Serif" font-size="10.00">cstdarg</text>
</g>
<!-- Node4&#45;&gt;Node7 -->
<g id="edge6" class="edge"><title>Node4&#45;&gt;Node7</title>
<path fill="none" stroke="midnightblue" d="M342.379,-168.324C328.051,-159.822 305.987,-146.729 289.251,-136.797"/>
<polygon fill="midnightblue" stroke="midnightblue" points="290.97,-133.748 280.584,-131.655 287.398,-139.768 290.97,-133.748"/>
</g>
<!-- Node8 -->
<g id="node8" class="node"><title>Node8</title>
<polygon fill="white" stroke="#bfbfbf" points="309,-112.5 309,-131.5 355,-131.5 355,-112.5 309,-112.5"/>
<text text-anchor="middle" x="332" y="-119.5" font-family="Helvetica,sans-Serif" font-size="10.00">cstdint</text>
</g>
<!-- Node4&#45;&gt;Node8 -->
<g id="edge7" class="edge"><title>Node4&#45;&gt;Node8</title>
<path fill="none" stroke="midnightblue" d="M352.872,-168.083C349.486,-160.77 344.584,-150.181 340.381,-141.103"/>
<polygon fill="midnightblue" stroke="midnightblue" points="343.429,-139.355 336.051,-131.751 337.077,-142.296 343.429,-139.355"/>
</g>
<!-- Node9 -->
<g id="node9" class="node"><title>Node9</title>
<polygon fill="white" stroke="#bfbfbf" points="411.5,-112.5 411.5,-131.5 452.5,-131.5 452.5,-112.5 411.5,-112.5"/>
<text text-anchor="middle" x="432" y="-119.5" font-family="Helvetica,sans-Serif" font-size="10.00">ctime</text>
</g>
<!-- Node4&#45;&gt;Node9 -->
<g id="edge9" class="edge"><title>Node4&#45;&gt;Node9</title>
<path fill="none" stroke="midnightblue" d="M369.05,-168.324C380.463,-160.107 397.831,-147.602 411.435,-137.807"/>
<polygon fill="midnightblue" stroke="midnightblue" points="413.66,-140.517 419.731,-131.834 409.57,-134.837 413.66,-140.517"/>
</g>
<!-- Node10 -->
<g id="node10" class="node"><title>Node10</title>
<polygon fill="white" stroke="#bfbfbf" points="470.5,-112.5 470.5,-131.5 519.5,-131.5 519.5,-112.5 470.5,-112.5"/>
<text text-anchor="middle" x="495" y="-119.5" font-family="Helvetica,sans-Serif" font-size="10.00">cassert</text>
</g>
<!-- Node4&#45;&gt;Node10 -->
<g id="edge10" class="edge"><title>Node4&#45;&gt;Node10</title>
<path fill="none" stroke="midnightblue" d="M378.867,-168.444C401.779,-159.478 437.975,-145.314 463.866,-135.183"/>
<polygon fill="midnightblue" stroke="midnightblue" points="465.199,-138.42 473.236,-131.516 462.648,-131.901 465.199,-138.42"/>
</g>
<!-- Node11 -->
<g id="node11" class="node"><title>Node11</title>
<polygon fill="white" stroke="#bfbfbf" points="51,-112.5 51,-131.5 115,-131.5 115,-112.5 51,-112.5"/>
<text text-anchor="middle" x="83" y="-119.5" font-family="Helvetica,sans-Serif" font-size="10.00">wdlstring.h</text>
</g>
<!-- Node4&#45;&gt;Node11 -->
<g id="edge11" class="edge"><title>Node4&#45;&gt;Node11</title>
<path fill="none" stroke="midnightblue" d="M318.187,-169.815C273.88,-161.544 198.978,-147.353 125.148,-132.198"/>
<polygon fill="midnightblue" stroke="midnightblue" points="125.713,-128.741 115.213,-130.152 124.301,-135.597 125.713,-128.741"/>
</g>
<!-- Node12 -->
<g id="node12" class="node"><title>Node12</title>
<polygon fill="white" stroke="#bfbfbf" points="133,-112.5 133,-131.5 185,-131.5 185,-112.5 133,-112.5"/>
<text text-anchor="middle" x="159" y="-119.5" font-family="Helvetica,sans-Serif" font-size="10.00">mutex.h</text>
</g>
<!-- Node4&#45;&gt;Node12 -->
<g id="edge12" class="edge"><title>Node4&#45;&gt;Node12</title>
<path fill="none" stroke="midnightblue" d="M325.626,-168.444C290.143,-158.766 232.457,-143.034 195.123,-132.852"/>
<polygon fill="midnightblue" stroke="midnightblue" points="195.737,-129.391 185.168,-130.137 193.895,-136.145 195.737,-129.391"/>
</g>
<!-- Node13 -->
<g id="node13" class="node"><title>Node13</title>
<g id="a_node13"><a xlink:href="_i_plug_constants_8h.html" target="_top" xlink:title="Constant definitions, Types, magic numbers. ">
<polygon fill="white" stroke="black" points="237,-56.5 237,-75.5 329,-75.5 329,-56.5 237,-56.5"/>
<text text-anchor="middle" x="283" y="-63.5" font-family="Helvetica,sans-Serif" font-size="10.00">IPlugConstants.h</text>
</a>
</g>
</g>
<!-- Node4&#45;&gt;Node13 -->
<g id="edge13" class="edge"><title>Node4&#45;&gt;Node13</title>
<path fill="none" stroke="midnightblue" d="M318.322,-174.475C289.297,-170.313 251.363,-159.551 232,-132 219.326,-113.967 240.243,-94.1633 258.991,-81.2117"/>
<polygon fill="midnightblue" stroke="midnightblue" points="261.124,-83.999 267.593,-75.608 257.303,-78.1337 261.124,-83.999"/>
</g>
<!-- Node15 -->
<g id="node15" class="node"><title>Node15</title>
<g id="a_node15"><a xlink:href="_i_plug_utilities_8h.html" target="_top" xlink:title="Utility functions and macros. ">
<polygon fill="white" stroke="black" points="538,-112.5 538,-131.5 618,-131.5 618,-112.5 538,-112.5"/>
<text text-anchor="middle" x="578" y="-119.5" font-family="Helvetica,sans-Serif" font-size="10.00">IPlugUtilities.h</text>
</a>
</g>
</g>
<!-- Node4&#45;&gt;Node15 -->
<g id="edge15" class="edge"><title>Node4&#45;&gt;Node15</title>
<path fill="none" stroke="midnightblue" d="M392.018,-168.444C430.248,-159.102 491.567,-144.119 533.257,-133.933"/>
<polygon fill="midnightblue" stroke="midnightblue" points="534.262,-137.29 543.146,-131.516 532.601,-130.49 534.262,-137.29"/>
</g>
<!-- Node14 -->
<g id="node14" class="node"><title>Node14</title>
<polygon fill="white" stroke="#bfbfbf" points="253.5,-0.5 253.5,-19.5 312.5,-19.5 312.5,-0.5 253.5,-0.5"/>
<text text-anchor="middle" x="283" y="-7.5" font-family="Helvetica,sans-Serif" font-size="10.00">functional</text>
</g>
<!-- Node13&#45;&gt;Node14 -->
<g id="edge14" class="edge"><title>Node13&#45;&gt;Node14</title>
<path fill="none" stroke="midnightblue" d="M283,-56.083C283,-49.0059 283,-38.8611 283,-29.9865"/>
<polygon fill="midnightblue" stroke="midnightblue" points="286.5,-29.751 283,-19.7511 279.5,-29.7511 286.5,-29.751"/>
</g>
<!-- Node15&#45;&gt;Node1 -->
<g id="edge22" class="edge"><title>Node15&#45;&gt;Node1</title>
<path fill="none" stroke="midnightblue" d="M566.831,-131.591C542.549,-150.27 484.701,-194.769 454.347,-218.118"/>
<polygon fill="midnightblue" stroke="midnightblue" points="452.013,-215.497 446.221,-224.368 456.281,-221.046 452.013,-215.497"/>
</g>
<!-- Node15&#45;&gt;Node2 -->
<g id="edge19" class="edge"><title>Node15&#45;&gt;Node2</title>
<path fill="none" stroke="midnightblue" d="M537.933,-113.463C534.578,-112.931 531.234,-112.434 528,-112 351.002,-88.2324 137.359,-73.8729 56.3326,-68.9379"/>
<polygon fill="midnightblue" stroke="midnightblue" points="56.4284,-65.4374 46.2362,-68.3301 56.0078,-72.4247 56.4284,-65.4374"/>
</g>
<!-- Node15&#45;&gt;Node3 -->
<g id="edge18" class="edge"><title>Node15&#45;&gt;Node3</title>
<path fill="none" stroke="midnightblue" d="M595.031,-112.324C612.03,-103.664 638.376,-90.2424 657.993,-80.249"/>
<polygon fill="midnightblue" stroke="midnightblue" points="659.69,-83.3125 667.012,-75.6545 656.512,-77.0752 659.69,-83.3125"/>
</g>
<!-- Node15&#45;&gt;Node5 -->
<g id="edge17" class="edge"><title>Node15&#45;&gt;Node5</title>
<path fill="none" stroke="midnightblue" d="M555.975,-112.444C532.896,-103.478 496.438,-89.314 470.359,-79.1827"/>
<polygon fill="midnightblue" stroke="midnightblue" points="471.511,-75.8753 460.922,-75.5164 468.976,-82.4002 471.511,-75.8753"/>
</g>
<!-- Node15&#45;&gt;Node6 -->
<g id="edge20" class="edge"><title>Node15&#45;&gt;Node6</title>
<path fill="none" stroke="midnightblue" d="M584.935,-112.083C590.929,-104.377 599.752,-93.0333 607.048,-83.6531"/>
<polygon fill="midnightblue" stroke="midnightblue" points="609.817,-85.7934 613.194,-75.7511 604.291,-81.4958 609.817,-85.7934"/>
</g>
<!-- Node15&#45;&gt;Node13 -->
<g id="edge21" class="edge"><title>Node15&#45;&gt;Node13</title>
<path fill="none" stroke="midnightblue" d="M537.908,-113.661C486.636,-104.276 397.548,-87.9681 339.437,-77.3309"/>
<polygon fill="midnightblue" stroke="midnightblue" points="339.787,-73.8368 329.32,-75.4789 338.526,-80.7224 339.787,-73.8368"/>
</g>
<!-- Node16 -->
<g id="node16" class="node"><title>Node16</title>
<polygon fill="white" stroke="#bfbfbf" points="535,-56.5 535,-75.5 579,-75.5 579,-56.5 535,-56.5"/>
<text text-anchor="middle" x="557" y="-63.5" font-family="Helvetica,sans-Serif" font-size="10.00">cmath</text>
</g>
<!-- Node15&#45;&gt;Node16 -->
<g id="edge16" class="edge"><title>Node15&#45;&gt;Node16</title>
<path fill="none" stroke="midnightblue" d="M574.532,-112.083C571.688,-104.77 567.571,-94.1814 564.04,-85.1034"/>
<polygon fill="midnightblue" stroke="midnightblue" points="567.29,-83.8025 560.403,-75.7511 560.766,-86.3397 567.29,-83.8025"/>
</g>
</g>
</svg>
