<?xml version="1.0" encoding="UTF-8" standalone="no"?>
<!DOCTYPE svg PUBLIC "-//W3C//DTD SVG 1.1//EN"
 "http://www.w3.org/Graphics/SVG/1.1/DTD/svg11.dtd">
<!-- Generated by graphviz version 2.36.0 (20140111.2315)
 -->
<!-- Title: IPlugVST3.h Pages: 1 -->
<svg width="1386pt" height="544pt"
 viewBox="0.00 0.00 1386.18 544.00" xmlns="http://www.w3.org/2000/svg" xmlns:xlink="http://www.w3.org/1999/xlink">
<g id="graph0" class="graph" transform="scale(1 1) rotate(0) translate(4 540)">
<title>IPlugVST3.h</title>
<polygon fill="white" stroke="none" points="-4,4 -4,-540 1382.18,-540 1382.18,4 -4,4"/>
<!-- Node1 -->
<g id="node1" class="node"><title>Node1</title>
<polygon fill="#bfbfbf" stroke="black" points="463.311,-516.5 463.311,-535.5 535.311,-535.5 535.311,-516.5 463.311,-516.5"/>
<text text-anchor="middle" x="499.311" y="-523.5" font-family="Helvetica,sans-Serif" font-size="10.00">IPlugVST3.h</text>
</g>
<!-- Node2 -->
<g id="node2" class="node"><title>Node2</title>
<polygon fill="white" stroke="#bfbfbf" points="164.311,-454.5 164.311,-473.5 208.311,-473.5 208.311,-454.5 164.311,-454.5"/>
<text text-anchor="middle" x="186.311" y="-461.5" font-family="Helvetica,sans-Serif" font-size="10.00">vector</text>
</g>
<!-- Node1&#45;&gt;Node2 -->
<g id="edge1" class="edge"><title>Node1&#45;&gt;Node2</title>
<path fill="none" stroke="midnightblue" d="M462.924,-522.603C408.443,-518.257 302.92,-506.9 217.311,-480 215.179,-479.33 213.009,-478.536 210.857,-477.669"/>
<polygon fill="midnightblue" stroke="midnightblue" points="212.272,-474.467 201.717,-473.551 209.397,-480.849 212.272,-474.467"/>
</g>
<!-- Node3 -->
<g id="node3" class="node"><title>Node3</title>
<polygon fill="white" stroke="#bfbfbf" points="226.311,-449 226.311,-479 366.311,-479 366.311,-449 226.311,-449"/>
<text text-anchor="start" x="234.311" y="-467" font-family="Helvetica,sans-Serif" font-size="10.00">public.sdk/source/vst</text>
<text text-anchor="middle" x="296.311" y="-456" font-family="Helvetica,sans-Serif" font-size="10.00">/vstsinglecomponenteffect.h</text>
</g>
<!-- Node1&#45;&gt;Node3 -->
<g id="edge2" class="edge"><title>Node1&#45;&gt;Node3</title>
<path fill="none" stroke="midnightblue" d="M470.226,-516.403C439.934,-507.45 391.686,-493.19 353.685,-481.958"/>
<polygon fill="midnightblue" stroke="midnightblue" points="354.345,-478.503 343.763,-479.025 352.361,-485.216 354.345,-478.503"/>
</g>
<!-- Node4 -->
<g id="node4" class="node"><title>Node4</title>
<polygon fill="white" stroke="#bfbfbf" points="384.311,-449 384.311,-479 494.311,-479 494.311,-449 384.311,-449"/>
<text text-anchor="start" x="392.311" y="-467" font-family="Helvetica,sans-Serif" font-size="10.00">pluginterfaces/vst</text>
<text text-anchor="middle" x="439.311" y="-456" font-family="Helvetica,sans-Serif" font-size="10.00">/ivstprocesscontext.h</text>
</g>
<!-- Node1&#45;&gt;Node4 -->
<g id="edge3" class="edge"><title>Node1&#45;&gt;Node4</title>
<path fill="none" stroke="midnightblue" d="M490.715,-516.403C482.892,-508.581 471.019,-496.708 460.654,-486.342"/>
<polygon fill="midnightblue" stroke="midnightblue" points="462.998,-483.737 453.452,-479.141 458.048,-488.687 462.998,-483.737"/>
</g>
<!-- Node5 -->
<g id="node5" class="node"><title>Node5</title>
<polygon fill="white" stroke="#bfbfbf" points="512.311,-449 512.311,-479 606.311,-479 606.311,-449 512.311,-449"/>
<text text-anchor="start" x="520.311" y="-467" font-family="Helvetica,sans-Serif" font-size="10.00">pluginterfaces/vst</text>
<text text-anchor="middle" x="559.311" y="-456" font-family="Helvetica,sans-Serif" font-size="10.00">/vsttypes.h</text>
</g>
<!-- Node1&#45;&gt;Node5 -->
<g id="edge4" class="edge"><title>Node1&#45;&gt;Node5</title>
<path fill="none" stroke="midnightblue" d="M507.908,-516.403C515.73,-508.581 527.603,-496.708 537.969,-486.342"/>
<polygon fill="midnightblue" stroke="midnightblue" points="540.574,-488.687 545.17,-479.141 535.624,-483.737 540.574,-488.687"/>
</g>
<!-- Node6 -->
<g id="node6" class="node"><title>Node6</title>
<polygon fill="white" stroke="#bfbfbf" points="624.311,-449 624.311,-479 724.311,-479 724.311,-449 624.311,-449"/>
<text text-anchor="start" x="632.311" y="-467" font-family="Helvetica,sans-Serif" font-size="10.00">pluginterfaces/vst</text>
<text text-anchor="middle" x="674.311" y="-456" font-family="Helvetica,sans-Serif" font-size="10.00">/ivstcontextmenu.h</text>
</g>
<!-- Node1&#45;&gt;Node6 -->
<g id="edge5" class="edge"><title>Node1&#45;&gt;Node6</title>
<path fill="none" stroke="midnightblue" d="M524.384,-516.403C550.165,-507.564 591.032,-493.553 623.592,-482.39"/>
<polygon fill="midnightblue" stroke="midnightblue" points="625.08,-485.579 633.404,-479.025 622.809,-478.958 625.08,-485.579"/>
</g>
<!-- Node7 -->
<g id="node7" class="node"><title>Node7</title>
<g id="a_node7"><a xlink:href="_i_plug_base__select_8h_source.html" target="_top" xlink:title="IPlugBase_select.h">
<polygon fill="white" stroke="black" points="742.811,-454.5 742.811,-473.5 843.811,-473.5 843.811,-454.5 742.811,-454.5"/>
<text text-anchor="middle" x="793.311" y="-461.5" font-family="Helvetica,sans-Serif" font-size="10.00">IPlugBase_select.h</text>
</a>
</g>
</g>
<!-- Node1&#45;&gt;Node7 -->
<g id="edge6" class="edge"><title>Node1&#45;&gt;Node7</title>
<path fill="none" stroke="midnightblue" d="M535.516,-518.675C581.609,-510.477 663.63,-495.398 733.311,-480 739.02,-478.738 745.015,-477.335 750.916,-475.907"/>
<polygon fill="midnightblue" stroke="midnightblue" points="751.818,-479.29 760.691,-473.501 750.145,-472.492 751.818,-479.29"/>
</g>
<!-- Node8 -->
<g id="node8" class="node"><title>Node8</title>
<g id="a_node8"><a xlink:href="_i_plug_base_graphics_8h.html" target="_top" xlink:title="An IPlugBase class for an IPlug plug&#45;in that uses IGraphics for it&#39;s UI. ">
<polygon fill="white" stroke="black" points="840.811,-392.5 840.811,-411.5 949.811,-411.5 949.811,-392.5 840.811,-392.5"/>
<text text-anchor="middle" x="895.311" y="-399.5" font-family="Helvetica,sans-Serif" font-size="10.00">IPlugBaseGraphics.h</text>
</a>
</g>
</g>
<!-- Node7&#45;&gt;Node8 -->
<g id="edge7" class="edge"><title>Node7&#45;&gt;Node8</title>
<path fill="none" stroke="midnightblue" d="M807.925,-454.403C824.664,-444.557 852.316,-428.291 872.03,-416.695"/>
<polygon fill="midnightblue" stroke="midnightblue" points="873.879,-419.668 880.724,-411.581 870.33,-413.634 873.879,-419.668"/>
</g>
<!-- Node34 -->
<g id="node34" class="node"><title>Node34</title>
<g id="a_node34"><a xlink:href="_i_plug_processor_8h.html" target="_top" xlink:title="The base class for IPlug Audio Processing. ">
<polygon fill="white" stroke="black" points="385.311,-336.5 385.311,-355.5 477.311,-355.5 477.311,-336.5 385.311,-336.5"/>
<text text-anchor="middle" x="431.311" y="-343.5" font-family="Helvetica,sans-Serif" font-size="10.00">IPlugProcessor.h</text>
</a>
</g>
</g>
<!-- Node7&#45;&gt;Node34 -->
<g id="edge55" class="edge"><title>Node7&#45;&gt;Node34</title>
<path fill="none" stroke="midnightblue" d="M766.692,-454.47C702.755,-433.982 540.442,-381.97 467.63,-358.638"/>
<polygon fill="midnightblue" stroke="midnightblue" points="468.56,-355.261 457.969,-355.542 466.424,-361.927 468.56,-355.261"/>
</g>
<!-- Node39 -->
<g id="node39" class="node"><title>Node39</title>
<g id="a_node39"><a xlink:href="_i_plug_presets_8h.html" target="_top" xlink:title="IPlugPresets.h">
<polygon fill="white" stroke="black" points="752.811,-336.5 752.811,-355.5 833.811,-355.5 833.811,-336.5 752.811,-336.5"/>
<text text-anchor="middle" x="793.311" y="-343.5" font-family="Helvetica,sans-Serif" font-size="10.00">IPlugPresets.h</text>
</a>
</g>
</g>
<!-- Node7&#45;&gt;Node39 -->
<g id="edge72" class="edge"><title>Node7&#45;&gt;Node39</title>
<path fill="none" stroke="midnightblue" d="M793.311,-454.281C793.311,-435.547 793.311,-391.098 793.311,-365.682"/>
<polygon fill="midnightblue" stroke="midnightblue" points="796.811,-365.505 793.311,-355.505 789.811,-365.505 796.811,-365.505"/>
</g>
<!-- Node9 -->
<g id="node9" class="node"><title>Node9</title>
<g id="a_node9"><a xlink:href="_i_plug_base_8h.html" target="_top" xlink:title="The lowest level base class of an IPlug plug&#45;in. ">
<polygon fill="white" stroke="black" points="956.311,-336.5 956.311,-355.5 1026.31,-355.5 1026.31,-336.5 956.311,-336.5"/>
<text text-anchor="middle" x="991.311" y="-343.5" font-family="Helvetica,sans-Serif" font-size="10.00">IPlugBase.h</text>
</a>
</g>
</g>
<!-- Node8&#45;&gt;Node9 -->
<g id="edge8" class="edge"><title>Node8&#45;&gt;Node9</title>
<path fill="none" stroke="midnightblue" d="M910.735,-392.324C925.851,-383.822 949.127,-370.729 966.782,-360.797"/>
<polygon fill="midnightblue" stroke="midnightblue" points="968.926,-363.608 975.925,-355.655 965.494,-357.507 968.926,-363.608"/>
</g>
<!-- Node33 -->
<g id="node33" class="node"><title>Node33</title>
<g id="a_node33"><a xlink:href="_i_plug_delegate_8h_source.html" target="_top" xlink:title="IPlugDelegate.h">
<polygon fill="white" stroke="black" points="852.311,-336.5 852.311,-355.5 938.311,-355.5 938.311,-336.5 852.311,-336.5"/>
<text text-anchor="middle" x="895.311" y="-343.5" font-family="Helvetica,sans-Serif" font-size="10.00">IPlugDelegate.h</text>
</a>
</g>
</g>
<!-- Node8&#45;&gt;Node33 -->
<g id="edge54" class="edge"><title>Node8&#45;&gt;Node33</title>
<path fill="none" stroke="midnightblue" d="M895.311,-392.083C895.311,-385.006 895.311,-374.861 895.311,-365.986"/>
<polygon fill="midnightblue" stroke="midnightblue" points="898.811,-365.751 895.311,-355.751 891.811,-365.751 898.811,-365.751"/>
</g>
<!-- Node10 -->
<g id="node10" class="node"><title>Node10</title>
<polygon fill="white" stroke="#bfbfbf" points="1074.31,-56.5 1074.31,-75.5 1120.31,-75.5 1120.31,-56.5 1074.31,-56.5"/>
<text text-anchor="middle" x="1097.31" y="-63.5" font-family="Helvetica,sans-Serif" font-size="10.00">cstring</text>
</g>
<!-- Node9&#45;&gt;Node10 -->
<g id="edge9" class="edge"><title>Node9&#45;&gt;Node10</title>
<path fill="none" stroke="midnightblue" d="M1026.47,-344.092C1103.53,-341.52 1284.46,-332.137 1335.31,-300 1364.39,-281.625 1377.31,-269.395 1377.31,-235 1377.31,-235 1377.31,-235 1377.31,-177 1377.31,-146.902 1380.77,-132.039 1358.31,-112 1349.84,-104.444 1199.19,-81.7767 1130.71,-71.8011"/>
<polygon fill="midnightblue" stroke="midnightblue" points="1130.86,-68.286 1120.46,-70.3133 1129.85,-75.2134 1130.86,-68.286"/>
</g>
<!-- Node11 -->
<g id="node11" class="node"><title>Node11</title>
<polygon fill="white" stroke="#bfbfbf" points="433.311,-112.5 433.311,-131.5 479.311,-131.5 479.311,-112.5 433.311,-112.5"/>
<text text-anchor="middle" x="456.311" y="-119.5" font-family="Helvetica,sans-Serif" font-size="10.00">cstdint</text>
</g>
<!-- Node9&#45;&gt;Node11 -->
<g id="edge10" class="edge"><title>Node9&#45;&gt;Node11</title>
<path fill="none" stroke="midnightblue" d="M956.305,-337.497C953.27,-336.951 950.241,-336.442 947.311,-336 866.061,-323.75 650.186,-341.574 579.311,-300 515.857,-262.778 477.323,-178.341 462.857,-141.157"/>
<polygon fill="midnightblue" stroke="midnightblue" points="466.067,-139.75 459.275,-131.618 459.513,-142.21 466.067,-139.75"/>
</g>
<!-- Node12 -->
<g id="node12" class="node"><title>Node12</title>
<polygon fill="white" stroke="#bfbfbf" points="799.811,-280.5 799.811,-299.5 848.811,-299.5 848.811,-280.5 799.811,-280.5"/>
<text text-anchor="middle" x="824.311" y="-287.5" font-family="Helvetica,sans-Serif" font-size="10.00">ptrlist.h</text>
</g>
<!-- Node9&#45;&gt;Node12 -->
<g id="edge11" class="edge"><title>Node9&#45;&gt;Node12</title>
<path fill="none" stroke="midnightblue" d="M964.85,-336.444C936.135,-327.159 890.182,-312.3 858.692,-302.117"/>
<polygon fill="midnightblue" stroke="midnightblue" points="859.608,-298.735 849.016,-298.988 857.454,-305.395 859.608,-298.735"/>
</g>
<!-- Node13 -->
<g id="node13" class="node"><title>Node13</title>
<polygon fill="white" stroke="#bfbfbf" points="1297.31,-112.5 1297.31,-131.5 1349.31,-131.5 1349.31,-112.5 1297.31,-112.5"/>
<text text-anchor="middle" x="1323.31" y="-119.5" font-family="Helvetica,sans-Serif" font-size="10.00">mutex.h</text>
</g>
<!-- Node9&#45;&gt;Node13 -->
<g id="edge12" class="edge"><title>Node9&#45;&gt;Node13</title>
<path fill="none" stroke="midnightblue" d="M1026.4,-345.512C1102.14,-345.801 1277.2,-341.819 1315.31,-300 1355.49,-255.905 1339.38,-177.038 1329.21,-141.39"/>
<polygon fill="midnightblue" stroke="midnightblue" points="1332.56,-140.361 1326.32,-131.8 1325.86,-142.385 1332.56,-140.361"/>
</g>
<!-- Node14 -->
<g id="node14" class="node"><title>Node14</title>
<g id="a_node14"><a xlink:href="_i_plug_platform_8h.html" target="_top" xlink:title="Include to get consistently named preprocessor macros for different platforms and logging functionali...">
<polygon fill="white" stroke="black" points="817.311,-224.5 817.311,-243.5 901.311,-243.5 901.311,-224.5 817.311,-224.5"/>
<text text-anchor="middle" x="859.311" y="-231.5" font-family="Helvetica,sans-Serif" font-size="10.00">IPlugPlatform.h</text>
</a>
</g>
</g>
<!-- Node9&#45;&gt;Node14 -->
<g id="edge13" class="edge"><title>Node9&#45;&gt;Node14</title>
<path fill="none" stroke="midnightblue" d="M990.321,-336.257C988.331,-322.562 982.638,-295.969 967.311,-280 951.9,-263.942 929.896,-253.387 909.767,-246.565"/>
<polygon fill="midnightblue" stroke="midnightblue" points="910.662,-243.177 900.073,-243.508 908.557,-249.853 910.662,-243.177"/>
</g>
<!-- Node23 -->
<g id="node23" class="node"><title>Node23</title>
<g id="a_node23"><a xlink:href="_i_plug_constants_8h.html" target="_top" xlink:title="Constant definitions, Types, magic numbers. ">
<polygon fill="white" stroke="black" points="499.311,-56.5 499.311,-75.5 591.311,-75.5 591.311,-56.5 499.311,-56.5"/>
<text text-anchor="middle" x="545.311" y="-63.5" font-family="Helvetica,sans-Serif" font-size="10.00">IPlugConstants.h</text>
</a>
</g>
</g>
<!-- Node9&#45;&gt;Node23 -->
<g id="edge36" class="edge"><title>Node9&#45;&gt;Node23</title>
<path fill="none" stroke="midnightblue" d="M973.863,-336.469C907.092,-303.667 668.235,-184.867 602.311,-132 584.83,-117.981 568.352,-98.2063 557.653,-84.1572"/>
<polygon fill="midnightblue" stroke="midnightblue" points="560.273,-81.8152 551.504,-75.8698 554.652,-85.9863 560.273,-81.8152"/>
</g>
<!-- Node25 -->
<g id="node25" class="node"><title>Node25</title>
<g id="a_node25"><a xlink:href="_i_plug_utilities_8h.html" target="_top" xlink:title="Utility functions and macros. ">
<polygon fill="white" stroke="black" points="611.311,-112.5 611.311,-131.5 691.311,-131.5 691.311,-112.5 611.311,-112.5"/>
<text text-anchor="middle" x="651.311" y="-119.5" font-family="Helvetica,sans-Serif" font-size="10.00">IPlugUtilities.h</text>
</a>
</g>
</g>
<!-- Node9&#45;&gt;Node25 -->
<g id="edge47" class="edge"><title>Node9&#45;&gt;Node25</title>
<path fill="none" stroke="midnightblue" d="M992.996,-336.361C995.086,-323.265 997.263,-298.011 987.311,-280 966.672,-242.647 947.563,-242.923 909.311,-224 860.165,-199.688 841.902,-209.142 791.311,-188 774.064,-180.792 771.113,-176.194 754.311,-168 730.236,-156.26 702.367,-144.172 681.693,-135.485"/>
<polygon fill="midnightblue" stroke="midnightblue" points="683.033,-132.251 672.456,-131.628 680.336,-138.711 683.033,-132.251"/>
</g>
<!-- Node27 -->
<g id="node27" class="node"><title>Node27</title>
<g id="a_node27"><a xlink:href="_i_plug_structs_8h_source.html" target="_top" xlink:title="IPlugStructs.h">
<polygon fill="white" stroke="black" points="587.811,-280.5 587.811,-299.5 666.811,-299.5 666.811,-280.5 587.811,-280.5"/>
<text text-anchor="middle" x="627.311" y="-287.5" font-family="Helvetica,sans-Serif" font-size="10.00">IPlugStructs.h</text>
</a>
</g>
</g>
<!-- Node9&#45;&gt;Node27 -->
<g id="edge37" class="edge"><title>Node9&#45;&gt;Node27</title>
<path fill="none" stroke="midnightblue" d="M956.284,-337.631C953.253,-337.056 950.231,-336.503 947.311,-336 851.996,-319.566 739.93,-304.858 676.904,-297.005"/>
<polygon fill="midnightblue" stroke="midnightblue" points="677.2,-293.515 666.845,-295.758 676.338,-300.461 677.2,-293.515"/>
</g>
<!-- Node30 -->
<g id="node30" class="node"><title>Node30</title>
<g id="a_node30"><a xlink:href="_i_plug_parameter_8h_source.html" target="_top" xlink:title="IPlugParameter.h">
<polygon fill="white" stroke="black" points="1125.31,-168.5 1125.31,-187.5 1217.31,-187.5 1217.31,-168.5 1125.31,-168.5"/>
<text text-anchor="middle" x="1171.31" y="-175.5" font-family="Helvetica,sans-Serif" font-size="10.00">IPlugParameter.h</text>
</a>
</g>
</g>
<!-- Node9&#45;&gt;Node30 -->
<g id="edge48" class="edge"><title>Node9&#45;&gt;Node30</title>
<path fill="none" stroke="midnightblue" d="M1001.79,-336.168C1012.37,-327.189 1029.14,-312.814 1043.31,-300 1084.26,-262.955 1131.13,-217.963 1155.19,-194.671"/>
<polygon fill="midnightblue" stroke="midnightblue" points="1157.7,-197.12 1162.44,-187.646 1152.82,-192.095 1157.7,-197.12"/>
</g>
<!-- Node14&#45;&gt;Node10 -->
<g id="edge14" class="edge"><title>Node14&#45;&gt;Node10</title>
<path fill="none" stroke="midnightblue" d="M892.627,-224.433C917.293,-217.139 951.033,-205.102 977.311,-188 1022.78,-158.406 1064.68,-109.123 1084.8,-83.5426"/>
<polygon fill="midnightblue" stroke="midnightblue" points="1087.63,-85.6065 1090.97,-75.5544 1082.09,-81.325 1087.63,-85.6065"/>
</g>
<!-- Node15 -->
<g id="node15" class="node"><title>Node15</title>
<polygon fill="white" stroke="#bfbfbf" points="951.811,-56.5 951.811,-75.5 996.811,-75.5 996.811,-56.5 951.811,-56.5"/>
<text text-anchor="middle" x="974.311" y="-63.5" font-family="Helvetica,sans-Serif" font-size="10.00">cstdlib</text>
</g>
<!-- Node14&#45;&gt;Node15 -->
<g id="edge15" class="edge"><title>Node14&#45;&gt;Node15</title>
<path fill="none" stroke="midnightblue" d="M882.985,-224.425C916.673,-210.777 977.148,-180.58 1002.31,-132 1010.66,-115.89 1000.06,-96.74 989.596,-83.4161"/>
<polygon fill="midnightblue" stroke="midnightblue" points="992.085,-80.9405 982.939,-75.5923 986.753,-85.4766 992.085,-80.9405"/>
</g>
<!-- Node16 -->
<g id="node16" class="node"><title>Node16</title>
<g id="a_node16"><a xlink:href="_i_plug_logger_8h.html" target="_top" xlink:title="IPlug logging a.k.a tracing functionailty. ">
<polygon fill="white" stroke="black" points="799.811,-168.5 799.811,-187.5 876.811,-187.5 876.811,-168.5 799.811,-168.5"/>
<text text-anchor="middle" x="838.311" y="-175.5" font-family="Helvetica,sans-Serif" font-size="10.00">IPlugLogger.h</text>
</a>
</g>
</g>
<!-- Node14&#45;&gt;Node16 -->
<g id="edge16" class="edge"><title>Node14&#45;&gt;Node16</title>
<path fill="none" stroke="midnightblue" d="M855.843,-224.083C852.999,-216.77 848.882,-206.181 845.351,-197.103"/>
<polygon fill="midnightblue" stroke="midnightblue" points="848.601,-195.803 841.714,-187.751 842.077,-198.34 848.601,-195.803"/>
</g>
<!-- Node16&#45;&gt;Node10 -->
<g id="edge21" class="edge"><title>Node16&#45;&gt;Node10</title>
<path fill="none" stroke="midnightblue" d="M846.559,-168.44C860.463,-154.51 890.028,-126.989 920.311,-112 967.253,-88.7653 1027.31,-76.7789 1064.02,-71.1989"/>
<polygon fill="midnightblue" stroke="midnightblue" points="1064.77,-74.626 1074.17,-69.729 1063.77,-67.6982 1064.77,-74.626"/>
</g>
<!-- Node16&#45;&gt;Node11 -->
<g id="edge20" class="edge"><title>Node16&#45;&gt;Node11</title>
<path fill="none" stroke="midnightblue" d="M799.581,-171.525C724.527,-160.915 560.459,-137.722 489.788,-127.732"/>
<polygon fill="midnightblue" stroke="midnightblue" points="490.059,-124.236 479.668,-126.302 489.079,-131.167 490.059,-124.236"/>
</g>
<!-- Node16&#45;&gt;Node13 -->
<g id="edge25" class="edge"><title>Node16&#45;&gt;Node13</title>
<path fill="none" stroke="midnightblue" d="M876.86,-172.935C949.67,-165.222 1112.4,-147.82 1249.31,-132 1261.64,-130.575 1275.12,-128.955 1287.15,-127.485"/>
<polygon fill="midnightblue" stroke="midnightblue" points="1287.79,-130.933 1297.29,-126.242 1286.94,-123.985 1287.79,-130.933"/>
</g>
<!-- Node17 -->
<g id="node17" class="node"><title>Node17</title>
<polygon fill="white" stroke="#bfbfbf" points="629.811,-56.5 629.811,-75.5 672.811,-75.5 672.811,-56.5 629.811,-56.5"/>
<text text-anchor="middle" x="651.311" y="-63.5" font-family="Helvetica,sans-Serif" font-size="10.00">cstdio</text>
</g>
<!-- Node16&#45;&gt;Node17 -->
<g id="edge17" class="edge"><title>Node16&#45;&gt;Node17</title>
<path fill="none" stroke="midnightblue" d="M824.857,-168.357C805.013,-155.681 766.645,-131.446 733.311,-112 714.433,-100.987 692.741,-89.1163 676.411,-80.3335"/>
<polygon fill="midnightblue" stroke="midnightblue" points="677.945,-77.1849 667.477,-75.5489 674.64,-83.3556 677.945,-77.1849"/>
</g>
<!-- Node18 -->
<g id="node18" class="node"><title>Node18</title>
<polygon fill="white" stroke="#bfbfbf" points="766.311,-56.5 766.311,-75.5 812.311,-75.5 812.311,-56.5 766.311,-56.5"/>
<text text-anchor="middle" x="789.311" y="-63.5" font-family="Helvetica,sans-Serif" font-size="10.00">cctype</text>
</g>
<!-- Node16&#45;&gt;Node18 -->
<g id="edge18" class="edge"><title>Node16&#45;&gt;Node18</title>
<path fill="none" stroke="midnightblue" d="M841.656,-168.093C845.97,-155.089 851.952,-130.449 843.311,-112 837.266,-99.0941 825.499,-88.5985 814.489,-80.9999"/>
<polygon fill="midnightblue" stroke="midnightblue" points="816.255,-77.9748 805.944,-75.5364 812.484,-83.8723 816.255,-77.9748"/>
</g>
<!-- Node19 -->
<g id="node19" class="node"><title>Node19</title>
<polygon fill="white" stroke="#bfbfbf" points="785.811,-112.5 785.811,-131.5 834.811,-131.5 834.811,-112.5 785.811,-112.5"/>
<text text-anchor="middle" x="810.311" y="-119.5" font-family="Helvetica,sans-Serif" font-size="10.00">cstdarg</text>
</g>
<!-- Node16&#45;&gt;Node19 -->
<g id="edge19" class="edge"><title>Node16&#45;&gt;Node19</title>
<path fill="none" stroke="midnightblue" d="M833.688,-168.083C829.855,-160.691 824.287,-149.953 819.547,-140.811"/>
<polygon fill="midnightblue" stroke="midnightblue" points="822.559,-139.018 814.849,-131.751 816.345,-142.24 822.559,-139.018"/>
</g>
<!-- Node20 -->
<g id="node20" class="node"><title>Node20</title>
<polygon fill="white" stroke="#bfbfbf" points="373.811,-112.5 373.811,-131.5 414.811,-131.5 414.811,-112.5 373.811,-112.5"/>
<text text-anchor="middle" x="394.311" y="-119.5" font-family="Helvetica,sans-Serif" font-size="10.00">ctime</text>
</g>
<!-- Node16&#45;&gt;Node20 -->
<g id="edge22" class="edge"><title>Node16&#45;&gt;Node20</title>
<path fill="none" stroke="midnightblue" d="M799.709,-175.168C727.724,-171.242 568.097,-160.145 424.699,-131.689"/>
<polygon fill="midnightblue" stroke="midnightblue" points="425.337,-128.247 414.842,-129.7 423.952,-135.109 425.337,-128.247"/>
</g>
<!-- Node21 -->
<g id="node21" class="node"><title>Node21</title>
<polygon fill="white" stroke="#bfbfbf" points="306.811,-112.5 306.811,-131.5 355.811,-131.5 355.811,-112.5 306.811,-112.5"/>
<text text-anchor="middle" x="331.311" y="-119.5" font-family="Helvetica,sans-Serif" font-size="10.00">cassert</text>
</g>
<!-- Node16&#45;&gt;Node21 -->
<g id="edge23" class="edge"><title>Node16&#45;&gt;Node21</title>
<path fill="none" stroke="midnightblue" d="M799.703,-175.472C720.238,-171.866 532.596,-160.983 366.017,-131.825"/>
<polygon fill="midnightblue" stroke="midnightblue" points="366.547,-128.365 356.089,-130.061 365.322,-135.257 366.547,-128.365"/>
</g>
<!-- Node22 -->
<g id="node22" class="node"><title>Node22</title>
<polygon fill="white" stroke="#bfbfbf" points="929.311,-112.5 929.311,-131.5 993.311,-131.5 993.311,-112.5 929.311,-112.5"/>
<text text-anchor="middle" x="961.311" y="-119.5" font-family="Helvetica,sans-Serif" font-size="10.00">wdlstring.h</text>
</g>
<!-- Node16&#45;&gt;Node22 -->
<g id="edge24" class="edge"><title>Node16&#45;&gt;Node22</title>
<path fill="none" stroke="midnightblue" d="M857.801,-168.444C877.953,-159.596 909.634,-145.687 932.642,-135.586"/>
<polygon fill="midnightblue" stroke="midnightblue" points="934.163,-138.741 941.913,-131.516 931.349,-132.332 934.163,-138.741"/>
</g>
<!-- Node16&#45;&gt;Node23 -->
<g id="edge26" class="edge"><title>Node16&#45;&gt;Node23</title>
<path fill="none" stroke="midnightblue" d="M815.772,-168.403C794.221,-159.937 761.003,-146.237 733.311,-132 718.059,-124.158 716.014,-118.894 700.311,-112 666.426,-97.1228 626.25,-85.619 595.292,-77.9676"/>
<polygon fill="midnightblue" stroke="midnightblue" points="595.712,-74.4683 585.17,-75.5211 594.068,-81.2724 595.712,-74.4683"/>
</g>
<!-- Node16&#45;&gt;Node25 -->
<g id="edge28" class="edge"><title>Node16&#45;&gt;Node25</title>
<path fill="none" stroke="midnightblue" d="M808.68,-168.444C776.811,-159.241 725.978,-144.562 690.747,-134.388"/>
<polygon fill="midnightblue" stroke="midnightblue" points="691.382,-130.928 680.803,-131.516 689.44,-137.653 691.382,-130.928"/>
</g>
<!-- Node24 -->
<g id="node24" class="node"><title>Node24</title>
<polygon fill="white" stroke="#bfbfbf" points="515.811,-0.5 515.811,-19.5 574.811,-19.5 574.811,-0.5 515.811,-0.5"/>
<text text-anchor="middle" x="545.311" y="-7.5" font-family="Helvetica,sans-Serif" font-size="10.00">functional</text>
</g>
<!-- Node23&#45;&gt;Node24 -->
<g id="edge27" class="edge"><title>Node23&#45;&gt;Node24</title>
<path fill="none" stroke="midnightblue" d="M545.311,-56.083C545.311,-49.0059 545.311,-38.8611 545.311,-29.9865"/>
<polygon fill="midnightblue" stroke="midnightblue" points="548.811,-29.751 545.311,-19.7511 541.811,-29.7511 548.811,-29.751"/>
</g>
<!-- Node25&#45;&gt;Node10 -->
<g id="edge32" class="edge"><title>Node25&#45;&gt;Node10</title>
<path fill="none" stroke="midnightblue" d="M691.677,-116.113C778.996,-105.54 984.011,-80.7179 1064.27,-71.0007"/>
<polygon fill="midnightblue" stroke="midnightblue" points="1064.8,-74.4625 1074.3,-69.7858 1063.95,-67.5133 1064.8,-74.4625"/>
</g>
<!-- Node25&#45;&gt;Node14 -->
<g id="edge35" class="edge"><title>Node25&#45;&gt;Node14</title>
<path fill="none" stroke="midnightblue" d="M664.039,-131.582C683.618,-144.602 722.513,-169.76 757.311,-188 780.441,-200.123 807.522,-211.967 827.966,-220.459"/>
<polygon fill="midnightblue" stroke="midnightblue" points="826.842,-223.781 837.422,-224.345 829.503,-217.307 826.842,-223.781"/>
</g>
<!-- Node25&#45;&gt;Node15 -->
<g id="edge31" class="edge"><title>Node25&#45;&gt;Node15</title>
<path fill="none" stroke="midnightblue" d="M691.566,-114.27C756.337,-103.441 882.424,-82.362 941.846,-72.4276"/>
<polygon fill="midnightblue" stroke="midnightblue" points="942.515,-75.8644 951.801,-70.7633 941.361,-68.9603 942.515,-75.8644"/>
</g>
<!-- Node25&#45;&gt;Node17 -->
<g id="edge30" class="edge"><title>Node25&#45;&gt;Node17</title>
<path fill="none" stroke="midnightblue" d="M651.311,-112.083C651.311,-105.006 651.311,-94.8611 651.311,-85.9865"/>
<polygon fill="midnightblue" stroke="midnightblue" points="654.811,-85.751 651.311,-75.7511 647.811,-85.7511 654.811,-85.751"/>
</g>
<!-- Node25&#45;&gt;Node18 -->
<g id="edge33" class="edge"><title>Node25&#45;&gt;Node18</title>
<path fill="none" stroke="midnightblue" d="M673.178,-112.444C696.091,-103.478 732.286,-89.314 758.178,-79.1827"/>
<polygon fill="midnightblue" stroke="midnightblue" points="759.51,-82.4198 767.547,-75.5164 756.959,-75.9011 759.51,-82.4198"/>
</g>
<!-- Node25&#45;&gt;Node23 -->
<g id="edge34" class="edge"><title>Node25&#45;&gt;Node23</title>
<path fill="none" stroke="midnightblue" d="M634.28,-112.324C617.281,-103.664 590.935,-90.2424 571.319,-80.249"/>
<polygon fill="midnightblue" stroke="midnightblue" points="572.799,-77.0752 562.3,-75.6545 569.621,-83.3125 572.799,-77.0752"/>
</g>
<!-- Node26 -->
<g id="node26" class="node"><title>Node26</title>
<polygon fill="white" stroke="#bfbfbf" points="199.311,-56.5 199.311,-75.5 243.311,-75.5 243.311,-56.5 199.311,-56.5"/>
<text text-anchor="middle" x="221.311" y="-63.5" font-family="Helvetica,sans-Serif" font-size="10.00">cmath</text>
</g>
<!-- Node25&#45;&gt;Node26 -->
<g id="edge29" class="edge"><title>Node25&#45;&gt;Node26</title>
<path fill="none" stroke="midnightblue" d="M611.244,-115.968C526.616,-105.341 331.094,-80.7866 253.699,-71.0673"/>
<polygon fill="midnightblue" stroke="midnightblue" points="253.944,-67.5707 243.586,-69.7973 253.072,-74.5161 253.944,-67.5707"/>
</g>
<!-- Node27&#45;&gt;Node14 -->
<g id="edge41" class="edge"><title>Node27&#45;&gt;Node14</title>
<path fill="none" stroke="midnightblue" d="M664.072,-280.444C704.374,-271.063 769.121,-255.993 812.896,-245.804"/>
<polygon fill="midnightblue" stroke="midnightblue" points="813.776,-249.192 822.722,-243.516 812.189,-242.375 813.776,-249.192"/>
</g>
<!-- Node27&#45;&gt;Node22 -->
<g id="edge39" class="edge"><title>Node27&#45;&gt;Node22</title>
<path fill="none" stroke="midnightblue" d="M652.18,-280.461C708.449,-260.949 843.856,-212.868 885.311,-188 908.426,-174.134 931.456,-153.18 946.003,-138.835"/>
<polygon fill="midnightblue" stroke="midnightblue" points="948.594,-141.194 953.159,-131.633 943.628,-136.26 948.594,-141.194"/>
</g>
<!-- Node27&#45;&gt;Node23 -->
<g id="edge40" class="edge"><title>Node27&#45;&gt;Node23</title>
<path fill="none" stroke="midnightblue" d="M621.802,-280.296C616.345,-271.417 608.002,-257.118 602.311,-244 578.06,-188.1 558.584,-118.413 550.025,-85.6553"/>
<polygon fill="midnightblue" stroke="midnightblue" points="553.343,-84.5051 547.463,-75.692 546.564,-86.2486 553.343,-84.5051"/>
</g>
<!-- Node28 -->
<g id="node28" class="node"><title>Node28</title>
<polygon fill="white" stroke="#bfbfbf" points="611.311,-224.5 611.311,-243.5 667.311,-243.5 667.311,-224.5 611.311,-224.5"/>
<text text-anchor="middle" x="639.311" y="-231.5" font-family="Helvetica,sans-Serif" font-size="10.00">algorithm</text>
</g>
<!-- Node27&#45;&gt;Node28 -->
<g id="edge38" class="edge"><title>Node27&#45;&gt;Node28</title>
<path fill="none" stroke="midnightblue" d="M629.293,-280.083C630.883,-272.927 633.17,-262.635 635.158,-253.691"/>
<polygon fill="midnightblue" stroke="midnightblue" points="638.614,-254.272 637.366,-243.751 631.78,-252.754 638.614,-254.272"/>
</g>
<!-- Node29 -->
<g id="node29" class="node"><title>Node29</title>
<g id="a_node29"><a xlink:href="_i_plug_midi_8h_source.html" target="_top" xlink:title="IPlugMidi.h">
<polygon fill="white" stroke="black" points="268.811,-168.5 268.811,-187.5 333.811,-187.5 333.811,-168.5 268.811,-168.5"/>
<text text-anchor="middle" x="301.311" y="-175.5" font-family="Helvetica,sans-Serif" font-size="10.00">IPlugMidi.h</text>
</a>
</g>
</g>
<!-- Node27&#45;&gt;Node29 -->
<g id="edge42" class="edge"><title>Node27&#45;&gt;Node29</title>
<path fill="none" stroke="midnightblue" d="M602.002,-280.46C544.23,-260.966 402.546,-213.159 336.398,-190.839"/>
<polygon fill="midnightblue" stroke="midnightblue" points="337.423,-187.491 326.829,-187.61 335.185,-194.124 337.423,-187.491"/>
</g>
<!-- Node29&#45;&gt;Node11 -->
<g id="edge44" class="edge"><title>Node29&#45;&gt;Node11</title>
<path fill="none" stroke="midnightblue" d="M325.871,-168.444C352.139,-159.292 393.949,-144.726 423.131,-134.559"/>
<polygon fill="midnightblue" stroke="midnightblue" points="424.589,-137.758 432.88,-131.163 422.286,-131.148 424.589,-137.758"/>
</g>
<!-- Node29&#45;&gt;Node21 -->
<g id="edge43" class="edge"><title>Node29&#45;&gt;Node21</title>
<path fill="none" stroke="midnightblue" d="M306.265,-168.083C310.415,-160.613 316.464,-149.724 321.578,-140.52"/>
<polygon fill="midnightblue" stroke="midnightblue" points="324.653,-142.192 326.449,-131.751 318.533,-138.793 324.653,-142.192"/>
</g>
<!-- Node29&#45;&gt;Node23 -->
<g id="edge45" class="edge"><title>Node29&#45;&gt;Node23</title>
<path fill="none" stroke="midnightblue" d="M297.573,-168.255C292.371,-154.557 284.995,-127.961 298.311,-112 322.132,-83.4468 423.921,-72.965 489.165,-69.1494"/>
<polygon fill="midnightblue" stroke="midnightblue" points="489.513,-72.6357 499.306,-68.5925 489.129,-65.6463 489.513,-72.6357"/>
</g>
<!-- Node29&#45;&gt;Node25 -->
<g id="edge46" class="edge"><title>Node29&#45;&gt;Node25</title>
<path fill="none" stroke="midnightblue" d="M333.924,-171.968C395.226,-162.51 528.016,-142.023 600.904,-130.777"/>
<polygon fill="midnightblue" stroke="midnightblue" points="601.858,-134.171 611.208,-129.187 600.791,-127.253 601.858,-134.171"/>
</g>
<!-- Node30&#45;&gt;Node10 -->
<g id="edge49" class="edge"><title>Node30&#45;&gt;Node10</title>
<path fill="none" stroke="midnightblue" d="M1165.5,-168.368C1153.29,-150.215 1124.76,-107.802 1108.74,-83.9902"/>
<polygon fill="midnightblue" stroke="midnightblue" points="1111.58,-81.935 1103.09,-75.5914 1105.77,-85.8423 1111.58,-81.935"/>
</g>
<!-- Node30&#45;&gt;Node22 -->
<g id="edge50" class="edge"><title>Node30&#45;&gt;Node22</title>
<path fill="none" stroke="midnightblue" d="M1138.04,-168.444C1101.54,-159.06 1042.91,-143.983 1003.29,-133.794"/>
<polygon fill="midnightblue" stroke="midnightblue" points="1003.95,-130.352 993.398,-131.251 1002.21,-137.131 1003.95,-130.352"/>
</g>
<!-- Node30&#45;&gt;Node25 -->
<g id="edge51" class="edge"><title>Node30&#45;&gt;Node25</title>
<path fill="none" stroke="midnightblue" d="M1125.16,-172.208C1027.94,-162.111 802.698,-138.721 701.792,-128.242"/>
<polygon fill="midnightblue" stroke="midnightblue" points="701.865,-124.731 691.557,-127.179 701.142,-131.694 701.865,-124.731"/>
</g>
<!-- Node31 -->
<g id="node31" class="node"><title>Node31</title>
<g id="a_node31"><a xlink:href="_i_plug_easing_8h.html" target="_top" xlink:title="Easing functions, based on Warren Moore&#39;s AHEasing library https://github.com/warrenm/AHEasing See he...">
<polygon fill="white" stroke="black" points="1163.81,-112.5 1163.81,-131.5 1240.81,-131.5 1240.81,-112.5 1163.81,-112.5"/>
<text text-anchor="middle" x="1202.31" y="-119.5" font-family="Helvetica,sans-Serif" font-size="10.00">IPlugEasing.h</text>
</a>
</g>
</g>
<!-- Node30&#45;&gt;Node31 -->
<g id="edge52" class="edge"><title>Node30&#45;&gt;Node31</title>
<path fill="none" stroke="midnightblue" d="M1176.43,-168.083C1180.72,-160.613 1186.97,-149.724 1192.25,-140.52"/>
<polygon fill="midnightblue" stroke="midnightblue" points="1195.34,-142.166 1197.29,-131.751 1189.27,-138.681 1195.34,-142.166"/>
</g>
<!-- Node32 -->
<g id="node32" class="node"><title>Node32</title>
<polygon fill="white" stroke="#bfbfbf" points="1178.81,-56.5 1178.81,-75.5 1225.81,-75.5 1225.81,-56.5 1178.81,-56.5"/>
<text text-anchor="middle" x="1202.31" y="-63.5" font-family="Helvetica,sans-Serif" font-size="10.00">math.h</text>
</g>
<!-- Node31&#45;&gt;Node32 -->
<g id="edge53" class="edge"><title>Node31&#45;&gt;Node32</title>
<path fill="none" stroke="midnightblue" d="M1202.31,-112.083C1202.31,-105.006 1202.31,-94.8611 1202.31,-85.9865"/>
<polygon fill="midnightblue" stroke="midnightblue" points="1205.81,-85.751 1202.31,-75.7511 1198.81,-85.7511 1205.81,-85.751"/>
</g>
<!-- Node34&#45;&gt;Node10 -->
<g id="edge56" class="edge"><title>Node34&#45;&gt;Node10</title>
<path fill="none" stroke="midnightblue" d="M477.552,-339.68C534.74,-332.664 634.875,-318.953 719.311,-300 730.048,-297.59 899.217,-248.383 909.311,-244 987.933,-209.863 1015.08,-200.719 1066.31,-132 1077.04,-117.605 1085.49,-98.9056 1090.84,-85.261"/>
<polygon fill="midnightblue" stroke="midnightblue" points="1094.23,-86.1734 1094.45,-75.5807 1087.67,-83.7278 1094.23,-86.1734"/>
</g>
<!-- Node34&#45;&gt;Node11 -->
<g id="edge57" class="edge"><title>Node34&#45;&gt;Node11</title>
<path fill="none" stroke="midnightblue" d="M415.528,-336.467C403.108,-328.769 386.706,-316.179 379.311,-300 365.27,-269.279 377.212,-257.713 379.311,-224 380.87,-198.966 372.947,-189.226 386.311,-168 395.13,-153.994 410.074,-143.511 423.895,-136.204"/>
<polygon fill="midnightblue" stroke="midnightblue" points="425.755,-139.19 433.196,-131.648 422.675,-132.904 425.755,-139.19"/>
</g>
<!-- Node34&#45;&gt;Node12 -->
<g id="edge58" class="edge"><title>Node34&#45;&gt;Node12</title>
<path fill="none" stroke="midnightblue" d="M477.359,-340.637C545.117,-333.881 675.531,-319.594 785.311,-300 786.765,-299.741 788.246,-299.462 789.74,-299.17"/>
<polygon fill="midnightblue" stroke="midnightblue" points="790.565,-302.573 799.63,-297.089 789.124,-295.723 790.565,-302.573"/>
</g>
<!-- Node34&#45;&gt;Node14 -->
<g id="edge59" class="edge"><title>Node34&#45;&gt;Node14</title>
<path fill="none" stroke="midnightblue" d="M477.662,-338.671C527.104,-331.406 607.476,-318.117 675.311,-300 730.512,-285.258 792.835,-261.731 828.941,-247.391"/>
<polygon fill="midnightblue" stroke="midnightblue" points="830.418,-250.57 838.402,-243.605 827.817,-244.071 830.418,-250.57"/>
</g>
<!-- Node34&#45;&gt;Node23 -->
<g id="edge60" class="edge"><title>Node34&#45;&gt;Node23</title>
<path fill="none" stroke="midnightblue" d="M410.32,-336.433C360.676,-314.671 241.562,-252.905 260.311,-168 266.228,-141.205 264.534,-128.696 286.311,-112 317.296,-88.245 422.556,-76.1422 488.967,-70.7273"/>
<polygon fill="midnightblue" stroke="midnightblue" points="489.581,-74.1899 499.275,-69.9149 489.031,-67.2115 489.581,-74.1899"/>
</g>
<!-- Node34&#45;&gt;Node25 -->
<g id="edge62" class="edge"><title>Node34&#45;&gt;Node25</title>
<path fill="none" stroke="midnightblue" d="M439.935,-336.297C472.992,-302.94 591.928,-182.923 635.322,-139.135"/>
<polygon fill="midnightblue" stroke="midnightblue" points="637.954,-141.45 642.507,-131.884 632.982,-136.523 637.954,-141.45"/>
</g>
<!-- Node34&#45;&gt;Node27 -->
<g id="edge61" class="edge"><title>Node34&#45;&gt;Node27</title>
<path fill="none" stroke="midnightblue" d="M462.368,-336.444C495.915,-327.201 549.508,-312.436 586.452,-302.257"/>
<polygon fill="midnightblue" stroke="midnightblue" points="587.689,-305.547 596.4,-299.516 585.829,-298.798 587.689,-305.547"/>
</g>
<!-- Node35 -->
<g id="node35" class="node"><title>Node35</title>
<g id="a_node35"><a xlink:href="_n_chan_delay_8h_source.html" target="_top" xlink:title="NChanDelay.h">
<polygon fill="white" stroke="black" points="164.811,-280.5 164.811,-299.5 245.811,-299.5 245.811,-280.5 164.811,-280.5"/>
<text text-anchor="middle" x="205.311" y="-287.5" font-family="Helvetica,sans-Serif" font-size="10.00">NChanDelay.h</text>
</a>
</g>
</g>
<!-- Node34&#45;&gt;Node35 -->
<g id="edge63" class="edge"><title>Node34&#45;&gt;Node35</title>
<path fill="none" stroke="midnightblue" d="M395.501,-336.444C356.324,-327.083 293.435,-312.056 250.796,-301.868"/>
<polygon fill="midnightblue" stroke="midnightblue" points="251.494,-298.436 240.954,-299.516 249.867,-305.245 251.494,-298.436"/>
</g>
<!-- Node36 -->
<g id="node36" class="node"><title>Node36</title>
<g id="a_node36"><a xlink:href="_i_plug_processor_8cpp_source.html" target="_top" xlink:title="IPlugProcessor.cpp">
<polygon fill="white" stroke="black" points="76.3112,-168.5 76.3112,-187.5 178.311,-187.5 178.311,-168.5 76.3112,-168.5"/>
<text text-anchor="middle" x="127.311" y="-175.5" font-family="Helvetica,sans-Serif" font-size="10.00">IPlugProcessor.cpp</text>
</a>
</g>
</g>
<!-- Node34&#45;&gt;Node36 -->
<g id="edge64" class="edge"><title>Node34&#45;&gt;Node36</title>
<path fill="none" stroke="midnightblue" d="M385.31,-343.727C313.669,-340.742 180.664,-331.002 147.311,-300 118.791,-273.491 116.056,-224.325 120.076,-197.55"/>
<polygon fill="midnightblue" stroke="midnightblue" points="123.541,-198.081 122.157,-187.577 116.688,-196.651 123.541,-198.081"/>
</g>
<!-- Node36&#45;&gt;Node17 -->
<g id="edge66" class="edge"><title>Node36&#45;&gt;Node17</title>
<path fill="none" stroke="midnightblue" d="M98.4697,-168.491C64.9232,-157.225 16.8327,-135.967 39.3112,-112 82.0405,-66.4407 538.294,-83.4388 600.311,-76 606.488,-75.2592 613.051,-74.2614 619.34,-73.1997"/>
<polygon fill="midnightblue" stroke="midnightblue" points="620.316,-76.5812 629.55,-71.3866 619.092,-69.689 620.316,-76.5812"/>
</g>
<!-- Node36&#45;&gt;Node20 -->
<g id="edge67" class="edge"><title>Node36&#45;&gt;Node20</title>
<path fill="none" stroke="midnightblue" d="M178.495,-168.861C224.553,-161.182 294.235,-148.687 363.904,-131.881"/>
<polygon fill="midnightblue" stroke="midnightblue" points="364.847,-135.253 373.731,-129.481 363.187,-128.453 364.847,-135.253"/>
</g>
<!-- Node36&#45;&gt;Node21 -->
<g id="edge68" class="edge"><title>Node36&#45;&gt;Node21</title>
<path fill="none" stroke="midnightblue" d="M159.636,-168.444C197.073,-158.534 258.497,-142.274 296.828,-132.128"/>
<polygon fill="midnightblue" stroke="midnightblue" points="297.746,-135.506 306.517,-129.563 295.955,-128.739 297.746,-135.506"/>
</g>
<!-- Node36&#45;&gt;Node26 -->
<g id="edge65" class="edge"><title>Node36&#45;&gt;Node26</title>
<path fill="none" stroke="midnightblue" d="M76.8383,-168.483C33.8879,-159.036 -17.37,-141.151 6.31117,-112 28.9665,-84.112 134.761,-72.8979 189.024,-68.9212"/>
<polygon fill="midnightblue" stroke="midnightblue" points="189.416,-72.4026 199.15,-68.2196 188.932,-65.4193 189.416,-72.4026"/>
</g>
<!-- Node36&#45;&gt;Node34 -->
<g id="edge71" class="edge"><title>Node36&#45;&gt;Node34</title>
<path fill="none" stroke="midnightblue" d="M130.778,-187.577C133.801,-209.815 132.717,-269.704 165.311,-300 195.308,-327.882 305.912,-338.567 374.778,-342.606"/>
<polygon fill="midnightblue" stroke="midnightblue" points="374.858,-346.116 385.037,-343.177 375.247,-339.127 374.858,-346.116"/>
</g>
<!-- Node37 -->
<g id="node37" class="node"><title>Node37</title>
<polygon fill="white" stroke="#bfbfbf" points="48.3112,-112.5 48.3112,-131.5 116.311,-131.5 116.311,-112.5 48.3112,-112.5"/>
<text text-anchor="middle" x="82.3112" y="-119.5" font-family="Helvetica,sans-Serif" font-size="10.00">wdlendian.h</text>
</g>
<!-- Node36&#45;&gt;Node37 -->
<g id="edge69" class="edge"><title>Node36&#45;&gt;Node37</title>
<path fill="none" stroke="midnightblue" d="M119.88,-168.083C113.459,-160.377 104.006,-149.033 96.1887,-139.653"/>
<polygon fill="midnightblue" stroke="midnightblue" points="98.6944,-137.193 89.6037,-131.751 93.3168,-141.674 98.6944,-137.193"/>
</g>
<!-- Node38 -->
<g id="node38" class="node"><title>Node38</title>
<polygon fill="white" stroke="#bfbfbf" points="134.811,-112.5 134.811,-131.5 211.811,-131.5 211.811,-112.5 134.811,-112.5"/>
<text text-anchor="middle" x="173.311" y="-119.5" font-family="Helvetica,sans-Serif" font-size="10.00">wdl_base64.h</text>
</g>
<!-- Node36&#45;&gt;Node38 -->
<g id="edge70" class="edge"><title>Node36&#45;&gt;Node38</title>
<path fill="none" stroke="midnightblue" d="M134.907,-168.083C141.539,-160.298 151.332,-148.801 159.369,-139.367"/>
<polygon fill="midnightblue" stroke="midnightblue" points="162.036,-141.633 165.857,-131.751 156.707,-137.094 162.036,-141.633"/>
</g>
<!-- Node39&#45;&gt;Node10 -->
<g id="edge73" class="edge"><title>Node39&#45;&gt;Node10</title>
<path fill="none" stroke="midnightblue" d="M827.635,-336.45C919.275,-313.036 1166.77,-245.77 1226.31,-188 1251.64,-163.425 1270.43,-140.275 1249.31,-112 1235.07,-92.9327 1170.7,-79.0903 1130.43,-72.1154"/>
<polygon fill="midnightblue" stroke="midnightblue" points="1130.95,-68.6541 1120.51,-70.4511 1129.79,-75.5576 1130.95,-68.6541"/>
</g>
<!-- Node39&#45;&gt;Node11 -->
<g id="edge74" class="edge"><title>Node39&#45;&gt;Node11</title>
<path fill="none" stroke="midnightblue" d="M752.781,-342.918C681.16,-338.592 535.767,-326.721 493.311,-300 441.643,-267.481 454.633,-229.045 455.311,-168 455.407,-159.396 455.605,-149.869 455.8,-141.804"/>
<polygon fill="midnightblue" stroke="midnightblue" points="459.304,-141.713 456.063,-131.626 452.306,-141.532 459.304,-141.713"/>
</g>
<!-- Node39&#45;&gt;Node12 -->
<g id="edge75" class="edge"><title>Node39&#45;&gt;Node12</title>
<path fill="none" stroke="midnightblue" d="M798.43,-336.083C802.719,-328.613 808.969,-317.724 814.253,-308.52"/>
<polygon fill="midnightblue" stroke="midnightblue" points="817.344,-310.166 819.287,-299.751 811.273,-306.681 817.344,-310.166"/>
</g>
<!-- Node39&#45;&gt;Node13 -->
<g id="edge76" class="edge"><title>Node39&#45;&gt;Node13</title>
<path fill="none" stroke="midnightblue" d="M833.92,-337.356C837.092,-336.861 840.25,-336.401 843.311,-336 891.288,-329.707 1240.29,-331.159 1277.31,-300 1324.44,-260.335 1326.55,-179.137 1324.82,-142.135"/>
<polygon fill="midnightblue" stroke="midnightblue" points="1328.29,-141.545 1324.17,-131.783 1321.3,-141.982 1328.29,-141.545"/>
</g>
<!-- Node39&#45;&gt;Node14 -->
<g id="edge77" class="edge"><title>Node39&#45;&gt;Node14</title>
<path fill="none" stroke="midnightblue" d="M814.325,-336.431C829.206,-329.135 848.095,-317.098 857.311,-300 864.928,-285.869 864.701,-267.383 862.993,-253.74"/>
<polygon fill="midnightblue" stroke="midnightblue" points="866.408,-252.93 861.35,-243.62 859.498,-254.051 866.408,-252.93"/>
</g>
<!-- Node39&#45;&gt;Node23 -->
<g id="edge78" class="edge"><title>Node39&#45;&gt;Node23</title>
<path fill="none" stroke="midnightblue" d="M752.576,-342.756C707.901,-338.895 635.139,-328.415 579.311,-300 540.89,-280.445 507.311,-278.111 507.311,-235 507.311,-235 507.311,-235 507.311,-177 507.311,-142.813 523.912,-105.764 535.168,-84.5707"/>
<polygon fill="midnightblue" stroke="midnightblue" points="538.259,-86.2151 540.027,-75.769 532.13,-82.832 538.259,-86.2151"/>
</g>
<!-- Node39&#45;&gt;Node25 -->
<g id="edge80" class="edge"><title>Node39&#45;&gt;Node25</title>
<path fill="none" stroke="midnightblue" d="M787.745,-336.297C766.63,-303.286 691.227,-185.404 662.519,-140.522"/>
<polygon fill="midnightblue" stroke="midnightblue" points="665.33,-138.422 656.994,-131.884 659.434,-142.194 665.33,-138.422"/>
</g>
<!-- Node39&#45;&gt;Node27 -->
<g id="edge79" class="edge"><title>Node39&#45;&gt;Node27</title>
<path fill="none" stroke="midnightblue" d="M767.008,-336.444C738.96,-327.32 694.367,-312.813 663.127,-302.651"/>
<polygon fill="midnightblue" stroke="midnightblue" points="664.084,-299.282 653.491,-299.516 661.918,-305.938 664.084,-299.282"/>
</g>
<!-- Node39&#45;&gt;Node30 -->
<g id="edge81" class="edge"><title>Node39&#45;&gt;Node30</title>
<path fill="none" stroke="midnightblue" d="M812.838,-336.425C875.052,-309.103 1068.84,-224.001 1142.5,-191.652"/>
<polygon fill="midnightblue" stroke="midnightblue" points="1143.93,-194.849 1151.67,-187.624 1141.11,-188.44 1143.93,-194.849"/>
</g>
</g>
</svg>
